<?xml version="1.0" encoding="utf-8" standalone="no"?>
<!DOCTYPE svg PUBLIC "-//W3C//DTD SVG 1.1//EN"
  "http://www.w3.org/Graphics/SVG/1.1/DTD/svg11.dtd">
<svg xmlns:xlink="http://www.w3.org/1999/xlink" width="840.288954pt" height="454.799344pt" viewBox="0 0 840.288954 454.799344" xmlns="http://www.w3.org/2000/svg" version="1.1">
 <metadata>
  <rdf:RDF xmlns:dc="http://purl.org/dc/elements/1.1/" xmlns:cc="http://creativecommons.org/ns#" xmlns:rdf="http://www.w3.org/1999/02/22-rdf-syntax-ns#">
   <cc:Work>
    <dc:type rdf:resource="http://purl.org/dc/dcmitype/StillImage"/>
    <dc:date>2026-06-24T23:01:55.741732</dc:date>
    <dc:format>image/svg+xml</dc:format>
    <dc:creator>
     <cc:Agent>
      <dc:title>Matplotlib v3.10.8, https://matplotlib.org/</dc:title>
     </cc:Agent>
    </dc:creator>
   </cc:Work>
  </rdf:RDF>
 </metadata>
 <defs>
  <style type="text/css">*{stroke-linejoin: round; stroke-linecap: butt}</style>
 </defs>
 <g id="figure_1">
  <g id="patch_1">
   <path d="M 0 454.799344 
L 840.288954 454.799344 
L 840.288954 -0 
L 0 -0 
z
" style="fill: #fcfcfd"/>
  </g>
  <g id="axes_1">
   <g id="patch_2">
    <path d="M 65.232 412.092 
L 824.112 412.092 
L 824.112 99.108 
L 65.232 99.108 
z
" style="fill: #ffffff"/>
   </g>
   <g id="matplotlib.axis_1">
    <g id="xtick_1">
     <g id="text_1">
      <!-- 2019 -->
      <g style="fill: #6f768a" transform="translate(122.08742 428.786375) scale(0.09 -0.09)">
       <defs>
        <path id="MicrosoftYaHei-32" d="M 2666 3572 
Q 2666 3963 2419 4186 
Q 2172 4409 1747 4409 
Q 1447 4409 1140 4256 
Q 834 4103 569 3819 
L 569 4413 
Q 806 4659 1107 4790 
Q 1409 4922 1816 4922 
Q 2472 4922 2872 4570 
Q 3272 4219 3272 3619 
Q 3272 3084 3026 2693 
Q 2781 2303 2188 1894 
Q 1581 1475 1376 1294 
Q 1172 1113 1090 947 
Q 1009 781 1009 544 
L 3416 544 
L 3416 0 
L 372 0 
L 372 241 
Q 372 659 486 951 
Q 600 1244 862 1520 
Q 1125 1797 1681 2184 
Q 2250 2584 2458 2886 
Q 2666 3188 2666 3572 
z
" transform="scale(0.015625)"/>
        <path id="MicrosoftYaHei-30" d="M 284 2325 
Q 284 3606 709 4264 
Q 1134 4922 1941 4922 
Q 3478 4922 3478 2441 
Q 3478 1216 3045 567 
Q 2613 -81 1831 -81 
Q 1094 -81 689 534 
Q 284 1150 284 2325 
z
M 909 2353 
Q 909 425 1888 425 
Q 2850 425 2850 2384 
Q 2850 4413 1906 4413 
Q 909 4413 909 2353 
z
" transform="scale(0.015625)"/>
        <path id="MicrosoftYaHei-31" d="M 1781 0 
L 1781 4141 
Q 1638 3997 1295 3819 
Q 953 3641 663 3569 
L 663 4169 
Q 1047 4275 1484 4508 
Q 1922 4741 2156 4947 
L 2388 4947 
L 2388 0 
L 1781 0 
z
" transform="scale(0.015625)"/>
        <path id="MicrosoftYaHei-39" d="M 578 656 
Q 978 425 1441 425 
Q 2091 425 2448 937 
Q 2806 1450 2806 2394 
Q 2800 2388 2794 2394 
Q 2475 1788 1722 1788 
Q 1113 1788 713 2206 
Q 313 2625 313 3294 
Q 313 4006 750 4464 
Q 1188 4922 1884 4922 
Q 2606 4922 3012 4355 
Q 3419 3788 3419 2703 
Q 3419 1363 2894 641 
Q 2369 -81 1441 -81 
Q 931 -81 578 84 
L 578 656 
z
M 931 3372 
Q 931 2884 1181 2598 
Q 1431 2313 1872 2313 
Q 2253 2313 2512 2573 
Q 2772 2834 2772 3206 
Q 2772 3728 2514 4070 
Q 2256 4413 1834 4413 
Q 1444 4413 1187 4116 
Q 931 3819 931 3372 
z
" transform="scale(0.015625)"/>
       </defs>
       <use xlink:href="#MicrosoftYaHei-32"/>
       <use xlink:href="#MicrosoftYaHei-30" transform="translate(58.642578 0)"/>
       <use xlink:href="#MicrosoftYaHei-31" transform="translate(117.285156 0)"/>
       <use xlink:href="#MicrosoftYaHei-39" transform="translate(175.927734 0)"/>
      </g>
     </g>
    </g>
    <g id="xtick_2">
     <g id="text_2">
      <!-- 2020 -->
      <g style="fill: #6f768a" transform="translate(220.566177 428.786375) scale(0.09 -0.09)">
       <use xlink:href="#MicrosoftYaHei-32"/>
       <use xlink:href="#MicrosoftYaHei-30" transform="translate(58.642578 0)"/>
       <use xlink:href="#MicrosoftYaHei-32" transform="translate(117.285156 0)"/>
       <use xlink:href="#MicrosoftYaHei-30" transform="translate(175.927734 0)"/>
      </g>
     </g>
    </g>
    <g id="xtick_3">
     <g id="text_3">
      <!-- 2021 -->
      <g style="fill: #6f768a" transform="translate(319.314739 428.786375) scale(0.09 -0.09)">
       <use xlink:href="#MicrosoftYaHei-32"/>
       <use xlink:href="#MicrosoftYaHei-30" transform="translate(58.642578 0)"/>
       <use xlink:href="#MicrosoftYaHei-32" transform="translate(117.285156 0)"/>
       <use xlink:href="#MicrosoftYaHei-31" transform="translate(175.927734 0)"/>
      </g>
     </g>
    </g>
    <g id="xtick_4">
     <g id="text_4">
      <!-- 2022 -->
      <g style="fill: #6f768a" transform="translate(417.793496 428.786375) scale(0.09 -0.09)">
       <use xlink:href="#MicrosoftYaHei-32"/>
       <use xlink:href="#MicrosoftYaHei-30" transform="translate(58.642578 0)"/>
       <use xlink:href="#MicrosoftYaHei-32" transform="translate(117.285156 0)"/>
       <use xlink:href="#MicrosoftYaHei-32" transform="translate(175.927734 0)"/>
      </g>
     </g>
    </g>
    <g id="xtick_5">
     <g id="text_5">
      <!-- 2023 -->
      <g style="fill: #6f768a" transform="translate(516.272253 428.786375) scale(0.09 -0.09)">
       <defs>
        <path id="MicrosoftYaHei-33" d="M 447 809 
Q 944 425 1569 425 
Q 2069 425 2361 670 
Q 2653 916 2653 1328 
Q 2653 2247 1338 2247 
L 934 2247 
L 934 2753 
L 1319 2753 
Q 2484 2753 2484 3616 
Q 2484 4413 1594 4413 
Q 1084 4413 634 4069 
L 634 4647 
Q 1109 4922 1744 4922 
Q 2363 4922 2738 4598 
Q 3113 4275 3113 3759 
Q 3113 2809 2144 2538 
L 2144 2525 
Q 2669 2469 2973 2155 
Q 3278 1841 3278 1372 
Q 3278 719 2808 319 
Q 2338 -81 1556 -81 
Q 869 -81 447 175 
L 447 809 
z
" transform="scale(0.015625)"/>
       </defs>
       <use xlink:href="#MicrosoftYaHei-32"/>
       <use xlink:href="#MicrosoftYaHei-30" transform="translate(58.642578 0)"/>
       <use xlink:href="#MicrosoftYaHei-32" transform="translate(117.285156 0)"/>
       <use xlink:href="#MicrosoftYaHei-33" transform="translate(175.927734 0)"/>
      </g>
     </g>
    </g>
    <g id="xtick_6">
     <g id="text_6">
      <!-- 2024 -->
      <g style="fill: #6f768a" transform="translate(614.75101 428.786375) scale(0.09 -0.09)">
       <defs>
        <path id="MicrosoftYaHei-34" d="M 2906 4841 
L 2906 1644 
L 3631 1644 
L 3631 1138 
L 2906 1138 
L 2906 0 
L 2313 0 
L 2313 1138 
L 53 1138 
L 53 1616 
Q 656 2294 1265 3178 
Q 1875 4063 2272 4841 
L 2906 4841 
z
M 741 1644 
L 2313 1644 
L 2313 3950 
Q 1988 3366 1616 2817 
Q 1244 2269 741 1644 
z
" transform="scale(0.015625)"/>
       </defs>
       <use xlink:href="#MicrosoftYaHei-32"/>
       <use xlink:href="#MicrosoftYaHei-30" transform="translate(58.642578 0)"/>
       <use xlink:href="#MicrosoftYaHei-32" transform="translate(117.285156 0)"/>
       <use xlink:href="#MicrosoftYaHei-34" transform="translate(175.927734 0)"/>
      </g>
     </g>
    </g>
    <g id="xtick_7">
     <g id="text_7">
      <!-- 2025 -->
      <g style="fill: #6f768a" transform="translate(713.499572 428.786375) scale(0.09 -0.09)">
       <defs>
        <path id="MicrosoftYaHei-35" d="M 3294 1494 
Q 3294 784 2823 350 
Q 2353 -84 1559 -84 
Q 878 -84 544 119 
L 544 744 
Q 1034 425 1544 425 
Q 2050 425 2361 704 
Q 2672 984 2672 1447 
Q 2672 1909 2348 2167 
Q 2025 2425 1434 2425 
Q 978 2425 613 2384 
L 791 4841 
L 3053 4841 
L 3053 4303 
L 1306 4303 
L 1206 2931 
L 1647 2950 
Q 2416 2950 2855 2567 
Q 3294 2184 3294 1494 
z
" transform="scale(0.015625)"/>
       </defs>
       <use xlink:href="#MicrosoftYaHei-32"/>
       <use xlink:href="#MicrosoftYaHei-30" transform="translate(58.642578 0)"/>
       <use xlink:href="#MicrosoftYaHei-32" transform="translate(117.285156 0)"/>
       <use xlink:href="#MicrosoftYaHei-35" transform="translate(175.927734 0)"/>
      </g>
     </g>
    </g>
    <g id="xtick_8">
     <g id="text_8">
      <!-- 2026 -->
      <g style="fill: #6f768a" transform="translate(811.978329 428.786375) scale(0.09 -0.09)">
       <defs>
        <path id="MicrosoftYaHei-36" d="M 3181 4219 
Q 2803 4413 2391 4413 
Q 1763 4413 1381 3866 
Q 1000 3319 994 2372 
L 1009 2372 
Q 1353 3038 2106 3038 
Q 2734 3038 3109 2628 
Q 3484 2219 3484 1541 
Q 3484 831 3051 375 
Q 2619 -81 1947 -81 
Q 1209 -81 789 495 
Q 369 1072 369 2131 
Q 369 3413 920 4167 
Q 1472 4922 2372 4922 
Q 2888 4922 3181 4781 
L 3181 4219 
z
M 1031 1584 
Q 1031 1106 1286 765 
Q 1541 425 1963 425 
Q 2363 425 2613 719 
Q 2863 1013 2863 1475 
Q 2863 1975 2627 2253 
Q 2391 2531 1956 2531 
Q 1544 2531 1287 2250 
Q 1031 1969 1031 1584 
z
" transform="scale(0.015625)"/>
       </defs>
       <use xlink:href="#MicrosoftYaHei-32"/>
       <use xlink:href="#MicrosoftYaHei-30" transform="translate(58.642578 0)"/>
       <use xlink:href="#MicrosoftYaHei-32" transform="translate(117.285156 0)"/>
       <use xlink:href="#MicrosoftYaHei-36" transform="translate(175.927734 0)"/>
      </g>
     </g>
    </g>
    <g id="text_9">
     <!-- 评价起点 -->
     <g style="fill: #1f2430" transform="translate(420.672 444.616219) scale(0.12 -0.12)">
      <defs>
       <path id="MicrosoftYaHei-8bc4" d="M 1750 2028 
L 3775 2028 
L 3775 4447 
L 2088 4447 
L 2088 4916 
L 5975 4916 
L 5975 4447 
L 4281 4447 
L 4281 2028 
L 6319 2028 
L 6319 1553 
L 4281 1553 
L 4281 -797 
L 3775 -797 
L 3775 1553 
L 1750 1553 
L 1750 2028 
z
M 2219 866 
Q 2238 553 2263 328 
Q 1456 -228 963 -628 
L 669 -209 
Q 881 -28 881 303 
L 881 2716 
L 100 2716 
L 100 3166 
L 1363 3166 
L 1363 241 
Q 1775 534 2219 866 
z
M 4725 2697 
Q 5175 3309 5563 4028 
L 6019 3753 
Q 5613 3091 5125 2403 
L 4725 2697 
z
M 2056 3791 
L 2450 4028 
Q 2919 3353 3288 2716 
L 2850 2434 
Q 2431 3209 2056 3791 
z
M 738 5222 
Q 1419 4522 1725 4184 
L 1288 3816 
Q 894 4334 356 4891 
L 738 5222 
z
" transform="scale(0.015625)"/>
       <path id="MicrosoftYaHei-4ef7" d="M 69 2166 
Q 913 3484 1388 5259 
L 1875 5109 
Q 1650 4391 1400 3766 
L 1400 -853 
L 931 -853 
L 931 2722 
Q 619 2109 281 1622 
Q 163 1959 69 2166 
z
M 4319 5272 
L 4231 5116 
Q 5006 3747 6319 3141 
Q 6156 2953 5975 2703 
Q 4706 3434 3975 4703 
Q 3275 3497 2000 2603 
Q 1850 2822 1675 2997 
Q 3088 3884 3756 5272 
L 4319 5272 
z
M 3313 2828 
L 3313 1941 
Q 3313 134 2275 -891 
Q 2094 -709 1856 -541 
Q 2825 347 2825 1897 
L 2825 2828 
L 3313 2828 
z
M 4631 2828 
L 5119 2828 
L 5119 -828 
L 4631 -828 
L 4631 2828 
z
" transform="scale(0.015625)"/>
       <path id="MicrosoftYaHei-8d77" d="M 106 -266 
Q 581 566 619 2241 
L 1081 2216 
Q 1059 1606 991 1091 
Q 1225 588 1613 288 
L 1613 2616 
L 138 2616 
L 138 3072 
L 1419 3072 
L 1419 3966 
L 356 3966 
L 356 4422 
L 1419 4422 
L 1419 5309 
L 1906 5309 
L 1906 4422 
L 2956 4422 
L 2956 3966 
L 1906 3966 
L 1906 3072 
L 3081 3072 
L 3081 2616 
L 2081 2616 
L 2081 1647 
L 3031 1647 
L 3031 1197 
L 2081 1197 
L 2081 16 
Q 2516 -159 3081 -166 
Q 4613 -178 6313 -141 
Q 6200 -422 6138 -634 
Q 4169 -641 2950 -616 
Q 1438 -588 884 478 
Q 709 -341 381 -853 
Q 256 -559 106 -266 
z
M 3850 1347 
Q 3850 1009 4188 1009 
L 5263 1009 
Q 5613 1009 5656 1316 
Q 5694 1597 5725 2153 
Q 5919 2066 6200 1972 
Q 6144 1366 6088 1084 
Q 5994 559 5325 559 
L 4069 559 
Q 3375 559 3375 1272 
L 3375 3303 
L 5325 3303 
L 5325 4491 
L 3256 4491 
L 3256 4941 
L 5800 4941 
L 5800 2641 
L 5325 2641 
L 5325 2853 
L 3850 2853 
L 3850 1347 
z
" transform="scale(0.015625)"/>
       <path id="MicrosoftYaHei-70b9" d="M 900 3378 
L 2863 3378 
L 2863 5341 
L 3388 5341 
L 3388 4591 
L 6181 4591 
L 6181 4141 
L 3388 4141 
L 3388 3378 
L 5600 3378 
L 5600 991 
L 5088 991 
L 5088 1253 
L 1413 1253 
L 1413 991 
L 900 991 
L 900 3378 
z
M 5088 2928 
L 1413 2928 
L 1413 1703 
L 5088 1703 
L 5088 2928 
z
M 5425 847 
Q 5925 91 6225 -516 
L 5750 -772 
Q 5438 -134 4994 622 
L 5425 847 
z
M 1369 553 
Q 894 -303 531 -791 
L 100 -484 
Q 506 53 931 803 
L 1369 553 
z
M 2413 828 
Q 2700 197 2913 -503 
L 2406 -678 
Q 2213 3 1963 666 
L 2413 828 
z
M 3906 872 
Q 4206 253 4450 -422 
L 3956 -616 
Q 3781 -53 3450 697 
L 3906 872 
z
" transform="scale(0.015625)"/>
      </defs>
      <use xlink:href="#MicrosoftYaHei-8bc4"/>
      <use xlink:href="#MicrosoftYaHei-4ef7" transform="translate(100 0)"/>
      <use xlink:href="#MicrosoftYaHei-8d77" transform="translate(200 0)"/>
      <use xlink:href="#MicrosoftYaHei-70b9" transform="translate(300 0)"/>
     </g>
    </g>
   </g>
   <g id="matplotlib.axis_2">
    <g id="ytick_1">
     <g id="line2d_1">
      <path d="M 65.232 397.865455 
L 824.112 397.865455 
" clip-path="url(#p166d038bde)" style="fill: none; stroke: #e6e8f0; stroke-width: 0.75; stroke-linecap: round"/>
     </g>
     <g id="text_10">
      <!-- 0.0 -->
      <g style="fill: #6f768a" transform="translate(43.009656 401.462642) scale(0.09 -0.09)">
       <defs>
        <path id="MicrosoftYaHei-2e" d="M 372 322 
Q 372 491 487 606 
Q 603 722 775 722 
Q 950 722 1065 605 
Q 1181 488 1181 322 
Q 1181 159 1065 42 
Q 950 -75 772 -75 
Q 600 -75 486 42 
Q 372 159 372 322 
z
" transform="scale(0.015625)"/>
       </defs>
       <use xlink:href="#MicrosoftYaHei-30"/>
       <use xlink:href="#MicrosoftYaHei-2e" transform="translate(58.642578 0)"/>
       <use xlink:href="#MicrosoftYaHei-30" transform="translate(82.714844 0)"/>
      </g>
     </g>
    </g>
    <g id="ytick_2">
     <g id="line2d_2">
      <path d="M 65.232 361.902146 
L 824.112 361.902146 
" clip-path="url(#p166d038bde)" style="fill: none; stroke: #e6e8f0; stroke-width: 0.75; stroke-linecap: round"/>
     </g>
     <g id="text_11">
      <!-- 0.2 -->
      <g style="fill: #6f768a" transform="translate(43.009656 365.499334) scale(0.09 -0.09)">
       <use xlink:href="#MicrosoftYaHei-30"/>
       <use xlink:href="#MicrosoftYaHei-2e" transform="translate(58.642578 0)"/>
       <use xlink:href="#MicrosoftYaHei-32" transform="translate(82.714844 0)"/>
      </g>
     </g>
    </g>
    <g id="ytick_3">
     <g id="line2d_3">
      <path d="M 65.232 325.938838 
L 824.112 325.938838 
" clip-path="url(#p166d038bde)" style="fill: none; stroke: #e6e8f0; stroke-width: 0.75; stroke-linecap: round"/>
     </g>
     <g id="text_12">
      <!-- 0.4 -->
      <g style="fill: #6f768a" transform="translate(43.009656 329.536025) scale(0.09 -0.09)">
       <use xlink:href="#MicrosoftYaHei-30"/>
       <use xlink:href="#MicrosoftYaHei-2e" transform="translate(58.642578 0)"/>
       <use xlink:href="#MicrosoftYaHei-34" transform="translate(82.714844 0)"/>
      </g>
     </g>
    </g>
    <g id="ytick_4">
     <g id="line2d_4">
      <path d="M 65.232 289.975529 
L 824.112 289.975529 
" clip-path="url(#p166d038bde)" style="fill: none; stroke: #e6e8f0; stroke-width: 0.75; stroke-linecap: round"/>
     </g>
     <g id="text_13">
      <!-- 0.6 -->
      <g style="fill: #6f768a" transform="translate(43.009656 293.572717) scale(0.09 -0.09)">
       <use xlink:href="#MicrosoftYaHei-30"/>
       <use xlink:href="#MicrosoftYaHei-2e" transform="translate(58.642578 0)"/>
       <use xlink:href="#MicrosoftYaHei-36" transform="translate(82.714844 0)"/>
      </g>
     </g>
    </g>
    <g id="ytick_5">
     <g id="line2d_5">
      <path d="M 65.232 254.012221 
L 824.112 254.012221 
" clip-path="url(#p166d038bde)" style="fill: none; stroke: #e6e8f0; stroke-width: 0.75; stroke-linecap: round"/>
     </g>
     <g id="text_14">
      <!-- 0.8 -->
      <g style="fill: #6f768a" transform="translate(43.009656 257.609408) scale(0.09 -0.09)">
       <defs>
        <path id="MicrosoftYaHei-38" d="M 306 1350 
Q 306 1769 556 2122 
Q 806 2475 1200 2625 
Q 884 2803 700 3081 
Q 516 3359 516 3684 
Q 516 4028 692 4312 
Q 869 4597 1183 4759 
Q 1497 4922 1875 4922 
Q 2256 4922 2572 4761 
Q 2888 4600 3063 4315 
Q 3238 4031 3238 3684 
Q 3238 3366 3058 3086 
Q 2878 2806 2559 2625 
Q 2953 2472 3200 2119 
Q 3447 1766 3447 1350 
Q 3447 938 3250 611 
Q 3053 284 2690 103 
Q 2328 -78 1875 -78 
Q 1425 -78 1065 103 
Q 706 284 506 612 
Q 306 941 306 1350 
z
M 906 1378 
Q 906 947 1172 687 
Q 1438 428 1878 428 
Q 2309 428 2582 692 
Q 2856 956 2856 1378 
Q 2856 1778 2579 2051 
Q 2303 2325 1878 2325 
Q 1456 2325 1181 2058 
Q 906 1791 906 1378 
z
M 1081 3634 
Q 1081 3309 1312 3076 
Q 1544 2844 1878 2844 
Q 2206 2844 2445 3078 
Q 2684 3313 2684 3634 
Q 2684 3963 2454 4191 
Q 2225 4419 1878 4419 
Q 1534 4419 1307 4195 
Q 1081 3972 1081 3634 
z
" transform="scale(0.015625)"/>
       </defs>
       <use xlink:href="#MicrosoftYaHei-30"/>
       <use xlink:href="#MicrosoftYaHei-2e" transform="translate(58.642578 0)"/>
       <use xlink:href="#MicrosoftYaHei-38" transform="translate(82.714844 0)"/>
      </g>
     </g>
    </g>
    <g id="ytick_6">
     <g id="line2d_6">
      <path d="M 65.232 218.048912 
L 824.112 218.048912 
" clip-path="url(#p166d038bde)" style="fill: none; stroke: #e6e8f0; stroke-width: 0.75; stroke-linecap: round"/>
     </g>
     <g id="text_15">
      <!-- 1.0 -->
      <g style="fill: #6f768a" transform="translate(43.009656 221.6461) scale(0.09 -0.09)">
       <use xlink:href="#MicrosoftYaHei-31"/>
       <use xlink:href="#MicrosoftYaHei-2e" transform="translate(58.642578 0)"/>
       <use xlink:href="#MicrosoftYaHei-30" transform="translate(82.714844 0)"/>
      </g>
     </g>
    </g>
    <g id="ytick_7">
     <g id="line2d_7">
      <path d="M 65.232 182.085604 
L 824.112 182.085604 
" clip-path="url(#p166d038bde)" style="fill: none; stroke: #e6e8f0; stroke-width: 0.75; stroke-linecap: round"/>
     </g>
     <g id="text_16">
      <!-- 1.2 -->
      <g style="fill: #6f768a" transform="translate(43.009656 185.682792) scale(0.09 -0.09)">
       <use xlink:href="#MicrosoftYaHei-31"/>
       <use xlink:href="#MicrosoftYaHei-2e" transform="translate(58.642578 0)"/>
       <use xlink:href="#MicrosoftYaHei-32" transform="translate(82.714844 0)"/>
      </g>
     </g>
    </g>
    <g id="ytick_8">
     <g id="line2d_8">
      <path d="M 65.232 146.122296 
L 824.112 146.122296 
" clip-path="url(#p166d038bde)" style="fill: none; stroke: #e6e8f0; stroke-width: 0.75; stroke-linecap: round"/>
     </g>
     <g id="text_17">
      <!-- 1.4 -->
      <g style="fill: #6f768a" transform="translate(43.009656 149.719483) scale(0.09 -0.09)">
       <use xlink:href="#MicrosoftYaHei-31"/>
       <use xlink:href="#MicrosoftYaHei-2e" transform="translate(58.642578 0)"/>
       <use xlink:href="#MicrosoftYaHei-34" transform="translate(82.714844 0)"/>
      </g>
     </g>
    </g>
    <g id="ytick_9">
     <g id="line2d_9">
      <path d="M 65.232 110.158987 
L 824.112 110.158987 
" clip-path="url(#p166d038bde)" style="fill: none; stroke: #e6e8f0; stroke-width: 0.75; stroke-linecap: round"/>
     </g>
     <g id="text_18">
      <!-- 1.6 -->
      <g style="fill: #6f768a" transform="translate(43.009656 113.756175) scale(0.09 -0.09)">
       <use xlink:href="#MicrosoftYaHei-31"/>
       <use xlink:href="#MicrosoftYaHei-2e" transform="translate(58.642578 0)"/>
       <use xlink:href="#MicrosoftYaHei-36" transform="translate(82.714844 0)"/>
      </g>
     </g>
    </g>
    <g id="text_19">
     <!-- Sharpe -->
     <g style="fill: #1f2430" transform="translate(36.026531 275.6025) rotate(-90) scale(0.12 -0.12)">
      <defs>
       <path id="MicrosoftYaHei-53" d="M 400 909 
Q 622 716 994 591 
Q 1366 466 1700 466 
Q 2719 466 2719 1191 
Q 2719 1394 2609 1556 
Q 2500 1719 2309 1844 
Q 2119 1969 1594 2228 
Q 866 2591 634 2902 
Q 403 3213 403 3613 
Q 403 4216 887 4569 
Q 1372 4922 2109 4922 
Q 2831 4922 3169 4747 
L 3169 4066 
Q 2731 4369 2063 4369 
Q 1619 4369 1339 4183 
Q 1059 3997 1059 3666 
Q 1059 3372 1253 3187 
Q 1447 3003 2094 2684 
Q 2806 2344 3090 2003 
Q 3375 1663 3375 1238 
Q 3375 600 2912 259 
Q 2450 -81 1628 -81 
Q 1341 -81 958 -1 
Q 575 78 400 197 
L 400 909 
z
" transform="scale(0.015625)"/>
       <path id="MicrosoftYaHei-68" d="M 3466 0 
L 2856 0 
L 2856 1988 
Q 2856 3031 2081 3031 
Q 1684 3031 1421 2726 
Q 1159 2422 1159 1959 
L 1159 0 
L 547 0 
L 547 5116 
L 1159 5116 
L 1159 2888 
L 1172 2888 
Q 1569 3538 2300 3538 
Q 3466 3538 3466 2128 
L 3466 0 
z
" transform="scale(0.015625)"/>
       <path id="MicrosoftYaHei-61" d="M 628 3216 
Q 1144 3538 1819 3538 
Q 3069 3538 3069 2225 
L 3069 0 
L 2463 0 
L 2463 534 
L 2447 534 
Q 2088 -81 1388 -81 
Q 884 -81 587 191 
Q 291 463 291 925 
Q 291 1894 1438 2053 
L 2463 2197 
Q 2463 3044 1763 3044 
Q 1141 3044 628 2625 
L 628 3216 
z
M 1653 1625 
Q 1228 1569 1067 1412 
Q 906 1256 906 975 
Q 906 728 1081 572 
Q 1256 416 1544 416 
Q 1944 416 2203 697 
Q 2463 978 2463 1403 
L 2463 1734 
L 1653 1625 
z
" transform="scale(0.015625)"/>
       <path id="MicrosoftYaHei-72" d="M 2400 2850 
Q 2247 2959 1978 2959 
Q 1622 2959 1390 2626 
Q 1159 2294 1159 1750 
L 1159 0 
L 547 0 
L 547 3456 
L 1159 3456 
L 1159 2753 
L 1172 2753 
Q 1434 3516 2078 3516 
Q 2288 3516 2400 3469 
L 2400 2850 
z
" transform="scale(0.015625)"/>
       <path id="MicrosoftYaHei-70" d="M 1159 488 
L 1159 -1591 
L 547 -1591 
L 547 3456 
L 1159 3456 
L 1159 2859 
L 1172 2859 
Q 1578 3538 2359 3538 
Q 3022 3538 3398 3073 
Q 3775 2609 3775 1828 
Q 3775 966 3348 442 
Q 2922 -81 2200 -81 
Q 1534 -81 1172 488 
L 1159 488 
z
M 1156 1425 
Q 1156 1003 1428 714 
Q 1700 425 2109 425 
Q 2597 425 2872 800 
Q 3147 1175 3147 1838 
Q 3147 2397 2890 2714 
Q 2634 3031 2191 3031 
Q 1738 3031 1447 2709 
Q 1156 2388 1156 1884 
L 1156 1425 
z
" transform="scale(0.015625)"/>
       <path id="MicrosoftYaHei-65" d="M 3363 1572 
L 944 1572 
Q 959 1019 1246 717 
Q 1534 416 2050 416 
Q 2631 416 3116 788 
L 3116 241 
Q 2659 -81 1906 -81 
Q 1156 -81 736 394 
Q 316 869 316 1713 
Q 316 2506 777 3022 
Q 1238 3538 1922 3538 
Q 2600 3538 2981 3102 
Q 3363 2666 3363 1881 
L 3363 1572 
z
M 2750 2063 
Q 2747 2531 2528 2787 
Q 2309 3044 1913 3044 
Q 1547 3044 1280 2772 
Q 1013 2500 944 2063 
L 2750 2063 
z
" transform="scale(0.015625)"/>
      </defs>
      <use xlink:href="#MicrosoftYaHei-53"/>
      <use xlink:href="#MicrosoftYaHei-68" transform="translate(57.714844 0)"/>
      <use xlink:href="#MicrosoftYaHei-61" transform="translate(119.287109 0)"/>
      <use xlink:href="#MicrosoftYaHei-72" transform="translate(174.560547 0)"/>
      <use xlink:href="#MicrosoftYaHei-70" transform="translate(212.744141 0)"/>
      <use xlink:href="#MicrosoftYaHei-65" transform="translate(276.611328 0)"/>
     </g>
    </g>
   </g>
   <g id="line2d_10">
    <path d="M 99.726545 210.013665 
L 148.561217 211.641531 
L 198.205303 203.630996 
L 247.309779 201.231301 
L 296.953864 238.223846 
L 345.788536 240.786367 
L 395.432621 252.497935 
L 444.267293 242.809956 
L 493.911379 231.749258 
L 542.74605 175.362438 
L 592.390136 147.067572 
L 641.494612 171.278136 
L 691.138697 113.334545 
L 739.973369 116.365001 
L 789.617455 151.555419 
" clip-path="url(#p166d038bde)" style="fill: none; stroke: #5477c4; stroke-width: 1.45; stroke-linecap: round"/>
    <defs>
     <path id="m658ed58ce5" d="M 0 3 
C 0.795609 3 1.55874 2.683901 2.12132 2.12132 
C 2.683901 1.55874 3 0.795609 3 0 
C 3 -0.795609 2.683901 -1.55874 2.12132 -2.12132 
C 1.55874 -2.683901 0.795609 -3 0 -3 
C -0.795609 -3 -1.55874 -2.683901 -2.12132 -2.12132 
C -2.683901 -1.55874 -3 -0.795609 -3 0 
C -3 0.795609 -2.683901 1.55874 -2.12132 2.12132 
C -1.55874 2.683901 -0.795609 3 0 3 
z
" style="stroke: #5477c4"/>
    </defs>
    <g clip-path="url(#p166d038bde)">
     <use xlink:href="#m658ed58ce5" x="99.726545" y="210.013665" style="fill: #5477c4; stroke: #5477c4"/>
     <use xlink:href="#m658ed58ce5" x="148.561217" y="211.641531" style="fill: #5477c4; stroke: #5477c4"/>
     <use xlink:href="#m658ed58ce5" x="198.205303" y="203.630996" style="fill: #5477c4; stroke: #5477c4"/>
     <use xlink:href="#m658ed58ce5" x="247.309779" y="201.231301" style="fill: #5477c4; stroke: #5477c4"/>
     <use xlink:href="#m658ed58ce5" x="296.953864" y="238.223846" style="fill: #5477c4; stroke: #5477c4"/>
     <use xlink:href="#m658ed58ce5" x="345.788536" y="240.786367" style="fill: #5477c4; stroke: #5477c4"/>
     <use xlink:href="#m658ed58ce5" x="395.432621" y="252.497935" style="fill: #5477c4; stroke: #5477c4"/>
     <use xlink:href="#m658ed58ce5" x="444.267293" y="242.809956" style="fill: #5477c4; stroke: #5477c4"/>
     <use xlink:href="#m658ed58ce5" x="493.911379" y="231.749258" style="fill: #5477c4; stroke: #5477c4"/>
     <use xlink:href="#m658ed58ce5" x="542.74605" y="175.362438" style="fill: #5477c4; stroke: #5477c4"/>
     <use xlink:href="#m658ed58ce5" x="592.390136" y="147.067572" style="fill: #5477c4; stroke: #5477c4"/>
     <use xlink:href="#m658ed58ce5" x="641.494612" y="171.278136" style="fill: #5477c4; stroke: #5477c4"/>
     <use xlink:href="#m658ed58ce5" x="691.138697" y="113.334545" style="fill: #5477c4; stroke: #5477c4"/>
     <use xlink:href="#m658ed58ce5" x="739.973369" y="116.365001" style="fill: #5477c4; stroke: #5477c4"/>
     <use xlink:href="#m658ed58ce5" x="789.617455" y="151.555419" style="fill: #5477c4; stroke: #5477c4"/>
    </g>
   </g>
   <g id="line2d_11">
    <path d="M 99.726545 316.127967 
L 148.561217 321.38537 
L 198.205303 324.130819 
L 247.309779 325.090385 
L 296.953864 356.957752 
L 345.788536 375.086341 
L 395.432621 354.637466 
L 444.267293 339.754158 
L 493.911379 304.455148 
L 542.74605 292.274011 
L 592.390136 257.961012 
L 641.494612 205.606411 
L 691.138697 154.569446 
L 739.973369 134.270855 
L 789.617455 226.654646 
" clip-path="url(#p166d038bde)" style="fill: none; stroke-dasharray: 2.9,2.9; stroke-dashoffset: 0; stroke: #464c55; stroke-width: 1.45"/>
    <defs>
     <path id="m67459ad188" d="M 0 3 
C 0.795609 3 1.55874 2.683901 2.12132 2.12132 
C 2.683901 1.55874 3 0.795609 3 0 
C 3 -0.795609 2.683901 -1.55874 2.12132 -2.12132 
C 1.55874 -2.683901 0.795609 -3 0 -3 
C -0.795609 -3 -1.55874 -2.683901 -2.12132 -2.12132 
C -2.683901 -1.55874 -3 -0.795609 -3 0 
C -3 0.795609 -2.683901 1.55874 -2.12132 2.12132 
C -1.55874 2.683901 -0.795609 3 0 3 
z
" style="stroke: #464c55"/>
    </defs>
    <g clip-path="url(#p166d038bde)">
     <use xlink:href="#m67459ad188" x="99.726545" y="316.127967" style="fill: #464c55; stroke: #464c55"/>
     <use xlink:href="#m67459ad188" x="148.561217" y="321.38537" style="fill: #464c55; stroke: #464c55"/>
     <use xlink:href="#m67459ad188" x="198.205303" y="324.130819" style="fill: #464c55; stroke: #464c55"/>
     <use xlink:href="#m67459ad188" x="247.309779" y="325.090385" style="fill: #464c55; stroke: #464c55"/>
     <use xlink:href="#m67459ad188" x="296.953864" y="356.957752" style="fill: #464c55; stroke: #464c55"/>
     <use xlink:href="#m67459ad188" x="345.788536" y="375.086341" style="fill: #464c55; stroke: #464c55"/>
     <use xlink:href="#m67459ad188" x="395.432621" y="354.637466" style="fill: #464c55; stroke: #464c55"/>
     <use xlink:href="#m67459ad188" x="444.267293" y="339.754158" style="fill: #464c55; stroke: #464c55"/>
     <use xlink:href="#m67459ad188" x="493.911379" y="304.455148" style="fill: #464c55; stroke: #464c55"/>
     <use xlink:href="#m67459ad188" x="542.74605" y="292.274011" style="fill: #464c55; stroke: #464c55"/>
     <use xlink:href="#m67459ad188" x="592.390136" y="257.961012" style="fill: #464c55; stroke: #464c55"/>
     <use xlink:href="#m67459ad188" x="641.494612" y="205.606411" style="fill: #464c55; stroke: #464c55"/>
     <use xlink:href="#m67459ad188" x="691.138697" y="154.569446" style="fill: #464c55; stroke: #464c55"/>
     <use xlink:href="#m67459ad188" x="739.973369" y="134.270855" style="fill: #464c55; stroke: #464c55"/>
     <use xlink:href="#m67459ad188" x="789.617455" y="226.654646" style="fill: #464c55; stroke: #464c55"/>
    </g>
   </g>
   <g id="line2d_12">
    <path d="M 99.726545 292.074531 
L 148.561217 289.613988 
L 198.205303 288.861609 
L 247.309779 292.066282 
L 296.953864 323.478051 
L 345.788536 326.237354 
L 395.432621 338.53464 
L 444.267293 326.964962 
L 493.911379 302.986877 
L 542.74605 301.416812 
L 592.390136 269.729758 
L 641.494612 246.879396 
L 691.138697 183.254051 
L 739.973369 162.05909 
L 789.617455 293.41644 
" clip-path="url(#p166d038bde)" style="fill: none; stroke: #b8a037; stroke-width: 1.45; stroke-linecap: round"/>
    <defs>
     <path id="m9badd0c26b" d="M 0 3 
C 0.795609 3 1.55874 2.683901 2.12132 2.12132 
C 2.683901 1.55874 3 0.795609 3 0 
C 3 -0.795609 2.683901 -1.55874 2.12132 -2.12132 
C 1.55874 -2.683901 0.795609 -3 0 -3 
C -0.795609 -3 -1.55874 -2.683901 -2.12132 -2.12132 
C -2.683901 -1.55874 -3 -0.795609 -3 0 
C -3 0.795609 -2.683901 1.55874 -2.12132 2.12132 
C -1.55874 2.683901 -0.795609 3 0 3 
z
" style="stroke: #b8a037"/>
    </defs>
    <g clip-path="url(#p166d038bde)">
     <use xlink:href="#m9badd0c26b" x="99.726545" y="292.074531" style="fill: #b8a037; stroke: #b8a037"/>
     <use xlink:href="#m9badd0c26b" x="148.561217" y="289.613988" style="fill: #b8a037; stroke: #b8a037"/>
     <use xlink:href="#m9badd0c26b" x="198.205303" y="288.861609" style="fill: #b8a037; stroke: #b8a037"/>
     <use xlink:href="#m9badd0c26b" x="247.309779" y="292.066282" style="fill: #b8a037; stroke: #b8a037"/>
     <use xlink:href="#m9badd0c26b" x="296.953864" y="323.478051" style="fill: #b8a037; stroke: #b8a037"/>
     <use xlink:href="#m9badd0c26b" x="345.788536" y="326.237354" style="fill: #b8a037; stroke: #b8a037"/>
     <use xlink:href="#m9badd0c26b" x="395.432621" y="338.53464" style="fill: #b8a037; stroke: #b8a037"/>
     <use xlink:href="#m9badd0c26b" x="444.267293" y="326.964962" style="fill: #b8a037; stroke: #b8a037"/>
     <use xlink:href="#m9badd0c26b" x="493.911379" y="302.986877" style="fill: #b8a037; stroke: #b8a037"/>
     <use xlink:href="#m9badd0c26b" x="542.74605" y="301.416812" style="fill: #b8a037; stroke: #b8a037"/>
     <use xlink:href="#m9badd0c26b" x="592.390136" y="269.729758" style="fill: #b8a037; stroke: #b8a037"/>
     <use xlink:href="#m9badd0c26b" x="641.494612" y="246.879396" style="fill: #b8a037; stroke: #b8a037"/>
     <use xlink:href="#m9badd0c26b" x="691.138697" y="183.254051" style="fill: #b8a037; stroke: #b8a037"/>
     <use xlink:href="#m9badd0c26b" x="739.973369" y="162.05909" style="fill: #b8a037; stroke: #b8a037"/>
     <use xlink:href="#m9badd0c26b" x="789.617455" y="293.41644" style="fill: #b8a037; stroke: #b8a037"/>
    </g>
   </g>
   <g id="line2d_13">
    <path d="M 65.232 397.865455 
L 824.112 397.865455 
" clip-path="url(#p166d038bde)" style="fill: none; stroke: #e2e5ea; stroke-linecap: round"/>
   </g>
   <g id="patch_3">
    <path d="M 65.232 412.092 
L 65.232 99.108 
" style="fill: none; stroke: #d7dbe7; stroke-linejoin: miter; stroke-linecap: square"/>
   </g>
   <g id="patch_4">
    <path d="M 65.232 412.092 
L 824.112 412.092 
" style="fill: none; stroke: #d7dbe7; stroke-linejoin: miter; stroke-linecap: square"/>
   </g>
   <g id="legend_1">
    <g id="line2d_14">
     <path d="M 721.900125 111.252375 
L 730.900125 111.252375 
L 739.900125 111.252375 
" style="fill: none; stroke: #5477c4; stroke-width: 1.45; stroke-linecap: round"/>
     <g>
      <use xlink:href="#m658ed58ce5" x="730.900125" y="111.252375" style="fill: #5477c4; stroke: #5477c4"/>
     </g>
    </g>
    <g id="text_20">
     <!-- 优化后策略 -->
     <g style="fill: #262626" transform="translate(747.100125 114.402375) scale(0.09 -0.09)">
      <defs>
       <path id="MicrosoftYaHei-4f18" d="M 1825 3609 
L 3184 3609 
Q 3216 4322 3213 5272 
L 3713 5272 
Q 3719 4338 3688 3609 
L 6188 3609 
L 6188 3153 
L 4475 3153 
L 4475 228 
Q 4475 -122 4838 -122 
L 5244 -122 
Q 5656 -122 5700 303 
Q 5750 659 5781 1266 
Q 6031 1166 6294 1066 
Q 6244 528 6175 109 
Q 6100 -291 5900 -447 
Q 5713 -603 5275 -597 
L 4763 -597 
Q 4325 -597 4150 -422 
Q 3969 -259 3969 184 
L 3969 3153 
L 3663 3153 
Q 3600 791 1950 -803 
Q 1775 -597 1575 -397 
Q 3100 1028 3159 3153 
L 1825 3153 
L 1825 3609 
z
M 88 2334 
Q 1056 3641 1556 5291 
L 2063 5122 
Q 1753 4253 1388 3522 
L 1388 -809 
L 913 -809 
L 913 2666 
Q 616 2184 288 1778 
Q 194 2047 88 2334 
z
M 4600 5184 
Q 5269 4759 5713 4391 
Q 5538 4197 5388 3991 
Q 4875 4447 4325 4841 
L 4600 5184 
z
" transform="scale(0.015625)"/>
       <path id="MicrosoftYaHei-5316" d="M 1844 1453 
Q 2663 1834 3375 2331 
L 3375 5197 
L 3913 5197 
L 3913 2734 
Q 4869 3506 5613 4516 
L 6069 4184 
Q 5159 2975 3913 2069 
L 3913 303 
Q 3913 -122 4363 -122 
L 5156 -122 
Q 5581 -122 5650 284 
Q 5738 709 5763 1266 
Q 6025 1166 6313 1084 
Q 6263 559 6181 122 
Q 6063 -597 5281 -597 
L 4225 -597 
Q 3375 -597 3375 241 
L 3375 1703 
Q 2791 1328 2144 1016 
Q 2013 1222 1844 1453 
z
M 88 2222 
Q 1175 3666 1688 5291 
L 2231 5134 
Q 1934 4359 1588 3675 
L 1588 -797 
L 1063 -797 
L 1063 2734 
Q 716 2172 325 1678 
Q 219 1947 88 2222 
z
" transform="scale(0.015625)"/>
       <path id="MicrosoftYaHei-540e" d="M 1888 1984 
L 5688 1984 
L 5688 -828 
L 5188 -828 
L 5188 -403 
L 2388 -403 
L 2388 -828 
L 1888 -828 
L 1888 1984 
z
M 1313 2991 
Q 1313 1272 1138 672 
Q 963 -16 394 -847 
Q 250 -634 50 -409 
Q 494 222 650 859 
Q 806 1472 806 2659 
L 806 4766 
Q 3544 4853 5631 5141 
L 5931 4622 
Q 3344 4359 1313 4284 
L 1313 3459 
L 6263 3459 
L 6263 2991 
L 1313 2991 
z
M 5188 1528 
L 2388 1528 
L 2388 41 
L 5188 41 
L 5188 1528 
z
" transform="scale(0.015625)"/>
       <path id="MicrosoftYaHei-7b56" d="M 6306 -128 
Q 6094 -397 5969 -591 
Q 4284 122 3438 1069 
L 3438 -841 
L 2975 -841 
L 2975 1053 
Q 1894 6 413 -666 
Q 250 -447 88 -272 
Q 1709 366 2975 1622 
L 2975 2034 
L 1269 2034 
L 1269 828 
L 813 828 
L 813 2422 
L 2975 2422 
L 2975 2928 
L 263 2928 
L 263 3322 
L 2975 3322 
L 2975 3703 
L 3438 3703 
L 3438 3322 
L 6156 3322 
L 6156 2928 
L 3438 2928 
L 3438 2422 
L 5706 2422 
L 5706 1403 
Q 5706 784 5069 784 
Q 4813 784 4513 803 
Q 4488 1047 4438 1272 
Q 4763 1222 4950 1222 
Q 5250 1222 5250 1516 
L 5250 2034 
L 3438 2034 
L 3438 1625 
Q 4619 372 6306 -128 
z
M 1294 5347 
L 1831 5347 
Q 1688 5041 1513 4759 
L 3325 4759 
L 3325 4372 
L 1244 4372 
Q 875 3878 388 3459 
Q 263 3609 75 3797 
Q 856 4428 1294 5347 
z
M 4006 5347 
L 4513 5347 
Q 4375 5031 4231 4759 
L 6225 4759 
L 6225 4372 
L 4013 4372 
Q 3778 3981 3525 3697 
Q 3388 3797 3088 3934 
Q 3663 4553 4006 5347 
z
M 4781 3416 
Q 4644 3628 4263 4072 
L 4588 4303 
Q 4919 3991 5150 3697 
L 4781 3416 
z
M 1988 3416 
Q 1750 3728 1469 4053 
L 1794 4284 
Q 2094 3997 2356 3697 
L 1988 3416 
z
" transform="scale(0.015625)"/>
       <path id="MicrosoftYaHei-7565" d="M 413 4716 
L 2600 4716 
L 2600 -222 
L 2188 -222 
L 2188 97 
L 825 97 
L 825 -347 
L 413 -347 
L 413 4716 
z
M 2638 3378 
Q 3269 4222 3719 5341 
L 4169 5197 
Q 4044 4913 3919 4653 
L 5888 4653 
L 5888 4234 
Q 5453 3375 4819 2756 
Q 5434 2328 6331 2109 
Q 6194 1853 6094 1591 
Q 5122 1919 4466 2450 
Q 3797 1925 2906 1516 
Q 2756 1772 2619 1947 
Q 3463 2269 4125 2763 
Q 3747 3159 3428 3734 
Q 3200 3353 2969 3047 
Q 2781 3266 2638 3378 
z
M 3200 1584 
L 5756 1584 
L 5756 -847 
L 5294 -847 
L 5294 -547 
L 3663 -547 
L 3663 -847 
L 3200 -847 
L 3200 1584 
z
M 5294 1147 
L 3663 1147 
L 3663 -109 
L 5294 -109 
L 5294 1147 
z
M 5363 4228 
L 3703 4228 
L 3666 4159 
Q 4013 3475 4466 3041 
Q 4963 3500 5363 4228 
z
M 825 516 
L 1300 516 
L 1300 2209 
L 825 2209 
L 825 516 
z
M 1713 516 
L 2188 516 
L 2188 2209 
L 1713 2209 
L 1713 516 
z
M 2188 4297 
L 1713 4297 
L 1713 2628 
L 2188 2628 
L 2188 4297 
z
M 825 2628 
L 1300 2628 
L 1300 4297 
L 825 4297 
L 825 2628 
z
" transform="scale(0.015625)"/>
      </defs>
      <use xlink:href="#MicrosoftYaHei-4f18"/>
      <use xlink:href="#MicrosoftYaHei-5316" transform="translate(100 0)"/>
      <use xlink:href="#MicrosoftYaHei-540e" transform="translate(200 0)"/>
      <use xlink:href="#MicrosoftYaHei-7b56" transform="translate(300 0)"/>
      <use xlink:href="#MicrosoftYaHei-7565" transform="translate(400 0)"/>
     </g>
    </g>
    <g id="line2d_15">
     <path d="M 721.900125 125.184094 
L 730.900125 125.184094 
L 739.900125 125.184094 
" style="fill: none; stroke-dasharray: 2.9,2.9; stroke-dashoffset: 0; stroke: #464c55; stroke-width: 1.45"/>
     <g>
      <use xlink:href="#m67459ad188" x="730.900125" y="125.184094" style="fill: #464c55; stroke: #464c55"/>
     </g>
    </g>
    <g id="text_21">
     <!-- 沪深300ETF -->
     <g style="fill: #262626" transform="translate(747.100125 128.334094) scale(0.09 -0.09)">
      <defs>
       <path id="MicrosoftYaHei-6caa" d="M 3550 5078 
L 3963 5341 
Q 4244 5003 4525 4616 
L 4156 4378 
L 6000 4378 
L 6000 1553 
L 5519 1553 
L 5519 1853 
L 2719 1853 
Q 2681 216 1838 -878 
Q 1644 -684 1431 -522 
Q 2263 453 2256 2359 
L 2256 4378 
L 4038 4378 
Q 3831 4716 3550 5078 
z
M 2744 3928 
Q 2744 2716 2738 2303 
L 5519 2303 
L 5519 3928 
L 2744 3928 
z
M 1019 1741 
Q 1294 1597 1550 1491 
Q 1225 441 831 -809 
L 275 -553 
Q 713 516 1019 1741 
z
M 344 3591 
Q 1013 3191 1538 2791 
L 1194 2341 
Q 569 2847 44 3191 
L 344 3591 
z
M 681 5222 
Q 1319 4784 1806 4384 
L 1463 3959 
Q 863 4478 369 4853 
L 681 5222 
z
" transform="scale(0.015625)"/>
       <path id="MicrosoftYaHei-6df1" d="M 6319 141 
Q 6138 -84 5963 -303 
Q 4906 388 4250 1475 
L 4250 -816 
L 3756 -816 
L 3756 1494 
Q 3050 413 1906 -372 
Q 1681 -116 1531 22 
Q 2884 809 3625 1828 
L 1869 1828 
L 1869 2284 
L 3756 2284 
L 3756 3066 
L 4250 3066 
L 4250 2284 
L 6181 2284 
L 6181 1828 
L 4350 1828 
Q 5150 747 6319 141 
z
M 2038 4903 
L 6063 4903 
L 6063 3866 
L 5563 3866 
L 5563 4428 
L 2538 4428 
L 2538 3847 
L 2038 3847 
L 2038 4903 
z
M 981 1853 
Q 1244 1734 1494 1634 
Q 1200 616 763 -766 
L 231 -566 
Q 669 603 981 1853 
z
M 3406 4047 
L 3738 3709 
Q 2963 3028 2256 2547 
Q 2125 2747 1950 2947 
Q 2775 3459 3406 4047 
z
M 4288 3716 
L 4588 4047 
Q 5381 3509 6081 2947 
L 5750 2559 
Q 5063 3172 4288 3716 
z
M 663 5209 
Q 1356 4734 1894 4309 
Q 1694 4078 1544 3903 
Q 850 4497 356 4853 
L 663 5209 
z
M 406 3647 
Q 1094 3209 1625 2803 
Q 1531 2709 1288 2391 
Q 769 2822 100 3291 
L 406 3647 
z
" transform="scale(0.015625)"/>
       <path id="MicrosoftYaHei-45" d="M 3228 0 
L 625 0 
L 625 4841 
L 3119 4841 
L 3119 4284 
L 1250 4284 
L 1250 2734 
L 2981 2734 
L 2981 2181 
L 1250 2181 
L 1250 553 
L 3228 553 
L 3228 0 
z
" transform="scale(0.015625)"/>
       <path id="MicrosoftYaHei-54" d="M 3550 4284 
L 2153 4284 
L 2153 0 
L 1525 0 
L 1525 4284 
L 134 4284 
L 134 4841 
L 3550 4841 
L 3550 4284 
z
" transform="scale(0.015625)"/>
       <path id="MicrosoftYaHei-46" d="M 3119 4284 
L 1250 4284 
L 1250 2666 
L 2981 2666 
L 2981 2116 
L 1250 2116 
L 1250 0 
L 625 0 
L 625 4841 
L 3119 4841 
L 3119 4284 
z
" transform="scale(0.015625)"/>
      </defs>
      <use xlink:href="#MicrosoftYaHei-6caa"/>
      <use xlink:href="#MicrosoftYaHei-6df1" transform="translate(100 0)"/>
      <use xlink:href="#MicrosoftYaHei-33" transform="translate(200 0)"/>
      <use xlink:href="#MicrosoftYaHei-30" transform="translate(258.642578 0)"/>
      <use xlink:href="#MicrosoftYaHei-30" transform="translate(317.285156 0)"/>
      <use xlink:href="#MicrosoftYaHei-45" transform="translate(375.927734 0)"/>
      <use xlink:href="#MicrosoftYaHei-54" transform="translate(431.158203 0)"/>
      <use xlink:href="#MicrosoftYaHei-46" transform="translate(488.482422 0)"/>
     </g>
    </g>
    <g id="line2d_16">
     <path d="M 721.900125 139.115812 
L 730.900125 139.115812 
L 739.900125 139.115812 
" style="fill: none; stroke: #b8a037; stroke-width: 1.45; stroke-linecap: round"/>
     <g>
      <use xlink:href="#m9badd0c26b" x="730.900125" y="139.115812" style="fill: #b8a037; stroke: #b8a037"/>
     </g>
    </g>
    <g id="text_22">
     <!-- 行业ETF静态配置 -->
     <g style="fill: #262626" transform="translate(747.100125 142.265812) scale(0.09 -0.09)">
      <defs>
       <path id="MicrosoftYaHei-884c" d="M 2363 2978 
L 6319 2978 
L 6319 2509 
L 5106 2509 
L 5106 66 
Q 5106 -709 4325 -709 
Q 3800 -709 3256 -703 
Q 3219 -453 3163 -141 
Q 3650 -191 4144 -191 
Q 4575 -191 4575 234 
L 4575 2509 
L 2363 2509 
L 2363 2978 
z
M 100 1578 
Q 1069 2372 1863 3809 
L 2300 3541 
Q 1978 2984 1619 2500 
L 1619 -809 
L 1100 -809 
L 1100 1856 
Q 725 1431 319 1072 
Q 219 1334 100 1578 
z
M 2725 4866 
L 5969 4866 
L 5969 4397 
L 2725 4397 
L 2725 4866 
z
M 131 3559 
Q 1125 4328 1731 5347 
L 2181 5072 
Q 1456 3959 381 3078 
Q 269 3316 131 3559 
z
" transform="scale(0.015625)"/>
       <path id="MicrosoftYaHei-4e1a" d="M 119 47 
L 2125 47 
L 2125 5209 
L 2650 5209 
L 2650 47 
L 3744 47 
L 3744 5209 
L 4269 5209 
L 4269 47 
L 6294 47 
L 6294 -416 
L 119 -416 
L 119 47 
z
M 844 3984 
Q 1356 2778 1838 1422 
L 1325 1191 
Q 906 2509 388 3784 
L 844 3984 
z
M 4494 1366 
Q 5119 2691 5544 3928 
L 6050 3728 
Q 5469 2234 4944 1159 
L 4494 1366 
z
" transform="scale(0.015625)"/>
       <path id="MicrosoftYaHei-9759" d="M 3006 1322 
L 4163 1322 
L 4163 2059 
L 2825 2059 
L 2825 2459 
L 4163 2459 
L 4163 3191 
L 3031 3191 
L 3031 3591 
L 4300 3591 
L 4831 4328 
L 3788 4328 
Q 3509 3925 3194 3616 
Q 3050 3741 2831 3903 
Q 3506 4541 3856 5359 
L 4338 5272 
Q 4197 4984 4044 4728 
L 5394 4728 
L 5394 4316 
L 4825 3591 
L 5869 3591 
L 5869 2459 
L 6306 2459 
L 6306 2059 
L 5869 2059 
L 5869 647 
L 5419 647 
L 5419 922 
L 4613 922 
L 4613 3 
Q 4613 -728 3888 -728 
Q 3588 -728 3200 -722 
Q 3175 -516 3119 -228 
Q 3475 -278 3775 -278 
Q 4163 -278 4163 128 
L 4163 922 
L 3006 922 
L 3006 1322 
z
M 906 -791 
L 469 -791 
L 469 2397 
L 2606 2397 
L 2606 -122 
Q 2606 -753 1988 -753 
L 1456 -753 
Q 1431 -572 1369 -309 
Q 1675 -341 1856 -341 
Q 2169 -341 2169 -59 
L 2169 409 
L 906 409 
L 906 -791 
z
M 131 3116 
L 1313 3116 
L 1313 3547 
L 394 3547 
L 394 3909 
L 1313 3909 
L 1313 4303 
L 238 4303 
L 238 4678 
L 1313 4678 
L 1313 5316 
L 1763 5316 
L 1763 4678 
L 2838 4678 
L 2838 4303 
L 1763 4303 
L 1763 3909 
L 2681 3909 
L 2681 3547 
L 1763 3547 
L 1763 3116 
L 2931 3116 
L 2931 2741 
L 131 2741 
L 131 3116 
z
M 4613 1322 
L 5419 1322 
L 5419 2059 
L 4613 2059 
L 4613 1322 
z
M 5419 3191 
L 4613 3191 
L 4613 2459 
L 5419 2459 
L 5419 3191 
z
M 2169 2034 
L 906 2034 
L 906 1572 
L 2169 1572 
L 2169 2034 
z
M 906 759 
L 2169 759 
L 2169 1222 
L 906 1222 
L 906 759 
z
" transform="scale(0.015625)"/>
       <path id="MicrosoftYaHei-6001" d="M 325 4434 
L 2888 4434 
Q 2972 4822 2969 5328 
L 3438 5328 
Q 3444 4841 3372 4434 
L 6075 4434 
L 6075 3991 
L 3528 3991 
Q 4419 2706 6231 2241 
Q 6050 2034 5881 1759 
Q 4041 2394 3172 3772 
Q 2975 3331 2588 2953 
Q 3078 2616 3538 2259 
L 3225 1891 
Q 2828 2244 2259 2675 
Q 1556 2138 388 1703 
Q 294 1922 113 2178 
Q 2250 2866 2750 3991 
L 325 3991 
L 325 4434 
z
M 1713 1547 
L 2200 1547 
L 2200 203 
Q 2200 -172 2575 -172 
L 3763 -172 
Q 4175 -172 4256 134 
Q 4331 428 4381 1028 
Q 4556 953 4863 847 
Q 4763 128 4706 -47 
Q 4563 -616 3869 -616 
L 2488 -616 
Q 1713 -616 1713 172 
L 1713 1547 
z
M 813 1447 
L 1281 1297 
Q 1038 522 663 -297 
Q 463 -203 194 -116 
Q 569 591 813 1447 
z
M 4894 1272 
L 5263 1553 
Q 5781 972 6306 309 
L 5888 -9 
Q 5425 641 4894 1272 
z
M 2594 1503 
L 2913 1809 
Q 3419 1403 3850 991 
L 3488 641 
Q 3094 1059 2594 1503 
z
" transform="scale(0.015625)"/>
       <path id="MicrosoftYaHei-914d" d="M 388 3697 
L 1244 3697 
L 1244 4516 
L 194 4516 
L 194 4928 
L 3506 4928 
L 3506 4516 
L 2469 4516 
L 2469 3697 
L 3375 3697 
L 3375 -766 
L 2956 -766 
L 2956 -366 
L 806 -366 
L 806 -772 
L 388 -772 
L 388 3697 
z
M 3831 2916 
L 5488 2916 
L 5488 4541 
L 3725 4541 
L 3725 4978 
L 5938 4978 
L 5938 2234 
L 5488 2234 
L 5488 2478 
L 4281 2478 
L 4281 316 
Q 4281 -178 4706 -178 
L 5300 -178 
Q 5669 -178 5719 191 
Q 5800 609 5831 1203 
Q 6006 1116 6300 997 
Q 6256 491 6169 34 
Q 6063 -628 5381 -628 
L 4575 -628 
Q 3831 -628 3831 253 
L 3831 2916 
z
M 2069 2291 
L 2069 3297 
L 1644 3297 
L 1644 3047 
Q 1644 2047 1125 1391 
Q 975 1538 806 1697 
L 806 1178 
L 2956 1178 
L 2956 1778 
L 2513 1778 
Q 2069 1778 2069 2291 
z
M 806 34 
L 2956 34 
L 2956 784 
L 806 784 
L 806 34 
z
M 2956 3297 
L 2469 3297 
L 2469 2428 
Q 2456 2147 2700 2166 
L 2956 2166 
L 2956 3297 
z
M 806 1738 
Q 1244 2234 1244 3078 
L 1244 3297 
L 806 3297 
L 806 1738 
z
M 1644 3697 
L 2069 3697 
L 2069 4516 
L 1644 4516 
L 1644 3697 
z
" transform="scale(0.015625)"/>
       <path id="MicrosoftYaHei-7f6e" d="M 94 -284 
L 1025 -284 
L 1025 2609 
L 2938 2609 
L 2938 3016 
L 244 3016 
L 244 3366 
L 2938 3366 
L 2938 3697 
L 3388 3697 
L 3388 3366 
L 6150 3366 
L 6150 3016 
L 3388 3016 
L 3388 2609 
L 5431 2609 
L 5431 -284 
L 6294 -284 
L 6294 -647 
L 94 -647 
L 94 -284 
z
M 638 5034 
L 5756 5034 
L 5756 3641 
L 5331 3641 
L 5331 3784 
L 1069 3784 
L 1069 3641 
L 638 3641 
L 638 5034 
z
M 1463 -284 
L 4994 -284 
L 4994 116 
L 1463 116 
L 1463 -284 
z
M 1463 441 
L 4994 441 
L 4994 834 
L 1463 834 
L 1463 441 
z
M 1463 1159 
L 4994 1159 
L 4994 1553 
L 1463 1553 
L 1463 1159 
z
M 4994 2272 
L 1463 2272 
L 1463 1878 
L 4994 1878 
L 4994 2272 
z
M 5331 4697 
L 4181 4697 
L 4181 4122 
L 5331 4122 
L 5331 4697 
z
M 2625 4122 
L 3769 4122 
L 3769 4697 
L 2625 4697 
L 2625 4122 
z
M 1069 4122 
L 2213 4122 
L 2213 4697 
L 1069 4697 
L 1069 4122 
z
" transform="scale(0.015625)"/>
      </defs>
      <use xlink:href="#MicrosoftYaHei-884c"/>
      <use xlink:href="#MicrosoftYaHei-4e1a" transform="translate(100 0)"/>
      <use xlink:href="#MicrosoftYaHei-45" transform="translate(200 0)"/>
      <use xlink:href="#MicrosoftYaHei-54" transform="translate(255.230469 0)"/>
      <use xlink:href="#MicrosoftYaHei-46" transform="translate(312.554688 0)"/>
      <use xlink:href="#MicrosoftYaHei-9759" transform="translate(365.679688 0)"/>
      <use xlink:href="#MicrosoftYaHei-6001" transform="translate(465.679688 0)"/>
      <use xlink:href="#MicrosoftYaHei-914d" transform="translate(565.679688 0)"/>
      <use xlink:href="#MicrosoftYaHei-7f6e" transform="translate(665.679688 0)"/>
     </g>
    </g>
   </g>
  </g>
  <g id="text_23">
   <!-- 滚动评价起点下的 Sharpe 稳定性 -->
   <g style="fill: #1f2430" transform="translate(7.2 21.469375) scale(0.17 -0.17)">
    <defs>
     <path id="MicrosoftYaHei-Bold-6eda" d="M 6213 4041 
L 5106 4041 
Q 5769 3653 6288 3278 
L 5819 2653 
Q 5144 3184 4388 3634 
L 4734 4041 
L 3194 4041 
L 3613 3716 
Q 2894 3041 2113 2597 
Q 1869 2941 1638 3197 
Q 2350 3563 2872 4041 
L 1981 4041 
L 1981 4734 
L 3638 4734 
Q 3538 4969 3431 5203 
L 4300 5372 
Q 4431 5122 4594 4734 
L 6213 4734 
L 6213 4041 
z
M 775 5253 
Q 1481 4747 1800 4484 
L 1219 3853 
Q 775 4284 256 4709 
L 775 5253 
z
M 600 3622 
Q 1075 3272 1588 2834 
L 1025 2159 
Q 575 2591 88 3028 
L 600 3622 
z
M 5781 1541 
L 6281 984 
Q 5966 759 5469 481 
Q 5859 219 6338 53 
Q 6038 -316 5850 -678 
Q 4541 -56 3850 1250 
Q 3666 1063 3475 894 
L 3475 72 
L 4319 316 
L 4300 -472 
Q 3269 -703 2813 -878 
L 2538 -297 
Q 2706 -153 2706 84 
L 2706 291 
Q 2303 19 1881 -178 
Q 1656 178 1381 547 
Q 2391 909 3216 1603 
Q 2556 1553 2263 1503 
L 2038 2134 
Q 2744 2428 3631 3491 
L 4375 3191 
Q 3825 2678 3256 2222 
L 4581 2284 
L 4200 2597 
L 4700 3034 
Q 5319 2584 6000 1972 
L 5456 1484 
Q 5344 1597 5219 1716 
L 4375 1675 
Q 4609 1263 4919 944 
Q 5363 1209 5781 1541 
z
M 838 1834 
Q 1319 1628 1619 1541 
L 1025 -822 
Q 650 -684 225 -566 
Q 563 528 838 1834 
z
" transform="scale(0.015625)"/>
     <path id="MicrosoftYaHei-Bold-52a8" d="M 2469 2178 
L 3134 603 
Q 3563 1378 3553 3441 
L 2919 3441 
L 2919 4266 
L 3572 4266 
L 3581 5328 
L 4413 5328 
L 4400 4266 
L 6038 4266 
L 5966 734 
Q 5947 22 5905 -156 
Q 5863 -334 5731 -473 
Q 5600 -613 5387 -675 
Q 5175 -738 4269 -747 
Q 4169 -272 4044 191 
Q 4456 166 4728 166 
Q 4909 166 5006 237 
Q 5103 309 5120 445 
Q 5138 581 5161 1404 
Q 5184 2228 5194 3441 
L 4384 3441 
Q 4356 2047 4272 1445 
Q 4188 844 3925 228 
Q 3663 -388 3244 -866 
Q 2888 -584 2481 -341 
Q 2663 -156 2813 50 
L 1078 -97 
Q 688 -144 481 -228 
L 94 528 
Q 422 794 897 2491 
L 119 2491 
L 119 3291 
L 3006 3291 
L 3006 2491 
L 1806 2491 
Q 1516 1594 1188 747 
Q 1756 763 2216 788 
Q 1991 1416 1775 1947 
L 2469 2178 
z
M 2788 4066 
L 388 4066 
L 388 4866 
L 2788 4866 
L 2788 4066 
z
" transform="scale(0.015625)"/>
     <path id="MicrosoftYaHei-Bold-8bc4" d="M 1194 5334 
Q 1625 4753 2013 4172 
L 1219 3684 
Q 919 4228 463 4916 
L 1194 5334 
z
M 1963 2078 
L 3725 2078 
L 3725 4216 
L 2269 4216 
L 2269 5016 
L 6100 5016 
L 6100 4216 
L 4638 4216 
L 4638 2078 
L 6294 2078 
L 6294 1278 
L 4638 1278 
L 4638 -834 
L 3725 -834 
L 3725 1278 
L 1963 1278 
L 1963 2078 
z
M 5463 4103 
L 6238 3816 
L 5550 2284 
L 4844 2597 
Q 5125 3216 5463 4103 
z
M 2931 4053 
L 3456 2584 
L 2669 2328 
Q 2413 3084 2131 3816 
L 2931 4053 
z
M 2294 1216 
Q 2338 666 2419 291 
Q 1463 -328 1063 -784 
L 600 -172 
Q 756 28 756 353 
L 756 2422 
L 119 2422 
L 119 3234 
L 1588 3234 
L 1588 672 
Q 2094 1047 2294 1216 
z
" transform="scale(0.015625)"/>
     <path id="MicrosoftYaHei-Bold-4ef7" d="M 4525 2684 
L 5381 2684 
Q 4613 3391 4131 4291 
Q 3613 3428 2813 2678 
L 3625 2678 
Q 3625 2041 3613 1703 
Q 3613 -41 2606 -853 
Q 2375 -578 1938 -222 
Q 2688 484 2713 1591 
Q 2725 1903 2725 2591 
Q 2500 2384 2256 2191 
Q 2081 2553 1825 3028 
Q 2938 3884 3719 5184 
L 4744 5184 
L 4606 4984 
Q 5250 3859 6319 3147 
L 5900 2253 
Q 5650 2434 5431 2634 
L 5431 -766 
L 4525 -766 
L 4525 2684 
z
M 1394 5278 
L 2250 5022 
Q 2025 4322 1731 3666 
L 1731 -797 
L 875 -797 
L 875 2103 
Q 650 1753 400 1422 
Q 313 1809 88 2516 
Q 831 3547 1394 5278 
z
" transform="scale(0.015625)"/>
     <path id="MicrosoftYaHei-Bold-8d77" d="M 3281 2441 
L 2500 2441 
L 2500 1747 
L 3200 1747 
L 3200 978 
L 2500 978 
L 2500 188 
Q 2806 150 3797 150 
Q 4741 150 6313 184 
Q 6150 -222 6013 -703 
Q 3516 -703 2520 -643 
Q 1525 -584 1091 131 
Q 959 -431 744 -853 
Q 513 -597 88 -147 
Q 494 666 488 2191 
L 1288 2191 
Q 1288 1644 1247 1166 
Q 1403 775 1681 538 
L 1681 2441 
L 106 2441 
L 106 3209 
L 1325 3209 
L 1325 3784 
L 319 3784 
L 319 4553 
L 1325 4553 
L 1325 5353 
L 2181 5353 
L 2181 4553 
L 3106 4553 
L 3106 3784 
L 2181 3784 
L 2181 3209 
L 3281 3209 
L 3281 2441 
z
M 5369 2347 
Q 5888 2122 6225 2009 
Q 6138 1266 6025 1041 
Q 5844 497 5069 497 
L 4325 497 
Q 3475 497 3475 1397 
L 3475 3341 
L 5063 3341 
L 5063 4241 
L 3350 4241 
L 3350 5003 
L 5913 5003 
L 5913 2578 
L 4325 2578 
L 4325 1547 
Q 4325 1259 4638 1259 
L 4925 1259 
Q 5178 1259 5258 1400 
Q 5338 1541 5369 2347 
z
" transform="scale(0.015625)"/>
     <path id="MicrosoftYaHei-Bold-70b9" d="M 825 3503 
L 2675 3503 
L 2675 5316 
L 3563 5316 
L 3563 4791 
L 6181 4791 
L 6181 4003 
L 3563 4003 
L 3563 3503 
L 5675 3503 
L 5675 1128 
L 825 1128 
L 825 3503 
z
M 4763 2741 
L 1738 2741 
L 1738 1891 
L 4763 1891 
L 4763 2741 
z
M 5550 991 
Q 5944 247 6275 -509 
L 5494 -816 
Q 5119 34 4800 678 
L 5550 991 
z
M 856 941 
L 1625 616 
Q 1325 -41 850 -903 
L 119 -516 
Q 550 247 856 941 
z
M 4113 897 
Q 4388 291 4663 -416 
L 3844 -666 
Q 3613 16 3344 653 
L 4113 897 
z
M 2638 834 
Q 2931 59 3113 -509 
L 2300 -716 
Q 2044 116 1856 622 
L 2638 834 
z
" transform="scale(0.015625)"/>
     <path id="MicrosoftYaHei-Bold-4e0b" d="M 4038 3372 
Q 5050 2647 6069 1866 
L 5425 1078 
Q 4363 1997 3488 2647 
L 3488 -822 
L 2475 -822 
L 2475 4066 
L 175 4066 
L 175 4947 
L 6213 4947 
L 6213 4066 
L 3488 4066 
L 3488 2822 
L 4038 3372 
z
" transform="scale(0.015625)"/>
     <path id="MicrosoftYaHei-Bold-7684" d="M 1250 5303 
L 2181 5159 
L 1900 4309 
L 2963 4309 
L 2963 3091 
Q 3466 3934 3925 5316 
L 4788 5091 
Q 4650 4675 4494 4278 
L 6106 4278 
L 6034 681 
Q 6019 100 5937 -133 
Q 5856 -366 5684 -512 
Q 5513 -659 5205 -712 
Q 4897 -766 3863 -766 
Q 3769 -216 3625 178 
Q 4088 141 4609 141 
Q 4759 141 4868 175 
Q 4978 209 5048 279 
Q 5119 350 5144 437 
Q 5169 525 5184 1206 
L 5213 2484 
Q 5225 3081 5225 3453 
L 4138 3453 
Q 3931 3016 3700 2603 
Q 3403 2797 2963 2988 
L 2963 -734 
L 2094 -734 
L 2094 -284 
L 1206 -284 
L 1206 -772 
L 338 -772 
L 338 4309 
L 997 4309 
Q 1178 4922 1250 5303 
z
M 2094 3491 
L 1206 3491 
L 1206 2422 
L 2094 2422 
L 2094 3491 
z
M 1206 534 
L 2094 534 
L 2094 1603 
L 1206 1603 
L 1206 534 
z
M 3944 2703 
Q 4394 2166 4913 1397 
L 4125 872 
Q 3650 1653 3219 2203 
L 3944 2703 
z
" transform="scale(0.015625)"/>
     <path id="MicrosoftYaHei-Bold-20" transform="scale(0.015625)"/>
     <path id="MicrosoftYaHei-Bold-53" d="M 338 1219 
Q 922 734 1666 734 
Q 2088 734 2300 879 
Q 2513 1025 2513 1253 
Q 2513 1450 2344 1625 
Q 2175 1800 1453 2100 
Q 319 2581 319 3500 
Q 319 4175 833 4548 
Q 1347 4922 2194 4922 
Q 2903 4922 3384 4738 
L 3384 3769 
Q 2897 4100 2244 4100 
Q 1863 4100 1634 3961 
Q 1406 3822 1406 3588 
Q 1406 3400 1562 3242 
Q 1719 3084 2334 2816 
Q 3056 2506 3326 2162 
Q 3597 1819 3597 1344 
Q 3597 647 3103 281 
Q 2609 -84 1700 -84 
Q 869 -84 338 184 
L 338 1219 
z
" transform="scale(0.015625)"/>
     <path id="MicrosoftYaHei-Bold-68" d="M 3725 0 
L 2719 0 
L 2719 1969 
Q 2719 2766 2138 2766 
Q 1847 2766 1658 2544 
Q 1469 2322 1469 1969 
L 1469 0 
L 459 0 
L 459 5116 
L 1469 5116 
L 1469 2938 
L 1481 2938 
Q 1878 3541 2550 3541 
Q 3725 3541 3725 2122 
L 3725 0 
z
" transform="scale(0.015625)"/>
     <path id="MicrosoftYaHei-Bold-61" d="M 544 3247 
Q 778 3378 1170 3459 
Q 1563 3541 1841 3541 
Q 3291 3541 3291 2088 
L 3291 0 
L 2331 0 
L 2331 503 
L 2319 503 
Q 1966 -84 1284 -84 
Q 794 -84 498 195 
Q 203 475 203 956 
Q 203 1950 1388 2113 
L 2338 2241 
Q 2338 2844 1709 2844 
Q 1091 2844 544 2469 
L 544 3247 
z
M 1684 1566 
Q 1138 1494 1138 1072 
Q 1138 878 1270 759 
Q 1403 641 1628 641 
Q 1938 641 2138 859 
Q 2338 1078 2338 1403 
L 2338 1650 
L 1684 1566 
z
" transform="scale(0.015625)"/>
     <path id="MicrosoftYaHei-Bold-72" d="M 2663 2541 
Q 2478 2647 2216 2647 
Q 1872 2647 1670 2384 
Q 1469 2122 1469 1663 
L 1469 0 
L 459 0 
L 459 3456 
L 1469 3456 
L 1469 2806 
L 1481 2806 
Q 1731 3516 2391 3516 
Q 2569 3516 2663 3475 
L 2663 2541 
z
" transform="scale(0.015625)"/>
     <path id="MicrosoftYaHei-Bold-70" d="M 1469 416 
L 1469 -1591 
L 459 -1591 
L 459 3456 
L 1469 3456 
L 1469 2928 
L 1481 2928 
Q 1878 3541 2603 3541 
Q 3263 3541 3634 3080 
Q 4006 2619 4006 1825 
Q 4006 959 3575 437 
Q 3144 -84 2444 -84 
Q 1809 -84 1481 416 
L 1469 416 
z
M 1453 1528 
Q 1453 1159 1653 925 
Q 1853 691 2172 691 
Q 2550 691 2761 984 
Q 2972 1278 2972 1816 
Q 2972 2766 2231 2766 
Q 1888 2766 1670 2503 
Q 1453 2241 1453 1828 
L 1453 1528 
z
" transform="scale(0.015625)"/>
     <path id="MicrosoftYaHei-Bold-65" d="M 3528 1444 
L 1253 1444 
Q 1306 641 2222 641 
Q 2794 641 3231 922 
L 3231 181 
Q 2759 -84 1994 -84 
Q 1169 -84 711 381 
Q 253 847 253 1678 
Q 253 2506 740 3023 
Q 1228 3541 1966 3541 
Q 2700 3541 3114 3095 
Q 3528 2650 3528 1872 
L 3528 1444 
z
M 2588 2075 
Q 2588 2850 1959 2850 
Q 1700 2850 1500 2637 
Q 1300 2425 1250 2075 
L 2588 2075 
z
" transform="scale(0.015625)"/>
     <path id="MicrosoftYaHei-Bold-7a33" d="M 150 3566 
L 975 3566 
L 975 4272 
Q 638 4241 275 4222 
Q 244 4541 163 4991 
Q 1131 5041 2294 5253 
L 2469 4497 
Q 2138 4422 1763 4366 
L 1763 3566 
L 2413 3566 
L 2413 2822 
L 1763 2822 
L 1763 2400 
L 1838 2466 
Q 2094 2231 2506 1822 
L 2506 1884 
L 5213 1884 
L 5213 2203 
L 2631 2203 
L 2631 2741 
L 5213 2741 
L 5213 3059 
L 2563 3059 
L 2563 3569 
Q 2366 3759 2175 3909 
Q 2781 4478 3213 5303 
L 4063 5303 
Q 3919 5031 3769 4784 
L 5625 4784 
L 5625 4259 
L 5241 3716 
L 6000 3716 
L 6000 1228 
L 4650 1228 
Q 4763 978 4869 716 
L 4200 459 
Q 4056 888 3931 1228 
L 2506 1228 
L 2506 1700 
L 2088 1228 
Q 1916 1466 1763 1666 
L 1763 -866 
L 975 -866 
L 975 1638 
Q 747 919 425 272 
Q 325 741 138 1322 
Q 534 1900 859 2822 
L 150 2822 
L 150 3566 
z
M 3006 3716 
L 4416 3716 
L 4681 4097 
L 3309 4097 
Q 3163 3894 3006 3716 
z
M 4831 597 
Q 5103 475 5434 350 
L 5263 916 
L 5925 1066 
Q 6175 328 6344 -266 
L 5663 -434 
L 5509 97 
Q 5319 -538 5050 -677 
Q 4781 -816 4463 -816 
L 3906 -816 
Q 3031 -816 3031 9 
L 3031 1034 
L 3788 1034 
L 3788 241 
Q 3788 -122 4138 -122 
L 4375 -122 
Q 4584 -122 4670 -17 
Q 4756 88 4831 597 
z
M 2313 934 
L 2963 728 
Q 2781 197 2488 -528 
Q 2181 -391 1850 -266 
Q 2119 328 2313 934 
z
" transform="scale(0.015625)"/>
     <path id="MicrosoftYaHei-Bold-5b9a" d="M 2581 5128 
L 3538 5353 
Q 3666 5028 3806 4634 
L 6063 4634 
L 6063 3403 
L 5200 3403 
L 5200 3872 
L 1225 3872 
L 1225 3403 
L 363 3403 
L 363 4634 
L 2772 4634 
L 2581 5128 
z
M 5831 1741 
L 5831 972 
L 3744 972 
L 3744 125 
Q 4766 103 6313 147 
Q 6138 -372 6044 -697 
Q 3819 -697 2809 -630 
Q 1800 -563 1388 219 
Q 1069 -425 613 -859 
Q 331 -441 94 -134 
Q 875 659 1094 2122 
L 1931 2022 
Q 1850 1541 1728 1122 
Q 2047 300 2850 175 
L 2850 2416 
L 263 2416 
L 263 3184 
L 6156 3184 
L 6156 2416 
L 3744 2416 
L 3744 1741 
L 5831 1741 
z
" transform="scale(0.015625)"/>
     <path id="MicrosoftYaHei-Bold-6027" d="M 2250 216 
L 3975 216 
L 3975 1378 
L 2563 1378 
L 2563 2191 
L 3975 2191 
L 3975 3303 
L 3213 3303 
Q 3075 2734 2913 2272 
Q 2538 2491 2175 2684 
Q 2563 3684 2738 4947 
L 3506 4891 
Q 3447 4484 3381 4116 
L 3975 4116 
L 3975 5316 
L 4825 5316 
L 4825 4116 
L 6125 4116 
L 6125 3303 
L 4825 3303 
L 4825 2191 
L 6100 2191 
L 6100 1378 
L 4825 1378 
L 4825 216 
L 6313 216 
L 6313 -597 
L 2250 -597 
L 2250 216 
z
M 1788 5316 
L 1788 4456 
Q 2125 4316 2494 4134 
L 2175 3453 
L 1788 3713 
L 1788 -841 
L 950 -841 
L 950 5316 
L 1788 5316 
z
M 269 4103 
L 800 4041 
Q 719 3009 619 2178 
Q 350 2284 106 2316 
Q 225 3284 269 4103 
z
" transform="scale(0.015625)"/>
    </defs>
    <use xlink:href="#MicrosoftYaHei-Bold-6eda"/>
    <use xlink:href="#MicrosoftYaHei-Bold-52a8" transform="translate(100 0)"/>
    <use xlink:href="#MicrosoftYaHei-Bold-8bc4" transform="translate(200 0)"/>
    <use xlink:href="#MicrosoftYaHei-Bold-4ef7" transform="translate(300 0)"/>
    <use xlink:href="#MicrosoftYaHei-Bold-8d77" transform="translate(400 0)"/>
    <use xlink:href="#MicrosoftYaHei-Bold-70b9" transform="translate(500 0)"/>
    <use xlink:href="#MicrosoftYaHei-Bold-4e0b" transform="translate(600 0)"/>
    <use xlink:href="#MicrosoftYaHei-Bold-7684" transform="translate(700 0)"/>
    <use xlink:href="#MicrosoftYaHei-Bold-20" transform="translate(800 0)"/>
    <use xlink:href="#MicrosoftYaHei-Bold-53" transform="translate(829.785156 0)"/>
    <use xlink:href="#MicrosoftYaHei-Bold-68" transform="translate(889.941406 0)"/>
    <use xlink:href="#MicrosoftYaHei-Bold-61" transform="translate(954.492188 0)"/>
    <use xlink:href="#MicrosoftYaHei-Bold-72" transform="translate(1012.255859 0)"/>
    <use xlink:href="#MicrosoftYaHei-Bold-70" transform="translate(1054.638672 0)"/>
    <use xlink:href="#MicrosoftYaHei-Bold-65" transform="translate(1121.240234 0)"/>
    <use xlink:href="#MicrosoftYaHei-Bold-20" transform="translate(1179.443359 0)"/>
    <use xlink:href="#MicrosoftYaHei-Bold-7a33" transform="translate(1209.228516 0)"/>
    <use xlink:href="#MicrosoftYaHei-Bold-5b9a" transform="translate(1309.228516 0)"/>
    <use xlink:href="#MicrosoftYaHei-Bold-6027" transform="translate(1409.228516 0)"/>
   </g>
  </g>
  <g id="text_24">
   <!-- 每半年移动一次评价起点，并重新计算优化后策略、沪深300ETF和行业ETF静态配置的 Sharpe；这是滚动起点敏感性检查，不等同于真正未来检验。 -->
   <g style="fill: #6f768a" transform="translate(7.2 38.369437) scale(0.105 -0.105)">
    <defs>
     <path id="MicrosoftYaHei-6bcf" d="M 125 2203 
L 1044 2203 
L 1325 3766 
L 5456 3766 
Q 5422 2928 5391 2203 
L 6300 2203 
L 6300 1753 
L 5372 1753 
Q 5344 1141 5319 616 
L 6075 616 
L 6075 178 
L 5284 178 
Q 5222 -278 5031 -484 
Q 4788 -753 4181 -753 
Q 3831 -753 3288 -728 
Q 3256 -516 3194 -222 
Q 3838 -278 4119 -278 
Q 4513 -278 4638 -128 
Q 4722 -41 4766 178 
L 763 178 
L 763 647 
L 963 1753 
L 125 1753 
L 125 2203 
z
M 4866 1753 
L 1472 1753 
L 1275 616 
L 4813 616 
Q 4844 1172 4866 1753 
z
M 4925 3328 
L 1750 3328 
L 1553 2203 
L 4888 2203 
Q 4906 2753 4925 3328 
z
M 100 3522 
Q 1025 4309 1550 5359 
L 2113 5359 
Q 1966 5069 1803 4803 
L 6156 4803 
L 6156 4353 
L 1509 4353 
Q 1022 3659 413 3134 
Q 281 3316 100 3522 
z
M 2619 2978 
L 2913 3303 
Q 3388 2934 3750 2622 
L 3413 2247 
Q 3025 2628 2619 2978 
z
M 2569 1391 
L 2863 1716 
Q 3338 1347 3700 1034 
L 3369 666 
Q 2888 1116 2569 1391 
z
" transform="scale(0.015625)"/>
     <path id="MicrosoftYaHei-534a" d="M 125 1484 
L 2931 1484 
L 2931 2572 
L 381 2572 
L 381 3047 
L 2931 3047 
L 2931 5316 
L 3463 5316 
L 3463 3047 
L 6025 3047 
L 6025 2572 
L 3463 2572 
L 3463 1484 
L 6275 1484 
L 6275 1009 
L 3463 1009 
L 3463 -822 
L 2931 -822 
L 2931 1009 
L 125 1009 
L 125 1484 
z
M 4200 3709 
Q 4750 4222 5363 4959 
L 5800 4609 
Q 5194 3928 4575 3359 
L 4200 3709 
z
M 600 4641 
L 969 4947 
Q 1550 4397 2156 3728 
L 1725 3359 
Q 1081 4159 600 4641 
z
" transform="scale(0.015625)"/>
     <path id="MicrosoftYaHei-5e74" d="M 119 1278 
L 1125 1278 
L 1125 3066 
L 3338 3066 
L 3338 4178 
L 1500 4178 
Q 1078 3419 556 2778 
Q 394 2953 169 3128 
Q 1056 4128 1500 5372 
L 2013 5228 
Q 1881 4919 1738 4628 
L 6038 4628 
L 6038 4178 
L 3844 4178 
L 3844 3066 
L 5931 3066 
L 5931 2628 
L 3844 2628 
L 3844 1278 
L 6319 1278 
L 6319 828 
L 3844 828 
L 3844 -859 
L 3338 -859 
L 3338 828 
L 119 828 
L 119 1278 
z
M 1619 1278 
L 3338 1278 
L 3338 2628 
L 1619 2628 
L 1619 1278 
z
" transform="scale(0.015625)"/>
     <path id="MicrosoftYaHei-79fb" d="M 2244 703 
Q 3244 1434 3875 2441 
Q 3300 2159 2594 1928 
Q 2494 2122 2363 2347 
Q 3288 2616 4013 3022 
Q 3744 3284 3306 3641 
L 3594 3953 
Q 4050 3597 4400 3284 
Q 4981 3653 5488 4341 
L 3619 4341 
Q 3256 3834 2638 3303 
Q 2506 3472 2331 3653 
Q 3231 4384 3713 5353 
L 4156 5184 
Q 4050 4978 3925 4784 
L 6013 4784 
L 6013 4334 
Q 5475 3291 4113 2559 
L 4444 2447 
Q 4344 2284 4238 2128 
L 6219 2128 
L 6219 1672 
Q 5388 -234 2431 -922 
Q 2319 -684 2206 -509 
Q 3200 -297 4094 153 
Q 3825 447 3450 797 
L 3750 1097 
Q 4156 734 4494 397 
Q 5288 959 5706 1684 
L 3913 1684 
Q 3338 941 2531 309 
Q 2413 484 2244 703 
z
M 50 859 
Q 681 1759 1056 2947 
L 131 2947 
L 131 3391 
L 1119 3391 
L 1119 4372 
Q 719 4341 263 4309 
Q 231 4522 169 4766 
Q 1444 4834 2394 4972 
L 2506 4497 
Q 2119 4453 1581 4409 
L 1581 3391 
L 2450 3391 
L 2450 2947 
L 1581 2947 
L 1581 2147 
L 1788 2378 
Q 2200 2053 2606 1697 
L 2275 1328 
Q 1956 1628 1581 1972 
L 1581 -859 
L 1119 -859 
L 1119 1897 
Q 781 1009 269 322 
Q 169 591 50 859 
z
" transform="scale(0.015625)"/>
     <path id="MicrosoftYaHei-52a8" d="M 2975 4022 
L 3906 4022 
Q 3916 4650 3913 5309 
L 4425 5309 
Q 4422 4656 4409 4022 
L 6094 4022 
Q 6050 1659 5969 216 
Q 5900 -666 5150 -678 
Q 4763 -678 4306 -659 
Q 4263 -397 4206 -109 
Q 4638 -166 4994 -172 
Q 5456 -172 5475 347 
Q 5569 1897 5588 3547 
L 4400 3547 
Q 4394 3278 4388 3016 
Q 4356 553 2900 -872 
Q 2725 -659 2525 -447 
Q 3831 716 3888 3028 
Q 3894 3284 3900 3547 
L 2975 3547 
L 2975 4022 
z
M 2338 1866 
Q 2731 1016 3063 178 
Q 2788 59 2594 -28 
Q 2550 91 2506 209 
Q 1316 97 338 -16 
L 119 491 
Q 394 647 563 997 
Q 869 1613 1200 2559 
L 144 2559 
L 144 3022 
L 3163 3022 
L 3163 2559 
L 1725 2559 
Q 1191 1228 800 491 
Q 1519 544 2347 631 
Q 2138 1163 1906 1672 
L 2338 1866 
z
M 406 4778 
L 2913 4778 
L 2913 4316 
L 406 4316 
L 406 4778 
z
" transform="scale(0.015625)"/>
     <path id="MicrosoftYaHei-4e00" d="M 100 2703 
L 6313 2703 
L 6313 2153 
L 100 2153 
L 100 2703 
z
" transform="scale(0.015625)"/>
     <path id="MicrosoftYaHei-6b21" d="M 4119 3472 
Q 4113 3159 4091 2856 
Q 4509 728 6319 -284 
Q 6063 -559 5913 -772 
Q 4344 331 3900 1944 
Q 3491 200 1650 -866 
Q 1525 -672 1306 -422 
Q 3225 591 3525 2428 
Q 3613 2878 3619 3472 
L 4119 3472 
z
M 4944 2647 
Q 5225 3166 5450 3766 
L 2991 3766 
Q 2719 3144 2388 2572 
Q 2163 2734 1938 2841 
Q 2669 4034 3000 5309 
L 3506 5166 
Q 3356 4675 3175 4209 
L 5988 4209 
L 5988 3766 
Q 5731 3072 5425 2466 
Q 5213 2572 4944 2647 
z
M 1388 2622 
Q 1675 2403 1875 2284 
Q 1075 859 575 -178 
L 69 153 
Q 713 1128 1388 2622 
z
M 644 4916 
Q 1150 4409 1781 3672 
L 1375 3297 
Q 769 4097 281 4591 
L 644 4916 
z
" transform="scale(0.015625)"/>
     <path id="MicrosoftYaHei-ff0c" d="M 1931 775 
L 1403 -891 
L 966 -891 
L 1350 775 
L 1931 775 
z
" transform="scale(0.015625)"/>
     <path id="MicrosoftYaHei-5e76" d="M 125 2172 
L 1778 2172 
Q 1781 2272 1781 3684 
L 394 3684 
L 394 4172 
L 2169 4172 
Q 1772 4697 1438 5059 
L 1813 5341 
Q 2325 4828 2619 4447 
L 2222 4172 
L 3784 4172 
Q 4178 4694 4581 5347 
L 5075 5041 
Q 4684 4538 4366 4172 
L 6006 4172 
L 6006 3684 
L 4681 3684 
L 4681 2172 
L 6275 2172 
L 6275 1684 
L 4681 1684 
L 4681 -816 
L 4169 -816 
L 4169 1684 
L 2266 1684 
Q 2188 28 744 -872 
Q 513 -566 394 -434 
Q 1713 403 1747 1684 
L 125 1684 
L 125 2172 
z
M 2291 2172 
L 4169 2172 
L 4169 3684 
L 2294 3684 
Q 2294 2384 2291 2172 
z
" transform="scale(0.015625)"/>
     <path id="MicrosoftYaHei-91cd" d="M 113 -203 
L 2975 -203 
L 2975 259 
L 600 259 
L 600 628 
L 2975 628 
L 2975 1153 
L 1288 1153 
L 1288 928 
L 850 928 
L 850 3278 
L 2975 3278 
L 2975 3728 
L 163 3728 
L 163 4116 
L 2975 4116 
L 2975 4606 
Q 1841 4572 625 4547 
Q 588 4747 538 4972 
Q 3706 5009 5669 5141 
L 5744 4716 
Q 4631 4663 3425 4619 
L 3425 4116 
L 6263 4116 
L 6263 3728 
L 3425 3728 
L 3425 3278 
L 5569 3278 
L 5569 934 
L 5131 934 
L 5131 1153 
L 3425 1153 
L 3425 628 
L 5806 628 
L 5806 259 
L 3425 259 
L 3425 -203 
L 6263 -203 
L 6263 -591 
L 113 -591 
L 113 -203 
z
M 3425 1516 
L 5131 1516 
L 5131 2053 
L 3425 2053 
L 3425 1516 
z
M 1288 1516 
L 2975 1516 
L 2975 2053 
L 1288 2053 
L 1288 1516 
z
M 5131 2916 
L 3425 2916 
L 3425 2384 
L 5131 2384 
L 5131 2916 
z
M 1288 2384 
L 2975 2384 
L 2975 2916 
L 1288 2916 
L 1288 2384 
z
" transform="scale(0.015625)"/>
     <path id="MicrosoftYaHei-65b0" d="M 3594 4797 
Q 4888 4809 5981 5053 
L 6144 4572 
Q 4906 4409 4038 4359 
L 4038 2903 
L 6319 2903 
L 6319 2478 
L 5425 2478 
L 5425 -797 
L 4963 -797 
L 4963 2478 
L 4038 2478 
L 4038 2172 
Q 4038 253 3119 -816 
Q 2969 -622 2788 -416 
Q 3594 466 3594 2191 
L 3594 4797 
z
M 263 1991 
L 1538 1991 
L 1538 2584 
L 1988 2584 
L 1988 1991 
L 3213 1991 
L 3213 1591 
L 1988 1591 
L 1988 -41 
Q 1988 -703 1350 -703 
Q 1081 -703 744 -697 
Q 719 -491 675 -222 
Q 1038 -259 1244 -259 
Q 1538 -259 1538 59 
L 1538 1591 
L 263 1591 
L 263 1991 
z
M 88 3159 
L 1094 3159 
Q 828 3581 594 3884 
L 931 4122 
Q 1138 3872 1463 3416 
L 1109 3159 
L 1934 3159 
Q 2275 3650 2563 4128 
L 3006 3878 
Q 2703 3488 2428 3159 
L 3375 3159 
L 3375 2759 
L 88 2759 
L 88 3159 
z
M 288 4609 
L 1638 4609 
Q 1503 4866 1331 5166 
L 1731 5353 
Q 1925 5034 2094 4709 
L 1884 4609 
L 3213 4609 
L 3213 4209 
L 288 4209 
L 288 4609 
z
M 744 1309 
L 1169 1109 
Q 831 403 500 -166 
Q 319 -53 88 59 
Q 394 534 744 1309 
z
M 2544 1278 
Q 2894 803 3156 403 
L 2756 128 
Q 2481 609 2175 1034 
L 2544 1278 
z
" transform="scale(0.015625)"/>
     <path id="MicrosoftYaHei-8ba1" d="M 2100 3153 
L 3919 3153 
L 3919 5303 
L 4456 5303 
L 4456 3153 
L 6288 3153 
L 6288 2703 
L 4456 2703 
L 4456 -822 
L 3919 -822 
L 3919 2703 
L 2100 2703 
L 2100 3153 
z
M 2675 903 
Q 2694 578 2719 359 
Q 1719 -266 1069 -728 
L 769 -303 
Q 988 -116 988 266 
L 988 2741 
L 100 2741 
L 100 3191 
L 1488 3191 
L 1488 153 
Q 2031 484 2675 903 
z
M 738 5222 
Q 1419 4522 1725 4184 
L 1288 3816 
Q 894 4334 356 4891 
L 738 5222 
z
" transform="scale(0.015625)"/>
     <path id="MicrosoftYaHei-7b97" d="M 969 3728 
L 2006 3728 
Q 1775 4016 1544 4266 
L 1769 4428 
L 1244 4428 
Q 875 3963 400 3566 
Q 263 3722 88 3884 
Q 856 4484 1300 5347 
L 1831 5347 
Q 1684 5059 1506 4791 
L 3325 4791 
L 3325 4428 
L 1919 4428 
Q 2144 4200 2369 3953 
L 2072 3728 
L 4953 3728 
Q 4716 4003 4425 4266 
L 4641 4428 
L 4019 4428 
Q 3772 4050 3506 3753 
Q 3344 3897 3125 4047 
Q 3656 4603 4000 5347 
L 4538 5347 
Q 4394 5053 4244 4791 
L 6225 4791 
L 6225 4428 
L 4800 4428 
Q 5069 4206 5294 3972 
L 4991 3728 
L 5475 3728 
L 5475 916 
L 5038 916 
L 5038 1122 
L 1406 1122 
L 1406 916 
L 969 916 
L 969 3728 
z
M 150 609 
L 1850 609 
Q 1875 788 1875 1003 
L 2331 1003 
Q 2331 794 2309 609 
L 4356 609 
L 4356 997 
L 4819 997 
L 4819 609 
L 6300 609 
L 6300 222 
L 4819 222 
L 4819 -828 
L 4356 -828 
L 4356 222 
L 2244 222 
Q 2019 -619 763 -884 
Q 644 -691 488 -472 
Q 1525 -297 1756 222 
L 150 222 
L 150 609 
z
M 5038 3378 
L 1406 3378 
L 1406 2959 
L 5038 2959 
L 5038 3378 
z
M 1406 1472 
L 5038 1472 
L 5038 1891 
L 1406 1891 
L 1406 1472 
z
M 1406 2216 
L 5038 2216 
L 5038 2634 
L 1406 2634 
L 1406 2216 
z
" transform="scale(0.015625)"/>
     <path id="MicrosoftYaHei-3001" d="M 1931 -413 
L 1556 -791 
Q 1028 -216 397 306 
L 728 650 
Q 1506 22 1931 -413 
z
" transform="scale(0.015625)"/>
     <path id="MicrosoftYaHei-548c" d="M 3263 4553 
L 6025 4553 
L 6025 -666 
L 5525 -666 
L 5525 -59 
L 3763 -59 
L 3763 -666 
L 3263 -666 
L 3263 4553 
z
M 5525 4091 
L 3763 4091 
L 3763 391 
L 5525 391 
L 5525 4091 
z
M 75 897 
Q 788 1841 1206 2997 
L 113 2997 
L 113 3422 
L 1306 3422 
L 1306 4409 
Q 819 4334 319 4272 
Q 263 4478 181 4703 
Q 1481 4847 2700 5128 
L 2844 4691 
Q 2325 4584 1781 4491 
L 1781 3422 
L 2950 3422 
L 2950 2997 
L 1781 2997 
L 1781 2191 
L 2006 2416 
Q 2500 1991 2975 1516 
L 2619 1153 
Q 2244 1584 1781 2034 
L 1781 -872 
L 1306 -872 
L 1306 2128 
Q 938 1203 313 359 
Q 213 603 75 897 
z
" transform="scale(0.015625)"/>
     <path id="MicrosoftYaHei-7684" d="M 356 4284 
L 988 4284 
Q 1219 4853 1369 5322 
L 1894 5172 
Q 1697 4694 1513 4284 
L 2763 4284 
L 2763 -691 
L 2263 -691 
L 2263 -203 
L 856 -203 
L 856 -734 
L 356 -734 
L 356 4284 
z
M 2856 3003 
Q 3444 3934 3850 5322 
L 4375 5191 
Q 4216 4719 4050 4303 
L 6063 4303 
Q 5988 1091 5938 259 
Q 5894 -722 4906 -722 
Q 4338 -722 3750 -684 
Q 3713 -372 3650 -128 
L 3669 -128 
Q 4294 -216 4813 -216 
Q 5381 -216 5425 384 
Q 5494 1316 5525 3834 
L 3850 3834 
Q 3578 3231 3288 2772 
Q 3119 2891 2856 3003 
z
M 856 266 
L 2263 266 
L 2263 1847 
L 856 1847 
L 856 266 
z
M 2263 3816 
L 856 3816 
L 856 2297 
L 2263 2297 
L 2263 3816 
z
M 3406 2578 
L 3788 2859 
Q 4481 2041 4894 1441 
L 4431 1116 
Q 3988 1841 3406 2578 
z
" transform="scale(0.015625)"/>
     <path id="MicrosoftYaHei-20" transform="scale(0.015625)"/>
     <path id="MicrosoftYaHei-ff1b" d="M 1606 3531 
Q 1772 3531 1890 3415 
Q 2009 3300 2009 3138 
Q 2009 2975 1893 2858 
Q 1778 2741 1606 2741 
Q 1434 2741 1318 2858 
Q 1203 2975 1203 3138 
Q 1203 3300 1322 3415 
Q 1441 3531 1606 3531 
z
M 1931 775 
L 1403 -891 
L 966 -891 
L 1350 775 
L 1931 775 
z
" transform="scale(0.015625)"/>
     <path id="MicrosoftYaHei-8fd9" d="M 2631 -191 
L 4263 -228 
L 6300 -166 
Q 6231 -372 6125 -659 
L 4106 -659 
L 2575 -634 
Q 1525 -616 1081 91 
Q 825 -147 331 -747 
L 75 -228 
Q 628 306 875 538 
L 875 2641 
L 131 2641 
L 131 3103 
L 1356 3103 
L 1356 438 
Q 1741 -175 2631 -191 
z
M 2275 3109 
L 2575 3434 
Q 3197 2938 4084 2194 
Q 4684 2900 5044 3816 
L 5519 3591 
Q 5091 2619 4463 1878 
Q 5138 1309 5950 616 
L 5563 197 
Q 4759 928 4119 1500 
Q 3269 653 2106 159 
Q 1988 341 1800 578 
Q 2950 1056 3747 1834 
Q 2828 2650 2275 3109 
z
M 1925 4341 
L 6150 4341 
L 6150 3903 
L 1925 3903 
L 1925 4341 
z
M 856 5203 
Q 1175 4816 1731 4022 
L 1288 3709 
Q 781 4503 456 4934 
L 856 5203 
z
M 3438 5147 
L 3869 5359 
Q 4063 5066 4325 4591 
L 3875 4359 
Q 3638 4822 3438 5147 
z
" transform="scale(0.015625)"/>
     <path id="MicrosoftYaHei-662f" d="M 1088 5078 
L 5338 5078 
L 5338 2472 
L 4863 2472 
L 4863 2722 
L 1563 2722 
L 1563 2472 
L 1088 2472 
L 1088 5078 
z
M 1400 1553 
L 1875 1409 
Q 1775 1081 1647 788 
Q 2122 19 3063 -134 
L 3063 1747 
L 213 1747 
L 213 2184 
L 6225 2184 
L 6225 1747 
L 3563 1747 
L 3563 1122 
L 5788 1122 
L 5788 697 
L 3563 697 
L 3563 -172 
Q 4763 -197 6344 -147 
Q 6244 -416 6169 -641 
Q 4331 -647 3344 -622 
Q 2022 -606 1434 359 
Q 1006 -413 350 -891 
Q 225 -703 44 -484 
Q 1050 191 1400 1553 
z
M 1563 3147 
L 4863 3147 
L 4863 3697 
L 1563 3697 
L 1563 3147 
z
M 4863 4653 
L 1563 4653 
L 1563 4109 
L 4863 4109 
L 4863 4653 
z
" transform="scale(0.015625)"/>
     <path id="MicrosoftYaHei-6eda" d="M 5769 1534 
L 6088 1184 
Q 5634 819 5144 478 
Q 5647 91 6325 -116 
Q 6206 -266 5981 -566 
Q 4525 6 3853 1441 
Q 3550 1141 3219 884 
L 3219 -191 
Q 3688 -34 4219 159 
Q 4213 -116 4219 -334 
Q 3806 -459 3331 -647 
Q 3094 -741 2881 -853 
L 2606 -472 
Q 2756 -359 2756 -34 
L 2756 556 
Q 2225 213 1625 -34 
Q 1494 172 1300 391 
Q 2572 816 3575 1719 
Q 3206 1700 2850 1678 
Q 2544 1653 2294 1584 
L 2081 2034 
Q 2375 2116 2569 2259 
Q 3100 2684 3669 3378 
L 4113 3153 
Q 3488 2516 3006 2109 
Q 3956 2125 4869 2156 
Q 4606 2391 4288 2659 
L 4581 2928 
Q 5475 2228 5875 1853 
L 5531 1534 
Q 5413 1653 5269 1788 
Q 4703 1769 4163 1747 
Q 4419 1172 4831 753 
Q 5366 1153 5769 1534 
z
M 2044 4628 
L 3853 4628 
Q 3725 4913 3575 5184 
L 4031 5366 
Q 4228 4984 4391 4628 
L 6194 4628 
L 6194 4203 
L 2044 4203 
L 2044 4628 
z
M 831 1816 
Q 1063 1716 1313 1628 
Q 1050 553 750 -766 
L 231 -597 
Q 606 609 831 1816 
z
M 3175 4084 
L 3550 3797 
Q 2806 3141 2031 2659 
Q 1888 2859 1719 3022 
Q 2556 3484 3175 4084 
z
M 4713 4066 
Q 5569 3503 6181 3022 
L 5881 2666 
Q 5331 3128 4431 3759 
L 4713 4066 
z
M 394 3622 
Q 806 3341 1425 2822 
Q 1213 2572 1081 2422 
Q 569 2897 88 3272 
L 394 3622 
z
M 719 5197 
Q 1256 4778 1738 4334 
Q 1544 4128 1381 3959 
Q 781 4559 419 4866 
L 719 5197 
z
" transform="scale(0.015625)"/>
     <path id="MicrosoftYaHei-654f" d="M 131 2272 
L 613 2272 
L 731 3684 
Q 572 3459 388 3259 
Q 238 3478 75 3634 
Q 763 4334 1056 5353 
L 1513 5272 
Q 1422 4984 1309 4722 
L 3550 4722 
L 3550 4322 
L 1125 4322 
Q 984 4053 819 3809 
L 3225 3809 
Q 3197 2963 3172 2272 
L 3663 2272 
L 3663 1872 
L 3159 1872 
Q 3131 1166 3106 659 
L 3588 659 
L 3588 259 
L 3088 259 
Q 3056 -684 2231 -684 
Q 1750 -684 1388 -672 
Q 1363 -416 1300 -178 
Q 1744 -222 2156 -222 
Q 2588 -222 2622 259 
L 444 259 
L 578 1872 
L 131 1872 
L 131 2272 
z
M 4306 5328 
L 4763 5253 
Q 4641 4706 4491 4209 
L 6263 4209 
L 6263 3784 
L 5922 3784 
Q 5806 2050 5159 853 
Q 5628 116 6331 -334 
Q 6169 -591 6038 -816 
Q 5347 -316 4878 397 
Q 4341 -375 3531 -878 
Q 3413 -728 3144 -478 
Q 4053 6 4606 863 
Q 4159 1738 3984 2884 
Q 3850 2594 3700 2328 
Q 3600 2497 3375 2728 
Q 4025 3841 4306 5328 
z
M 2697 1872 
L 1041 1872 
L 938 659 
L 2647 659 
Q 2675 1228 2697 1872 
z
M 1175 3409 
L 1075 2272 
L 2709 2272 
Q 2725 2816 2738 3409 
L 1175 3409 
z
M 5453 3784 
L 4350 3784 
Q 4322 3706 4297 3634 
Q 4434 2309 4884 1359 
Q 5363 2366 5453 3784 
z
M 1419 1559 
L 1781 1759 
Q 2056 1353 2269 972 
L 1881 766 
Q 1681 1172 1419 1559 
z
M 1506 3141 
L 1869 3347 
Q 2125 2959 2325 2597 
L 1944 2384 
Q 1725 2822 1506 3141 
z
" transform="scale(0.015625)"/>
     <path id="MicrosoftYaHei-611f" d="M 3531 1422 
Q 4013 1741 4388 2131 
Q 4022 2909 3944 4147 
L 1213 4147 
L 1213 3322 
Q 1213 1803 463 872 
Q 331 1134 138 1347 
Q 763 2034 763 3328 
L 763 4547 
L 3922 4547 
Q 3903 4928 3900 5284 
L 4363 5284 
Q 4363 4928 4378 4547 
L 6200 4547 
L 6200 4147 
L 4400 4147 
Q 4466 3184 4728 2531 
Q 5150 3088 5394 3772 
L 5819 3559 
Q 5456 2741 4947 2103 
Q 5059 1922 5194 1778 
Q 5344 1622 5475 1622 
Q 5594 1622 5669 1822 
Q 5763 2084 5856 2522 
Q 6019 2434 6319 2322 
Q 6175 1766 6069 1503 
Q 5888 1066 5538 1066 
Q 5250 1066 4925 1366 
Q 4756 1522 4616 1725 
Q 4278 1375 3888 1091 
Q 3738 1259 3531 1422 
z
M 1638 2891 
L 3563 2891 
L 3563 1541 
L 2063 1541 
L 2063 1366 
L 1638 1366 
L 1638 2891 
z
M 1713 997 
L 2188 997 
L 2188 134 
Q 2188 -253 2588 -253 
L 3713 -253 
Q 4194 -253 4263 109 
Q 4313 316 4375 778 
Q 4588 691 4869 591 
Q 4788 166 4706 -103 
Q 4556 -691 3813 -691 
L 2488 -691 
Q 1713 -691 1713 78 
L 1713 997 
z
M 1444 3697 
L 3719 3697 
L 3719 3322 
L 1444 3322 
L 1444 3697 
z
M 844 1028 
L 1288 853 
Q 969 47 594 -534 
Q 438 -441 175 -297 
Q 581 291 844 1028 
z
M 3138 1916 
L 3138 2516 
L 2063 2516 
L 2063 1916 
L 3138 1916 
z
M 5113 634 
L 5463 884 
Q 5863 422 6275 -166 
L 5863 -459 
Q 5563 34 5113 634 
z
M 2706 1072 
L 3044 1328 
Q 3456 891 3781 491 
L 3388 191 
Q 3050 678 2706 1072 
z
M 5656 4866 
L 5350 4559 
Q 5081 4809 4763 5066 
L 5038 5353 
Q 5363 5116 5656 4866 
z
" transform="scale(0.015625)"/>
     <path id="MicrosoftYaHei-6027" d="M 1963 -153 
L 3988 -153 
L 3988 1522 
L 2375 1522 
L 2375 1959 
L 3988 1959 
L 3988 3472 
L 2975 3472 
Q 2744 2878 2438 2291 
Q 2169 2509 2019 2578 
Q 2644 3709 2894 4891 
L 3388 4759 
Q 3281 4328 3138 3909 
L 3988 3909 
L 3988 5284 
L 4481 5284 
L 4481 3909 
L 6125 3909 
L 6125 3472 
L 4481 3472 
L 4481 1959 
L 6000 1959 
L 6000 1522 
L 4481 1522 
L 4481 -153 
L 6319 -153 
L 6319 -591 
L 1963 -591 
L 1963 -153 
z
M 988 5291 
L 1469 5291 
L 1469 4091 
L 1738 4241 
Q 2063 3734 2294 3291 
L 1906 3041 
Q 1688 3503 1469 3859 
L 1469 -872 
L 988 -872 
L 988 5291 
z
M 406 3878 
L 819 3784 
Q 706 3028 506 2178 
Q 338 2241 75 2297 
Q 263 2978 406 3878 
z
" transform="scale(0.015625)"/>
     <path id="MicrosoftYaHei-68c0" d="M 81 1378 
Q 675 2328 988 3597 
L 144 3597 
L 144 4009 
L 1044 4009 
L 1044 5266 
L 1481 5266 
L 1481 4009 
L 2319 4009 
L 2319 3597 
L 1481 3597 
L 1481 2672 
L 1756 2872 
Q 2094 2459 2350 2097 
L 2006 1828 
Q 1788 2197 1481 2597 
L 1481 -841 
L 1044 -841 
L 1044 2647 
Q 725 1534 281 828 
Q 206 1103 81 1378 
z
M 2163 -122 
L 4544 -122 
Q 4881 791 5244 2203 
L 5750 2059 
Q 5331 741 5013 -122 
L 6188 -122 
L 6188 -566 
L 2163 -566 
L 2163 -122 
z
M 4538 5216 
L 4456 5091 
Q 5119 3891 6344 3166 
Q 6175 2978 6000 2741 
Q 4781 3603 4181 4672 
Q 3438 3466 2475 2666 
Q 2325 2866 2119 3059 
Q 3281 3941 3944 5216 
L 4538 5216 
z
M 2900 2972 
L 5463 2972 
L 5463 2534 
L 2900 2534 
L 2900 2972 
z
M 3656 2197 
L 4094 2303 
Q 4338 1441 4500 578 
L 4031 459 
Q 3875 1441 3656 2197 
z
M 2469 1947 
L 2900 2072 
Q 3138 1378 3388 378 
L 2925 241 
Q 2719 1172 2469 1947 
z
" transform="scale(0.015625)"/>
     <path id="MicrosoftYaHei-67e5" d="M 306 4659 
L 2975 4659 
L 2975 5328 
L 3419 5328 
L 3419 4659 
L 6125 4659 
L 6125 4241 
L 3809 4241 
Q 4797 3488 6306 3103 
Q 6144 2859 6019 2659 
Q 5681 2775 5369 2909 
L 5369 197 
L 4894 197 
L 4894 478 
L 1525 478 
L 1525 191 
L 1050 191 
L 1050 2878 
Q 731 2731 381 2597 
Q 250 2791 88 2997 
Q 1700 3506 2559 4241 
L 306 4241 
L 306 4659 
z
M 156 -141 
L 6244 -141 
L 6244 -591 
L 156 -591 
L 156 -141 
z
M 2975 3066 
L 2975 4138 
Q 2256 3444 1119 2909 
L 5366 2909 
Q 4213 3400 3419 4125 
L 3419 3066 
L 2975 3066 
z
M 1525 909 
L 4894 909 
L 4894 1484 
L 1525 1484 
L 1525 909 
z
M 4894 2478 
L 1525 2478 
L 1525 1909 
L 4894 1909 
L 4894 2478 
z
" transform="scale(0.015625)"/>
     <path id="MicrosoftYaHei-4e0d" d="M 225 4772 
L 6181 4772 
L 6181 4284 
L 3881 4284 
Q 3581 3766 3081 3053 
L 3444 3053 
L 3444 -866 
L 2906 -866 
L 2906 2859 
Q 1838 1541 388 609 
Q 231 834 38 1059 
Q 2006 2291 3213 4284 
L 225 4284 
L 225 4772 
z
M 4069 2859 
Q 5238 2147 6325 1409 
L 5969 916 
Q 4681 1872 3763 2434 
L 4069 2859 
z
" transform="scale(0.015625)"/>
     <path id="MicrosoftYaHei-7b49" d="M 125 2303 
L 2913 2303 
L 2913 2922 
L 563 2922 
L 563 3328 
L 2913 3328 
L 2913 3822 
L 3400 3822 
L 3400 3328 
L 5850 3328 
L 5850 2922 
L 3400 2922 
L 3400 2303 
L 6288 2303 
L 6288 1884 
L 125 1884 
L 125 2303 
z
M 338 1272 
L 4250 1272 
L 4250 1766 
L 4738 1766 
L 4738 1272 
L 6075 1272 
L 6075 853 
L 4738 853 
L 4738 22 
Q 4738 -766 3925 -766 
Q 3450 -766 2969 -759 
Q 2938 -534 2875 -228 
Q 3375 -278 3794 -278 
Q 4250 -278 4250 91 
L 4250 853 
L 338 853 
L 338 1272 
z
M 1294 5347 
L 1831 5347 
Q 1688 5041 1513 4759 
L 3325 4759 
L 3325 4372 
L 1244 4372 
Q 875 3878 388 3459 
Q 263 3609 75 3797 
Q 856 4428 1294 5347 
z
M 3969 5347 
L 4506 5347 
Q 4366 5038 4213 4759 
L 6225 4759 
L 6225 4372 
L 3984 4372 
Q 3772 4038 3538 3759 
Q 3275 3947 3119 4009 
Q 3663 4597 3969 5347 
z
M 1500 491 
L 1831 809 
Q 2256 447 2700 28 
L 2338 -316 
Q 2000 41 1500 491 
z
M 2019 3441 
Q 1781 3753 1500 4078 
L 1825 4309 
Q 2125 4022 2388 3722 
L 2019 3441 
z
M 4744 3441 
Q 4625 3628 4238 4078 
L 4563 4309 
Q 4900 3984 5113 3722 
L 4744 3441 
z
" transform="scale(0.015625)"/>
     <path id="MicrosoftYaHei-540c" d="M 1013 -772 
L 531 -772 
L 531 4959 
L 5856 4959 
L 5856 -47 
Q 5856 -741 5125 -741 
Q 4669 -741 4088 -716 
Q 4056 -497 4000 -216 
Q 4619 -272 5025 -272 
Q 5375 -272 5375 78 
L 5375 4497 
L 1013 4497 
L 1013 -772 
z
M 1875 2566 
L 4506 2566 
L 4506 597 
L 2338 597 
L 2338 272 
L 1875 272 
L 1875 2566 
z
M 4044 2116 
L 2338 2116 
L 2338 1047 
L 4044 1047 
L 4044 2116 
z
M 1363 3734 
L 5025 3734 
L 5025 3284 
L 1363 3284 
L 1363 3734 
z
" transform="scale(0.015625)"/>
     <path id="MicrosoftYaHei-4e8e" d="M 125 2759 
L 3031 2759 
L 3031 4372 
L 625 4372 
L 625 4866 
L 5800 4866 
L 5800 4372 
L 3556 4372 
L 3556 2759 
L 6275 2759 
L 6275 2266 
L 3556 2266 
L 3556 122 
Q 3556 -303 3400 -491 
Q 3225 -709 2744 -722 
Q 2463 -722 1688 -716 
Q 1656 -428 1588 -147 
Q 2294 -197 2569 -197 
Q 2850 -197 2944 -91 
Q 3031 -3 3031 303 
L 3031 2266 
L 125 2266 
L 125 2759 
z
" transform="scale(0.015625)"/>
     <path id="MicrosoftYaHei-771f" d="M 156 778 
L 1056 778 
L 1056 3978 
L 2894 3978 
L 2894 4428 
L 250 4428 
L 250 4828 
L 2894 4828 
L 2894 5328 
L 3381 5328 
L 3381 4828 
L 6144 4828 
L 6144 4428 
L 3381 4428 
L 3381 3978 
L 5344 3978 
L 5344 778 
L 6263 778 
L 6263 378 
L 156 378 
L 156 778 
z
M 1531 778 
L 4869 778 
L 4869 1209 
L 1531 1209 
L 1531 778 
z
M 4869 3591 
L 1531 3591 
L 1531 3166 
L 4869 3166 
L 4869 3591 
z
M 1531 2372 
L 4869 2372 
L 4869 2797 
L 1531 2797 
L 1531 2372 
z
M 1531 1578 
L 4869 1578 
L 4869 2003 
L 1531 2003 
L 1531 1578 
z
M 3744 -72 
L 3975 316 
Q 4925 28 6169 -416 
L 5944 -859 
Q 4819 -422 3744 -72 
z
M 2369 334 
L 2663 -41 
Q 1656 -503 481 -891 
Q 388 -691 256 -453 
Q 1219 -172 2369 334 
z
" transform="scale(0.015625)"/>
     <path id="MicrosoftYaHei-6b63" d="M 88 66 
L 1106 66 
L 1106 3416 
L 1644 3416 
L 1644 66 
L 3231 66 
L 3231 4309 
L 375 4309 
L 375 4797 
L 6063 4797 
L 6063 4309 
L 3769 4309 
L 3769 2672 
L 5850 2672 
L 5850 2191 
L 3769 2191 
L 3769 66 
L 6313 66 
L 6313 -422 
L 88 -422 
L 88 66 
z
" transform="scale(0.015625)"/>
     <path id="MicrosoftYaHei-672a" d="M 6325 128 
Q 6150 -84 5975 -334 
Q 4328 488 3444 1791 
L 3444 -822 
L 2956 -822 
L 2956 1784 
Q 2006 525 419 -409 
Q 300 -241 81 9 
Q 1778 900 2763 2153 
L 181 2153 
L 181 2616 
L 2956 2616 
L 2956 3791 
L 550 3791 
L 550 4253 
L 2956 4253 
L 2956 5322 
L 3444 5322 
L 3444 4253 
L 5875 4253 
L 5875 3791 
L 3444 3791 
L 3444 2616 
L 6219 2616 
L 6219 2153 
L 3619 2153 
Q 4625 809 6325 128 
z
" transform="scale(0.015625)"/>
     <path id="MicrosoftYaHei-6765" d="M 6325 141 
Q 6119 -122 5975 -334 
Q 4344 403 3438 1550 
L 3438 -841 
L 2963 -841 
L 2963 1584 
Q 2050 516 413 -409 
Q 281 -222 75 22 
Q 1706 841 2806 1922 
L 181 1922 
L 181 2359 
L 2963 2359 
L 2963 4003 
L 550 4003 
L 550 4441 
L 2963 4441 
L 2963 5341 
L 3438 5341 
L 3438 4441 
L 5900 4441 
L 5900 4003 
L 3438 4003 
L 3438 2359 
L 6225 2359 
L 6225 1922 
L 3566 1922 
Q 4594 778 6325 141 
z
M 4056 2766 
Q 4631 3378 4950 3828 
L 5381 3497 
Q 4913 2941 4419 2453 
L 4056 2766 
z
M 1075 3509 
L 1438 3803 
Q 1900 3347 2313 2828 
L 1900 2484 
Q 1581 2922 1075 3509 
z
" transform="scale(0.015625)"/>
     <path id="MicrosoftYaHei-9a8c" d="M 963 4116 
L 819 2397 
L 1450 2397 
L 1613 4503 
L 194 4503 
L 194 4928 
L 2088 4928 
L 1894 2397 
L 2288 2397 
Q 2244 1078 2206 228 
Q 2188 -722 1381 -722 
Q 1044 -722 588 -703 
Q 556 -472 506 -209 
Q 956 -266 1306 -266 
Q 1744 -266 1769 266 
Q 1806 953 1831 1972 
L 331 1972 
L 531 4116 
L 963 4116 
z
M 2338 -103 
L 4594 -103 
Q 5044 1009 5394 2222 
L 5869 2072 
Q 5500 953 5088 -103 
L 6188 -103 
L 6188 -534 
L 2338 -534 
L 2338 -103 
z
M 4606 5278 
L 4488 5078 
Q 5244 3734 6363 3122 
Q 6163 2872 6031 2684 
Q 4931 3497 4238 4641 
Q 3600 3509 2456 2609 
Q 2344 2772 2144 3003 
Q 3388 3866 4050 5278 
L 4606 5278 
z
M 2975 2978 
L 5550 2978 
L 5550 2547 
L 2975 2547 
L 2975 2978 
z
M 3731 2178 
L 4175 2297 
Q 4438 1359 4606 659 
L 4150 528 
Q 3969 1391 3731 2178 
z
M 2656 1897 
L 3094 2034 
Q 3400 1147 3606 453 
L 3144 297 
Q 2938 1097 2656 1897 
z
M 38 1034 
Q 763 1178 1631 1384 
Q 1625 1134 1638 941 
Q 925 791 131 572 
L 38 1034 
z
" transform="scale(0.015625)"/>
     <path id="MicrosoftYaHei-3002" d="M 1219 863 
Q 1525 863 1750 625 
Q 1975 388 1975 72 
Q 1975 -284 1747 -507 
Q 1519 -731 1197 -731 
Q 875 -731 642 -503 
Q 409 -275 409 66 
Q 409 413 656 638 
Q 903 863 1219 863 
z
M 1209 -275 
Q 1328 -275 1431 -184 
Q 1534 -94 1534 50 
Q 1534 209 1434 304 
Q 1334 400 1191 400 
Q 1056 400 959 304 
Q 863 209 863 53 
Q 863 -100 977 -187 
Q 1091 -275 1209 -275 
z
" transform="scale(0.015625)"/>
    </defs>
    <use xlink:href="#MicrosoftYaHei-6bcf"/>
    <use xlink:href="#MicrosoftYaHei-534a" transform="translate(100 0)"/>
    <use xlink:href="#MicrosoftYaHei-5e74" transform="translate(200 0)"/>
    <use xlink:href="#MicrosoftYaHei-79fb" transform="translate(300 0)"/>
    <use xlink:href="#MicrosoftYaHei-52a8" transform="translate(400 0)"/>
    <use xlink:href="#MicrosoftYaHei-4e00" transform="translate(500 0)"/>
    <use xlink:href="#MicrosoftYaHei-6b21" transform="translate(600 0)"/>
    <use xlink:href="#MicrosoftYaHei-8bc4" transform="translate(700 0)"/>
    <use xlink:href="#MicrosoftYaHei-4ef7" transform="translate(800 0)"/>
    <use xlink:href="#MicrosoftYaHei-8d77" transform="translate(900 0)"/>
    <use xlink:href="#MicrosoftYaHei-70b9" transform="translate(1000 0)"/>
    <use xlink:href="#MicrosoftYaHei-ff0c" transform="translate(1100 0)"/>
    <use xlink:href="#MicrosoftYaHei-5e76" transform="translate(1200 0)"/>
    <use xlink:href="#MicrosoftYaHei-91cd" transform="translate(1300 0)"/>
    <use xlink:href="#MicrosoftYaHei-65b0" transform="translate(1400 0)"/>
    <use xlink:href="#MicrosoftYaHei-8ba1" transform="translate(1500 0)"/>
    <use xlink:href="#MicrosoftYaHei-7b97" transform="translate(1600 0)"/>
    <use xlink:href="#MicrosoftYaHei-4f18" transform="translate(1700 0)"/>
    <use xlink:href="#MicrosoftYaHei-5316" transform="translate(1800 0)"/>
    <use xlink:href="#MicrosoftYaHei-540e" transform="translate(1900 0)"/>
    <use xlink:href="#MicrosoftYaHei-7b56" transform="translate(2000 0)"/>
    <use xlink:href="#MicrosoftYaHei-7565" transform="translate(2100 0)"/>
    <use xlink:href="#MicrosoftYaHei-3001" transform="translate(2200 0)"/>
    <use xlink:href="#MicrosoftYaHei-6caa" transform="translate(2300 0)"/>
    <use xlink:href="#MicrosoftYaHei-6df1" transform="translate(2400 0)"/>
    <use xlink:href="#MicrosoftYaHei-33" transform="translate(2500 0)"/>
    <use xlink:href="#MicrosoftYaHei-30" transform="translate(2558.642578 0)"/>
    <use xlink:href="#MicrosoftYaHei-30" transform="translate(2617.285156 0)"/>
    <use xlink:href="#MicrosoftYaHei-45" transform="translate(2675.927734 0)"/>
    <use xlink:href="#MicrosoftYaHei-54" transform="translate(2731.158203 0)"/>
    <use xlink:href="#MicrosoftYaHei-46" transform="translate(2788.482422 0)"/>
    <use xlink:href="#MicrosoftYaHei-548c" transform="translate(2841.607422 0)"/>
    <use xlink:href="#MicrosoftYaHei-884c" transform="translate(2941.607422 0)"/>
    <use xlink:href="#MicrosoftYaHei-4e1a" transform="translate(3041.607422 0)"/>
    <use xlink:href="#MicrosoftYaHei-45" transform="translate(3141.607422 0)"/>
    <use xlink:href="#MicrosoftYaHei-54" transform="translate(3196.837891 0)"/>
    <use xlink:href="#MicrosoftYaHei-46" transform="translate(3254.162109 0)"/>
    <use xlink:href="#MicrosoftYaHei-9759" transform="translate(3307.287109 0)"/>
    <use xlink:href="#MicrosoftYaHei-6001" transform="translate(3407.287109 0)"/>
    <use xlink:href="#MicrosoftYaHei-914d" transform="translate(3507.287109 0)"/>
    <use xlink:href="#MicrosoftYaHei-7f6e" transform="translate(3607.287109 0)"/>
    <use xlink:href="#MicrosoftYaHei-7684" transform="translate(3707.287109 0)"/>
    <use xlink:href="#MicrosoftYaHei-20" transform="translate(3807.287109 0)"/>
    <use xlink:href="#MicrosoftYaHei-53" transform="translate(3836.876953 0)"/>
    <use xlink:href="#MicrosoftYaHei-68" transform="translate(3894.591797 0)"/>
    <use xlink:href="#MicrosoftYaHei-61" transform="translate(3956.164062 0)"/>
    <use xlink:href="#MicrosoftYaHei-72" transform="translate(4011.4375 0)"/>
    <use xlink:href="#MicrosoftYaHei-70" transform="translate(4049.621094 0)"/>
    <use xlink:href="#MicrosoftYaHei-65" transform="translate(4113.488281 0)"/>
    <use xlink:href="#MicrosoftYaHei-ff1b" transform="translate(4170.226562 0)"/>
    <use xlink:href="#MicrosoftYaHei-8fd9" transform="translate(4270.226562 0)"/>
    <use xlink:href="#MicrosoftYaHei-662f" transform="translate(4370.226562 0)"/>
    <use xlink:href="#MicrosoftYaHei-6eda" transform="translate(4470.226562 0)"/>
    <use xlink:href="#MicrosoftYaHei-52a8" transform="translate(4570.226562 0)"/>
    <use xlink:href="#MicrosoftYaHei-8d77" transform="translate(4670.226562 0)"/>
    <use xlink:href="#MicrosoftYaHei-70b9" transform="translate(4770.226562 0)"/>
    <use xlink:href="#MicrosoftYaHei-654f" transform="translate(4870.226562 0)"/>
    <use xlink:href="#MicrosoftYaHei-611f" transform="translate(4970.226562 0)"/>
    <use xlink:href="#MicrosoftYaHei-6027" transform="translate(5070.226562 0)"/>
    <use xlink:href="#MicrosoftYaHei-68c0" transform="translate(5170.226562 0)"/>
    <use xlink:href="#MicrosoftYaHei-67e5" transform="translate(5270.226562 0)"/>
    <use xlink:href="#MicrosoftYaHei-ff0c" transform="translate(5370.226562 0)"/>
    <use xlink:href="#MicrosoftYaHei-4e0d" transform="translate(5470.226562 0)"/>
    <use xlink:href="#MicrosoftYaHei-7b49" transform="translate(5570.226562 0)"/>
    <use xlink:href="#MicrosoftYaHei-540c" transform="translate(5670.226562 0)"/>
    <use xlink:href="#MicrosoftYaHei-4e8e" transform="translate(5770.226562 0)"/>
    <use xlink:href="#MicrosoftYaHei-771f" transform="translate(5870.226562 0)"/>
    <use xlink:href="#MicrosoftYaHei-6b63" transform="translate(5970.226562 0)"/>
    <use xlink:href="#MicrosoftYaHei-672a" transform="translate(6070.226562 0)"/>
    <use xlink:href="#MicrosoftYaHei-6765" transform="translate(6170.226562 0)"/>
    <use xlink:href="#MicrosoftYaHei-68c0" transform="translate(6270.226562 0)"/>
    <use xlink:href="#MicrosoftYaHei-9a8c" transform="translate(6370.226562 0)"/>
    <use xlink:href="#MicrosoftYaHei-3002" transform="translate(6470.226562 0)"/>
   </g>
  </g>
 </g>
 <defs>
  <clipPath id="p166d038bde">
   <rect x="65.232" y="99.108" width="758.88" height="312.984"/>
  </clipPath>
 </defs>
</svg>
