<?xml version="1.0" encoding="utf-8" standalone="no"?>
<!DOCTYPE svg PUBLIC "-//W3C//DTD SVG 1.1//EN"
  "http://www.w3.org/Graphics/SVG/1.1/DTD/svg11.dtd">
<svg xmlns:xlink="http://www.w3.org/1999/xlink" width="695.16pt" height="291.6pt" viewBox="0 0 695.16 291.6" xmlns="http://www.w3.org/2000/svg" version="1.1">
 <metadata>
  <rdf:RDF xmlns:dc="http://purl.org/dc/elements/1.1/" xmlns:cc="http://creativecommons.org/ns#" xmlns:rdf="http://www.w3.org/1999/02/22-rdf-syntax-ns#">
   <cc:Work>
    <dc:type rdf:resource="http://purl.org/dc/dcmitype/StillImage"/>
    <dc:date>2026-06-24T17:27:00.749512</dc:date>
    <dc:format>image/svg+xml</dc:format>
    <dc:creator>
     <cc:Agent>
      <dc:title>Matplotlib v3.10.8, https://matplotlib.org/</dc:title>
     </cc:Agent>
    </dc:creator>
   </cc:Work>
  </rdf:RDF>
 </metadata>
 <defs>
  <style type="text/css">*{stroke-linejoin: round; stroke-linecap: butt}</style>
 </defs>
 <g id="figure_1">
  <g id="patch_1">
   <path d="M 0 291.6 
L 695.16 291.6 
L 695.16 0 
L 0 0 
z
" style="fill: #fcfcfd"/>
  </g>
  <g id="axes_1">
   <g id="patch_2">
    <path d="M 61.810567 164.3724 
L 367.853033 164.3724 
Q 368.125337 164.3724 368.125337 161.6004 
L 368.125337 112.6746 
Q 368.125337 109.9026 367.853033 109.9026 
L 61.810567 109.9026 
Q 61.538263 109.9026 61.538263 112.6746 
L 61.538263 161.6004 
Q 61.538263 164.3724 61.810567 164.3724 
z
" clip-path="url(#p9527c37817)" style="fill: #eaf1fe; stroke: #2e4780; stroke-width: 1.2; stroke-linejoin: miter"/>
   </g>
   <g id="patch_3">
    <path d="M 381.767767 164.3724 
L 449.544233 164.3724 
Q 449.816537 164.3724 449.816537 161.6004 
L 449.816537 112.6746 
Q 449.816537 109.9026 449.544233 109.9026 
L 381.767767 109.9026 
Q 381.495463 109.9026 381.495463 112.6746 
L 381.495463 161.6004 
Q 381.495463 164.3724 381.767767 164.3724 
z
" clip-path="url(#p9527c37817)" style="fill: #fff4c2; stroke: #736422; stroke-width: 1.2; stroke-linejoin: miter"/>
   </g>
   <g id="patch_4">
    <path d="M 470.266567 164.3724 
L 538.043033 164.3724 
Q 538.315337 164.3724 538.315337 161.6004 
L 538.315337 112.6746 
Q 538.315337 109.9026 538.043033 109.9026 
L 470.266567 109.9026 
Q 469.994263 109.9026 469.994263 112.6746 
L 469.994263 161.6004 
Q 469.994263 164.3724 470.266567 164.3724 
z
" clip-path="url(#p9527c37817)" style="fill: #ffedde; stroke: #804126; stroke-width: 1.2; stroke-linejoin: miter"/>
   </g>
   <g id="patch_5">
    <path d="M 565.572967 164.3724 
L 633.349433 164.3724 
Q 633.621737 164.3724 633.621737 161.6004 
L 633.621737 112.6746 
Q 633.621737 109.9026 633.349433 109.9026 
L 565.572967 109.9026 
Q 565.300663 109.9026 565.300663 112.6746 
L 565.300663 161.6004 
Q 565.300663 164.3724 565.572967 164.3724 
z
" clip-path="url(#p9527c37817)" style="fill: #d8ecbd; stroke: #386411; stroke-width: 1.2; stroke-linejoin: miter"/>
   </g>
   <g id="patch_6">
    <path d="M 370.0022 136.791 
Q 388.427116 136.791 405.622194 136.791 
" clip-path="url(#p9527c37817)" style="fill: none; stroke: #464c55; stroke-width: 1.1; stroke-linecap: round"/>
    <path d="M 399.622194 133.791 
L 405.622194 136.791 
L 399.622194 139.791 
z
" clip-path="url(#p9527c37817)" style="fill: #464c55; stroke: #464c55; stroke-width: 1.1; stroke-linecap: round"/>
   </g>
   <g id="patch_7">
    <path d="M 458.501 136.791 
Q 476.925916 136.791 494.120994 136.791 
" clip-path="url(#p9527c37817)" style="fill: none; stroke: #464c55; stroke-width: 1.1; stroke-linecap: round"/>
    <path d="M 488.120994 133.791 
L 494.120994 136.791 
L 488.120994 139.791 
z
" clip-path="url(#p9527c37817)" style="fill: #464c55; stroke: #464c55; stroke-width: 1.1; stroke-linecap: round"/>
   </g>
   <g id="patch_8">
    <path d="M 553.8074 136.791 
Q 572.232316 136.791 589.427394 136.791 
" clip-path="url(#p9527c37817)" style="fill: none; stroke: #464c55; stroke-width: 1.1; stroke-linecap: round"/>
    <path d="M 583.427394 133.791 
L 589.427394 136.791 
L 583.427394 139.791 
z
" clip-path="url(#p9527c37817)" style="fill: #464c55; stroke: #464c55; stroke-width: 1.1; stroke-linecap: round"/>
   </g>
   <g id="text_1">
    <!-- ?????? -->
    <g style="fill: #1f2430" transform="translate(199.618284 133.341422) scale(0.105 -0.105)">
     <defs>
      <path id="MicrosoftYaHei-3f" d="M 1103 1350 
Q 1025 1581 1025 1844 
Q 1025 2050 1119 2261 
Q 1213 2472 1597 2844 
Q 1991 3216 2080 3403 
Q 2169 3591 2169 3759 
Q 2169 4059 1956 4232 
Q 1744 4406 1416 4406 
Q 844 4406 416 3956 
L 416 4597 
Q 938 4922 1500 4922 
Q 2075 4922 2423 4631 
Q 2772 4341 2772 3838 
Q 2772 3597 2669 3348 
Q 2566 3100 2131 2688 
Q 1803 2378 1690 2203 
Q 1578 2028 1578 1825 
Q 1578 1597 1688 1350 
L 1103 1350 
z
M 1025 328 
Q 1025 491 1144 608 
Q 1263 725 1428 725 
Q 1594 725 1712 608 
Q 1831 491 1831 328 
Q 1831 172 1714 54 
Q 1597 -63 1444 -63 
Q 1256 -63 1140 56 
Q 1025 175 1025 328 
z
" transform="scale(0.015625)"/>
     </defs>
     <use xlink:href="#MicrosoftYaHei-3f"/>
     <use xlink:href="#MicrosoftYaHei-3f" transform="translate(48.291016 0)"/>
     <use xlink:href="#MicrosoftYaHei-3f" transform="translate(96.582031 0)"/>
     <use xlink:href="#MicrosoftYaHei-3f" transform="translate(144.873047 0)"/>
     <use xlink:href="#MicrosoftYaHei-3f" transform="translate(193.164062 0)"/>
     <use xlink:href="#MicrosoftYaHei-3f" transform="translate(241.455078 0)"/>
    </g>
    <!-- ??????????? -->
    <g style="fill: #1f2430" transform="translate(186.940355 146.023781) scale(0.105 -0.105)">
     <use xlink:href="#MicrosoftYaHei-3f"/>
     <use xlink:href="#MicrosoftYaHei-3f" transform="translate(48.291016 0)"/>
     <use xlink:href="#MicrosoftYaHei-3f" transform="translate(96.582031 0)"/>
     <use xlink:href="#MicrosoftYaHei-3f" transform="translate(144.873047 0)"/>
     <use xlink:href="#MicrosoftYaHei-3f" transform="translate(193.164062 0)"/>
     <use xlink:href="#MicrosoftYaHei-3f" transform="translate(241.455078 0)"/>
     <use xlink:href="#MicrosoftYaHei-3f" transform="translate(289.746094 0)"/>
     <use xlink:href="#MicrosoftYaHei-3f" transform="translate(338.037109 0)"/>
     <use xlink:href="#MicrosoftYaHei-3f" transform="translate(386.328125 0)"/>
     <use xlink:href="#MicrosoftYaHei-3f" transform="translate(434.619141 0)"/>
     <use xlink:href="#MicrosoftYaHei-3f" transform="translate(482.910156 0)"/>
    </g>
   </g>
   <g id="text_2">
    <!-- ??? -->
    <g style="fill: #1f2430" transform="translate(408.049242 133.341422) scale(0.105 -0.105)">
     <use xlink:href="#MicrosoftYaHei-3f"/>
     <use xlink:href="#MicrosoftYaHei-3f" transform="translate(48.291016 0)"/>
     <use xlink:href="#MicrosoftYaHei-3f" transform="translate(96.582031 0)"/>
    </g>
    <!-- ????? -->
    <g style="fill: #1f2430" transform="translate(402.97807 146.023781) scale(0.105 -0.105)">
     <use xlink:href="#MicrosoftYaHei-3f"/>
     <use xlink:href="#MicrosoftYaHei-3f" transform="translate(48.291016 0)"/>
     <use xlink:href="#MicrosoftYaHei-3f" transform="translate(96.582031 0)"/>
     <use xlink:href="#MicrosoftYaHei-3f" transform="translate(144.873047 0)"/>
     <use xlink:href="#MicrosoftYaHei-3f" transform="translate(193.164062 0)"/>
    </g>
   </g>
   <g id="text_3">
    <!-- ????? -->
    <g style="fill: #1f2430" transform="translate(491.47687 133.341422) scale(0.105 -0.105)">
     <use xlink:href="#MicrosoftYaHei-3f"/>
     <use xlink:href="#MicrosoftYaHei-3f" transform="translate(48.291016 0)"/>
     <use xlink:href="#MicrosoftYaHei-3f" transform="translate(96.582031 0)"/>
     <use xlink:href="#MicrosoftYaHei-3f" transform="translate(144.873047 0)"/>
     <use xlink:href="#MicrosoftYaHei-3f" transform="translate(193.164062 0)"/>
    </g>
    <!-- ???? -->
    <g style="fill: #1f2430" transform="translate(494.012456 146.023781) scale(0.105 -0.105)">
     <use xlink:href="#MicrosoftYaHei-3f"/>
     <use xlink:href="#MicrosoftYaHei-3f" transform="translate(48.291016 0)"/>
     <use xlink:href="#MicrosoftYaHei-3f" transform="translate(96.582031 0)"/>
     <use xlink:href="#MicrosoftYaHei-3f" transform="translate(144.873047 0)"/>
    </g>
   </g>
   <g id="text_4">
    <!-- ????? -->
    <g style="fill: #1f2430" transform="translate(586.78327 133.341422) scale(0.105 -0.105)">
     <use xlink:href="#MicrosoftYaHei-3f"/>
     <use xlink:href="#MicrosoftYaHei-3f" transform="translate(48.291016 0)"/>
     <use xlink:href="#MicrosoftYaHei-3f" transform="translate(96.582031 0)"/>
     <use xlink:href="#MicrosoftYaHei-3f" transform="translate(144.873047 0)"/>
     <use xlink:href="#MicrosoftYaHei-3f" transform="translate(193.164062 0)"/>
    </g>
    <!-- ?21???? -->
    <g style="fill: #1f2430" transform="translate(580.626005 146.023781) scale(0.105 -0.105)">
     <defs>
      <path id="MicrosoftYaHei-32" d="M 2666 3572 
Q 2666 3963 2419 4186 
Q 2172 4409 1747 4409 
Q 1447 4409 1140 4256 
Q 834 4103 569 3819 
L 569 4413 
Q 806 4659 1107 4790 
Q 1409 4922 1816 4922 
Q 2472 4922 2872 4570 
Q 3272 4219 3272 3619 
Q 3272 3084 3026 2693 
Q 2781 2303 2188 1894 
Q 1581 1475 1376 1294 
Q 1172 1113 1090 947 
Q 1009 781 1009 544 
L 3416 544 
L 3416 0 
L 372 0 
L 372 241 
Q 372 659 486 951 
Q 600 1244 862 1520 
Q 1125 1797 1681 2184 
Q 2250 2584 2458 2886 
Q 2666 3188 2666 3572 
z
" transform="scale(0.015625)"/>
      <path id="MicrosoftYaHei-31" d="M 1781 0 
L 1781 4141 
Q 1638 3997 1295 3819 
Q 953 3641 663 3569 
L 663 4169 
Q 1047 4275 1484 4508 
Q 1922 4741 2156 4947 
L 2388 4947 
L 2388 0 
L 1781 0 
z
" transform="scale(0.015625)"/>
     </defs>
     <use xlink:href="#MicrosoftYaHei-3f"/>
     <use xlink:href="#MicrosoftYaHei-32" transform="translate(48.291016 0)"/>
     <use xlink:href="#MicrosoftYaHei-31" transform="translate(106.933594 0)"/>
     <use xlink:href="#MicrosoftYaHei-3f" transform="translate(165.576172 0)"/>
     <use xlink:href="#MicrosoftYaHei-3f" transform="translate(213.867188 0)"/>
     <use xlink:href="#MicrosoftYaHei-3f" transform="translate(262.158203 0)"/>
     <use xlink:href="#MicrosoftYaHei-3f" transform="translate(310.449219 0)"/>
    </g>
   </g>
   <g id="text_5">
    <!-- ?2-6 ?????T+1 ???????? -->
    <g style="fill: #1f2430" transform="translate(61.6608 52.245) scale(0.15 -0.15)">
     <defs>
      <path id="MicrosoftYaHei-Bold-3f" d="M 919 1394 
Q 844 1597 844 1813 
Q 844 2341 1344 2763 
Q 1653 3025 1762 3200 
Q 1872 3375 1872 3578 
Q 1872 3800 1715 3942 
Q 1559 4084 1313 4084 
Q 734 4084 238 3641 
L 238 4609 
Q 759 4922 1425 4922 
Q 2100 4922 2490 4609 
Q 2881 4297 2881 3719 
Q 2881 3372 2728 3090 
Q 2575 2809 2166 2475 
Q 1838 2200 1759 2047 
Q 1681 1894 1681 1722 
Q 1681 1553 1766 1394 
L 919 1394 
z
M 791 463 
Q 791 694 966 845 
Q 1141 997 1391 997 
Q 1631 997 1804 845 
Q 1978 694 1978 463 
Q 1978 234 1815 79 
Q 1653 -75 1425 -75 
Q 1134 -75 962 84 
Q 791 244 791 463 
z
" transform="scale(0.015625)"/>
      <path id="MicrosoftYaHei-Bold-32" d="M 1500 841 
L 3553 841 
L 3553 0 
L 334 0 
L 334 359 
Q 334 738 473 1050 
Q 613 1363 856 1633 
Q 1100 1903 1613 2266 
Q 2081 2616 2268 2886 
Q 2456 3156 2456 3459 
Q 2456 4113 1744 4113 
Q 1119 4113 550 3613 
L 550 4513 
Q 1184 4922 1975 4922 
Q 2700 4922 3122 4551 
Q 3544 4181 3544 3531 
Q 3544 3169 3422 2876 
Q 3300 2584 3069 2328 
Q 2838 2072 2328 1713 
Q 1838 1363 1669 1172 
Q 1500 981 1500 841 
z
" transform="scale(0.015625)"/>
      <path id="MicrosoftYaHei-Bold-2d" d="M 2328 1497 
L 481 1497 
L 481 2209 
L 2328 2209 
L 2328 1497 
z
" transform="scale(0.015625)"/>
      <path id="MicrosoftYaHei-Bold-36" d="M 3378 3938 
Q 3009 4147 2575 4147 
Q 2016 4147 1680 3708 
Q 1344 3269 1344 2572 
L 1363 2572 
Q 1709 3103 2391 3103 
Q 3000 3103 3358 2686 
Q 3716 2269 3716 1600 
Q 3716 869 3250 392 
Q 2784 -84 2059 -84 
Q 1228 -84 786 516 
Q 344 1116 344 2159 
Q 344 3388 917 4155 
Q 1491 4922 2513 4922 
Q 3063 4922 3378 4791 
L 3378 3938 
z
M 1378 1591 
Q 1378 1216 1565 953 
Q 1753 691 2059 691 
Q 2369 691 2547 931 
Q 2725 1172 2725 1534 
Q 2725 2350 2053 2350 
Q 1750 2350 1564 2134 
Q 1378 1919 1378 1591 
z
" transform="scale(0.015625)"/>
      <path id="MicrosoftYaHei-Bold-20" transform="scale(0.015625)"/>
      <path id="MicrosoftYaHei-Bold-54" d="M 3900 3997 
L 2519 3997 
L 2519 0 
L 1484 0 
L 1484 3997 
L 106 3997 
L 106 4841 
L 3900 4841 
L 3900 3997 
z
" transform="scale(0.015625)"/>
      <path id="MicrosoftYaHei-Bold-2b" d="M 4072 1653 
L 2766 1653 
L 2766 347 
L 2109 347 
L 2109 1653 
L 797 1653 
L 797 2313 
L 2109 2313 
L 2109 3625 
L 2766 3625 
L 2766 2313 
L 4072 2313 
L 4072 1653 
z
" transform="scale(0.015625)"/>
      <path id="MicrosoftYaHei-Bold-31" d="M 2716 4947 
L 2716 0 
L 1700 0 
L 1700 3809 
Q 1513 3647 1188 3517 
Q 863 3388 591 3356 
L 591 4222 
Q 1447 4472 2072 4947 
L 2716 4947 
z
" transform="scale(0.015625)"/>
     </defs>
     <use xlink:href="#MicrosoftYaHei-Bold-3f"/>
     <use xlink:href="#MicrosoftYaHei-Bold-32" transform="translate(47.412109 0)"/>
     <use xlink:href="#MicrosoftYaHei-Bold-2d" transform="translate(109.082031 0)"/>
     <use xlink:href="#MicrosoftYaHei-Bold-36" transform="translate(152.734375 0)"/>
     <use xlink:href="#MicrosoftYaHei-Bold-20" transform="translate(214.404297 0)"/>
     <use xlink:href="#MicrosoftYaHei-Bold-3f" transform="translate(244.189453 0)"/>
     <use xlink:href="#MicrosoftYaHei-Bold-3f" transform="translate(291.601562 0)"/>
     <use xlink:href="#MicrosoftYaHei-Bold-3f" transform="translate(339.013672 0)"/>
     <use xlink:href="#MicrosoftYaHei-Bold-3f" transform="translate(386.425781 0)"/>
     <use xlink:href="#MicrosoftYaHei-Bold-3f" transform="translate(433.837891 0)"/>
     <use xlink:href="#MicrosoftYaHei-Bold-54" transform="translate(481.25 0)"/>
     <use xlink:href="#MicrosoftYaHei-Bold-2b" transform="translate(543.798828 0)"/>
     <use xlink:href="#MicrosoftYaHei-Bold-31" transform="translate(619.921875 0)"/>
     <use xlink:href="#MicrosoftYaHei-Bold-20" transform="translate(681.591797 0)"/>
     <use xlink:href="#MicrosoftYaHei-Bold-3f" transform="translate(711.376953 0)"/>
     <use xlink:href="#MicrosoftYaHei-Bold-3f" transform="translate(758.789062 0)"/>
     <use xlink:href="#MicrosoftYaHei-Bold-3f" transform="translate(806.201172 0)"/>
     <use xlink:href="#MicrosoftYaHei-Bold-3f" transform="translate(853.613281 0)"/>
     <use xlink:href="#MicrosoftYaHei-Bold-3f" transform="translate(901.025391 0)"/>
     <use xlink:href="#MicrosoftYaHei-Bold-3f" transform="translate(948.4375 0)"/>
     <use xlink:href="#MicrosoftYaHei-Bold-3f" transform="translate(995.849609 0)"/>
     <use xlink:href="#MicrosoftYaHei-Bold-3f" transform="translate(1043.261719 0)"/>
    </g>
   </g>
   <g id="text_6">
    <!-- ?????????????????????????????????????????????????? -->
    <g style="fill: #6f768a" transform="translate(61.6608 75.114) scale(0.095 -0.095)">
     <use xlink:href="#MicrosoftYaHei-3f"/>
     <use xlink:href="#MicrosoftYaHei-3f" transform="translate(48.291016 0)"/>
     <use xlink:href="#MicrosoftYaHei-3f" transform="translate(96.582031 0)"/>
     <use xlink:href="#MicrosoftYaHei-3f" transform="translate(144.873047 0)"/>
     <use xlink:href="#MicrosoftYaHei-3f" transform="translate(193.164062 0)"/>
     <use xlink:href="#MicrosoftYaHei-3f" transform="translate(241.455078 0)"/>
     <use xlink:href="#MicrosoftYaHei-3f" transform="translate(289.746094 0)"/>
     <use xlink:href="#MicrosoftYaHei-3f" transform="translate(338.037109 0)"/>
     <use xlink:href="#MicrosoftYaHei-3f" transform="translate(386.328125 0)"/>
     <use xlink:href="#MicrosoftYaHei-3f" transform="translate(434.619141 0)"/>
     <use xlink:href="#MicrosoftYaHei-3f" transform="translate(482.910156 0)"/>
     <use xlink:href="#MicrosoftYaHei-3f" transform="translate(531.201172 0)"/>
     <use xlink:href="#MicrosoftYaHei-3f" transform="translate(579.492188 0)"/>
     <use xlink:href="#MicrosoftYaHei-3f" transform="translate(627.783203 0)"/>
     <use xlink:href="#MicrosoftYaHei-3f" transform="translate(676.074219 0)"/>
     <use xlink:href="#MicrosoftYaHei-3f" transform="translate(724.365234 0)"/>
     <use xlink:href="#MicrosoftYaHei-3f" transform="translate(772.65625 0)"/>
     <use xlink:href="#MicrosoftYaHei-3f" transform="translate(820.947266 0)"/>
     <use xlink:href="#MicrosoftYaHei-3f" transform="translate(869.238281 0)"/>
     <use xlink:href="#MicrosoftYaHei-3f" transform="translate(917.529297 0)"/>
     <use xlink:href="#MicrosoftYaHei-3f" transform="translate(965.820312 0)"/>
     <use xlink:href="#MicrosoftYaHei-3f" transform="translate(1014.111328 0)"/>
     <use xlink:href="#MicrosoftYaHei-3f" transform="translate(1062.402344 0)"/>
     <use xlink:href="#MicrosoftYaHei-3f" transform="translate(1110.693359 0)"/>
     <use xlink:href="#MicrosoftYaHei-3f" transform="translate(1158.984375 0)"/>
     <use xlink:href="#MicrosoftYaHei-3f" transform="translate(1207.275391 0)"/>
     <use xlink:href="#MicrosoftYaHei-3f" transform="translate(1255.566406 0)"/>
     <use xlink:href="#MicrosoftYaHei-3f" transform="translate(1303.857422 0)"/>
     <use xlink:href="#MicrosoftYaHei-3f" transform="translate(1352.148438 0)"/>
     <use xlink:href="#MicrosoftYaHei-3f" transform="translate(1400.439453 0)"/>
     <use xlink:href="#MicrosoftYaHei-3f" transform="translate(1448.730469 0)"/>
     <use xlink:href="#MicrosoftYaHei-3f" transform="translate(1497.021484 0)"/>
     <use xlink:href="#MicrosoftYaHei-3f" transform="translate(1545.3125 0)"/>
     <use xlink:href="#MicrosoftYaHei-3f" transform="translate(1593.603516 0)"/>
     <use xlink:href="#MicrosoftYaHei-3f" transform="translate(1641.894531 0)"/>
     <use xlink:href="#MicrosoftYaHei-3f" transform="translate(1690.185547 0)"/>
     <use xlink:href="#MicrosoftYaHei-3f" transform="translate(1738.476562 0)"/>
     <use xlink:href="#MicrosoftYaHei-3f" transform="translate(1786.767578 0)"/>
     <use xlink:href="#MicrosoftYaHei-3f" transform="translate(1835.058594 0)"/>
     <use xlink:href="#MicrosoftYaHei-3f" transform="translate(1883.349609 0)"/>
     <use xlink:href="#MicrosoftYaHei-3f" transform="translate(1931.640625 0)"/>
     <use xlink:href="#MicrosoftYaHei-3f" transform="translate(1979.931641 0)"/>
     <use xlink:href="#MicrosoftYaHei-3f" transform="translate(2028.222656 0)"/>
     <use xlink:href="#MicrosoftYaHei-3f" transform="translate(2076.513672 0)"/>
     <use xlink:href="#MicrosoftYaHei-3f" transform="translate(2124.804688 0)"/>
     <use xlink:href="#MicrosoftYaHei-3f" transform="translate(2173.095703 0)"/>
     <use xlink:href="#MicrosoftYaHei-3f" transform="translate(2221.386719 0)"/>
     <use xlink:href="#MicrosoftYaHei-3f" transform="translate(2269.677734 0)"/>
     <use xlink:href="#MicrosoftYaHei-3f" transform="translate(2317.96875 0)"/>
     <use xlink:href="#MicrosoftYaHei-3f" transform="translate(2366.259766 0)"/>
    </g>
   </g>
   <g id="text_7">
    <!-- t -->
    <g style="fill: #6f768a" transform="translate(379.7555 204.705) scale(0.1 -0.1)">
     <defs>
      <path id="MicrosoftYaHei-74" d="M 2206 34 
Q 2006 -75 1666 -75 
Q 738 -75 738 953 
L 738 2950 
L 144 2950 
L 144 3456 
L 738 3456 
L 738 4288 
L 1347 4481 
L 1347 3456 
L 2206 3456 
L 2206 2950 
L 1347 2950 
L 1347 1063 
Q 1347 722 1462 575 
Q 1578 428 1847 428 
Q 2053 428 2206 544 
L 2206 34 
z
" transform="scale(0.015625)"/>
     </defs>
     <use xlink:href="#MicrosoftYaHei-74"/>
    </g>
   </g>
   <g id="text_8">
    <!-- t+1 -->
    <g style="fill: #6f768a" transform="translate(495.651675 204.705) scale(0.1 -0.1)">
     <defs>
      <path id="MicrosoftYaHei-2b" d="M 3972 1772 
L 2613 1772 
L 2613 419 
L 2141 419 
L 2141 1772 
L 788 1772 
L 788 2250 
L 2141 2250 
L 2141 3603 
L 2613 3603 
L 2613 2250 
L 3972 2250 
L 3972 1772 
z
" transform="scale(0.015625)"/>
     </defs>
     <use xlink:href="#MicrosoftYaHei-74"/>
     <use xlink:href="#MicrosoftYaHei-2b" transform="translate(37.255859 0)"/>
     <use xlink:href="#MicrosoftYaHei-31" transform="translate(111.425781 0)"/>
    </g>
   </g>
  </g>
 </g>
 <defs>
  <clipPath id="p9527c37817">
   <rect x="7.2" y="7.2" width="680.76" height="277.2"/>
  </clipPath>
 </defs>
</svg>
