<?xml version="1.0" encoding="utf-8" standalone="no"?>
<!DOCTYPE svg PUBLIC "-//W3C//DTD SVG 1.1//EN"
  "http://www.w3.org/Graphics/SVG/1.1/DTD/svg11.dtd">
<svg xmlns:xlink="http://www.w3.org/1999/xlink" width="886.797578pt" height="411.139281pt" viewBox="0 0 886.797578 411.139281" xmlns="http://www.w3.org/2000/svg" version="1.1">
 <metadata>
  <rdf:RDF xmlns:dc="http://purl.org/dc/elements/1.1/" xmlns:cc="http://creativecommons.org/ns#" xmlns:rdf="http://www.w3.org/1999/02/22-rdf-syntax-ns#">
   <cc:Work>
    <dc:type rdf:resource="http://purl.org/dc/dcmitype/StillImage"/>
    <dc:date>2026-06-24T17:30:15.586488</dc:date>
    <dc:format>image/svg+xml</dc:format>
    <dc:creator>
     <cc:Agent>
      <dc:title>Matplotlib v3.10.8, https://matplotlib.org/</dc:title>
     </cc:Agent>
    </dc:creator>
   </cc:Work>
  </rdf:RDF>
 </metadata>
 <defs>
  <style type="text/css">*{stroke-linejoin: round; stroke-linecap: butt}</style>
 </defs>
 <g id="figure_1">
  <g id="patch_1">
   <path d="M 0 411.139281 
L 886.797578 411.139281 
L 886.797578 0 
L 0 0 
z
" style="fill: #fcfcfd"/>
  </g>
  <g id="axes_1">
   <g id="patch_2">
    <path d="M 130.369531 366.336 
L 459.19096 366.336 
L 459.19096 86.544 
L 130.369531 86.544 
z
" style="fill: #ffffff"/>
   </g>
   <g id="matplotlib.axis_1">
    <g id="xtick_1">
     <g id="line2d_1">
      <path d="M 130.369531 366.336 
L 130.369531 86.544 
" clip-path="url(#p9d40ff0fcb)" style="fill: none; stroke: #e6e8f0; stroke-linecap: round"/>
     </g>
     <g id="text_1">
      <!-- 0.0 -->
      <g style="fill: #6f768a" transform="translate(122.594766 384.629125) scale(0.11 -0.11)">
       <defs>
        <path id="MicrosoftYaHei-30" d="M 284 2325 
Q 284 3606 709 4264 
Q 1134 4922 1941 4922 
Q 3478 4922 3478 2441 
Q 3478 1216 3045 567 
Q 2613 -81 1831 -81 
Q 1094 -81 689 534 
Q 284 1150 284 2325 
z
M 909 2353 
Q 909 425 1888 425 
Q 2850 425 2850 2384 
Q 2850 4413 1906 4413 
Q 909 4413 909 2353 
z
" transform="scale(0.015625)"/>
        <path id="MicrosoftYaHei-2e" d="M 372 322 
Q 372 491 487 606 
Q 603 722 775 722 
Q 950 722 1065 605 
Q 1181 488 1181 322 
Q 1181 159 1065 42 
Q 950 -75 772 -75 
Q 600 -75 486 42 
Q 372 159 372 322 
z
" transform="scale(0.015625)"/>
       </defs>
       <use xlink:href="#MicrosoftYaHei-30"/>
       <use xlink:href="#MicrosoftYaHei-2e" transform="translate(58.642578 0)"/>
       <use xlink:href="#MicrosoftYaHei-30" transform="translate(82.714844 0)"/>
      </g>
     </g>
    </g>
    <g id="xtick_2">
     <g id="line2d_2">
      <path d="M 197.417255 366.336 
L 197.417255 86.544 
" clip-path="url(#p9d40ff0fcb)" style="fill: none; stroke: #e6e8f0; stroke-linecap: round"/>
     </g>
     <g id="text_2">
      <!-- 0.2 -->
      <g style="fill: #6f768a" transform="translate(189.64249 384.629125) scale(0.11 -0.11)">
       <defs>
        <path id="MicrosoftYaHei-32" d="M 2666 3572 
Q 2666 3963 2419 4186 
Q 2172 4409 1747 4409 
Q 1447 4409 1140 4256 
Q 834 4103 569 3819 
L 569 4413 
Q 806 4659 1107 4790 
Q 1409 4922 1816 4922 
Q 2472 4922 2872 4570 
Q 3272 4219 3272 3619 
Q 3272 3084 3026 2693 
Q 2781 2303 2188 1894 
Q 1581 1475 1376 1294 
Q 1172 1113 1090 947 
Q 1009 781 1009 544 
L 3416 544 
L 3416 0 
L 372 0 
L 372 241 
Q 372 659 486 951 
Q 600 1244 862 1520 
Q 1125 1797 1681 2184 
Q 2250 2584 2458 2886 
Q 2666 3188 2666 3572 
z
" transform="scale(0.015625)"/>
       </defs>
       <use xlink:href="#MicrosoftYaHei-30"/>
       <use xlink:href="#MicrosoftYaHei-2e" transform="translate(58.642578 0)"/>
       <use xlink:href="#MicrosoftYaHei-32" transform="translate(82.714844 0)"/>
      </g>
     </g>
    </g>
    <g id="xtick_3">
     <g id="line2d_3">
      <path d="M 264.464979 366.336 
L 264.464979 86.544 
" clip-path="url(#p9d40ff0fcb)" style="fill: none; stroke: #e6e8f0; stroke-linecap: round"/>
     </g>
     <g id="text_3">
      <!-- 0.4 -->
      <g style="fill: #6f768a" transform="translate(256.690213 384.629125) scale(0.11 -0.11)">
       <defs>
        <path id="MicrosoftYaHei-34" d="M 2906 4841 
L 2906 1644 
L 3631 1644 
L 3631 1138 
L 2906 1138 
L 2906 0 
L 2313 0 
L 2313 1138 
L 53 1138 
L 53 1616 
Q 656 2294 1265 3178 
Q 1875 4063 2272 4841 
L 2906 4841 
z
M 741 1644 
L 2313 1644 
L 2313 3950 
Q 1988 3366 1616 2817 
Q 1244 2269 741 1644 
z
" transform="scale(0.015625)"/>
       </defs>
       <use xlink:href="#MicrosoftYaHei-30"/>
       <use xlink:href="#MicrosoftYaHei-2e" transform="translate(58.642578 0)"/>
       <use xlink:href="#MicrosoftYaHei-34" transform="translate(82.714844 0)"/>
      </g>
     </g>
    </g>
    <g id="xtick_4">
     <g id="line2d_4">
      <path d="M 331.512703 366.336 
L 331.512703 86.544 
" clip-path="url(#p9d40ff0fcb)" style="fill: none; stroke: #e6e8f0; stroke-linecap: round"/>
     </g>
     <g id="text_4">
      <!-- 0.6 -->
      <g style="fill: #6f768a" transform="translate(323.737937 384.629125) scale(0.11 -0.11)">
       <defs>
        <path id="MicrosoftYaHei-36" d="M 3181 4219 
Q 2803 4413 2391 4413 
Q 1763 4413 1381 3866 
Q 1000 3319 994 2372 
L 1009 2372 
Q 1353 3038 2106 3038 
Q 2734 3038 3109 2628 
Q 3484 2219 3484 1541 
Q 3484 831 3051 375 
Q 2619 -81 1947 -81 
Q 1209 -81 789 495 
Q 369 1072 369 2131 
Q 369 3413 920 4167 
Q 1472 4922 2372 4922 
Q 2888 4922 3181 4781 
L 3181 4219 
z
M 1031 1584 
Q 1031 1106 1286 765 
Q 1541 425 1963 425 
Q 2363 425 2613 719 
Q 2863 1013 2863 1475 
Q 2863 1975 2627 2253 
Q 2391 2531 1956 2531 
Q 1544 2531 1287 2250 
Q 1031 1969 1031 1584 
z
" transform="scale(0.015625)"/>
       </defs>
       <use xlink:href="#MicrosoftYaHei-30"/>
       <use xlink:href="#MicrosoftYaHei-2e" transform="translate(58.642578 0)"/>
       <use xlink:href="#MicrosoftYaHei-36" transform="translate(82.714844 0)"/>
      </g>
     </g>
    </g>
    <g id="xtick_5">
     <g id="line2d_5">
      <path d="M 398.560427 366.336 
L 398.560427 86.544 
" clip-path="url(#p9d40ff0fcb)" style="fill: none; stroke: #e6e8f0; stroke-linecap: round"/>
     </g>
     <g id="text_5">
      <!-- 0.8 -->
      <g style="fill: #6f768a" transform="translate(390.785661 384.629125) scale(0.11 -0.11)">
       <defs>
        <path id="MicrosoftYaHei-38" d="M 306 1350 
Q 306 1769 556 2122 
Q 806 2475 1200 2625 
Q 884 2803 700 3081 
Q 516 3359 516 3684 
Q 516 4028 692 4312 
Q 869 4597 1183 4759 
Q 1497 4922 1875 4922 
Q 2256 4922 2572 4761 
Q 2888 4600 3063 4315 
Q 3238 4031 3238 3684 
Q 3238 3366 3058 3086 
Q 2878 2806 2559 2625 
Q 2953 2472 3200 2119 
Q 3447 1766 3447 1350 
Q 3447 938 3250 611 
Q 3053 284 2690 103 
Q 2328 -78 1875 -78 
Q 1425 -78 1065 103 
Q 706 284 506 612 
Q 306 941 306 1350 
z
M 906 1378 
Q 906 947 1172 687 
Q 1438 428 1878 428 
Q 2309 428 2582 692 
Q 2856 956 2856 1378 
Q 2856 1778 2579 2051 
Q 2303 2325 1878 2325 
Q 1456 2325 1181 2058 
Q 906 1791 906 1378 
z
M 1081 3634 
Q 1081 3309 1312 3076 
Q 1544 2844 1878 2844 
Q 2206 2844 2445 3078 
Q 2684 3313 2684 3634 
Q 2684 3963 2454 4191 
Q 2225 4419 1878 4419 
Q 1534 4419 1307 4195 
Q 1081 3972 1081 3634 
z
" transform="scale(0.015625)"/>
       </defs>
       <use xlink:href="#MicrosoftYaHei-30"/>
       <use xlink:href="#MicrosoftYaHei-2e" transform="translate(58.642578 0)"/>
       <use xlink:href="#MicrosoftYaHei-38" transform="translate(82.714844 0)"/>
      </g>
     </g>
    </g>
    <g id="text_6">
     <!-- Sharpe -->
     <g style="fill: #1f2430" transform="translate(274.777746 400.956156) scale(0.12 -0.12)">
      <defs>
       <path id="MicrosoftYaHei-53" d="M 400 909 
Q 622 716 994 591 
Q 1366 466 1700 466 
Q 2719 466 2719 1191 
Q 2719 1394 2609 1556 
Q 2500 1719 2309 1844 
Q 2119 1969 1594 2228 
Q 866 2591 634 2902 
Q 403 3213 403 3613 
Q 403 4216 887 4569 
Q 1372 4922 2109 4922 
Q 2831 4922 3169 4747 
L 3169 4066 
Q 2731 4369 2063 4369 
Q 1619 4369 1339 4183 
Q 1059 3997 1059 3666 
Q 1059 3372 1253 3187 
Q 1447 3003 2094 2684 
Q 2806 2344 3090 2003 
Q 3375 1663 3375 1238 
Q 3375 600 2912 259 
Q 2450 -81 1628 -81 
Q 1341 -81 958 -1 
Q 575 78 400 197 
L 400 909 
z
" transform="scale(0.015625)"/>
       <path id="MicrosoftYaHei-68" d="M 3466 0 
L 2856 0 
L 2856 1988 
Q 2856 3031 2081 3031 
Q 1684 3031 1421 2726 
Q 1159 2422 1159 1959 
L 1159 0 
L 547 0 
L 547 5116 
L 1159 5116 
L 1159 2888 
L 1172 2888 
Q 1569 3538 2300 3538 
Q 3466 3538 3466 2128 
L 3466 0 
z
" transform="scale(0.015625)"/>
       <path id="MicrosoftYaHei-61" d="M 628 3216 
Q 1144 3538 1819 3538 
Q 3069 3538 3069 2225 
L 3069 0 
L 2463 0 
L 2463 534 
L 2447 534 
Q 2088 -81 1388 -81 
Q 884 -81 587 191 
Q 291 463 291 925 
Q 291 1894 1438 2053 
L 2463 2197 
Q 2463 3044 1763 3044 
Q 1141 3044 628 2625 
L 628 3216 
z
M 1653 1625 
Q 1228 1569 1067 1412 
Q 906 1256 906 975 
Q 906 728 1081 572 
Q 1256 416 1544 416 
Q 1944 416 2203 697 
Q 2463 978 2463 1403 
L 2463 1734 
L 1653 1625 
z
" transform="scale(0.015625)"/>
       <path id="MicrosoftYaHei-72" d="M 2400 2850 
Q 2247 2959 1978 2959 
Q 1622 2959 1390 2626 
Q 1159 2294 1159 1750 
L 1159 0 
L 547 0 
L 547 3456 
L 1159 3456 
L 1159 2753 
L 1172 2753 
Q 1434 3516 2078 3516 
Q 2288 3516 2400 3469 
L 2400 2850 
z
" transform="scale(0.015625)"/>
       <path id="MicrosoftYaHei-70" d="M 1159 488 
L 1159 -1591 
L 547 -1591 
L 547 3456 
L 1159 3456 
L 1159 2859 
L 1172 2859 
Q 1578 3538 2359 3538 
Q 3022 3538 3398 3073 
Q 3775 2609 3775 1828 
Q 3775 966 3348 442 
Q 2922 -81 2200 -81 
Q 1534 -81 1172 488 
L 1159 488 
z
M 1156 1425 
Q 1156 1003 1428 714 
Q 1700 425 2109 425 
Q 2597 425 2872 800 
Q 3147 1175 3147 1838 
Q 3147 2397 2890 2714 
Q 2634 3031 2191 3031 
Q 1738 3031 1447 2709 
Q 1156 2388 1156 1884 
L 1156 1425 
z
" transform="scale(0.015625)"/>
       <path id="MicrosoftYaHei-65" d="M 3363 1572 
L 944 1572 
Q 959 1019 1246 717 
Q 1534 416 2050 416 
Q 2631 416 3116 788 
L 3116 241 
Q 2659 -81 1906 -81 
Q 1156 -81 736 394 
Q 316 869 316 1713 
Q 316 2506 777 3022 
Q 1238 3538 1922 3538 
Q 2600 3538 2981 3102 
Q 3363 2666 3363 1881 
L 3363 1572 
z
M 2750 2063 
Q 2747 2531 2528 2787 
Q 2309 3044 1913 3044 
Q 1547 3044 1280 2772 
Q 1013 2500 944 2063 
L 2750 2063 
z
" transform="scale(0.015625)"/>
      </defs>
      <use xlink:href="#MicrosoftYaHei-53"/>
      <use xlink:href="#MicrosoftYaHei-68" transform="translate(57.714844 0)"/>
      <use xlink:href="#MicrosoftYaHei-61" transform="translate(119.287109 0)"/>
      <use xlink:href="#MicrosoftYaHei-72" transform="translate(174.560547 0)"/>
      <use xlink:href="#MicrosoftYaHei-70" transform="translate(212.744141 0)"/>
      <use xlink:href="#MicrosoftYaHei-65" transform="translate(276.611328 0)"/>
     </g>
    </g>
   </g>
   <g id="matplotlib.axis_2">
    <g id="ytick_1">
     <g id="text_7">
      <!-- 排序 + 反波动率权重 -->
      <g style="fill: #6f768a" transform="translate(18.2 336.818381) scale(0.11 -0.11)">
       <defs>
        <path id="MicrosoftYaHei-6392" d="M 4375 5309 
L 4863 5309 
L 4863 4159 
L 6188 4159 
L 6188 3684 
L 4863 3684 
L 4863 2609 
L 6038 2609 
L 6038 2134 
L 4863 2134 
L 4863 1047 
L 6294 1047 
L 6294 572 
L 4863 572 
L 4863 -841 
L 4375 -841 
L 4375 5309 
z
M 1844 1047 
L 3138 1047 
L 3138 2134 
L 2150 2134 
L 2150 2609 
L 3138 2609 
L 3138 3684 
L 2163 3684 
L 2163 4159 
L 3138 4159 
L 3138 5309 
L 3625 5309 
L 3625 -841 
L 3138 -841 
L 3138 572 
L 1844 572 
L 1844 1047 
z
M 131 4166 
L 875 4166 
L 875 5316 
L 1350 5316 
L 1350 4166 
L 1969 4166 
L 1969 3728 
L 1350 3728 
L 1350 2563 
Q 1650 2716 1938 2872 
Q 1956 2603 1988 2372 
Q 1681 2216 1350 2044 
L 1350 -134 
Q 1350 -772 669 -778 
Q 481 -784 156 -778 
Q 131 -528 75 -259 
Q 419 -284 613 -284 
Q 875 -284 875 3 
L 875 1797 
Q 525 1616 150 1416 
L 88 1966 
Q 491 2144 875 2328 
L 875 3728 
L 131 3728 
L 131 4166 
z
" transform="scale(0.015625)"/>
        <path id="MicrosoftYaHei-5e8f" d="M 1438 1966 
L 3634 1966 
Q 3053 2394 2525 2722 
L 2825 3041 
Q 3294 2756 3719 2478 
L 4850 3147 
L 1806 3147 
L 1806 3597 
L 5756 3597 
L 5756 3141 
L 4141 2191 
Q 4219 2138 4294 2084 
L 4128 1966 
L 6181 1966 
L 6181 1503 
L 5638 384 
Q 5450 484 5175 609 
L 5619 1509 
L 4119 1509 
L 4119 22 
Q 4119 -734 3400 -734 
Q 3019 -734 2463 -722 
Q 2438 -509 2388 -184 
Q 2881 -253 3250 -253 
Q 3606 -253 3606 103 
L 3606 1509 
L 1438 1509 
L 1438 1966 
z
M 2981 5147 
L 3431 5391 
Q 3675 5078 3881 4747 
L 3584 4572 
L 6244 4572 
L 6244 4116 
L 1263 4116 
L 1263 2416 
Q 1263 191 406 -872 
Q 256 -666 50 -447 
Q 738 353 738 2291 
L 738 4572 
L 3369 4572 
Q 3178 4884 2981 5147 
z
" transform="scale(0.015625)"/>
        <path id="MicrosoftYaHei-20" transform="scale(0.015625)"/>
        <path id="MicrosoftYaHei-2b" d="M 3972 1772 
L 2613 1772 
L 2613 419 
L 2141 419 
L 2141 1772 
L 788 1772 
L 788 2250 
L 2141 2250 
L 2141 3603 
L 2613 3603 
L 2613 2250 
L 3972 2250 
L 3972 1772 
z
" transform="scale(0.015625)"/>
        <path id="MicrosoftYaHei-53cd" d="M 881 4884 
Q 3369 4903 5738 5191 
L 5919 4691 
Q 3750 4503 1369 4434 
L 1369 3372 
L 5638 3372 
L 5638 2909 
Q 5125 1525 4100 591 
Q 5019 -25 6331 -247 
Q 6106 -534 5938 -803 
Q 4616 -422 3697 253 
Q 2738 -475 1406 -878 
Q 1263 -659 1063 -397 
Q 2366 -44 3278 597 
Q 2256 1525 1859 2909 
L 1369 2909 
L 1369 2553 
Q 1369 334 413 -853 
Q 250 -653 63 -453 
Q 881 559 881 2553 
L 881 4884 
z
M 5050 2909 
L 2366 2909 
Q 2794 1678 3681 909 
Q 4622 1722 5050 2909 
z
" transform="scale(0.015625)"/>
        <path id="MicrosoftYaHei-6ce2" d="M 2094 4453 
L 3919 4453 
L 3919 5316 
L 4406 5316 
L 4406 4453 
L 6169 4453 
L 6106 3253 
Q 5900 3278 5638 3284 
L 5688 4016 
L 4406 4016 
L 4406 2853 
L 5788 2853 
L 5788 2434 
Q 5463 1309 4653 481 
Q 5334 -50 6356 -347 
Q 6063 -641 5931 -816 
Q 4944 -444 4272 134 
Q 3550 -466 2525 -884 
Q 2406 -691 2181 -459 
Q 3213 -75 3919 478 
Q 3184 1281 2950 2416 
L 2581 2416 
Q 2588 316 1513 -847 
Q 1344 -622 1175 -447 
Q 2094 541 2094 2353 
L 2094 4453 
z
M 5269 2416 
L 3416 2416 
Q 3647 1469 4288 806 
Q 4988 1497 5269 2416 
z
M 2581 2853 
L 3919 2853 
L 3919 4016 
L 2581 4016 
L 2581 2853 
z
M 256 -609 
Q 619 466 900 1809 
Q 1175 1691 1406 1616 
Q 1019 97 806 -778 
L 256 -609 
z
M 325 4878 
L 650 5209 
Q 1063 4897 1725 4328 
Q 1513 4122 1350 3959 
Q 706 4566 325 4878 
z
M 81 3247 
L 400 3603 
Q 938 3234 1475 2803 
Q 1269 2584 1113 2397 
Q 500 2941 81 3247 
z
" transform="scale(0.015625)"/>
        <path id="MicrosoftYaHei-52a8" d="M 2975 4022 
L 3906 4022 
Q 3916 4650 3913 5309 
L 4425 5309 
Q 4422 4656 4409 4022 
L 6094 4022 
Q 6050 1659 5969 216 
Q 5900 -666 5150 -678 
Q 4763 -678 4306 -659 
Q 4263 -397 4206 -109 
Q 4638 -166 4994 -172 
Q 5456 -172 5475 347 
Q 5569 1897 5588 3547 
L 4400 3547 
Q 4394 3278 4388 3016 
Q 4356 553 2900 -872 
Q 2725 -659 2525 -447 
Q 3831 716 3888 3028 
Q 3894 3284 3900 3547 
L 2975 3547 
L 2975 4022 
z
M 2338 1866 
Q 2731 1016 3063 178 
Q 2788 59 2594 -28 
Q 2550 91 2506 209 
Q 1316 97 338 -16 
L 119 491 
Q 394 647 563 997 
Q 869 1613 1200 2559 
L 144 2559 
L 144 3022 
L 3163 3022 
L 3163 2559 
L 1725 2559 
Q 1191 1228 800 491 
Q 1519 544 2347 631 
Q 2138 1163 1906 1672 
L 2338 1866 
z
M 406 4778 
L 2913 4778 
L 2913 4316 
L 406 4316 
L 406 4778 
z
" transform="scale(0.015625)"/>
        <path id="MicrosoftYaHei-7387" d="M 2525 2009 
Q 2622 2016 3928 2081 
Q 3772 2300 3625 2491 
L 3963 2703 
Q 4413 2203 4794 1653 
L 4394 1403 
Q 4284 1569 4178 1725 
Q 2991 1659 2213 1597 
Q 2075 1584 1881 1541 
L 1725 1966 
Q 1913 2028 2006 2084 
Q 2534 2441 3050 2913 
Q 2597 2894 2275 2866 
Q 2144 2847 1988 2809 
L 1800 3191 
Q 1956 3247 2088 3366 
Q 2509 3722 2875 4228 
L 231 4228 
L 231 4666 
L 3031 4666 
Q 2878 4944 2744 5153 
L 3194 5372 
Q 3438 5000 3616 4666 
L 6175 4666 
L 6175 4228 
L 3053 4228 
L 3350 4072 
Q 2844 3553 2494 3247 
Q 2850 3256 3425 3269 
Q 3675 3519 3925 3797 
L 4356 3547 
Q 3363 2603 2525 2009 
z
M 144 991 
L 2994 991 
L 2994 1541 
L 3488 1541 
L 3488 991 
L 6275 991 
L 6275 553 
L 3488 553 
L 3488 -853 
L 2994 -853 
L 2994 553 
L 144 553 
L 144 991 
z
M 1719 2672 
L 1944 2303 
Q 1200 1866 425 1409 
L 163 1828 
Q 813 2134 1719 2672 
z
M 4856 2678 
Q 5750 2172 6250 1816 
L 5975 1409 
Q 5331 1909 4600 2341 
L 4856 2678 
z
M 5994 3591 
Q 5519 3178 4963 2809 
L 4644 3141 
Q 5244 3534 5638 3928 
L 5994 3591 
z
M 363 3634 
L 681 3941 
Q 1200 3528 1588 3159 
L 1238 2816 
Q 875 3197 363 3634 
z
" transform="scale(0.015625)"/>
        <path id="MicrosoftYaHei-6743" d="M 2331 4416 
L 2331 4884 
L 5881 4884 
L 5881 4428 
Q 5588 2253 4556 922 
Q 5231 241 6344 -203 
Q 6075 -497 5925 -722 
Q 4850 -166 4213 516 
Q 3500 -228 2225 -872 
Q 2088 -647 1875 -397 
Q 3194 222 3888 916 
Q 2944 2103 2719 4416 
L 2331 4416 
z
M 63 1347 
Q 700 2322 1019 3528 
L 125 3528 
L 125 3966 
L 1100 3966 
L 1100 5291 
L 1575 5291 
L 1575 3966 
L 2456 3966 
L 2456 3528 
L 1575 3528 
L 1575 2703 
L 1844 2953 
Q 2406 2422 2750 2009 
L 2375 1659 
Q 1956 2191 1575 2591 
L 1575 -853 
L 1100 -853 
L 1100 2572 
Q 763 1522 275 797 
Q 188 1066 63 1347 
z
M 5350 4416 
L 3219 4416 
Q 3406 2397 4225 1309 
Q 5088 2466 5350 4416 
z
" transform="scale(0.015625)"/>
        <path id="MicrosoftYaHei-91cd" d="M 113 -203 
L 2975 -203 
L 2975 259 
L 600 259 
L 600 628 
L 2975 628 
L 2975 1153 
L 1288 1153 
L 1288 928 
L 850 928 
L 850 3278 
L 2975 3278 
L 2975 3728 
L 163 3728 
L 163 4116 
L 2975 4116 
L 2975 4606 
Q 1841 4572 625 4547 
Q 588 4747 538 4972 
Q 3706 5009 5669 5141 
L 5744 4716 
Q 4631 4663 3425 4619 
L 3425 4116 
L 6263 4116 
L 6263 3728 
L 3425 3728 
L 3425 3278 
L 5569 3278 
L 5569 934 
L 5131 934 
L 5131 1153 
L 3425 1153 
L 3425 628 
L 5806 628 
L 5806 259 
L 3425 259 
L 3425 -203 
L 6263 -203 
L 6263 -591 
L 113 -591 
L 113 -203 
z
M 3425 1516 
L 5131 1516 
L 5131 2053 
L 3425 2053 
L 3425 1516 
z
M 1288 1516 
L 2975 1516 
L 2975 2053 
L 1288 2053 
L 1288 1516 
z
M 5131 2916 
L 3425 2916 
L 3425 2384 
L 5131 2384 
L 5131 2916 
z
M 1288 2384 
L 2975 2384 
L 2975 2916 
L 1288 2916 
L 1288 2384 
z
" transform="scale(0.015625)"/>
       </defs>
       <use xlink:href="#MicrosoftYaHei-6392"/>
       <use xlink:href="#MicrosoftYaHei-5e8f" transform="translate(100 0)"/>
       <use xlink:href="#MicrosoftYaHei-20" transform="translate(200 0)"/>
       <use xlink:href="#MicrosoftYaHei-2b" transform="translate(229.589844 0)"/>
       <use xlink:href="#MicrosoftYaHei-20" transform="translate(303.759766 0)"/>
       <use xlink:href="#MicrosoftYaHei-53cd" transform="translate(333.349609 0)"/>
       <use xlink:href="#MicrosoftYaHei-6ce2" transform="translate(433.349609 0)"/>
       <use xlink:href="#MicrosoftYaHei-52a8" transform="translate(533.349609 0)"/>
       <use xlink:href="#MicrosoftYaHei-7387" transform="translate(633.349609 0)"/>
       <use xlink:href="#MicrosoftYaHei-6743" transform="translate(733.349609 0)"/>
       <use xlink:href="#MicrosoftYaHei-91cd" transform="translate(833.349609 0)"/>
      </g>
     </g>
    </g>
    <g id="ytick_2">
     <g id="text_8">
      <!-- 仅因子排序 -->
      <g style="fill: #6f768a" transform="translate(65.869531 283.827472) scale(0.11 -0.11)">
       <defs>
        <path id="MicrosoftYaHei-4ec5" d="M 2131 4416 
L 2131 4853 
L 5906 4853 
L 5906 4428 
Q 5628 2366 4441 953 
Q 5203 175 6338 -284 
Q 6094 -578 5944 -784 
Q 4834 -244 4075 553 
Q 3256 -263 2088 -828 
Q 1969 -659 1713 -366 
Q 2909 184 3716 972 
Q 2634 2359 2459 4416 
L 2131 4416 
z
M 5344 4416 
L 2941 4416 
Q 3138 2572 4081 1363 
Q 5147 2625 5344 4416 
z
M 56 2384 
Q 1044 3716 1531 5328 
L 2038 5159 
Q 1741 4331 1388 3619 
L 1388 -803 
L 900 -803 
L 900 2741 
Q 594 2250 256 1828 
Q 163 2097 56 2384 
z
" transform="scale(0.015625)"/>
        <path id="MicrosoftYaHei-56e0" d="M 525 4934 
L 5869 4934 
L 5869 -834 
L 5369 -834 
L 5369 -434 
L 1025 -434 
L 1025 -834 
L 525 -834 
L 525 4934 
z
M 5369 4466 
L 1025 4466 
L 1025 22 
L 5369 22 
L 5369 4466 
z
M 1400 3209 
L 2944 3209 
L 2944 4259 
L 3419 4259 
L 3419 3209 
L 5000 3209 
L 5000 2772 
L 3400 2772 
Q 3388 2522 3331 2291 
Q 4206 1591 5131 778 
L 4750 384 
Q 4031 1116 3194 1853 
Q 2788 866 1550 266 
Q 1381 497 1219 684 
Q 2844 1416 2925 2772 
L 1400 2772 
L 1400 3209 
z
" transform="scale(0.015625)"/>
        <path id="MicrosoftYaHei-5b50" d="M 125 2497 
L 3031 2497 
L 3031 3184 
L 4825 4491 
L 781 4491 
L 781 4959 
L 5656 4959 
L 5656 4472 
L 3563 2941 
L 3563 2497 
L 6300 2497 
L 6300 2028 
L 3563 2028 
L 3563 59 
Q 3563 -778 2688 -778 
Q 2400 -778 1700 -766 
Q 1675 -516 1625 -197 
Q 2081 -253 2588 -259 
Q 3031 -259 3031 191 
L 3031 2028 
L 125 2028 
L 125 2497 
z
" transform="scale(0.015625)"/>
       </defs>
       <use xlink:href="#MicrosoftYaHei-4ec5"/>
       <use xlink:href="#MicrosoftYaHei-56e0" transform="translate(100 0)"/>
       <use xlink:href="#MicrosoftYaHei-5b50" transform="translate(200 0)"/>
       <use xlink:href="#MicrosoftYaHei-6392" transform="translate(300 0)"/>
       <use xlink:href="#MicrosoftYaHei-5e8f" transform="translate(400 0)"/>
      </g>
     </g>
    </g>
    <g id="ytick_3">
     <g id="text_9">
      <!-- 完整策略 + 成交额因子 -->
      <g style="fill: #6f768a" transform="translate(7.2 230.836562) scale(0.11 -0.11)">
       <defs>
        <path id="MicrosoftYaHei-5b8c" d="M 275 1959 
L 6150 1959 
L 6150 1516 
L 4131 1516 
L 4131 191 
Q 4131 -222 4538 -222 
L 5200 -222 
Q 5625 -222 5675 65 
Q 5725 353 5744 884 
Q 5969 797 6294 697 
Q 6250 184 6181 -141 
Q 6094 -678 5425 -678 
L 4406 -678 
Q 3625 -678 3625 122 
L 3625 1516 
L 2503 1516 
Q 2488 -247 438 -834 
Q 313 -628 125 -372 
Q 1975 78 2006 1516 
L 275 1516 
L 275 1959 
z
M 325 4534 
L 3000 4534 
Q 2878 4788 2688 5128 
L 3175 5353 
Q 3422 4878 3575 4534 
L 6075 4534 
L 6075 3384 
L 5563 3384 
L 5563 4091 
L 838 4091 
L 838 3384 
L 325 3384 
L 325 4534 
z
M 1050 3253 
L 5450 3253 
L 5450 2816 
L 1050 2816 
L 1050 3253 
z
" transform="scale(0.015625)"/>
        <path id="MicrosoftYaHei-6574" d="M 138 -234 
L 1263 -234 
L 1263 891 
L 1713 891 
L 1713 -234 
L 3025 -234 
L 3025 1178 
L 550 1178 
L 550 1578 
L 5800 1578 
L 5800 1178 
L 3475 1178 
L 3475 697 
L 5525 697 
L 5525 297 
L 3475 297 
L 3475 -234 
L 6256 -234 
L 6256 -634 
L 138 -634 
L 138 -234 
z
M 25 2003 
Q 825 2334 1481 2916 
L 913 2916 
L 913 2759 
L 506 2759 
L 506 4109 
L 1650 4109 
L 1650 4491 
L 250 4491 
L 250 4866 
L 1650 4866 
L 1650 5291 
L 2069 5291 
L 2069 4866 
L 3425 4866 
L 3425 4491 
L 2069 4491 
L 2069 4109 
L 3213 4109 
L 3213 2759 
L 2806 2759 
L 2806 2916 
L 2069 2916 
L 2069 2541 
L 2225 2747 
Q 2781 2484 3288 2216 
L 3075 1872 
Q 2550 2184 2069 2397 
L 2069 1722 
L 1650 1722 
L 1650 2647 
Q 1075 2078 288 1647 
Q 175 1803 25 2003 
z
M 3363 2078 
Q 4050 2341 4519 2716 
Q 4144 3134 3938 3716 
Q 3788 3447 3631 3197 
L 3256 3459 
Q 3850 4253 4163 5322 
L 4600 5191 
Q 4481 4872 4356 4572 
L 6263 4572 
L 6263 4172 
L 5850 4172 
Q 5644 3316 5181 2741 
Q 5638 2428 6325 2247 
Q 6169 2047 6013 1778 
Q 5319 2034 4844 2403 
Q 4363 1984 3650 1678 
Q 3525 1859 3363 2078 
z
M 5400 4172 
L 4219 4172 
Q 4394 3484 4838 3022 
Q 5244 3503 5400 4172 
z
M 2806 3266 
L 2806 3759 
L 2069 3759 
L 2069 3266 
L 2806 3266 
z
M 913 3266 
L 1650 3266 
L 1650 3759 
L 913 3759 
L 913 3266 
z
" transform="scale(0.015625)"/>
        <path id="MicrosoftYaHei-7b56" d="M 6306 -128 
Q 6094 -397 5969 -591 
Q 4284 122 3438 1069 
L 3438 -841 
L 2975 -841 
L 2975 1053 
Q 1894 6 413 -666 
Q 250 -447 88 -272 
Q 1709 366 2975 1622 
L 2975 2034 
L 1269 2034 
L 1269 828 
L 813 828 
L 813 2422 
L 2975 2422 
L 2975 2928 
L 263 2928 
L 263 3322 
L 2975 3322 
L 2975 3703 
L 3438 3703 
L 3438 3322 
L 6156 3322 
L 6156 2928 
L 3438 2928 
L 3438 2422 
L 5706 2422 
L 5706 1403 
Q 5706 784 5069 784 
Q 4813 784 4513 803 
Q 4488 1047 4438 1272 
Q 4763 1222 4950 1222 
Q 5250 1222 5250 1516 
L 5250 2034 
L 3438 2034 
L 3438 1625 
Q 4619 372 6306 -128 
z
M 1294 5347 
L 1831 5347 
Q 1688 5041 1513 4759 
L 3325 4759 
L 3325 4372 
L 1244 4372 
Q 875 3878 388 3459 
Q 263 3609 75 3797 
Q 856 4428 1294 5347 
z
M 4006 5347 
L 4513 5347 
Q 4375 5031 4231 4759 
L 6225 4759 
L 6225 4372 
L 4013 4372 
Q 3778 3981 3525 3697 
Q 3388 3797 3088 3934 
Q 3663 4553 4006 5347 
z
M 4781 3416 
Q 4644 3628 4263 4072 
L 4588 4303 
Q 4919 3991 5150 3697 
L 4781 3416 
z
M 1988 3416 
Q 1750 3728 1469 4053 
L 1794 4284 
Q 2094 3997 2356 3697 
L 1988 3416 
z
" transform="scale(0.015625)"/>
        <path id="MicrosoftYaHei-7565" d="M 413 4716 
L 2600 4716 
L 2600 -222 
L 2188 -222 
L 2188 97 
L 825 97 
L 825 -347 
L 413 -347 
L 413 4716 
z
M 2638 3378 
Q 3269 4222 3719 5341 
L 4169 5197 
Q 4044 4913 3919 4653 
L 5888 4653 
L 5888 4234 
Q 5453 3375 4819 2756 
Q 5434 2328 6331 2109 
Q 6194 1853 6094 1591 
Q 5122 1919 4466 2450 
Q 3797 1925 2906 1516 
Q 2756 1772 2619 1947 
Q 3463 2269 4125 2763 
Q 3747 3159 3428 3734 
Q 3200 3353 2969 3047 
Q 2781 3266 2638 3378 
z
M 3200 1584 
L 5756 1584 
L 5756 -847 
L 5294 -847 
L 5294 -547 
L 3663 -547 
L 3663 -847 
L 3200 -847 
L 3200 1584 
z
M 5294 1147 
L 3663 1147 
L 3663 -109 
L 5294 -109 
L 5294 1147 
z
M 5363 4228 
L 3703 4228 
L 3666 4159 
Q 4013 3475 4466 3041 
Q 4963 3500 5363 4228 
z
M 825 516 
L 1300 516 
L 1300 2209 
L 825 2209 
L 825 516 
z
M 1713 516 
L 2188 516 
L 2188 2209 
L 1713 2209 
L 1713 516 
z
M 2188 4297 
L 1713 4297 
L 1713 2628 
L 2188 2628 
L 2188 4297 
z
M 825 2628 
L 1300 2628 
L 1300 4297 
L 825 4297 
L 825 2628 
z
" transform="scale(0.015625)"/>
        <path id="MicrosoftYaHei-6210" d="M 2750 -347 
Q 3472 138 4038 781 
Q 3675 1703 3609 3759 
L 1250 3759 
L 1250 2809 
L 3050 2809 
Q 3013 1616 2950 803 
Q 2875 -59 2113 -59 
Q 1856 -59 1431 -34 
Q 1394 197 1331 484 
Q 1769 422 2063 422 
Q 2425 422 2469 922 
Q 2519 1497 2544 2347 
L 1247 2347 
Q 1197 175 369 -866 
Q 213 -653 44 -434 
Q 750 503 750 2528 
L 750 4222 
L 3591 4222 
Q 3569 4716 3550 5291 
L 4069 5291 
Q 4066 4850 4084 4222 
L 6238 4222 
L 6238 3759 
L 4100 3759 
Q 4163 2078 4409 1247 
Q 5016 2069 5406 3109 
L 5900 2903 
Q 5363 1631 4609 691 
Q 5069 -244 5506 -244 
Q 5666 -244 5750 47 
Q 5838 503 5888 984 
Q 6156 878 6363 809 
Q 6269 141 6156 -284 
Q 6038 -741 5631 -778 
Q 5250 -803 4900 -522 
Q 4522 -231 4256 278 
Q 3728 -291 3106 -722 
Q 2944 -534 2750 -347 
z
M 4544 4984 
L 4806 5309 
Q 5331 5009 5788 4684 
L 5488 4309 
Q 5038 4666 4544 4984 
z
" transform="scale(0.015625)"/>
        <path id="MicrosoftYaHei-4ea4" d="M 4194 2641 
L 4675 2434 
Q 4209 1375 3566 713 
Q 4503 19 6225 -278 
Q 5994 -591 5850 -803 
Q 4184 -378 3194 375 
Q 2334 -297 463 -847 
Q 325 -628 150 -366 
Q 1909 78 2803 713 
Q 2184 1344 1738 2359 
L 2156 2597 
Q 2566 1669 3194 1041 
Q 3766 1609 4194 2641 
z
M 194 4384 
L 3122 4384 
Q 2975 4691 2700 5128 
L 3163 5353 
Q 3431 4978 3638 4566 
L 3288 4384 
L 6194 4384 
L 6194 3922 
L 194 3922 
L 194 4384 
z
M 2044 3634 
L 2444 3309 
Q 1569 2391 625 1666 
Q 469 1859 275 2066 
Q 1219 2734 2044 3634 
z
M 4288 3666 
Q 5431 2766 6075 2159 
Q 5900 1984 5700 1753 
Q 4994 2478 3944 3341 
L 4288 3666 
z
" transform="scale(0.015625)"/>
        <path id="MicrosoftYaHei-989d" d="M 863 2484 
L 1094 2834 
Q 1463 2653 1794 2491 
Q 2119 2809 2344 3203 
L 1125 3203 
Q 794 2659 419 2247 
Q 281 2397 125 2547 
Q 719 3172 1100 4072 
L 1513 3934 
Q 1425 3747 1331 3578 
L 2844 3578 
L 2844 3222 
Q 2588 2703 2194 2291 
Q 2738 2016 3194 1778 
L 2938 1372 
Q 2406 1678 1850 1978 
Q 1381 1597 763 1322 
L 2756 1322 
L 2756 -684 
L 2344 -684 
L 2344 -416 
L 1063 -416 
L 1063 -734 
L 650 -734 
L 650 1272 
Q 463 1197 269 1128 
Q 188 1297 63 1509 
Q 869 1766 1444 2191 
Q 1156 2334 863 2484 
z
M 3369 3728 
L 4281 3728 
L 4425 4516 
L 3244 4516 
L 3244 4941 
L 6231 4941 
L 6231 4516 
L 4906 4516 
L 4738 3728 
L 6038 3728 
L 6038 591 
L 5600 591 
L 5600 3303 
L 3806 3303 
L 3806 591 
L 3369 591 
L 3369 3728 
z
M 4481 2916 
L 4931 2916 
Q 4944 1322 4788 709 
Q 5688 78 6356 -453 
L 6044 -853 
Q 5438 -303 4619 291 
Q 4231 -416 3169 -916 
Q 3044 -734 2869 -516 
Q 4019 -3 4294 716 
Q 4519 1216 4481 2916 
z
M 250 4591 
L 1538 4591 
Q 1413 4872 1244 5172 
L 1650 5347 
Q 1881 4916 2031 4591 
L 3138 4591 
L 3138 3709 
L 2713 3709 
L 2713 4216 
L 675 4216 
L 675 3709 
L 250 3709 
L 250 4591 
z
M 2344 934 
L 1063 934 
L 1063 -28 
L 2344 -28 
L 2344 934 
z
" transform="scale(0.015625)"/>
       </defs>
       <use xlink:href="#MicrosoftYaHei-5b8c"/>
       <use xlink:href="#MicrosoftYaHei-6574" transform="translate(100 0)"/>
       <use xlink:href="#MicrosoftYaHei-7b56" transform="translate(200 0)"/>
       <use xlink:href="#MicrosoftYaHei-7565" transform="translate(300 0)"/>
       <use xlink:href="#MicrosoftYaHei-20" transform="translate(400 0)"/>
       <use xlink:href="#MicrosoftYaHei-2b" transform="translate(429.589844 0)"/>
       <use xlink:href="#MicrosoftYaHei-20" transform="translate(503.759766 0)"/>
       <use xlink:href="#MicrosoftYaHei-6210" transform="translate(533.349609 0)"/>
       <use xlink:href="#MicrosoftYaHei-4ea4" transform="translate(633.349609 0)"/>
       <use xlink:href="#MicrosoftYaHei-989d" transform="translate(733.349609 0)"/>
       <use xlink:href="#MicrosoftYaHei-56e0" transform="translate(833.349609 0)"/>
       <use xlink:href="#MicrosoftYaHei-5b50" transform="translate(933.349609 0)"/>
      </g>
     </g>
    </g>
    <g id="ytick_4">
     <g id="text_10">
      <!-- 排序 + 趋势过滤 -->
      <g style="fill: #6f768a" transform="translate(40.2 177.845653) scale(0.11 -0.11)">
       <defs>
        <path id="MicrosoftYaHei-8d8b" d="M 81 -372 
Q 575 491 619 2241 
L 1081 2216 
Q 1063 1606 991 1084 
Q 1203 625 1556 334 
L 1556 2622 
L 144 2622 
L 144 3072 
L 1319 3072 
L 1319 3972 
L 300 3972 
L 300 4422 
L 1319 4422 
L 1319 5309 
L 1788 5309 
L 1788 4422 
L 2706 4422 
L 2706 3972 
L 1788 3972 
L 1788 3072 
L 2863 3072 
L 2863 2622 
L 2019 2622 
L 2019 1647 
L 2881 1647 
L 2881 1197 
L 2019 1197 
L 2019 50 
Q 2494 -156 3131 -166 
Q 4519 -184 6313 -141 
Q 6219 -353 6138 -634 
Q 4338 -647 2938 -616 
Q 1428 -578 884 475 
Q 713 -313 394 -853 
Q 263 -591 81 -372 
z
M 2931 928 
L 5350 928 
L 5350 1791 
L 3144 1791 
L 3144 2216 
L 5350 2216 
L 5350 3059 
L 3088 3059 
L 3088 3481 
Q 3006 3375 2925 3278 
Q 2800 3434 2606 3622 
Q 3231 4347 3663 5353 
L 4119 5197 
Q 4013 4981 3906 4778 
L 5525 4778 
L 5525 4347 
L 5025 3484 
L 5819 3484 
L 5819 278 
L 5350 278 
L 5350 503 
L 2931 503 
L 2931 928 
z
M 3088 3484 
L 4500 3484 
L 4994 4353 
L 3669 4353 
Q 3388 3875 3088 3484 
z
" transform="scale(0.015625)"/>
        <path id="MicrosoftYaHei-52bf" d="M 531 1472 
L 2522 1472 
Q 2544 1653 2544 1859 
L 3031 1859 
Q 3025 1656 3006 1472 
L 5550 1472 
Q 5506 709 5450 128 
Q 5375 -666 4475 -672 
Q 4019 -678 3269 -659 
Q 3231 -397 3163 -116 
Q 3906 -178 4463 -178 
Q 4925 -178 4969 222 
Q 5006 516 5038 1047 
L 2934 1047 
Q 2784 388 2400 28 
Q 1806 -541 469 -853 
Q 344 -647 169 -391 
Q 1519 -116 2031 372 
Q 2313 622 2438 1047 
L 531 1047 
L 531 1472 
z
M 2663 3347 
L 2881 3697 
Q 3144 3566 3388 3441 
Q 3472 3706 3500 4097 
L 2819 4097 
L 2819 4522 
L 3513 4522 
L 3513 5347 
L 3963 5347 
L 3963 4522 
L 5288 4522 
Q 5288 3303 5350 2853 
Q 5419 2347 5625 2347 
Q 5744 2347 5800 2641 
Q 5850 2928 5869 3322 
Q 6088 3228 6306 3153 
Q 6275 2772 6225 2509 
Q 6100 1816 5613 1816 
Q 5056 1816 4919 2584 
Q 4838 3066 4838 4097 
L 3950 4097 
Q 3922 3575 3806 3216 
Q 4247 2969 4606 2741 
L 4338 2322 
Q 4000 2559 3613 2797 
Q 3291 2284 2344 1772 
Q 2206 1978 2019 2172 
Q 2891 2600 3194 3047 
Q 2938 3197 2663 3347 
z
M 250 3184 
Q 616 3244 1313 3378 
L 1313 4041 
L 313 4041 
L 313 4466 
L 1313 4466 
L 1313 5353 
L 1763 5353 
L 1763 4466 
L 2513 4466 
L 2513 4041 
L 1763 4041 
L 1763 3469 
Q 2109 3538 2525 3622 
Q 2538 3284 2544 3178 
Q 2147 3100 1763 3022 
L 1763 2384 
Q 1763 1766 1163 1759 
Q 894 1753 500 1766 
Q 475 2016 425 2222 
Q 831 2191 1075 2191 
Q 1313 2191 1313 2441 
L 1313 2925 
Q 828 2819 363 2709 
L 250 3184 
z
" transform="scale(0.015625)"/>
        <path id="MicrosoftYaHei-8fc7" d="M 1963 4109 
L 4644 4109 
L 4644 5303 
L 5150 5303 
L 5150 4109 
L 6225 4109 
L 6225 3653 
L 5150 3653 
L 5150 1059 
Q 5150 253 4375 253 
Q 3969 253 3425 259 
Q 3394 503 3331 822 
Q 3831 772 4263 772 
Q 4650 772 4644 1209 
L 4644 3653 
L 1963 3653 
L 1963 4109 
z
M 2731 -147 
L 4413 -178 
L 6313 -116 
Q 6206 -366 6113 -609 
L 4281 -634 
L 2681 -597 
Q 1606 -584 1100 116 
Q 925 -22 375 -672 
L 113 -147 
Q 597 297 881 538 
L 881 2684 
L 156 2684 
L 156 3134 
L 1363 3134 
L 1363 425 
Q 1822 -131 2731 -147 
z
M 2213 2909 
L 2594 3191 
Q 3275 2322 3638 1822 
L 3206 1503 
Q 2694 2284 2213 2909 
z
M 756 5278 
Q 1169 4803 1656 4116 
Q 1406 3966 1213 3816 
Q 781 4484 381 5009 
L 756 5278 
z
" transform="scale(0.015625)"/>
        <path id="MicrosoftYaHei-6ee4" d="M 5738 3653 
L 2350 3653 
L 2350 2109 
Q 2350 178 1381 -822 
Q 1225 -603 1056 -422 
Q 1875 459 1875 2109 
L 1875 4041 
L 3563 4041 
L 3563 5284 
L 4013 5284 
L 4013 4841 
L 5981 4841 
L 5981 4466 
L 4013 4466 
L 4013 4041 
L 6213 4041 
L 6213 3628 
Q 6031 3284 5869 2972 
Q 5663 3059 5419 3122 
Q 5606 3397 5738 3653 
z
M 2613 2878 
L 3550 2953 
L 3550 3503 
L 3988 3503 
L 3988 2988 
L 5206 3084 
L 5250 2722 
L 3988 2619 
L 3988 2447 
Q 3988 2128 4306 2128 
L 5050 2128 
Q 5344 2128 5388 2353 
Q 5431 2559 5450 2903 
Q 5681 2791 5888 2734 
Q 5844 2391 5794 2172 
Q 5706 1734 5138 1734 
L 4188 1734 
Q 3550 1734 3550 2372 
L 3550 2581 
L 2656 2509 
L 2613 2878 
z
M 3375 1203 
L 3825 1203 
L 3825 116 
Q 3825 -247 4200 -247 
L 4594 -247 
Q 4881 -247 4919 59 
Q 4950 297 4963 634 
Q 5200 522 5438 453 
Q 5406 103 5369 -116 
Q 5294 -684 4650 -684 
L 4081 -684 
Q 3375 -684 3375 22 
L 3375 1203 
z
M 244 -616 
Q 594 497 850 1809 
Q 1113 1691 1331 1616 
Q 1081 553 763 -784 
L 244 -616 
z
M 2656 1078 
L 3131 966 
Q 2950 166 2663 -447 
Q 2500 -378 2206 -278 
Q 2513 334 2656 1078 
z
M 325 4878 
L 650 5209 
Q 1063 4897 1725 4328 
L 1350 3959 
Q 706 4566 325 4878 
z
M 81 3247 
L 400 3603 
Q 931 3241 1469 2797 
L 1113 2397 
Q 544 2903 81 3247 
z
M 5419 1059 
L 5850 1203 
Q 6081 597 6313 -91 
L 5844 -259 
Q 5669 384 5419 1059 
z
M 3856 1441 
L 4181 1684 
Q 4538 1322 4856 959 
L 4488 678 
Q 4156 1103 3856 1441 
z
" transform="scale(0.015625)"/>
       </defs>
       <use xlink:href="#MicrosoftYaHei-6392"/>
       <use xlink:href="#MicrosoftYaHei-5e8f" transform="translate(100 0)"/>
       <use xlink:href="#MicrosoftYaHei-20" transform="translate(200 0)"/>
       <use xlink:href="#MicrosoftYaHei-2b" transform="translate(229.589844 0)"/>
       <use xlink:href="#MicrosoftYaHei-20" transform="translate(303.759766 0)"/>
       <use xlink:href="#MicrosoftYaHei-8d8b" transform="translate(333.349609 0)"/>
       <use xlink:href="#MicrosoftYaHei-52bf" transform="translate(433.349609 0)"/>
       <use xlink:href="#MicrosoftYaHei-8fc7" transform="translate(533.349609 0)"/>
       <use xlink:href="#MicrosoftYaHei-6ee4" transform="translate(633.349609 0)"/>
      </g>
     </g>
    </g>
    <g id="ytick_5">
     <g id="text_11">
      <!-- 完整基准策略 -->
      <g style="fill: #6f768a" transform="translate(54.869531 124.854744) scale(0.11 -0.11)">
       <defs>
        <path id="MicrosoftYaHei-57fa" d="M 6319 697 
Q 6113 441 5981 247 
Q 5406 519 4925 897 
L 4925 553 
L 3431 553 
L 3431 -97 
L 5875 -97 
L 5875 -503 
L 519 -503 
L 519 -97 
L 2963 -97 
L 2963 553 
L 1450 553 
L 1450 894 
Q 953 478 413 172 
Q 294 341 88 566 
Q 1050 1034 1753 1753 
L 156 1753 
L 156 2159 
L 1400 2159 
L 1400 4253 
L 350 4253 
L 350 4659 
L 1400 4659 
L 1400 5334 
L 1869 5334 
L 1869 4659 
L 4550 4659 
L 4550 5334 
L 5019 5334 
L 5019 4659 
L 6069 4659 
L 6069 4253 
L 5019 4253 
L 5019 2159 
L 6244 2159 
L 6244 1753 
L 4600 1753 
Q 5303 1053 6319 697 
z
M 2963 1553 
L 3431 1553 
L 3431 947 
L 4863 947 
Q 4416 1306 4047 1753 
L 2325 1753 
Q 1934 1309 1513 947 
L 2963 947 
L 2963 1553 
z
M 1869 2159 
L 4550 2159 
L 4550 2603 
L 1869 2603 
L 1869 2159 
z
M 1869 2991 
L 4550 2991 
L 4550 3428 
L 1869 3428 
L 1869 2991 
z
M 1869 3816 
L 4550 3816 
L 4550 4253 
L 1869 4253 
L 1869 3816 
z
" transform="scale(0.015625)"/>
        <path id="MicrosoftYaHei-51c6" d="M 1413 2766 
Q 2313 3866 2869 5334 
L 3331 5172 
Q 3128 4694 2906 4253 
L 6194 4253 
L 6194 3822 
L 4675 3822 
L 4675 2891 
L 6025 2891 
L 6025 2459 
L 4675 2459 
L 4675 1528 
L 6038 1528 
L 6038 1097 
L 4675 1097 
L 4675 78 
L 6275 78 
L 6275 -341 
L 2769 -341 
L 2769 -841 
L 2281 -841 
L 2281 3131 
Q 2034 2738 1769 2384 
Q 1631 2578 1413 2766 
z
M 2769 78 
L 4188 78 
L 4188 1097 
L 2769 1097 
L 2769 78 
z
M 1081 2422 
Q 1325 2291 1556 2209 
Q 1113 916 681 -372 
L 169 -141 
Q 650 1003 1081 2422 
z
M 2769 1528 
L 4188 1528 
L 4188 2459 
L 2769 2459 
L 2769 1528 
z
M 2769 2891 
L 4188 2891 
L 4188 3822 
L 2769 3822 
L 2769 2891 
z
M 531 4991 
Q 1050 4384 1581 3709 
Q 1538 3678 1150 3341 
Q 681 3997 138 4672 
L 531 4991 
z
M 3919 5116 
L 4325 5372 
Q 4569 5072 4881 4622 
L 4450 4334 
Q 4156 4784 3919 5116 
z
" transform="scale(0.015625)"/>
       </defs>
       <use xlink:href="#MicrosoftYaHei-5b8c"/>
       <use xlink:href="#MicrosoftYaHei-6574" transform="translate(100 0)"/>
       <use xlink:href="#MicrosoftYaHei-57fa" transform="translate(200 0)"/>
       <use xlink:href="#MicrosoftYaHei-51c6" transform="translate(300 0)"/>
       <use xlink:href="#MicrosoftYaHei-7b56" transform="translate(400 0)"/>
       <use xlink:href="#MicrosoftYaHei-7565" transform="translate(500 0)"/>
      </g>
     </g>
    </g>
   </g>
   <g id="patch_3">
    <path d="M 130.369531 353.618182 
L 222.657854 353.618182 
L 222.657854 311.225455 
L 130.369531 311.225455 
z
" clip-path="url(#p9d40ff0fcb)" style="fill: #e2e5ea; stroke: #464c55; stroke-linejoin: miter"/>
   </g>
   <g id="patch_4">
    <path d="M 130.369531 300.627273 
L 240.571312 300.627273 
L 240.571312 258.234545 
L 130.369531 258.234545 
z
" clip-path="url(#p9d40ff0fcb)" style="fill: #e2e5ea; stroke: #464c55; stroke-linejoin: miter"/>
   </g>
   <g id="patch_5">
    <path d="M 130.369531 247.636364 
L 424.292391 247.636364 
L 424.292391 205.243636 
L 130.369531 205.243636 
z
" clip-path="url(#p9d40ff0fcb)" style="fill: #e2e5ea; stroke: #464c55; stroke-linejoin: miter"/>
   </g>
   <g id="patch_6">
    <path d="M 130.369531 194.645455 
L 442.775376 194.645455 
L 442.775376 152.252727 
L 130.369531 152.252727 
z
" clip-path="url(#p9d40ff0fcb)" style="fill: #e2e5ea; stroke: #464c55; stroke-linejoin: miter"/>
   </g>
   <g id="patch_7">
    <path d="M 130.369531 141.654545 
L 443.532797 141.654545 
L 443.532797 99.261818 
L 130.369531 99.261818 
z
" clip-path="url(#p9d40ff0fcb)" style="fill: #a3befa; stroke: #464c55; stroke-linejoin: miter"/>
   </g>
   <g id="line2d_6">
    <path d="M 130.369531 366.336 
L 130.369531 86.544 
" clip-path="url(#p9d40ff0fcb)" style="fill: none; stroke-dasharray: 1,1.65; stroke-dashoffset: 0; stroke: #1f2430"/>
   </g>
   <g id="patch_8">
    <path d="M 130.369531 366.336 
L 130.369531 86.544 
" style="fill: none; stroke: #d7dbe7; stroke-width: 1.25; stroke-linejoin: miter; stroke-linecap: square"/>
   </g>
   <g id="patch_9">
    <path d="M 130.369531 366.336 
L 459.19096 366.336 
" style="fill: none; stroke: #d7dbe7; stroke-width: 1.25; stroke-linejoin: miter; stroke-linecap: square"/>
   </g>
  </g>
  <g id="axes_2">
   <g id="patch_10">
    <path d="M 538.108103 366.336 
L 866.929531 366.336 
L 866.929531 86.544 
L 538.108103 86.544 
z
" style="fill: #ffffff"/>
   </g>
   <g id="matplotlib.axis_3">
    <g id="xtick_6">
     <g id="line2d_7">
      <path d="M 566.711228 366.336 
L 566.711228 86.544 
" clip-path="url(#p4c4d49a61f)" style="fill: none; stroke: #e6e8f0; stroke-linecap: round"/>
     </g>
     <g id="text_12">
      <!-- -35.0% -->
      <g style="fill: #6f768a" transform="translate(548.438338 384.629125) scale(0.11 -0.11)">
       <defs>
        <path id="MicrosoftYaHei-2d" d="M 2328 1681 
L 488 1681 
L 488 2153 
L 2328 2153 
L 2328 1681 
z
" transform="scale(0.015625)"/>
        <path id="MicrosoftYaHei-33" d="M 447 809 
Q 944 425 1569 425 
Q 2069 425 2361 670 
Q 2653 916 2653 1328 
Q 2653 2247 1338 2247 
L 934 2247 
L 934 2753 
L 1319 2753 
Q 2484 2753 2484 3616 
Q 2484 4413 1594 4413 
Q 1084 4413 634 4069 
L 634 4647 
Q 1109 4922 1744 4922 
Q 2363 4922 2738 4598 
Q 3113 4275 3113 3759 
Q 3113 2809 2144 2538 
L 2144 2525 
Q 2669 2469 2973 2155 
Q 3278 1841 3278 1372 
Q 3278 719 2808 319 
Q 2338 -81 1556 -81 
Q 869 -81 447 175 
L 447 809 
z
" transform="scale(0.015625)"/>
        <path id="MicrosoftYaHei-35" d="M 3294 1494 
Q 3294 784 2823 350 
Q 2353 -84 1559 -84 
Q 878 -84 544 119 
L 544 744 
Q 1034 425 1544 425 
Q 2050 425 2361 704 
Q 2672 984 2672 1447 
Q 2672 1909 2348 2167 
Q 2025 2425 1434 2425 
Q 978 2425 613 2384 
L 791 4841 
L 3053 4841 
L 3053 4303 
L 1306 4303 
L 1206 2931 
L 1647 2950 
Q 2416 2950 2855 2567 
Q 3294 2184 3294 1494 
z
" transform="scale(0.015625)"/>
        <path id="MicrosoftYaHei-25" d="M 272 3619 
Q 272 4213 589 4563 
Q 906 4913 1444 4913 
Q 1959 4913 2248 4591 
Q 2538 4269 2538 3694 
Q 2538 3122 2219 2765 
Q 1900 2409 1372 2409 
Q 872 2409 572 2740 
Q 272 3072 272 3619 
z
M 753 3650 
Q 753 3247 928 3028 
Q 1103 2809 1406 2809 
Q 1719 2809 1889 3036 
Q 2059 3263 2059 3675 
Q 2059 4078 1892 4298 
Q 1725 4519 1422 4519 
Q 1113 4519 933 4289 
Q 753 4059 753 3650 
z
M 4647 4841 
L 1538 -31 
L 1016 -31 
L 4125 4841 
L 4647 4841 
z
M 3172 1134 
Q 3172 1728 3489 2083 
Q 3806 2438 4341 2438 
Q 4853 2438 5143 2114 
Q 5434 1791 5434 1203 
Q 5434 634 5112 279 
Q 4791 -75 4272 -75 
Q 3769 -75 3470 261 
Q 3172 597 3172 1134 
z
M 3650 1163 
Q 3650 769 3825 548 
Q 4000 328 4303 328 
Q 4616 328 4786 556 
Q 4956 784 4956 1194 
Q 4956 1600 4786 1815 
Q 4616 2031 4319 2031 
Q 4000 2031 3825 1801 
Q 3650 1572 3650 1163 
z
" transform="scale(0.015625)"/>
       </defs>
       <use xlink:href="#MicrosoftYaHei-2d"/>
       <use xlink:href="#MicrosoftYaHei-33" transform="translate(43.261719 0)"/>
       <use xlink:href="#MicrosoftYaHei-35" transform="translate(101.904297 0)"/>
       <use xlink:href="#MicrosoftYaHei-2e" transform="translate(160.546875 0)"/>
       <use xlink:href="#MicrosoftYaHei-30" transform="translate(184.619141 0)"/>
       <use xlink:href="#MicrosoftYaHei-25" transform="translate(243.261719 0)"/>
      </g>
     </g>
    </g>
    <g id="xtick_7">
     <g id="line2d_8">
      <path d="M 609.599557 366.336 
L 609.599557 86.544 
" clip-path="url(#p4c4d49a61f)" style="fill: none; stroke: #e6e8f0; stroke-linecap: round"/>
     </g>
     <g id="text_13">
      <!-- -30.0% -->
      <g style="fill: #6f768a" transform="translate(591.326667 384.629125) scale(0.11 -0.11)">
       <use xlink:href="#MicrosoftYaHei-2d"/>
       <use xlink:href="#MicrosoftYaHei-33" transform="translate(43.261719 0)"/>
       <use xlink:href="#MicrosoftYaHei-30" transform="translate(101.904297 0)"/>
       <use xlink:href="#MicrosoftYaHei-2e" transform="translate(160.546875 0)"/>
       <use xlink:href="#MicrosoftYaHei-30" transform="translate(184.619141 0)"/>
       <use xlink:href="#MicrosoftYaHei-25" transform="translate(243.261719 0)"/>
      </g>
     </g>
    </g>
    <g id="xtick_8">
     <g id="line2d_9">
      <path d="M 652.487886 366.336 
L 652.487886 86.544 
" clip-path="url(#p4c4d49a61f)" style="fill: none; stroke: #e6e8f0; stroke-linecap: round"/>
     </g>
     <g id="text_14">
      <!-- -25.0% -->
      <g style="fill: #6f768a" transform="translate(634.214996 384.629125) scale(0.11 -0.11)">
       <use xlink:href="#MicrosoftYaHei-2d"/>
       <use xlink:href="#MicrosoftYaHei-32" transform="translate(43.261719 0)"/>
       <use xlink:href="#MicrosoftYaHei-35" transform="translate(101.904297 0)"/>
       <use xlink:href="#MicrosoftYaHei-2e" transform="translate(160.546875 0)"/>
       <use xlink:href="#MicrosoftYaHei-30" transform="translate(184.619141 0)"/>
       <use xlink:href="#MicrosoftYaHei-25" transform="translate(243.261719 0)"/>
      </g>
     </g>
    </g>
    <g id="xtick_9">
     <g id="line2d_10">
      <path d="M 695.376215 366.336 
L 695.376215 86.544 
" clip-path="url(#p4c4d49a61f)" style="fill: none; stroke: #e6e8f0; stroke-linecap: round"/>
     </g>
     <g id="text_15">
      <!-- -20.0% -->
      <g style="fill: #6f768a" transform="translate(677.103325 384.629125) scale(0.11 -0.11)">
       <use xlink:href="#MicrosoftYaHei-2d"/>
       <use xlink:href="#MicrosoftYaHei-32" transform="translate(43.261719 0)"/>
       <use xlink:href="#MicrosoftYaHei-30" transform="translate(101.904297 0)"/>
       <use xlink:href="#MicrosoftYaHei-2e" transform="translate(160.546875 0)"/>
       <use xlink:href="#MicrosoftYaHei-30" transform="translate(184.619141 0)"/>
       <use xlink:href="#MicrosoftYaHei-25" transform="translate(243.261719 0)"/>
      </g>
     </g>
    </g>
    <g id="xtick_10">
     <g id="line2d_11">
      <path d="M 738.264544 366.336 
L 738.264544 86.544 
" clip-path="url(#p4c4d49a61f)" style="fill: none; stroke: #e6e8f0; stroke-linecap: round"/>
     </g>
     <g id="text_16">
      <!-- -15.0% -->
      <g style="fill: #6f768a" transform="translate(719.991654 384.629125) scale(0.11 -0.11)">
       <defs>
        <path id="MicrosoftYaHei-31" d="M 1781 0 
L 1781 4141 
Q 1638 3997 1295 3819 
Q 953 3641 663 3569 
L 663 4169 
Q 1047 4275 1484 4508 
Q 1922 4741 2156 4947 
L 2388 4947 
L 2388 0 
L 1781 0 
z
" transform="scale(0.015625)"/>
       </defs>
       <use xlink:href="#MicrosoftYaHei-2d"/>
       <use xlink:href="#MicrosoftYaHei-31" transform="translate(43.261719 0)"/>
       <use xlink:href="#MicrosoftYaHei-35" transform="translate(101.904297 0)"/>
       <use xlink:href="#MicrosoftYaHei-2e" transform="translate(160.546875 0)"/>
       <use xlink:href="#MicrosoftYaHei-30" transform="translate(184.619141 0)"/>
       <use xlink:href="#MicrosoftYaHei-25" transform="translate(243.261719 0)"/>
      </g>
     </g>
    </g>
    <g id="xtick_11">
     <g id="line2d_12">
      <path d="M 781.152873 366.336 
L 781.152873 86.544 
" clip-path="url(#p4c4d49a61f)" style="fill: none; stroke: #e6e8f0; stroke-linecap: round"/>
     </g>
     <g id="text_17">
      <!-- -10.0% -->
      <g style="fill: #6f768a" transform="translate(762.879983 384.629125) scale(0.11 -0.11)">
       <use xlink:href="#MicrosoftYaHei-2d"/>
       <use xlink:href="#MicrosoftYaHei-31" transform="translate(43.261719 0)"/>
       <use xlink:href="#MicrosoftYaHei-30" transform="translate(101.904297 0)"/>
       <use xlink:href="#MicrosoftYaHei-2e" transform="translate(160.546875 0)"/>
       <use xlink:href="#MicrosoftYaHei-30" transform="translate(184.619141 0)"/>
       <use xlink:href="#MicrosoftYaHei-25" transform="translate(243.261719 0)"/>
      </g>
     </g>
    </g>
    <g id="xtick_12">
     <g id="line2d_13">
      <path d="M 824.041202 366.336 
L 824.041202 86.544 
" clip-path="url(#p4c4d49a61f)" style="fill: none; stroke: #e6e8f0; stroke-linecap: round"/>
     </g>
     <g id="text_18">
      <!-- -5.0% -->
      <g style="fill: #6f768a" transform="translate(808.993546 384.629125) scale(0.11 -0.11)">
       <use xlink:href="#MicrosoftYaHei-2d"/>
       <use xlink:href="#MicrosoftYaHei-35" transform="translate(43.261719 0)"/>
       <use xlink:href="#MicrosoftYaHei-2e" transform="translate(101.904297 0)"/>
       <use xlink:href="#MicrosoftYaHei-30" transform="translate(125.976562 0)"/>
       <use xlink:href="#MicrosoftYaHei-25" transform="translate(184.619141 0)"/>
      </g>
     </g>
    </g>
    <g id="xtick_13">
     <g id="line2d_14">
      <path d="M 866.929531 366.336 
L 866.929531 86.544 
" clip-path="url(#p4c4d49a61f)" style="fill: none; stroke: #e6e8f0; stroke-linecap: round"/>
     </g>
     <g id="text_19">
      <!-- 0.0% -->
      <g style="fill: #6f768a" transform="translate(854.261484 384.629125) scale(0.11 -0.11)">
       <use xlink:href="#MicrosoftYaHei-30"/>
       <use xlink:href="#MicrosoftYaHei-2e" transform="translate(58.642578 0)"/>
       <use xlink:href="#MicrosoftYaHei-30" transform="translate(82.714844 0)"/>
       <use xlink:href="#MicrosoftYaHei-25" transform="translate(141.357422 0)"/>
      </g>
     </g>
    </g>
    <g id="text_20">
     <!-- 最大回撤 -->
     <g style="fill: #1f2430" transform="translate(678.518817 400.956156) scale(0.12 -0.12)">
      <defs>
       <path id="MicrosoftYaHei-6700" d="M 169 -28 
Q 475 3 781 38 
L 781 2416 
L 94 2416 
L 94 2791 
L 6288 2791 
L 6288 2416 
L 3025 2416 
L 3025 331 
Q 3325 375 3625 422 
Q 3619 309 3631 22 
Q 3338 -19 3025 -63 
L 3025 -859 
L 2600 -859 
L 2600 -125 
Q 1525 -278 281 -472 
L 169 -28 
z
M 1038 5053 
L 5363 5053 
L 5363 3047 
L 4925 3047 
L 4925 3191 
L 1475 3191 
L 1475 3047 
L 1038 3047 
L 1038 5053 
z
M 3338 1609 
L 3338 1972 
L 5819 1972 
L 5819 1609 
Q 5500 844 4981 278 
Q 5516 -113 6306 -316 
Q 6144 -553 6025 -753 
Q 5219 -488 4666 -34 
Q 4128 -516 3413 -822 
Q 3306 -634 3125 -428 
Q 3834 -156 4347 266 
Q 3825 825 3603 1609 
L 3338 1609 
z
M 1475 3553 
L 4925 3553 
L 4925 3953 
L 1475 3953 
L 1475 3553 
z
M 4925 4691 
L 1475 4691 
L 1475 4291 
L 4925 4291 
L 4925 4691 
z
M 5344 1609 
L 4025 1609 
Q 4222 994 4659 556 
Q 5094 1013 5344 1609 
z
M 2600 269 
L 2600 691 
L 1206 691 
L 1206 88 
Q 1913 172 2600 269 
z
M 1206 1916 
L 2600 1916 
L 2600 2416 
L 1206 2416 
L 1206 1916 
z
M 1206 1053 
L 2600 1053 
L 2600 1553 
L 1206 1553 
L 1206 1053 
z
" transform="scale(0.015625)"/>
       <path id="MicrosoftYaHei-5927" d="M 88 -341 
Q 2666 806 2869 3103 
L 200 3103 
L 200 3591 
L 2891 3591 
Q 2906 4431 2906 5284 
L 3450 5284 
Q 3450 4444 3434 3591 
L 6206 3591 
L 6206 3103 
L 3425 3103 
Q 3869 606 6338 -191 
Q 6019 -497 5863 -697 
Q 3828 122 3203 2219 
Q 2716 322 475 -822 
Q 350 -653 88 -341 
z
" transform="scale(0.015625)"/>
       <path id="MicrosoftYaHei-56de" d="M 475 4947 
L 5938 4947 
L 5938 -778 
L 5413 -778 
L 5413 -378 
L 1000 -378 
L 1000 -778 
L 475 -778 
L 475 4947 
z
M 5413 4484 
L 1000 4484 
L 1000 72 
L 5413 72 
L 5413 4484 
z
M 1875 3528 
L 4531 3528 
L 4531 797 
L 4044 797 
L 4044 1147 
L 2363 1147 
L 2363 797 
L 1875 797 
L 1875 3528 
z
M 4044 3091 
L 2363 3091 
L 2363 1584 
L 4044 1584 
L 4044 3091 
z
" transform="scale(0.015625)"/>
       <path id="MicrosoftYaHei-64a4" d="M 4838 5303 
L 5256 5228 
Q 5153 4641 5016 4122 
L 6313 4122 
L 6313 3716 
L 6016 3716 
Q 5878 1894 5413 828 
Q 5759 144 6319 -347 
Q 6181 -628 6069 -828 
Q 5531 -294 5181 384 
Q 4772 -306 4225 -872 
Q 4106 -691 3925 -478 
Q 4575 138 4966 869 
Q 4638 1706 4556 2734 
Q 4422 2422 4275 2147 
Q 4188 2322 4025 2541 
Q 4606 3641 4838 5303 
z
M 2331 -797 
L 1913 -797 
L 1913 2584 
L 3856 2584 
L 3856 -122 
Q 3856 -791 3313 -797 
Q 3081 -803 2706 -803 
Q 2675 -616 2619 -372 
Q 2938 -391 3175 -391 
Q 3444 -391 3444 -84 
L 3444 447 
L 2331 447 
L 2331 -797 
z
M 81 1972 
Q 384 2041 706 2119 
L 706 3541 
L 138 3541 
L 138 3966 
L 706 3966 
L 706 5253 
L 1138 5253 
L 1138 3966 
L 1594 3966 
L 1594 3541 
L 1138 3541 
L 1138 2228 
Q 1394 2294 1663 2366 
Q 1650 2078 1663 1903 
Q 1397 1828 1138 1753 
L 1138 -159 
Q 1138 -759 613 -766 
Q 469 -766 131 -759 
Q 119 -534 88 -266 
Q 363 -297 513 -297 
Q 706 -297 706 -59 
L 706 1631 
Q 425 1550 156 1472 
L 81 1972 
z
M 2256 3316 
Q 2881 3344 3528 3375 
Q 3344 3628 3150 3878 
L 3456 4097 
Q 3856 3634 4219 3153 
L 3875 2884 
Q 3819 2969 3759 3050 
Q 2216 2959 1800 2922 
L 1681 3266 
Q 2122 3716 2456 4209 
L 1650 4209 
L 1650 4597 
L 2884 4597 
Q 2706 4878 2513 5128 
L 2900 5353 
Q 3131 5072 3331 4791 
L 3009 4597 
L 4213 4597 
L 4213 4209 
L 2997 4209 
Q 2731 3838 2256 3316 
z
M 5597 3716 
L 4906 3716 
Q 4869 3597 4831 3484 
Q 4856 2281 5184 1363 
Q 5494 2234 5597 3716 
z
M 3444 2197 
L 2331 2197 
L 2331 1684 
L 3444 1684 
L 3444 2197 
z
M 2331 809 
L 3444 809 
L 3444 1322 
L 2331 1322 
L 2331 809 
z
" transform="scale(0.015625)"/>
      </defs>
      <use xlink:href="#MicrosoftYaHei-6700"/>
      <use xlink:href="#MicrosoftYaHei-5927" transform="translate(100 0)"/>
      <use xlink:href="#MicrosoftYaHei-56de" transform="translate(200 0)"/>
      <use xlink:href="#MicrosoftYaHei-64a4" transform="translate(300 0)"/>
     </g>
    </g>
   </g>
   <g id="matplotlib.axis_4">
    <g id="ytick_6"/>
    <g id="ytick_7"/>
    <g id="ytick_8"/>
    <g id="ytick_9"/>
    <g id="ytick_10"/>
   </g>
   <g id="patch_11">
    <path d="M 866.929531 300.627273 
L 553.766266 300.627273 
L 553.766266 258.234545 
L 866.929531 258.234545 
z
" clip-path="url(#p4c4d49a61f)" style="fill: #f0986e; stroke: #464c55; stroke-linejoin: miter"/>
   </g>
   <g id="patch_12">
    <path d="M 866.929531 353.618182 
L 563.879651 353.618182 
L 563.879651 311.225455 
L 866.929531 311.225455 
z
" clip-path="url(#p4c4d49a61f)" style="fill: #e2e5ea; stroke: #464c55; stroke-linejoin: miter"/>
   </g>
   <g id="patch_13">
    <path d="M 866.929531 247.636364 
L 679.334875 247.636364 
L 679.334875 205.243636 
L 866.929531 205.243636 
z
" clip-path="url(#p4c4d49a61f)" style="fill: #e2e5ea; stroke: #464c55; stroke-linejoin: miter"/>
   </g>
   <g id="patch_14">
    <path d="M 866.929531 141.654545 
L 679.334875 141.654545 
L 679.334875 99.261818 
L 866.929531 99.261818 
z
" clip-path="url(#p4c4d49a61f)" style="fill: #e2e5ea; stroke: #464c55; stroke-linejoin: miter"/>
   </g>
   <g id="patch_15">
    <path d="M 866.929531 194.645455 
L 681.487849 194.645455 
L 681.487849 152.252727 
L 866.929531 152.252727 
z
" clip-path="url(#p4c4d49a61f)" style="fill: #e2e5ea; stroke: #464c55; stroke-linejoin: miter"/>
   </g>
   <g id="patch_16">
    <path d="M 538.108103 366.336 
L 538.108103 86.544 
" style="fill: none; stroke: #d7dbe7; stroke-width: 1.25; stroke-linejoin: miter; stroke-linecap: square"/>
   </g>
   <g id="patch_17">
    <path d="M 538.108103 366.336 
L 866.929531 366.336 
" style="fill: none; stroke: #d7dbe7; stroke-width: 1.25; stroke-linejoin: miter; stroke-linecap: square"/>
   </g>
  </g>
  <g id="text_21">
   <!-- 图2-10 基准策略收益来源的组件拆解 -->
   <g style="fill: #1f2430" transform="translate(87.601531 19.190625) scale(0.15 -0.15)">
    <defs>
     <path id="MicrosoftYaHei-Bold-56fe" d="M 369 -841 
L 369 5072 
L 6019 5072 
L 6019 -834 
L 5156 -834 
L 5156 -591 
L 1231 -591 
L 1231 -841 
L 369 -841 
z
M 4875 3978 
L 4875 3466 
Q 4547 3022 4006 2678 
Q 4513 2541 5156 2463 
L 5156 4316 
L 3256 4316 
Q 3141 4144 3009 3978 
L 4875 3978 
z
M 2394 4316 
L 1231 4316 
L 1231 3231 
Q 2016 3747 2394 4316 
z
M 3228 2959 
Q 3666 3163 3919 3416 
L 2575 3416 
Q 2828 3156 3228 2959 
z
M 1644 2747 
Q 1481 2925 1231 3147 
L 1231 2400 
Q 1950 2522 2500 2688 
Q 2266 2863 2078 3063 
Q 1872 2900 1644 2747 
z
M 1669 1303 
Q 3319 1084 4775 841 
L 4600 166 
L 5156 166 
L 5156 2388 
Q 5019 2159 4825 1822 
Q 3897 1978 3219 2275 
Q 2872 2134 2472 2019 
Q 3509 1888 4500 1722 
L 4375 1128 
Q 3344 1309 2063 1484 
L 2159 1934 
Q 1856 1859 1525 1797 
Q 1409 2059 1231 2347 
L 1231 166 
L 4569 166 
Q 3297 425 1494 647 
L 1669 1303 
z
" transform="scale(0.015625)"/>
     <path id="MicrosoftYaHei-Bold-32" d="M 1500 841 
L 3553 841 
L 3553 0 
L 334 0 
L 334 359 
Q 334 738 473 1050 
Q 613 1363 856 1633 
Q 1100 1903 1613 2266 
Q 2081 2616 2268 2886 
Q 2456 3156 2456 3459 
Q 2456 4113 1744 4113 
Q 1119 4113 550 3613 
L 550 4513 
Q 1184 4922 1975 4922 
Q 2700 4922 3122 4551 
Q 3544 4181 3544 3531 
Q 3544 3169 3422 2876 
Q 3300 2584 3069 2328 
Q 2838 2072 2328 1713 
Q 1838 1363 1669 1172 
Q 1500 981 1500 841 
z
" transform="scale(0.015625)"/>
     <path id="MicrosoftYaHei-Bold-2d" d="M 2328 1497 
L 481 1497 
L 481 2209 
L 2328 2209 
L 2328 1497 
z
" transform="scale(0.015625)"/>
     <path id="MicrosoftYaHei-Bold-31" d="M 2716 4947 
L 2716 0 
L 1700 0 
L 1700 3809 
Q 1513 3647 1188 3517 
Q 863 3388 591 3356 
L 591 4222 
Q 1447 4472 2072 4947 
L 2716 4947 
z
" transform="scale(0.015625)"/>
     <path id="MicrosoftYaHei-Bold-30" d="M 244 2341 
Q 244 3597 706 4259 
Q 1169 4922 2044 4922 
Q 3713 4922 3713 2453 
Q 3713 1238 3259 577 
Q 2806 -84 1950 -84 
Q 244 -84 244 2341 
z
M 1266 2366 
Q 1266 691 1981 691 
Q 2684 691 2684 2416 
Q 2684 4147 2000 4147 
Q 1266 4147 1266 2366 
z
" transform="scale(0.015625)"/>
     <path id="MicrosoftYaHei-Bold-20" transform="scale(0.015625)"/>
     <path id="MicrosoftYaHei-Bold-57fa" d="M 6319 853 
Q 6063 484 5856 159 
Q 5369 428 4925 791 
L 4925 384 
L 3631 384 
L 3631 3 
L 5875 3 
L 5875 -653 
L 525 -653 
L 525 3 
L 2775 3 
L 2775 384 
L 1450 384 
L 1450 766 
Q 1016 422 544 159 
Q 363 447 75 847 
Q 856 1141 1397 1584 
L 156 1584 
L 156 2241 
L 1244 2241 
L 1244 4141 
L 338 4141 
L 338 4797 
L 1244 4797 
L 1244 5341 
L 2100 5341 
L 2100 4797 
L 4313 4797 
L 4313 5341 
L 5163 5341 
L 5163 4797 
L 6069 4797 
L 6069 4141 
L 5163 4141 
L 5163 2241 
L 6244 2241 
L 6244 1584 
L 5013 1584 
Q 5675 1091 6319 853 
z
M 2100 3828 
L 4313 3828 
L 4313 4141 
L 2100 4141 
L 2100 3828 
z
M 2100 3028 
L 4313 3028 
L 4313 3341 
L 2100 3341 
L 2100 3028 
z
M 2100 2241 
L 4313 2241 
L 4313 2553 
L 2100 2553 
L 2100 2241 
z
M 2775 1466 
L 3631 1466 
L 3631 1028 
L 4647 1028 
Q 4359 1284 4091 1584 
L 2319 1584 
Q 2050 1284 1759 1028 
L 2775 1028 
L 2775 1466 
z
" transform="scale(0.015625)"/>
     <path id="MicrosoftYaHei-Bold-51c6" d="M 2594 5328 
L 3406 5116 
Q 3250 4675 3066 4266 
L 4350 4266 
Q 4100 4581 3781 4941 
L 4406 5384 
Q 4819 4966 5175 4541 
L 4778 4266 
L 6181 4266 
L 6181 3591 
L 4906 3591 
L 4906 2916 
L 6131 2916 
L 6131 2272 
L 4906 2272 
L 4906 1597 
L 6131 1597 
L 6131 953 
L 4906 953 
L 4906 266 
L 6250 266 
L 6250 -397 
L 2963 -397 
L 2963 -847 
L 2113 -847 
L 2113 2588 
Q 1941 2350 1756 2122 
Q 1550 2603 1356 2959 
Q 2188 3959 2594 5328 
z
M 2963 2916 
L 4056 2916 
L 4056 3591 
L 2963 3591 
L 2963 2916 
z
M 2963 1597 
L 4056 1597 
L 4056 2272 
L 2963 2272 
L 2963 1597 
z
M 2963 266 
L 4056 266 
L 4056 953 
L 2963 953 
L 2963 266 
z
M 731 5022 
Q 1200 4422 1700 3709 
L 956 3203 
Q 525 3903 38 4572 
L 731 5022 
z
M 925 2472 
Q 1344 2241 1738 2059 
L 825 -609 
Q 481 -353 44 -109 
Q 475 966 925 2472 
z
" transform="scale(0.015625)"/>
     <path id="MicrosoftYaHei-Bold-7b56" d="M 6225 4284 
L 5281 4284 
Q 5419 4013 5525 3753 
L 4719 3591 
Q 4603 3963 4450 4284 
L 4075 4284 
Q 3881 3988 3638 3697 
L 3613 3709 
L 3613 3453 
L 6200 3453 
L 6200 2803 
L 3613 2803 
L 3613 2403 
L 5913 2403 
L 5913 1409 
Q 5913 1106 5727 882 
Q 5541 659 4719 659 
Q 5428 284 6313 147 
Q 6094 -203 5875 -653 
Q 4475 -225 3613 659 
L 3613 -853 
L 2788 -853 
L 2788 681 
Q 1872 -216 525 -697 
Q 350 -341 94 72 
Q 1759 528 2788 1509 
L 2788 1766 
L 1444 1766 
L 1444 647 
L 631 647 
L 631 2403 
L 2788 2403 
L 2788 2803 
L 225 2803 
L 225 3453 
L 2788 3453 
L 2788 3734 
L 3566 3734 
Q 3263 3891 2906 4053 
Q 3450 4578 3800 5347 
L 4619 5347 
Q 4531 5113 4419 4884 
L 6225 4884 
L 6225 4284 
z
M 4275 1353 
Q 4581 1303 4856 1303 
Q 5100 1303 5100 1522 
L 5100 1766 
L 3613 1766 
L 3613 1491 
Q 3966 1128 4381 856 
Q 4347 1094 4275 1353 
z
M 3113 4284 
L 2225 4284 
Q 2359 4016 2494 3703 
L 1688 3541 
Q 1566 3922 1416 4284 
L 1288 4284 
Q 894 3822 431 3484 
Q 325 3803 75 4228 
Q 700 4634 1119 5341 
L 2006 5341 
Q 1875 5100 1734 4884 
L 3113 4884 
L 3113 4284 
z
" transform="scale(0.015625)"/>
     <path id="MicrosoftYaHei-Bold-7565" d="M 6056 4716 
L 6056 3978 
Q 5775 3350 5269 2863 
Q 5738 2666 6325 2591 
Q 6194 2209 6075 1753 
Q 5244 1931 4597 2347 
Q 3994 1966 3188 1716 
L 5950 1716 
L 5950 -847 
L 5175 -847 
L 5175 -522 
L 3881 -522 
L 3881 -859 
L 3106 -859 
L 3106 1691 
L 3000 1659 
Q 2891 1934 2756 2213 
L 2756 -459 
L 2119 -459 
L 2119 -3 
L 969 -3 
L 969 -497 
L 331 -497 
L 331 4866 
L 2756 4866 
L 2756 3619 
Q 3469 4422 3769 5359 
L 4544 5241 
Q 4459 4969 4356 4716 
L 6056 4716 
z
M 2119 4266 
L 1806 4266 
L 1806 2734 
L 2119 2734 
L 2119 4266 
z
M 969 2734 
L 1281 2734 
L 1281 4266 
L 969 4266 
L 969 2734 
z
M 3978 3934 
Q 4231 3541 4588 3259 
Q 4972 3578 5188 3997 
L 4013 3997 
Q 3994 3966 3978 3934 
z
M 3219 2922 
Q 3050 3125 2756 3413 
L 2756 2444 
Q 3447 2600 3963 2856 
Q 3747 3069 3559 3316 
Q 3400 3109 3219 2922 
z
M 969 597 
L 1281 597 
L 1281 2134 
L 969 2134 
L 969 597 
z
M 1806 597 
L 2119 597 
L 2119 2134 
L 1806 2134 
L 1806 597 
z
M 5175 966 
L 3881 966 
L 3881 228 
L 5175 228 
L 5175 966 
z
" transform="scale(0.015625)"/>
     <path id="MicrosoftYaHei-Bold-6536" d="M 2450 5297 
L 2450 2941 
Q 3141 3934 3506 5341 
L 4363 5191 
Q 4253 4766 4119 4366 
L 6263 4366 
L 6263 3534 
L 5841 3534 
Q 5647 1928 4963 866 
Q 5528 328 6325 22 
Q 6050 -347 5775 -828 
Q 4988 -416 4413 178 
Q 3806 -447 2950 -872 
Q 2744 -416 2469 -34 
Q 3272 363 3841 897 
Q 3409 1559 3172 2384 
Q 3075 2234 2975 2091 
Q 2756 2469 2450 2844 
L 2450 -841 
L 1638 -841 
L 1638 963 
Q 847 569 456 259 
L 100 1059 
Q 331 1241 331 1528 
L 331 4684 
L 1106 4684 
L 1106 1528 
L 1638 1819 
L 1638 5297 
L 2450 5297 
z
M 4381 1581 
Q 4828 2341 5034 3534 
L 3794 3534 
Q 3756 3450 3716 3366 
Q 3906 2328 4381 1581 
z
" transform="scale(0.015625)"/>
     <path id="MicrosoftYaHei-Bold-76ca" d="M 113 122 
L 813 122 
L 813 1763 
Q 694 1709 575 1659 
Q 381 1997 131 2353 
Q 1300 2781 2259 3372 
L 213 3372 
L 213 4109 
L 1803 4109 
Q 1359 4641 1106 4884 
L 1731 5359 
Q 2125 4991 2706 4366 
L 2366 4109 
L 3625 4109 
Q 4238 4750 4700 5353 
L 5438 4872 
Q 5050 4463 4675 4109 
L 6238 4109 
L 6238 3372 
L 4169 3372 
Q 5338 2869 6275 2403 
L 5844 1691 
L 5638 1803 
L 5638 122 
L 6294 122 
L 6294 -628 
L 113 -628 
L 113 122 
z
M 3569 2834 
L 3941 3372 
L 2400 3372 
L 2888 2841 
Q 2200 2434 1534 2103 
L 5072 2103 
Q 4394 2453 3569 2834 
z
M 4825 1384 
L 4288 1384 
L 4288 122 
L 4825 122 
L 4825 1384 
z
M 2956 122 
L 3488 122 
L 3488 1384 
L 2956 1384 
L 2956 122 
z
M 1625 122 
L 2156 122 
L 2156 1384 
L 1625 1384 
L 1625 122 
z
" transform="scale(0.015625)"/>
     <path id="MicrosoftYaHei-Bold-6765" d="M 513 4628 
L 2731 4628 
L 2731 5316 
L 3638 5316 
L 3638 4628 
L 5888 4628 
L 5888 3816 
L 4872 3816 
L 5494 3353 
Q 5078 2844 4722 2516 
L 6213 2516 
L 6213 1709 
L 4159 1709 
Q 5028 816 6269 347 
Q 5988 -22 5713 -441 
Q 4388 281 3638 1263 
L 3638 -809 
L 2731 -809 
L 2731 1256 
Q 1959 253 656 -478 
Q 369 -66 106 266 
Q 1325 794 2175 1709 
L 213 1709 
L 213 2516 
L 1609 2516 
Q 1363 2856 906 3378 
L 1488 3816 
L 513 3816 
L 513 4628 
z
M 4847 3816 
L 3638 3816 
L 3638 2516 
L 4638 2516 
L 4081 2984 
Q 4469 3347 4847 3816 
z
M 2294 2966 
L 1688 2516 
L 2731 2516 
L 2731 3816 
L 1531 3816 
Q 1897 3441 2294 2966 
z
" transform="scale(0.015625)"/>
     <path id="MicrosoftYaHei-Bold-6e90" d="M 719 5278 
Q 1425 4772 1744 4509 
L 1163 3878 
Q 719 4309 200 4734 
L 719 5278 
z
M 3281 1053 
L 3894 678 
Q 3688 344 3422 -22 
Q 3584 -47 3844 -53 
Q 4119 -16 4125 203 
L 4125 1191 
L 3019 1191 
L 3019 3834 
L 3691 3834 
Q 3803 4094 3888 4372 
L 2669 4372 
L 2669 2491 
Q 2669 141 1975 -884 
Q 1575 -484 1269 -284 
Q 1875 616 1869 2603 
L 1869 5072 
L 6250 5072 
L 6250 4372 
L 4709 4372 
Q 4634 4188 4459 3834 
L 5981 3834 
L 5981 1191 
L 4925 1191 
L 4925 9 
Q 4925 -347 4776 -547 
Q 4628 -747 4323 -790 
Q 4019 -834 3525 -822 
Q 3472 -481 3372 -91 
Q 3191 -334 2988 -591 
L 2406 -122 
Q 2863 359 3281 1053 
z
M 5206 3197 
L 3781 3197 
L 3781 2803 
L 5206 2803 
L 5206 3197 
z
M 5206 1828 
L 5206 2228 
L 3781 2228 
L 3781 1828 
L 5206 1828 
z
M 594 3666 
Q 1069 3322 1581 2878 
L 1019 2203 
Q 563 2647 81 3072 
L 594 3666 
z
M 781 1878 
Q 1250 1666 1550 1578 
L 988 -778 
Q 575 -622 163 -522 
Q 481 434 781 1878 
z
M 5569 1078 
Q 5963 566 6350 -91 
L 5706 -472 
Q 5406 103 4981 734 
L 5569 1078 
z
" transform="scale(0.015625)"/>
     <path id="MicrosoftYaHei-Bold-7684" d="M 1250 5303 
L 2181 5159 
L 1900 4309 
L 2963 4309 
L 2963 3091 
Q 3466 3934 3925 5316 
L 4788 5091 
Q 4650 4675 4494 4278 
L 6106 4278 
L 6034 681 
Q 6019 100 5937 -133 
Q 5856 -366 5684 -512 
Q 5513 -659 5205 -712 
Q 4897 -766 3863 -766 
Q 3769 -216 3625 178 
Q 4088 141 4609 141 
Q 4759 141 4868 175 
Q 4978 209 5048 279 
Q 5119 350 5144 437 
Q 5169 525 5184 1206 
L 5213 2484 
Q 5225 3081 5225 3453 
L 4138 3453 
Q 3931 3016 3700 2603 
Q 3403 2797 2963 2988 
L 2963 -734 
L 2094 -734 
L 2094 -284 
L 1206 -284 
L 1206 -772 
L 338 -772 
L 338 4309 
L 997 4309 
Q 1178 4922 1250 5303 
z
M 2094 3491 
L 1206 3491 
L 1206 2422 
L 2094 2422 
L 2094 3491 
z
M 1206 534 
L 2094 534 
L 2094 1603 
L 1206 1603 
L 1206 534 
z
M 3944 2703 
Q 4394 2166 4913 1397 
L 4125 872 
Q 3650 1653 3219 2203 
L 3944 2703 
z
" transform="scale(0.015625)"/>
     <path id="MicrosoftYaHei-Bold-7ec4" d="M 244 -559 
L 94 272 
Q 1200 397 2388 566 
Q 2375 384 2369 203 
L 2694 203 
L 2694 3769 
Q 2003 2625 1363 1728 
L 2463 1859 
Q 2406 1409 2394 1109 
Q 788 941 488 834 
L 181 1584 
Q 500 1766 1144 2734 
Q 538 2703 325 2634 
L 75 3366 
Q 413 3578 1231 5366 
L 2025 5059 
Q 1513 4153 1038 3409 
L 1584 3438 
Q 1791 3788 1994 4172 
L 2694 3838 
L 2694 5059 
L 5913 5059 
L 5913 203 
L 6306 203 
L 6306 -603 
L 2256 -603 
L 2256 -263 
L 244 -559 
z
M 5038 4253 
L 3569 4253 
L 3569 3434 
L 5038 3434 
L 5038 4253 
z
M 3569 1828 
L 5038 1828 
L 5038 2647 
L 3569 2647 
L 3569 1828 
z
M 3569 203 
L 5038 203 
L 5038 1041 
L 3569 1041 
L 3569 203 
z
" transform="scale(0.015625)"/>
     <path id="MicrosoftYaHei-Bold-4ef6" d="M 1944 1959 
L 3938 1959 
L 3938 3153 
L 3078 3153 
Q 2897 2563 2694 2097 
Q 2350 2284 1913 2466 
Q 2331 3472 2625 4903 
L 3469 4697 
Q 3388 4309 3300 3959 
L 3938 3959 
L 3938 5309 
L 4844 5309 
L 4844 3959 
L 6150 3959 
L 6150 3153 
L 4844 3153 
L 4844 1959 
L 6319 1959 
L 6319 1153 
L 4844 1153 
L 4844 -853 
L 3938 -853 
L 3938 1153 
L 1944 1153 
L 1944 1959 
z
M 1269 5303 
L 2131 5053 
Q 1906 4384 1669 3794 
L 1669 -847 
L 831 -847 
L 831 2000 
Q 578 1541 313 1153 
Q 200 1834 94 2322 
Q 750 3559 1269 5303 
z
" transform="scale(0.015625)"/>
     <path id="MicrosoftYaHei-Bold-62c6" d="M 156 4222 
L 863 4222 
L 863 5322 
L 1675 5322 
L 1675 4222 
L 2269 4222 
L 2269 3409 
L 1675 3409 
L 1675 2463 
L 2269 2591 
Q 2238 2053 2244 1772 
Q 2078 1738 1675 1638 
L 1675 16 
Q 1675 -456 1422 -640 
Q 1169 -825 369 -809 
Q 306 -503 156 34 
Q 400 16 575 16 
Q 744 16 803 81 
Q 863 147 863 309 
L 863 1441 
L 188 1272 
L 100 2166 
L 863 2303 
L 863 3409 
L 156 3409 
L 156 4222 
z
M 6125 4434 
Q 4875 4216 3325 4084 
L 3325 3378 
L 6313 3378 
L 6313 2566 
L 5256 2566 
L 5256 1469 
L 6319 1084 
Q 6150 697 5994 259 
Q 5656 409 5256 572 
L 5256 -822 
L 4413 -822 
L 4413 909 
L 3344 1309 
L 3656 2016 
L 4413 1763 
L 4413 2566 
L 3325 2566 
L 3325 2003 
Q 3325 341 2650 -866 
Q 2338 -622 1888 -316 
Q 2488 466 2488 1966 
L 2488 4847 
Q 4319 4947 5763 5247 
L 6125 4434 
z
" transform="scale(0.015625)"/>
     <path id="MicrosoftYaHei-Bold-89e3" d="M 3188 953 
L 4475 953 
L 4475 1641 
L 3888 1641 
Q 3769 1331 3619 1078 
Q 3288 1263 3013 1381 
L 3013 47 
Q 3013 -316 2888 -517 
Q 2763 -719 2517 -758 
Q 2272 -797 1963 -797 
L 1884 -403 
L 1406 -403 
L 1406 778 
L 1034 778 
Q 941 -281 656 -897 
Q 350 -516 69 -259 
Q 419 541 419 2078 
L 419 3113 
Q 359 3053 300 2997 
Q 225 3403 81 3866 
Q 725 4522 1075 5359 
L 1838 5259 
Q 1759 5072 1672 4891 
L 2806 4891 
L 2806 4303 
L 2488 3734 
L 3013 3734 
L 3013 1541 
Q 3384 2147 3488 2803 
L 4169 2709 
Q 4134 2513 4091 2328 
L 4475 2328 
L 4475 2853 
L 5263 2853 
L 5263 2328 
L 6131 2328 
L 6131 1641 
L 5263 1641 
L 5263 953 
L 6281 953 
L 6281 266 
L 5263 266 
L 5263 -822 
L 4475 -822 
L 4475 266 
L 3188 266 
L 3188 953 
z
M 963 3734 
L 1697 3734 
L 2000 4278 
L 1338 4278 
Q 1166 3997 963 3734 
z
M 2363 3134 
L 2006 3134 
L 2006 2541 
L 2363 2541 
L 2363 3134 
z
M 1081 2541 
L 1406 2541 
L 1406 3134 
L 1081 3134 
L 1081 2541 
z
M 2006 1366 
L 2363 1366 
L 2363 1953 
L 2006 1953 
L 2006 1366 
z
M 1072 1366 
L 1406 1366 
L 1406 1953 
L 1081 1953 
Q 1081 1909 1072 1366 
z
M 2363 778 
L 2006 778 
L 2006 -81 
Q 2231 -91 2297 -22 
Q 2363 47 2363 247 
L 2363 778 
z
M 4581 2978 
Q 4522 3366 4416 3697 
Q 4206 3203 3581 2816 
Q 3338 3153 3019 3484 
Q 3725 3841 3775 4416 
L 3194 4416 
L 3194 5097 
L 6119 5097 
Q 6103 3772 5973 3492 
Q 5844 3213 5614 3095 
Q 5384 2978 4581 2978 
z
M 4428 3725 
Q 4741 3709 4894 3709 
Q 5122 3709 5198 3821 
Q 5275 3934 5275 4416 
L 4581 4416 
Q 4544 4019 4428 3725 
z
" transform="scale(0.015625)"/>
    </defs>
    <use xlink:href="#MicrosoftYaHei-Bold-56fe"/>
    <use xlink:href="#MicrosoftYaHei-Bold-32" transform="translate(100 0)"/>
    <use xlink:href="#MicrosoftYaHei-Bold-2d" transform="translate(161.669922 0)"/>
    <use xlink:href="#MicrosoftYaHei-Bold-31" transform="translate(205.322266 0)"/>
    <use xlink:href="#MicrosoftYaHei-Bold-30" transform="translate(266.992188 0)"/>
    <use xlink:href="#MicrosoftYaHei-Bold-20" transform="translate(328.662109 0)"/>
    <use xlink:href="#MicrosoftYaHei-Bold-57fa" transform="translate(358.447266 0)"/>
    <use xlink:href="#MicrosoftYaHei-Bold-51c6" transform="translate(458.447266 0)"/>
    <use xlink:href="#MicrosoftYaHei-Bold-7b56" transform="translate(558.447266 0)"/>
    <use xlink:href="#MicrosoftYaHei-Bold-7565" transform="translate(658.447266 0)"/>
    <use xlink:href="#MicrosoftYaHei-Bold-6536" transform="translate(758.447266 0)"/>
    <use xlink:href="#MicrosoftYaHei-Bold-76ca" transform="translate(858.447266 0)"/>
    <use xlink:href="#MicrosoftYaHei-Bold-6765" transform="translate(958.447266 0)"/>
    <use xlink:href="#MicrosoftYaHei-Bold-6e90" transform="translate(1058.447266 0)"/>
    <use xlink:href="#MicrosoftYaHei-Bold-7684" transform="translate(1158.447266 0)"/>
    <use xlink:href="#MicrosoftYaHei-Bold-7ec4" transform="translate(1258.447266 0)"/>
    <use xlink:href="#MicrosoftYaHei-Bold-4ef6" transform="translate(1358.447266 0)"/>
    <use xlink:href="#MicrosoftYaHei-Bold-62c6" transform="translate(1458.447266 0)"/>
    <use xlink:href="#MicrosoftYaHei-Bold-89e3" transform="translate(1558.447266 0)"/>
   </g>
  </g>
  <g id="text_22">
   <!-- 2020-10-12 至 2026-06-18。仅排序版本表现较弱；加入趋势过滤后，风险收益和回撤均明显改善。 -->
   <g style="fill: #6f768a" transform="translate(87.601531 37.762062) scale(0.095 -0.095)">
    <defs>
     <path id="MicrosoftYaHei-81f3" d="M 4263 4147 
Q 5225 3334 6013 2559 
L 5606 2197 
Q 5403 2413 5175 2644 
Q 2988 2588 1306 2459 
Q 1125 2441 806 2359 
L 550 2897 
Q 894 3009 1131 3197 
Q 1763 3719 2428 4522 
L 288 4522 
L 288 4972 
L 6119 4972 
L 6119 4522 
L 3116 4522 
Q 2394 3722 1556 2959 
Q 3019 3022 4738 3072 
Q 4363 3438 3925 3834 
L 4263 4147 
z
M 138 -3 
L 2944 -3 
L 2944 1066 
L 550 1066 
L 550 1516 
L 2944 1516 
L 2944 2366 
L 3469 2366 
L 3469 1516 
L 5825 1516 
L 5825 1066 
L 3469 1066 
L 3469 -3 
L 6256 -3 
L 6256 -453 
L 138 -453 
L 138 -3 
z
" transform="scale(0.015625)"/>
     <path id="MicrosoftYaHei-3002" d="M 1219 863 
Q 1525 863 1750 625 
Q 1975 388 1975 72 
Q 1975 -284 1747 -507 
Q 1519 -731 1197 -731 
Q 875 -731 642 -503 
Q 409 -275 409 66 
Q 409 413 656 638 
Q 903 863 1219 863 
z
M 1209 -275 
Q 1328 -275 1431 -184 
Q 1534 -94 1534 50 
Q 1534 209 1434 304 
Q 1334 400 1191 400 
Q 1056 400 959 304 
Q 863 209 863 53 
Q 863 -100 977 -187 
Q 1091 -275 1209 -275 
z
" transform="scale(0.015625)"/>
     <path id="MicrosoftYaHei-7248" d="M 2875 4822 
Q 4700 4853 6013 5084 
L 6181 4622 
Q 4413 4422 3313 4403 
L 3313 3372 
L 5950 3372 
L 5950 2997 
Q 5700 1497 4994 591 
Q 5450 113 6325 -284 
Q 6100 -541 5944 -747 
Q 5134 -253 4691 234 
Q 4175 -300 3269 -822 
Q 3138 -603 2963 -378 
Q 3903 78 4413 594 
Q 3791 1466 3609 2959 
L 3313 2959 
L 3313 2003 
Q 3313 266 2506 -828 
Q 2356 -609 2194 -428 
Q 2594 203 2738 791 
Q 2875 1359 2875 2334 
L 2875 4822 
z
M 2100 -741 
L 1663 -741 
L 1663 1628 
L 972 1628 
Q 941 131 450 -828 
Q 313 -653 88 -466 
Q 538 316 538 1909 
L 538 5103 
L 975 5103 
L 975 3397 
L 1625 3397 
L 1625 5266 
L 2063 5266 
L 2063 3397 
L 2588 3397 
L 2588 3009 
L 975 3009 
L 975 2016 
L 2100 2016 
L 2100 -741 
z
M 5475 2959 
L 4047 2959 
Q 4203 1734 4716 950 
Q 5259 1694 5475 2959 
z
" transform="scale(0.015625)"/>
     <path id="MicrosoftYaHei-672c" d="M 6281 803 
Q 6119 641 5856 366 
Q 4344 1531 3444 3353 
L 3444 878 
L 4875 878 
L 4875 441 
L 3444 441 
L 3444 -841 
L 2956 -841 
L 2956 441 
L 1475 441 
L 1475 878 
L 2956 878 
L 2956 3353 
Q 2159 1766 513 291 
Q 269 522 100 666 
Q 1878 2125 2759 3753 
L 238 3753 
L 238 4216 
L 2956 4216 
L 2956 5341 
L 3444 5341 
L 3444 4216 
L 6163 4216 
L 6163 3753 
L 3622 3753 
Q 4616 1884 6281 803 
z
" transform="scale(0.015625)"/>
     <path id="MicrosoftYaHei-8868" d="M 5519 1891 
L 5863 1459 
L 4466 759 
Q 5200 159 6306 -34 
Q 6094 -309 5956 -534 
Q 3941 -53 3066 1944 
Q 2747 1538 2338 1172 
L 2338 -166 
Q 3163 103 3869 397 
Q 3863 122 3875 -147 
Q 3125 -403 2325 -709 
Q 2156 -778 1994 -872 
L 1700 -416 
Q 1875 -291 1875 -66 
L 1875 794 
Q 1228 309 406 -84 
Q 269 134 88 347 
Q 1703 1009 2625 2122 
L 156 2122 
L 156 2553 
L 2956 2553 
L 2956 3191 
L 600 3191 
L 600 3622 
L 2956 3622 
L 2956 4234 
L 350 4234 
L 350 4666 
L 2956 4666 
L 2956 5366 
L 3450 5366 
L 3450 4666 
L 6069 4666 
L 6069 4234 
L 3450 4234 
L 3450 3622 
L 5800 3622 
L 5800 3191 
L 3450 3191 
L 3450 2553 
L 6244 2553 
L 6244 2122 
L 3466 2122 
Q 3728 1513 4141 1066 
Q 4769 1378 5519 1891 
z
" transform="scale(0.015625)"/>
     <path id="MicrosoftYaHei-73b0" d="M 3900 4141 
L 4388 4141 
L 4388 3091 
Q 4388 2288 4250 1678 
L 4663 1678 
L 4663 103 
Q 4663 -228 5025 -228 
L 5325 -228 
Q 5700 -228 5738 109 
Q 5775 397 5800 928 
Q 6013 841 6313 734 
Q 6263 184 6213 -91 
Q 6119 -666 5394 -666 
L 4931 -666 
Q 4188 -666 4188 41 
L 4188 1425 
Q 4059 981 3850 653 
Q 3319 -203 2094 -834 
Q 1931 -603 1756 -422 
Q 2975 166 3450 941 
Q 3900 1641 3900 3053 
L 3900 4141 
z
M 2588 5034 
L 5781 5034 
L 5781 1284 
L 5294 1284 
L 5294 4572 
L 3075 4572 
L 3075 1197 
L 2588 1197 
L 2588 5034 
z
M 81 384 
Q 531 506 1025 647 
L 1025 2466 
L 200 2466 
L 200 2916 
L 1025 2916 
L 1025 4366 
L 150 4366 
L 150 4816 
L 2400 4816 
L 2400 4366 
L 1513 4366 
L 1513 2916 
L 2313 2916 
L 2313 2466 
L 1513 2466 
L 1513 791 
Q 1956 925 2431 1072 
Q 2444 834 2475 603 
Q 1400 272 256 -97 
L 81 384 
z
" transform="scale(0.015625)"/>
     <path id="MicrosoftYaHei-8f83" d="M 694 2234 
L 1438 2234 
L 1438 3603 
L 1875 3603 
L 1875 2234 
L 2513 2234 
L 2513 1828 
L 1875 1828 
L 1875 981 
Q 2288 1031 2688 1084 
Q 2656 847 2644 653 
Q 2294 613 1875 559 
L 1875 -841 
L 1438 -841 
L 1438 506 
Q 844 428 131 334 
L 81 791 
Q 778 856 1438 928 
L 1438 1828 
L 238 1828 
L 238 2222 
Q 575 3156 816 3928 
L 156 3928 
L 156 4347 
L 941 4347 
Q 1103 4891 1206 5347 
L 1688 5247 
Q 1559 4831 1403 4347 
L 2494 4347 
L 2494 3928 
L 1269 3928 
Q 1016 3156 694 2234 
z
M 5525 2341 
Q 5200 1303 4694 644 
Q 5306 69 6331 -247 
Q 6094 -522 5944 -728 
Q 4972 -334 4353 256 
Q 3641 -450 2563 -828 
Q 2481 -666 2263 -384 
Q 3341 -22 4025 619 
Q 3531 1247 3219 2203 
L 3644 2397 
Q 3909 1572 4363 1003 
Q 4813 1622 5063 2497 
L 5525 2341 
z
M 2719 4366 
L 4316 4366 
Q 4109 4728 3806 5116 
L 4188 5359 
Q 4538 4966 4788 4578 
L 4459 4366 
L 6225 4366 
L 6225 3928 
L 2719 3928 
L 2719 4366 
z
M 4663 3422 
L 5006 3722 
Q 5669 3103 6256 2434 
L 5881 2097 
Q 5344 2747 4663 3422 
z
M 3600 3741 
L 4013 3484 
Q 3456 2628 2925 1997 
Q 2706 2191 2544 2297 
Q 3106 2922 3600 3741 
z
" transform="scale(0.015625)"/>
     <path id="MicrosoftYaHei-5f31" d="M 3963 3353 
L 3813 2559 
L 6044 2559 
Q 5994 1072 5938 241 
Q 5894 -753 4938 -753 
Q 4456 -753 4075 -734 
Q 4044 -497 3981 -216 
Q 4481 -278 4894 -278 
Q 5431 -278 5463 259 
Q 5519 1034 5550 2128 
L 3281 2128 
L 3594 3784 
L 5388 3784 
L 5388 4559 
L 3400 4559 
L 3400 4991 
L 5856 4991 
L 5856 3147 
L 5388 3147 
L 5388 3353 
L 3963 3353 
z
M 1025 3353 
L 881 2559 
L 2881 2559 
Q 2831 1059 2781 216 
Q 2738 -759 1763 -759 
Q 1381 -759 913 -741 
Q 881 -453 819 -222 
Q 1344 -284 1725 -284 
Q 2281 -284 2306 284 
Q 2369 1066 2394 2128 
L 356 2128 
L 656 3784 
L 2388 3784 
L 2388 4559 
L 375 4559 
L 375 4991 
L 2856 4991 
L 2856 3147 
L 2388 3147 
L 2388 3353 
L 1025 3353 
z
M 3206 528 
Q 4269 778 5231 1066 
Q 5219 747 5213 566 
Q 4419 359 3281 22 
L 3206 528 
z
M 156 503 
Q 1006 659 2144 947 
Q 2125 641 2113 466 
Q 1194 259 213 3 
L 156 503 
z
M 3563 1984 
Q 4094 1784 4756 1491 
Q 4625 1272 4519 1072 
Q 3994 1334 3344 1616 
L 3563 1984 
z
M 731 1984 
Q 1250 1772 1863 1472 
Q 1713 1228 1606 1047 
Q 1038 1372 494 1616 
L 731 1984 
z
" transform="scale(0.015625)"/>
     <path id="MicrosoftYaHei-ff1b" d="M 1606 3531 
Q 1772 3531 1890 3415 
Q 2009 3300 2009 3138 
Q 2009 2975 1893 2858 
Q 1778 2741 1606 2741 
Q 1434 2741 1318 2858 
Q 1203 2975 1203 3138 
Q 1203 3300 1322 3415 
Q 1441 3531 1606 3531 
z
M 1931 775 
L 1403 -891 
L 966 -891 
L 1350 775 
L 1931 775 
z
" transform="scale(0.015625)"/>
     <path id="MicrosoftYaHei-52a0" d="M 3663 4484 
L 6038 4484 
L 6038 -666 
L 5544 -666 
L 5544 -34 
L 4156 -34 
L 4156 -666 
L 3663 -666 
L 3663 4484 
z
M 231 4178 
L 1103 4178 
Q 1109 4681 1106 5297 
L 1600 5297 
Q 1600 4675 1594 4178 
L 3050 4178 
Q 3019 1778 2969 409 
Q 2944 -716 2119 -672 
Q 1875 -672 1400 -653 
Q 1356 -391 1300 -109 
Q 1738 -166 2013 -166 
Q 2431 -178 2469 428 
Q 2538 1909 2550 3703 
L 1588 3703 
Q 1581 3225 1569 2891 
Q 1544 447 394 -872 
Q 238 -678 25 -453 
Q 1063 684 1081 2941 
Q 1094 3269 1100 3703 
L 231 3703 
L 231 4178 
z
M 5544 4022 
L 4156 4022 
L 4156 416 
L 5544 416 
L 5544 4022 
z
" transform="scale(0.015625)"/>
     <path id="MicrosoftYaHei-5165" d="M 1831 4947 
L 2244 5241 
Q 2944 4809 3781 3028 
Q 4950 472 6319 -91 
L 5881 -641 
Q 4513 172 3350 2784 
Q 3256 2994 3166 3184 
Q 2441 700 469 -678 
Q 300 -428 88 -209 
Q 2116 1069 2819 3834 
Q 2328 4653 1831 4947 
z
" transform="scale(0.015625)"/>
     <path id="MicrosoftYaHei-540e" d="M 1888 1984 
L 5688 1984 
L 5688 -828 
L 5188 -828 
L 5188 -403 
L 2388 -403 
L 2388 -828 
L 1888 -828 
L 1888 1984 
z
M 1313 2991 
Q 1313 1272 1138 672 
Q 963 -16 394 -847 
Q 250 -634 50 -409 
Q 494 222 650 859 
Q 806 1472 806 2659 
L 806 4766 
Q 3544 4853 5631 5141 
L 5931 4622 
Q 3344 4359 1313 4284 
L 1313 3459 
L 6263 3459 
L 6263 2991 
L 1313 2991 
z
M 5188 1528 
L 2388 1528 
L 2388 41 
L 5188 41 
L 5188 1528 
z
" transform="scale(0.015625)"/>
     <path id="MicrosoftYaHei-ff0c" d="M 1931 775 
L 1403 -891 
L 966 -891 
L 1350 775 
L 1931 775 
z
" transform="scale(0.015625)"/>
     <path id="MicrosoftYaHei-98ce" d="M 1206 4466 
L 1206 2709 
Q 1206 1297 1056 572 
Q 900 -178 450 -853 
Q 200 -559 75 -422 
Q 425 141 569 816 
Q 700 1447 700 2684 
L 700 4928 
L 5325 4928 
L 5325 1516 
Q 5325 391 5469 -53 
Q 5531 -197 5625 -197 
Q 5725 -197 5756 22 
Q 5806 353 5844 1078 
Q 6131 966 6319 909 
Q 6256 253 6188 -147 
Q 6075 -766 5606 -766 
Q 5256 -766 5025 -297 
Q 4819 134 4819 1503 
L 4819 4466 
L 1206 4466 
z
M 1594 3734 
L 1981 4022 
Q 2497 3313 3038 2534 
Q 3513 3309 3938 4147 
L 4363 3941 
Q 3897 2991 3344 2097 
Q 3956 1206 4600 234 
L 4163 -66 
Q 3584 834 3050 1634 
Q 2438 703 1731 -166 
Q 1575 -28 1325 141 
Q 2084 1053 2750 2078 
Q 2141 2975 1594 3734 
z
" transform="scale(0.015625)"/>
     <path id="MicrosoftYaHei-9669" d="M 2094 1572 
Q 2288 372 1544 228 
Q 1338 184 969 222 
Q 919 447 850 672 
L 850 -822 
L 400 -822 
L 400 4972 
L 2156 4972 
L 2156 4534 
Q 1806 3403 1600 2797 
Q 2000 2216 2094 1572 
z
M 2013 -128 
L 4556 -128 
Q 5069 1228 5369 2216 
L 5888 2034 
Q 5656 1372 5088 -128 
L 6144 -128 
L 6144 -591 
L 2013 -591 
L 2013 -128 
z
M 4463 5278 
L 4381 5091 
Q 5113 3859 6319 3203 
Q 6113 2953 5975 2766 
Q 4831 3547 4138 4647 
Q 3438 3572 2250 2709 
Q 2131 2872 1925 3103 
Q 3288 4009 3956 5278 
L 4463 5278 
z
M 1363 678 
Q 1794 722 1638 1591 
Q 1550 2078 1113 2728 
Q 1388 3566 1663 4541 
L 850 4541 
L 850 722 
Q 1125 653 1363 678 
z
M 2663 3003 
L 5538 3003 
L 5538 2553 
L 2663 2553 
L 2663 3003 
z
M 2381 1934 
L 2806 2097 
Q 3131 1253 3400 347 
L 2913 191 
Q 2681 1122 2381 1934 
z
M 3619 2166 
L 4063 2303 
Q 4356 1409 4531 666 
L 4031 534 
Q 3875 1391 3619 2166 
z
" transform="scale(0.015625)"/>
     <path id="MicrosoftYaHei-6536" d="M 2244 2659 
Q 3044 4047 3400 5341 
L 3906 5197 
Q 3706 4619 3488 4091 
L 6213 4091 
L 6213 3628 
L 5478 3628 
Q 5384 1819 4550 681 
Q 5184 119 6350 -297 
Q 6156 -541 5994 -797 
Q 4881 -322 4219 300 
Q 3616 -294 2550 -853 
Q 2419 -647 2231 -434 
Q 3297 100 3878 672 
Q 3156 1575 2944 2916 
Q 2769 2575 2581 2259 
Q 2463 2441 2244 2659 
z
M 1681 5291 
L 2156 5291 
L 2156 -816 
L 1681 -816 
L 1681 1113 
Q 1300 900 906 641 
Q 744 522 588 359 
L 231 778 
Q 425 984 425 1316 
L 425 4416 
L 900 4416 
L 900 1216 
Q 1272 1413 1681 1634 
L 1681 5291 
z
M 4984 3628 
L 3322 3628 
Q 3413 2103 4203 1059 
Q 4916 2063 4984 3628 
z
" transform="scale(0.015625)"/>
     <path id="MicrosoftYaHei-76ca" d="M 113 -103 
L 1019 -103 
L 1019 1997 
L 5406 1997 
L 5406 -103 
L 6269 -103 
L 6269 -541 
L 113 -541 
L 113 -103 
z
M 263 4116 
L 3672 4116 
Q 4225 4650 4744 5334 
L 5200 5047 
Q 4775 4553 4331 4116 
L 6175 4116 
L 6175 3678 
L 263 3678 
L 263 4116 
z
M 4956 1572 
L 4081 1572 
L 4081 -103 
L 4956 -103 
L 4956 1572 
z
M 1469 -103 
L 2338 -103 
L 2338 1572 
L 1469 1572 
L 1469 -103 
z
M 2775 -103 
L 3644 -103 
L 3644 1572 
L 2775 1572 
L 2775 -103 
z
M 2338 3484 
L 2644 3078 
Q 1669 2484 456 1872 
Q 331 2116 200 2309 
Q 1369 2872 2338 3484 
z
M 3794 3091 
L 4050 3472 
Q 5300 2884 6213 2384 
L 5938 1922 
Q 4706 2634 3794 3091 
z
M 1238 5016 
L 1563 5341 
Q 2100 4953 2531 4584 
L 2175 4209 
Q 1769 4597 1238 5016 
z
" transform="scale(0.015625)"/>
     <path id="MicrosoftYaHei-548c" d="M 3263 4553 
L 6025 4553 
L 6025 -666 
L 5525 -666 
L 5525 -59 
L 3763 -59 
L 3763 -666 
L 3263 -666 
L 3263 4553 
z
M 5525 4091 
L 3763 4091 
L 3763 391 
L 5525 391 
L 5525 4091 
z
M 75 897 
Q 788 1841 1206 2997 
L 113 2997 
L 113 3422 
L 1306 3422 
L 1306 4409 
Q 819 4334 319 4272 
Q 263 4478 181 4703 
Q 1481 4847 2700 5128 
L 2844 4691 
Q 2325 4584 1781 4491 
L 1781 3422 
L 2950 3422 
L 2950 2997 
L 1781 2997 
L 1781 2191 
L 2006 2416 
Q 2500 1991 2975 1516 
L 2619 1153 
Q 2244 1584 1781 2034 
L 1781 -872 
L 1306 -872 
L 1306 2128 
Q 938 1203 313 359 
Q 213 603 75 897 
z
" transform="scale(0.015625)"/>
     <path id="MicrosoftYaHei-5747" d="M 2244 2803 
Q 2931 3953 3338 5322 
L 3838 5172 
Q 3691 4744 3531 4347 
L 6013 4347 
Q 5925 1053 5875 297 
Q 5831 -697 4806 -697 
Q 4188 -697 3706 -672 
Q 3669 -422 3606 -141 
L 3625 -141 
Q 4250 -209 4775 -209 
Q 5350 -209 5394 378 
Q 5456 1447 5513 3891 
L 3341 3891 
Q 3028 3172 2675 2572 
Q 2481 2691 2244 2803 
z
M 81 428 
Q 559 600 1006 769 
L 1006 3253 
L 169 3253 
L 169 3697 
L 1006 3697 
L 1006 5259 
L 1469 5259 
L 1469 3697 
L 2281 3697 
L 2281 3253 
L 1469 3253 
L 1469 947 
Q 1922 1125 2338 1303 
Q 2350 991 2369 784 
Q 1363 403 250 -53 
L 81 428 
z
M 2513 853 
Q 3769 1353 5119 1934 
Q 5150 1641 5188 1434 
Q 4031 947 2706 359 
L 2513 853 
z
M 3138 2909 
L 3481 3216 
Q 4025 2716 4531 2216 
L 4125 1859 
Q 3644 2409 3138 2909 
z
" transform="scale(0.015625)"/>
     <path id="MicrosoftYaHei-660e" d="M 2350 -872 
Q 2188 -691 1944 -491 
Q 2706 197 2950 853 
Q 3188 1472 3188 2816 
L 3188 5016 
L 5931 5016 
L 5931 -47 
Q 5931 -791 5213 -791 
Q 4769 -791 4150 -772 
Q 4113 -522 4056 -259 
Q 4675 -297 5056 -297 
Q 5438 -297 5438 72 
L 5438 1284 
L 3575 1284 
Q 3400 116 2350 -872 
z
M 475 4816 
L 2431 4816 
L 2431 566 
L 944 566 
L 944 109 
L 475 109 
L 475 4816 
z
M 3634 1734 
L 5438 1734 
L 5438 2922 
L 3681 2922 
Q 3688 2278 3634 1734 
z
M 5438 4547 
L 3681 4547 
L 3681 3372 
L 5438 3372 
L 5438 4547 
z
M 1963 1022 
L 1963 2491 
L 944 2491 
L 944 1022 
L 1963 1022 
z
M 1963 4359 
L 944 4359 
L 944 2934 
L 1963 2934 
L 1963 4359 
z
" transform="scale(0.015625)"/>
     <path id="MicrosoftYaHei-663e" d="M 875 5041 
L 5525 5041 
L 5525 2209 
L 5044 2209 
L 5044 2434 
L 1356 2434 
L 1356 2209 
L 875 2209 
L 875 5041 
z
M 156 -147 
L 2238 -147 
L 2238 2259 
L 2713 2259 
L 2713 -147 
L 3656 -147 
L 3656 2259 
L 4131 2259 
L 4131 -147 
L 6244 -147 
L 6244 -597 
L 156 -597 
L 156 -147 
z
M 5044 4591 
L 1356 4591 
L 1356 3947 
L 5044 3947 
L 5044 4591 
z
M 1356 2884 
L 5044 2884 
L 5044 3528 
L 1356 3528 
L 1356 2884 
z
M 506 1734 
L 875 2009 
Q 1519 1178 1888 597 
L 1456 284 
Q 1038 984 506 1734 
z
M 5925 1753 
Q 5413 941 4938 309 
L 4531 591 
Q 5006 1216 5481 2009 
L 5925 1753 
z
" transform="scale(0.015625)"/>
     <path id="MicrosoftYaHei-6539" d="M 2513 2709 
Q 3106 3791 3575 5341 
L 4069 5197 
Q 3894 4694 3709 4234 
L 6238 4234 
L 6238 3772 
L 5506 3772 
Q 5338 1747 4597 772 
Q 5203 125 6331 -259 
Q 6150 -434 5938 -747 
Q 4863 -234 4272 391 
Q 3634 -259 2363 -847 
Q 2213 -628 1994 -403 
Q 3303 144 3941 791 
Q 3363 1594 3147 2944 
Q 2988 2616 2825 2316 
Q 2669 2541 2513 2709 
z
M 450 2809 
L 2013 2809 
L 2013 4372 
L 331 4372 
L 331 4809 
L 2500 4809 
L 2500 2034 
L 2013 2034 
L 2013 2372 
L 938 2372 
L 938 303 
Q 1700 666 2500 1116 
Q 2544 816 2600 609 
Q 1788 203 931 -278 
Q 700 -441 569 -572 
L 231 -141 
Q 450 59 450 422 
L 450 2809 
z
M 3463 3634 
Q 3681 2050 4269 1184 
Q 4853 2038 5016 3772 
L 3522 3772 
L 3463 3634 
z
" transform="scale(0.015625)"/>
     <path id="MicrosoftYaHei-5584" d="M 138 1859 
L 1584 1859 
Q 1422 2106 1238 2359 
L 1544 2547 
L 238 2547 
L 238 2934 
L 2969 2934 
L 2969 3366 
L 700 3366 
L 700 3741 
L 2969 3741 
L 2969 4172 
L 438 4172 
L 438 4559 
L 2038 4559 
Q 1834 4841 1613 5103 
L 1981 5359 
Q 2256 5078 2538 4741 
L 2269 4559 
L 3797 4559 
Q 4047 4913 4313 5353 
L 4794 5097 
Q 4603 4863 4347 4559 
L 5988 4559 
L 5988 4172 
L 3431 4172 
L 3431 3741 
L 5700 3741 
L 5700 3366 
L 3431 3366 
L 3431 2934 
L 6156 2934 
L 6156 2547 
L 4869 2547 
L 5194 2359 
Q 5016 2131 4791 1859 
L 6269 1859 
L 6269 1472 
L 138 1472 
L 138 1859 
z
M 925 1003 
L 5475 1003 
L 5475 -822 
L 5013 -822 
L 5013 -522 
L 1388 -522 
L 1388 -834 
L 925 -834 
L 925 1003 
z
M 5013 628 
L 1388 628 
L 1388 -147 
L 5013 -147 
L 5013 628 
z
M 2075 1991 
L 1856 1859 
L 2969 1859 
L 2969 2547 
L 1663 2547 
Q 1897 2250 2075 1991 
z
M 4684 2547 
L 3431 2547 
L 3431 1859 
L 4250 1859 
Q 4494 2213 4684 2547 
z
" transform="scale(0.015625)"/>
    </defs>
    <use xlink:href="#MicrosoftYaHei-32"/>
    <use xlink:href="#MicrosoftYaHei-30" transform="translate(58.642578 0)"/>
    <use xlink:href="#MicrosoftYaHei-32" transform="translate(117.285156 0)"/>
    <use xlink:href="#MicrosoftYaHei-30" transform="translate(175.927734 0)"/>
    <use xlink:href="#MicrosoftYaHei-2d" transform="translate(234.570312 0)"/>
    <use xlink:href="#MicrosoftYaHei-31" transform="translate(277.832031 0)"/>
    <use xlink:href="#MicrosoftYaHei-30" transform="translate(336.474609 0)"/>
    <use xlink:href="#MicrosoftYaHei-2d" transform="translate(395.117188 0)"/>
    <use xlink:href="#MicrosoftYaHei-31" transform="translate(438.378906 0)"/>
    <use xlink:href="#MicrosoftYaHei-32" transform="translate(497.021484 0)"/>
    <use xlink:href="#MicrosoftYaHei-20" transform="translate(555.664062 0)"/>
    <use xlink:href="#MicrosoftYaHei-81f3" transform="translate(585.253906 0)"/>
    <use xlink:href="#MicrosoftYaHei-20" transform="translate(685.253906 0)"/>
    <use xlink:href="#MicrosoftYaHei-32" transform="translate(714.84375 0)"/>
    <use xlink:href="#MicrosoftYaHei-30" transform="translate(773.486328 0)"/>
    <use xlink:href="#MicrosoftYaHei-32" transform="translate(832.128906 0)"/>
    <use xlink:href="#MicrosoftYaHei-36" transform="translate(890.771484 0)"/>
    <use xlink:href="#MicrosoftYaHei-2d" transform="translate(949.414062 0)"/>
    <use xlink:href="#MicrosoftYaHei-30" transform="translate(992.675781 0)"/>
    <use xlink:href="#MicrosoftYaHei-36" transform="translate(1051.318359 0)"/>
    <use xlink:href="#MicrosoftYaHei-2d" transform="translate(1109.960938 0)"/>
    <use xlink:href="#MicrosoftYaHei-31" transform="translate(1153.222656 0)"/>
    <use xlink:href="#MicrosoftYaHei-38" transform="translate(1211.865234 0)"/>
    <use xlink:href="#MicrosoftYaHei-3002" transform="translate(1270.507812 0)"/>
    <use xlink:href="#MicrosoftYaHei-4ec5" transform="translate(1370.507812 0)"/>
    <use xlink:href="#MicrosoftYaHei-6392" transform="translate(1470.507812 0)"/>
    <use xlink:href="#MicrosoftYaHei-5e8f" transform="translate(1570.507812 0)"/>
    <use xlink:href="#MicrosoftYaHei-7248" transform="translate(1670.507812 0)"/>
    <use xlink:href="#MicrosoftYaHei-672c" transform="translate(1770.507812 0)"/>
    <use xlink:href="#MicrosoftYaHei-8868" transform="translate(1870.507812 0)"/>
    <use xlink:href="#MicrosoftYaHei-73b0" transform="translate(1970.507812 0)"/>
    <use xlink:href="#MicrosoftYaHei-8f83" transform="translate(2070.507812 0)"/>
    <use xlink:href="#MicrosoftYaHei-5f31" transform="translate(2170.507812 0)"/>
    <use xlink:href="#MicrosoftYaHei-ff1b" transform="translate(2270.507812 0)"/>
    <use xlink:href="#MicrosoftYaHei-52a0" transform="translate(2370.507812 0)"/>
    <use xlink:href="#MicrosoftYaHei-5165" transform="translate(2470.507812 0)"/>
    <use xlink:href="#MicrosoftYaHei-8d8b" transform="translate(2570.507812 0)"/>
    <use xlink:href="#MicrosoftYaHei-52bf" transform="translate(2670.507812 0)"/>
    <use xlink:href="#MicrosoftYaHei-8fc7" transform="translate(2770.507812 0)"/>
    <use xlink:href="#MicrosoftYaHei-6ee4" transform="translate(2870.507812 0)"/>
    <use xlink:href="#MicrosoftYaHei-540e" transform="translate(2970.507812 0)"/>
    <use xlink:href="#MicrosoftYaHei-ff0c" transform="translate(3070.507812 0)"/>
    <use xlink:href="#MicrosoftYaHei-98ce" transform="translate(3170.507812 0)"/>
    <use xlink:href="#MicrosoftYaHei-9669" transform="translate(3270.507812 0)"/>
    <use xlink:href="#MicrosoftYaHei-6536" transform="translate(3370.507812 0)"/>
    <use xlink:href="#MicrosoftYaHei-76ca" transform="translate(3470.507812 0)"/>
    <use xlink:href="#MicrosoftYaHei-548c" transform="translate(3570.507812 0)"/>
    <use xlink:href="#MicrosoftYaHei-56de" transform="translate(3670.507812 0)"/>
    <use xlink:href="#MicrosoftYaHei-64a4" transform="translate(3770.507812 0)"/>
    <use xlink:href="#MicrosoftYaHei-5747" transform="translate(3870.507812 0)"/>
    <use xlink:href="#MicrosoftYaHei-660e" transform="translate(3970.507812 0)"/>
    <use xlink:href="#MicrosoftYaHei-663e" transform="translate(4070.507812 0)"/>
    <use xlink:href="#MicrosoftYaHei-6539" transform="translate(4170.507812 0)"/>
    <use xlink:href="#MicrosoftYaHei-5584" transform="translate(4270.507812 0)"/>
    <use xlink:href="#MicrosoftYaHei-3002" transform="translate(4370.507812 0)"/>
   </g>
  </g>
 </g>
 <defs>
  <clipPath id="p9d40ff0fcb">
   <rect x="130.369531" y="86.544" width="328.821429" height="279.792"/>
  </clipPath>
  <clipPath id="p4c4d49a61f">
   <rect x="538.108103" y="86.544" width="328.821429" height="279.792"/>
  </clipPath>
 </defs>
</svg>
