<?xml version="1.0" encoding="utf-8" standalone="no"?>
<!DOCTYPE svg PUBLIC "-//W3C//DTD SVG 1.1//EN"
  "http://www.w3.org/Graphics/SVG/1.1/DTD/svg11.dtd">
<svg xmlns:xlink="http://www.w3.org/1999/xlink" width="750.96pt" height="341.496pt" viewBox="0 0 750.96 341.496" xmlns="http://www.w3.org/2000/svg" version="1.1">
 <metadata>
  <rdf:RDF xmlns:dc="http://purl.org/dc/elements/1.1/" xmlns:cc="http://creativecommons.org/ns#" xmlns:rdf="http://www.w3.org/1999/02/22-rdf-syntax-ns#">
   <cc:Work>
    <dc:type rdf:resource="http://purl.org/dc/dcmitype/StillImage"/>
    <dc:date>2026-06-24T17:27:00.524793</dc:date>
    <dc:format>image/svg+xml</dc:format>
    <dc:creator>
     <cc:Agent>
      <dc:title>Matplotlib v3.10.8, https://matplotlib.org/</dc:title>
     </cc:Agent>
    </dc:creator>
   </cc:Work>
  </rdf:RDF>
 </metadata>
 <defs>
  <style type="text/css">*{stroke-linejoin: round; stroke-linecap: butt}</style>
 </defs>
 <g id="figure_1">
  <g id="patch_1">
   <path d="M 0 341.496 
L 750.96 341.496 
L 750.96 -0 
L 0 -0 
z
" style="fill: #fcfcfd"/>
  </g>
  <g id="axes_1">
   <g id="patch_2">
    <path d="M 24.14088 198.224064 
L 97.06032 198.224064 
Q 105.89904 198.224064 105.89904 194.298912 
L 105.89904 114.487488 
Q 105.89904 110.562336 97.06032 110.562336 
L 24.14088 110.562336 
Q 15.30216 110.562336 15.30216 114.487488 
L 15.30216 194.298912 
Q 15.30216 198.224064 24.14088 198.224064 
z
" clip-path="url(#pfbc74ddfed)" style="fill: #f4f5f7; stroke: #464c55; stroke-linejoin: miter"/>
   </g>
   <g id="patch_3">
    <path d="M 99.800122 154.3932 
Q 105.165068 154.3932 109.41198 154.3932 
" clip-path="url(#pfbc74ddfed)" style="fill: none; stroke: #464c55; stroke-linecap: round"/>
    <path d="M 104.61198 151.9932 
L 109.41198 154.3932 
L 104.61198 156.7932 
z
" clip-path="url(#pfbc74ddfed)" style="fill: #464c55; stroke: #464c55; stroke-linecap: round"/>
   </g>
   <g id="patch_4">
    <path d="M 112.52808 198.224064 
L 185.44752 198.224064 
Q 194.28624 198.224064 194.28624 194.298912 
L 194.28624 114.487488 
Q 194.28624 110.562336 185.44752 110.562336 
L 112.52808 110.562336 
Q 103.68936 110.562336 103.68936 114.487488 
L 103.68936 194.298912 
Q 103.68936 198.224064 112.52808 198.224064 
z
" clip-path="url(#pfbc74ddfed)" style="fill: #fff4c2; stroke: #736422; stroke-linejoin: miter"/>
   </g>
   <g id="patch_5">
    <path d="M 188.187322 154.3932 
Q 193.552268 154.3932 197.79918 154.3932 
" clip-path="url(#pfbc74ddfed)" style="fill: none; stroke: #464c55; stroke-linecap: round"/>
    <path d="M 192.99918 151.9932 
L 197.79918 154.3932 
L 192.99918 156.7932 
z
" clip-path="url(#pfbc74ddfed)" style="fill: #464c55; stroke: #464c55; stroke-linecap: round"/>
   </g>
   <g id="patch_6">
    <path d="M 200.91528 198.224064 
L 273.83472 198.224064 
Q 282.67344 198.224064 282.67344 194.298912 
L 282.67344 114.487488 
Q 282.67344 110.562336 273.83472 110.562336 
L 200.91528 110.562336 
Q 192.07656 110.562336 192.07656 114.487488 
L 192.07656 194.298912 
Q 192.07656 198.224064 200.91528 198.224064 
z
" clip-path="url(#pfbc74ddfed)" style="fill: #fff4c2; stroke: #736422; stroke-linejoin: miter"/>
   </g>
   <g id="patch_7">
    <path d="M 276.574522 154.3932 
Q 281.939468 154.3932 286.18638 154.3932 
" clip-path="url(#pfbc74ddfed)" style="fill: none; stroke: #464c55; stroke-linecap: round"/>
    <path d="M 281.38638 151.9932 
L 286.18638 154.3932 
L 281.38638 156.7932 
z
" clip-path="url(#pfbc74ddfed)" style="fill: #464c55; stroke: #464c55; stroke-linecap: round"/>
   </g>
   <g id="patch_8">
    <path d="M 289.30248 198.224064 
L 362.22192 198.224064 
Q 371.06064 198.224064 371.06064 194.298912 
L 371.06064 114.487488 
Q 371.06064 110.562336 362.22192 110.562336 
L 289.30248 110.562336 
Q 280.46376 110.562336 280.46376 114.487488 
L 280.46376 194.298912 
Q 280.46376 198.224064 289.30248 198.224064 
z
" clip-path="url(#pfbc74ddfed)" style="fill: #eaf1fe; stroke: #2e4780; stroke-linejoin: miter"/>
   </g>
   <g id="patch_9">
    <path d="M 364.961722 154.3932 
Q 370.326668 154.3932 374.57358 154.3932 
" clip-path="url(#pfbc74ddfed)" style="fill: none; stroke: #464c55; stroke-linecap: round"/>
    <path d="M 369.77358 151.9932 
L 374.57358 154.3932 
L 369.77358 156.7932 
z
" clip-path="url(#pfbc74ddfed)" style="fill: #464c55; stroke: #464c55; stroke-linecap: round"/>
   </g>
   <g id="patch_10">
    <path d="M 377.68968 198.224064 
L 450.60912 198.224064 
Q 459.44784 198.224064 459.44784 194.298912 
L 459.44784 114.487488 
Q 459.44784 110.562336 450.60912 110.562336 
L 377.68968 110.562336 
Q 368.85096 110.562336 368.85096 114.487488 
L 368.85096 194.298912 
Q 368.85096 198.224064 377.68968 198.224064 
z
" clip-path="url(#pfbc74ddfed)" style="fill: #eaf1fe; stroke: #2e4780; stroke-linejoin: miter"/>
   </g>
   <g id="patch_11">
    <path d="M 453.348922 154.3932 
Q 458.713868 154.3932 462.96078 154.3932 
" clip-path="url(#pfbc74ddfed)" style="fill: none; stroke: #464c55; stroke-linecap: round"/>
    <path d="M 458.16078 151.9932 
L 462.96078 154.3932 
L 458.16078 156.7932 
z
" clip-path="url(#pfbc74ddfed)" style="fill: #464c55; stroke: #464c55; stroke-linecap: round"/>
   </g>
   <g id="patch_12">
    <path d="M 466.07688 198.224064 
L 538.99632 198.224064 
Q 547.83504 198.224064 547.83504 194.298912 
L 547.83504 114.487488 
Q 547.83504 110.562336 538.99632 110.562336 
L 466.07688 110.562336 
Q 457.23816 110.562336 457.23816 114.487488 
L 457.23816 194.298912 
Q 457.23816 198.224064 466.07688 198.224064 
z
" clip-path="url(#pfbc74ddfed)" style="fill: #eaf1fe; stroke: #2e4780; stroke-linejoin: miter"/>
   </g>
   <g id="patch_13">
    <path d="M 541.736122 154.3932 
Q 547.101068 154.3932 551.34798 154.3932 
" clip-path="url(#pfbc74ddfed)" style="fill: none; stroke: #464c55; stroke-linecap: round"/>
    <path d="M 546.54798 151.9932 
L 551.34798 154.3932 
L 546.54798 156.7932 
z
" clip-path="url(#pfbc74ddfed)" style="fill: #464c55; stroke: #464c55; stroke-linecap: round"/>
   </g>
   <g id="patch_14">
    <path d="M 554.46408 198.224064 
L 627.38352 198.224064 
Q 636.22224 198.224064 636.22224 194.298912 
L 636.22224 114.487488 
Q 636.22224 110.562336 627.38352 110.562336 
L 554.46408 110.562336 
Q 545.62536 110.562336 545.62536 114.487488 
L 545.62536 194.298912 
Q 545.62536 198.224064 554.46408 198.224064 
z
" clip-path="url(#pfbc74ddfed)" style="fill: #fff4c2; stroke: #736422; stroke-linejoin: miter"/>
   </g>
   <g id="patch_15">
    <path d="M 630.123322 154.3932 
Q 635.488268 154.3932 639.73518 154.3932 
" clip-path="url(#pfbc74ddfed)" style="fill: none; stroke: #464c55; stroke-linecap: round"/>
    <path d="M 634.93518 151.9932 
L 639.73518 154.3932 
L 634.93518 156.7932 
z
" clip-path="url(#pfbc74ddfed)" style="fill: #464c55; stroke: #464c55; stroke-linecap: round"/>
   </g>
   <g id="patch_16">
    <path d="M 642.85128 198.224064 
L 715.77072 198.224064 
Q 724.60944 198.224064 724.60944 194.298912 
L 724.60944 114.487488 
Q 724.60944 110.562336 715.77072 110.562336 
L 642.85128 110.562336 
Q 634.01256 110.562336 634.01256 114.487488 
L 634.01256 194.298912 
Q 634.01256 198.224064 642.85128 198.224064 
z
" clip-path="url(#pfbc74ddfed)" style="fill: #f4f5f7; stroke: #464c55; stroke-linejoin: miter"/>
   </g>
   <g id="text_1">
    <!-- ???? -->
    <g style="fill: #1f2430" transform="translate(49.697163 144.476352) scale(0.115 -0.115)">
     <defs>
      <path id="MicrosoftYaHei-Bold-3f" d="M 919 1394 
Q 844 1597 844 1813 
Q 844 2341 1344 2763 
Q 1653 3025 1762 3200 
Q 1872 3375 1872 3578 
Q 1872 3800 1715 3942 
Q 1559 4084 1313 4084 
Q 734 4084 238 3641 
L 238 4609 
Q 759 4922 1425 4922 
Q 2100 4922 2490 4609 
Q 2881 4297 2881 3719 
Q 2881 3372 2728 3090 
Q 2575 2809 2166 2475 
Q 1838 2200 1759 2047 
Q 1681 1894 1681 1722 
Q 1681 1553 1766 1394 
L 919 1394 
z
M 791 463 
Q 791 694 966 845 
Q 1141 997 1391 997 
Q 1631 997 1804 845 
Q 1978 694 1978 463 
Q 1978 234 1815 79 
Q 1653 -75 1425 -75 
Q 1134 -75 962 84 
Q 791 244 791 463 
z
" transform="scale(0.015625)"/>
     </defs>
     <use xlink:href="#MicrosoftYaHei-Bold-3f"/>
     <use xlink:href="#MicrosoftYaHei-Bold-3f" transform="translate(47.412109 0)"/>
     <use xlink:href="#MicrosoftYaHei-Bold-3f" transform="translate(94.824219 0)"/>
     <use xlink:href="#MicrosoftYaHei-Bold-3f" transform="translate(142.236328 0)"/>
    </g>
   </g>
   <g id="text_2">
    <!-- Yahoo???? -->
    <g style="fill: #6f768a" transform="translate(39.413381 167.715914) scale(0.087 -0.087)">
     <defs>
      <path id="MicrosoftYaHei-59" d="M 3828 4841 
L 2234 1781 
L 2234 0 
L 1606 0 
L 1606 1766 
L 53 4841 
L 769 4841 
L 1816 2697 
Q 1819 2694 1931 2388 
L 1941 2388 
Q 1978 2519 2069 2694 
L 3163 4841 
L 3828 4841 
z
" transform="scale(0.015625)"/>
      <path id="MicrosoftYaHei-61" d="M 628 3216 
Q 1144 3538 1819 3538 
Q 3069 3538 3069 2225 
L 3069 0 
L 2463 0 
L 2463 534 
L 2447 534 
Q 2088 -81 1388 -81 
Q 884 -81 587 191 
Q 291 463 291 925 
Q 291 1894 1438 2053 
L 2463 2197 
Q 2463 3044 1763 3044 
Q 1141 3044 628 2625 
L 628 3216 
z
M 1653 1625 
Q 1228 1569 1067 1412 
Q 906 1256 906 975 
Q 906 728 1081 572 
Q 1256 416 1544 416 
Q 1944 416 2203 697 
Q 2463 978 2463 1403 
L 2463 1734 
L 1653 1625 
z
" transform="scale(0.015625)"/>
      <path id="MicrosoftYaHei-68" d="M 3466 0 
L 2856 0 
L 2856 1988 
Q 2856 3031 2081 3031 
Q 1684 3031 1421 2726 
Q 1159 2422 1159 1959 
L 1159 0 
L 547 0 
L 547 5116 
L 1159 5116 
L 1159 2888 
L 1172 2888 
Q 1569 3538 2300 3538 
Q 3466 3538 3466 2128 
L 3466 0 
z
" transform="scale(0.015625)"/>
      <path id="MicrosoftYaHei-6f" d="M 316 1691 
Q 316 2547 794 3042 
Q 1272 3538 2091 3538 
Q 2869 3538 3311 3061 
Q 3753 2584 3753 1744 
Q 3753 925 3281 422 
Q 2809 -81 2016 -81 
Q 1241 -81 778 406 
Q 316 894 316 1691 
z
M 941 1709 
Q 941 1113 1242 769 
Q 1544 425 2053 425 
Q 2578 425 2853 761 
Q 3128 1097 3128 1725 
Q 3128 2356 2853 2693 
Q 2578 3031 2053 3031 
Q 1538 3031 1239 2678 
Q 941 2325 941 1709 
z
" transform="scale(0.015625)"/>
      <path id="MicrosoftYaHei-3f" d="M 1103 1350 
Q 1025 1581 1025 1844 
Q 1025 2050 1119 2261 
Q 1213 2472 1597 2844 
Q 1991 3216 2080 3403 
Q 2169 3591 2169 3759 
Q 2169 4059 1956 4232 
Q 1744 4406 1416 4406 
Q 844 4406 416 3956 
L 416 4597 
Q 938 4922 1500 4922 
Q 2075 4922 2423 4631 
Q 2772 4341 2772 3838 
Q 2772 3597 2669 3348 
Q 2566 3100 2131 2688 
Q 1803 2378 1690 2203 
Q 1578 2028 1578 1825 
Q 1578 1597 1688 1350 
L 1103 1350 
z
M 1025 328 
Q 1025 491 1144 608 
Q 1263 725 1428 725 
Q 1594 725 1712 608 
Q 1831 491 1831 328 
Q 1831 172 1714 54 
Q 1597 -63 1444 -63 
Q 1256 -63 1140 56 
Q 1025 175 1025 328 
z
" transform="scale(0.015625)"/>
     </defs>
     <use xlink:href="#MicrosoftYaHei-59"/>
     <use xlink:href="#MicrosoftYaHei-61" transform="translate(49.851562 0)"/>
     <use xlink:href="#MicrosoftYaHei-68" transform="translate(105.125 0)"/>
     <use xlink:href="#MicrosoftYaHei-6f" transform="translate(166.697266 0)"/>
     <use xlink:href="#MicrosoftYaHei-6f" transform="translate(230.271484 0)"/>
     <use xlink:href="#MicrosoftYaHei-3f" transform="translate(293.845703 0)"/>
     <use xlink:href="#MicrosoftYaHei-3f" transform="translate(342.136719 0)"/>
     <use xlink:href="#MicrosoftYaHei-3f" transform="translate(390.427734 0)"/>
     <use xlink:href="#MicrosoftYaHei-3f" transform="translate(438.71875 0)"/>
    </g>
    <!-- + ?????? -->
    <g style="fill: #6f768a" transform="translate(43.481311 178.571883) scale(0.087 -0.087)">
     <defs>
      <path id="MicrosoftYaHei-2b" d="M 3972 1772 
L 2613 1772 
L 2613 419 
L 2141 419 
L 2141 1772 
L 788 1772 
L 788 2250 
L 2141 2250 
L 2141 3603 
L 2613 3603 
L 2613 2250 
L 3972 2250 
L 3972 1772 
z
" transform="scale(0.015625)"/>
      <path id="MicrosoftYaHei-20" transform="scale(0.015625)"/>
     </defs>
     <use xlink:href="#MicrosoftYaHei-2b"/>
     <use xlink:href="#MicrosoftYaHei-20" transform="translate(74.169922 0)"/>
     <use xlink:href="#MicrosoftYaHei-3f" transform="translate(103.759766 0)"/>
     <use xlink:href="#MicrosoftYaHei-3f" transform="translate(152.050781 0)"/>
     <use xlink:href="#MicrosoftYaHei-3f" transform="translate(200.341797 0)"/>
     <use xlink:href="#MicrosoftYaHei-3f" transform="translate(248.632812 0)"/>
     <use xlink:href="#MicrosoftYaHei-3f" transform="translate(296.923828 0)"/>
     <use xlink:href="#MicrosoftYaHei-3f" transform="translate(345.214844 0)"/>
    </g>
   </g>
   <g id="text_3">
    <!-- ???? -->
    <g style="fill: #1f2430" transform="translate(138.084362 144.476352) scale(0.115 -0.115)">
     <use xlink:href="#MicrosoftYaHei-Bold-3f"/>
     <use xlink:href="#MicrosoftYaHei-Bold-3f" transform="translate(47.412109 0)"/>
     <use xlink:href="#MicrosoftYaHei-Bold-3f" transform="translate(94.824219 0)"/>
     <use xlink:href="#MicrosoftYaHei-Bold-3f" transform="translate(142.236328 0)"/>
    </g>
   </g>
   <g id="text_4">
    <!-- ?? / ???? -->
    <g style="fill: #6f768a" transform="translate(131.949394 167.715914) scale(0.087 -0.087)">
     <defs>
      <path id="MicrosoftYaHei-2f" d="M 2791 4841 
L 469 -803 
L -103 -803 
L 2219 4841 
L 2791 4841 
z
" transform="scale(0.015625)"/>
     </defs>
     <use xlink:href="#MicrosoftYaHei-3f"/>
     <use xlink:href="#MicrosoftYaHei-3f" transform="translate(48.291016 0)"/>
     <use xlink:href="#MicrosoftYaHei-20" transform="translate(96.582031 0)"/>
     <use xlink:href="#MicrosoftYaHei-2f" transform="translate(126.171875 0)"/>
     <use xlink:href="#MicrosoftYaHei-20" transform="translate(168.896484 0)"/>
     <use xlink:href="#MicrosoftYaHei-3f" transform="translate(198.486328 0)"/>
     <use xlink:href="#MicrosoftYaHei-3f" transform="translate(246.777344 0)"/>
     <use xlink:href="#MicrosoftYaHei-3f" transform="translate(295.068359 0)"/>
     <use xlink:href="#MicrosoftYaHei-3f" transform="translate(343.359375 0)"/>
    </g>
    <!-- / ??? -->
    <g style="fill: #6f768a" transform="translate(139.539464 178.571883) scale(0.087 -0.087)">
     <use xlink:href="#MicrosoftYaHei-2f"/>
     <use xlink:href="#MicrosoftYaHei-20" transform="translate(42.724609 0)"/>
     <use xlink:href="#MicrosoftYaHei-3f" transform="translate(72.314453 0)"/>
     <use xlink:href="#MicrosoftYaHei-3f" transform="translate(120.605469 0)"/>
     <use xlink:href="#MicrosoftYaHei-3f" transform="translate(168.896484 0)"/>
    </g>
   </g>
   <g id="text_5">
    <!-- ?????? -->
    <g style="fill: #1f2430" transform="translate(221.019844 144.476352) scale(0.115 -0.115)">
     <use xlink:href="#MicrosoftYaHei-Bold-3f"/>
     <use xlink:href="#MicrosoftYaHei-Bold-3f" transform="translate(47.412109 0)"/>
     <use xlink:href="#MicrosoftYaHei-Bold-3f" transform="translate(94.824219 0)"/>
     <use xlink:href="#MicrosoftYaHei-Bold-3f" transform="translate(142.236328 0)"/>
     <use xlink:href="#MicrosoftYaHei-Bold-3f" transform="translate(189.648438 0)"/>
     <use xlink:href="#MicrosoftYaHei-Bold-3f" transform="translate(237.060547 0)"/>
    </g>
   </g>
   <g id="text_6">
    <!-- ?? ETF ? -->
    <g style="fill: #6f768a" transform="translate(221.290195 167.715914) scale(0.087 -0.087)">
     <defs>
      <path id="MicrosoftYaHei-45" d="M 3228 0 
L 625 0 
L 625 4841 
L 3119 4841 
L 3119 4284 
L 1250 4284 
L 1250 2734 
L 2981 2734 
L 2981 2181 
L 1250 2181 
L 1250 553 
L 3228 553 
L 3228 0 
z
" transform="scale(0.015625)"/>
      <path id="MicrosoftYaHei-54" d="M 3550 4284 
L 2153 4284 
L 2153 0 
L 1525 0 
L 1525 4284 
L 134 4284 
L 134 4841 
L 3550 4841 
L 3550 4284 
z
" transform="scale(0.015625)"/>
      <path id="MicrosoftYaHei-46" d="M 3119 4284 
L 1250 4284 
L 1250 2666 
L 2981 2666 
L 2981 2116 
L 1250 2116 
L 1250 0 
L 625 0 
L 625 4841 
L 3119 4841 
L 3119 4284 
z
" transform="scale(0.015625)"/>
     </defs>
     <use xlink:href="#MicrosoftYaHei-3f"/>
     <use xlink:href="#MicrosoftYaHei-3f" transform="translate(48.291016 0)"/>
     <use xlink:href="#MicrosoftYaHei-20" transform="translate(96.582031 0)"/>
     <use xlink:href="#MicrosoftYaHei-45" transform="translate(126.171875 0)"/>
     <use xlink:href="#MicrosoftYaHei-54" transform="translate(181.402344 0)"/>
     <use xlink:href="#MicrosoftYaHei-46" transform="translate(238.726562 0)"/>
     <use xlink:href="#MicrosoftYaHei-20" transform="translate(291.851562 0)"/>
     <use xlink:href="#MicrosoftYaHei-3f" transform="translate(321.441406 0)"/>
    </g>
    <!-- ?????? -->
    <g style="fill: #6f768a" transform="translate(224.769516 178.571883) scale(0.087 -0.087)">
     <use xlink:href="#MicrosoftYaHei-3f"/>
     <use xlink:href="#MicrosoftYaHei-3f" transform="translate(48.291016 0)"/>
     <use xlink:href="#MicrosoftYaHei-3f" transform="translate(96.582031 0)"/>
     <use xlink:href="#MicrosoftYaHei-3f" transform="translate(144.873047 0)"/>
     <use xlink:href="#MicrosoftYaHei-3f" transform="translate(193.164062 0)"/>
     <use xlink:href="#MicrosoftYaHei-3f" transform="translate(241.455078 0)"/>
    </g>
   </g>
   <g id="text_7">
    <!-- ????? -->
    <g style="fill: #1f2430" transform="translate(312.132903 144.476352) scale(0.115 -0.115)">
     <use xlink:href="#MicrosoftYaHei-Bold-3f"/>
     <use xlink:href="#MicrosoftYaHei-Bold-3f" transform="translate(47.412109 0)"/>
     <use xlink:href="#MicrosoftYaHei-Bold-3f" transform="translate(94.824219 0)"/>
     <use xlink:href="#MicrosoftYaHei-Bold-3f" transform="translate(142.236328 0)"/>
     <use xlink:href="#MicrosoftYaHei-Bold-3f" transform="translate(189.648438 0)"/>
    </g>
   </g>
   <g id="text_8">
    <!-- Ridge / LASSO -->
    <g style="fill: #6f768a" transform="translate(295.303364 167.690766) scale(0.087 -0.087)">
     <defs>
      <path id="MicrosoftYaHei-52" d="M 4159 0 
L 3422 0 
L 2619 1344 
Q 2378 1747 2178 1892 
Q 1978 2038 1700 2038 
L 1250 2038 
L 1250 0 
L 625 0 
L 625 4841 
L 2100 4841 
Q 2806 4841 3206 4500 
Q 3606 4159 3606 3547 
Q 3606 2541 2531 2241 
L 2531 2225 
Q 2731 2141 2876 1984 
Q 3022 1828 3253 1450 
L 4159 0 
z
M 1250 4294 
L 1250 2584 
L 1988 2584 
Q 2416 2584 2683 2834 
Q 2950 3084 2950 3491 
Q 2950 3869 2706 4081 
Q 2463 4294 1997 4294 
L 1250 4294 
z
" transform="scale(0.015625)"/>
      <path id="MicrosoftYaHei-69" d="M 472 4675 
Q 472 4838 583 4948 
Q 694 5059 856 5059 
Q 1022 5059 1136 4950 
Q 1250 4841 1250 4675 
Q 1250 4513 1136 4405 
Q 1022 4297 856 4297 
Q 691 4297 581 4405 
Q 472 4513 472 4675 
z
M 544 0 
L 544 3456 
L 1156 3456 
L 1156 0 
L 544 0 
z
" transform="scale(0.015625)"/>
      <path id="MicrosoftYaHei-64" d="M 3547 0 
L 2934 0 
L 2934 575 
L 2922 575 
Q 2544 -81 1747 -81 
Q 1091 -81 703 386 
Q 316 853 316 1647 
Q 316 2503 753 3020 
Q 1191 3538 1897 3538 
Q 2603 3538 2922 2988 
L 2934 2988 
L 2934 5116 
L 3547 5116 
L 3547 0 
z
M 2938 2056 
Q 2938 2472 2664 2751 
Q 2391 3031 1991 3031 
Q 1503 3031 1222 2667 
Q 941 2303 941 1675 
Q 941 1097 1211 761 
Q 1481 425 1931 425 
Q 2375 425 2656 754 
Q 2938 1084 2938 1575 
L 2938 2056 
z
" transform="scale(0.015625)"/>
      <path id="MicrosoftYaHei-67" d="M 3547 291 
Q 3547 -1628 1684 -1628 
Q 1041 -1628 566 -1388 
L 566 -797 
Q 1144 -1119 1675 -1119 
Q 2934 -1119 2934 206 
L 2934 572 
L 2922 572 
Q 2528 -81 1747 -81 
Q 1097 -81 706 384 
Q 316 850 316 1619 
Q 316 2503 747 3020 
Q 1178 3538 1897 3538 
Q 2588 3538 2922 2988 
L 2934 2988 
L 2934 3456 
L 3547 3456 
L 3547 291 
z
M 2934 2056 
Q 2938 2456 2666 2743 
Q 2394 3031 1997 3031 
Q 1497 3031 1219 2664 
Q 941 2297 941 1656 
Q 941 1106 1209 765 
Q 1478 425 1922 425 
Q 2369 425 2653 750 
Q 2938 1075 2934 1575 
L 2934 2056 
z
" transform="scale(0.015625)"/>
      <path id="MicrosoftYaHei-65" d="M 3363 1572 
L 944 1572 
Q 959 1019 1246 717 
Q 1534 416 2050 416 
Q 2631 416 3116 788 
L 3116 241 
Q 2659 -81 1906 -81 
Q 1156 -81 736 394 
Q 316 869 316 1713 
Q 316 2506 777 3022 
Q 1238 3538 1922 3538 
Q 2600 3538 2981 3102 
Q 3363 2666 3363 1881 
L 3363 1572 
z
M 2750 2063 
Q 2747 2531 2528 2787 
Q 2309 3044 1913 3044 
Q 1547 3044 1280 2772 
Q 1013 2500 944 2063 
L 2750 2063 
z
" transform="scale(0.015625)"/>
      <path id="MicrosoftYaHei-4c" d="M 3178 0 
L 625 0 
L 625 4841 
L 1250 4841 
L 1250 553 
L 3178 553 
L 3178 0 
z
" transform="scale(0.015625)"/>
      <path id="MicrosoftYaHei-41" d="M 4428 0 
L 3738 0 
L 3244 1325 
L 1228 1325 
L 763 0 
L 72 0 
L 1916 4841 
L 2584 4841 
L 4428 0 
z
M 3050 1872 
L 2319 3884 
Q 2284 3981 2244 4222 
L 2228 4222 
Q 2194 4003 2150 3884 
L 1425 1872 
L 3050 1872 
z
" transform="scale(0.015625)"/>
      <path id="MicrosoftYaHei-53" d="M 400 909 
Q 622 716 994 591 
Q 1366 466 1700 466 
Q 2719 466 2719 1191 
Q 2719 1394 2609 1556 
Q 2500 1719 2309 1844 
Q 2119 1969 1594 2228 
Q 866 2591 634 2902 
Q 403 3213 403 3613 
Q 403 4216 887 4569 
Q 1372 4922 2109 4922 
Q 2831 4922 3169 4747 
L 3169 4066 
Q 2731 4369 2063 4369 
Q 1619 4369 1339 4183 
Q 1059 3997 1059 3666 
Q 1059 3372 1253 3187 
Q 1447 3003 2094 2684 
Q 2806 2344 3090 2003 
Q 3375 1663 3375 1238 
Q 3375 600 2912 259 
Q 2450 -81 1628 -81 
Q 1341 -81 958 -1 
Q 575 78 400 197 
L 400 909 
z
" transform="scale(0.015625)"/>
      <path id="MicrosoftYaHei-4f" d="M 313 2363 
Q 313 3534 947 4228 
Q 1581 4922 2666 4922 
Q 3675 4922 4290 4244 
Q 4906 3566 4906 2478 
Q 4906 1300 4275 609 
Q 3644 -81 2588 -81 
Q 1556 -81 934 597 
Q 313 1275 313 2363 
z
M 969 2413 
Q 969 1534 1417 1004 
Q 1866 475 2588 475 
Q 3363 475 3805 983 
Q 4247 1491 4247 2403 
Q 4247 3341 3814 3850 
Q 3381 4359 2628 4359 
Q 1888 4359 1428 3821 
Q 969 3284 969 2413 
z
" transform="scale(0.015625)"/>
     </defs>
     <use xlink:href="#MicrosoftYaHei-52"/>
     <use xlink:href="#MicrosoftYaHei-69" transform="translate(65.283203 0)"/>
     <use xlink:href="#MicrosoftYaHei-64" transform="translate(91.894531 0)"/>
     <use xlink:href="#MicrosoftYaHei-67" transform="translate(155.859375 0)"/>
     <use xlink:href="#MicrosoftYaHei-65" transform="translate(219.824219 0)"/>
     <use xlink:href="#MicrosoftYaHei-20" transform="translate(276.5625 0)"/>
     <use xlink:href="#MicrosoftYaHei-2f" transform="translate(306.152344 0)"/>
     <use xlink:href="#MicrosoftYaHei-20" transform="translate(348.876953 0)"/>
     <use xlink:href="#MicrosoftYaHei-4c" transform="translate(378.466797 0)"/>
     <use xlink:href="#MicrosoftYaHei-41" transform="translate(432.910156 0)"/>
     <use xlink:href="#MicrosoftYaHei-53" transform="translate(503.271484 0)"/>
     <use xlink:href="#MicrosoftYaHei-53" transform="translate(560.986328 0)"/>
     <use xlink:href="#MicrosoftYaHei-4f" transform="translate(618.701172 0)"/>
    </g>
    <!-- ?????? -->
    <g style="fill: #6f768a" transform="translate(313.156716 178.597031) scale(0.087 -0.087)">
     <use xlink:href="#MicrosoftYaHei-3f"/>
     <use xlink:href="#MicrosoftYaHei-3f" transform="translate(48.291016 0)"/>
     <use xlink:href="#MicrosoftYaHei-3f" transform="translate(96.582031 0)"/>
     <use xlink:href="#MicrosoftYaHei-3f" transform="translate(144.873047 0)"/>
     <use xlink:href="#MicrosoftYaHei-3f" transform="translate(193.164062 0)"/>
     <use xlink:href="#MicrosoftYaHei-3f" transform="translate(241.455078 0)"/>
    </g>
   </g>
   <g id="text_9">
    <!-- ???? -->
    <g style="fill: #1f2430" transform="translate(403.245962 144.476352) scale(0.115 -0.115)">
     <use xlink:href="#MicrosoftYaHei-Bold-3f"/>
     <use xlink:href="#MicrosoftYaHei-Bold-3f" transform="translate(47.412109 0)"/>
     <use xlink:href="#MicrosoftYaHei-Bold-3f" transform="translate(94.824219 0)"/>
     <use xlink:href="#MicrosoftYaHei-Bold-3f" transform="translate(142.236328 0)"/>
    </g>
   </g>
   <g id="text_10">
    <!-- ????? -->
    <g style="fill: #6f768a" transform="translate(403.64483 167.715914) scale(0.087 -0.087)">
     <use xlink:href="#MicrosoftYaHei-3f"/>
     <use xlink:href="#MicrosoftYaHei-3f" transform="translate(48.291016 0)"/>
     <use xlink:href="#MicrosoftYaHei-3f" transform="translate(96.582031 0)"/>
     <use xlink:href="#MicrosoftYaHei-3f" transform="translate(144.873047 0)"/>
     <use xlink:href="#MicrosoftYaHei-3f" transform="translate(193.164062 0)"/>
    </g>
    <!-- ???? -->
    <g style="fill: #6f768a" transform="translate(405.745744 178.571883) scale(0.087 -0.087)">
     <use xlink:href="#MicrosoftYaHei-3f"/>
     <use xlink:href="#MicrosoftYaHei-3f" transform="translate(48.291016 0)"/>
     <use xlink:href="#MicrosoftYaHei-3f" transform="translate(96.582031 0)"/>
     <use xlink:href="#MicrosoftYaHei-3f" transform="translate(144.873047 0)"/>
    </g>
   </g>
   <g id="text_11">
    <!-- Top-K ?? -->
    <g style="fill: #1f2430" transform="translate(478.241053 144.476352) scale(0.115 -0.115)">
     <defs>
      <path id="MicrosoftYaHei-Bold-54" d="M 3900 3997 
L 2519 3997 
L 2519 0 
L 1484 0 
L 1484 3997 
L 106 3997 
L 106 4841 
L 3900 4841 
L 3900 3997 
z
" transform="scale(0.015625)"/>
      <path id="MicrosoftYaHei-Bold-6f" d="M 253 1713 
Q 253 2566 764 3053 
Q 1275 3541 2138 3541 
Q 2972 3541 3462 3061 
Q 3953 2581 3953 1772 
Q 3953 922 3450 419 
Q 2947 -84 2088 -84 
Q 1244 -84 748 398 
Q 253 881 253 1713 
z
M 1275 1725 
Q 1275 691 2119 691 
Q 2928 691 2928 1753 
Q 2928 2766 2113 2766 
Q 1716 2766 1495 2494 
Q 1275 2222 1275 1725 
z
" transform="scale(0.015625)"/>
      <path id="MicrosoftYaHei-Bold-70" d="M 1469 416 
L 1469 -1591 
L 459 -1591 
L 459 3456 
L 1469 3456 
L 1469 2928 
L 1481 2928 
Q 1878 3541 2603 3541 
Q 3263 3541 3634 3080 
Q 4006 2619 4006 1825 
Q 4006 959 3575 437 
Q 3144 -84 2444 -84 
Q 1809 -84 1481 416 
L 1469 416 
z
M 1453 1528 
Q 1453 1159 1653 925 
Q 1853 691 2172 691 
Q 2550 691 2761 984 
Q 2972 1278 2972 1816 
Q 2972 2766 2231 2766 
Q 1888 2766 1670 2503 
Q 1453 2241 1453 1828 
L 1453 1528 
z
" transform="scale(0.015625)"/>
      <path id="MicrosoftYaHei-Bold-2d" d="M 2328 1497 
L 481 1497 
L 481 2209 
L 2328 2209 
L 2328 1497 
z
" transform="scale(0.015625)"/>
      <path id="MicrosoftYaHei-Bold-4b" d="M 4506 0 
L 3200 0 
L 1734 2116 
Q 1678 2197 1606 2369 
L 1591 2369 
L 1591 0 
L 559 0 
L 559 4841 
L 1591 4841 
L 1591 2553 
L 1606 2553 
Q 1675 2703 1744 2813 
L 3131 4841 
L 4363 4841 
L 2631 2531 
L 4506 0 
z
" transform="scale(0.015625)"/>
      <path id="MicrosoftYaHei-Bold-20" transform="scale(0.015625)"/>
     </defs>
     <use xlink:href="#MicrosoftYaHei-Bold-54"/>
     <use xlink:href="#MicrosoftYaHei-Bold-6f" transform="translate(52.673828 0)"/>
     <use xlink:href="#MicrosoftYaHei-Bold-70" transform="translate(118.396484 0)"/>
     <use xlink:href="#MicrosoftYaHei-Bold-2d" transform="translate(184.998047 0)"/>
     <use xlink:href="#MicrosoftYaHei-Bold-4b" transform="translate(228.650391 0)"/>
     <use xlink:href="#MicrosoftYaHei-Bold-20" transform="translate(297.9375 0)"/>
     <use xlink:href="#MicrosoftYaHei-Bold-3f" transform="translate(327.722656 0)"/>
     <use xlink:href="#MicrosoftYaHei-Bold-3f" transform="translate(375.134766 0)"/>
    </g>
   </g>
   <g id="text_12">
    <!-- ?????? -->
    <g style="fill: #6f768a" transform="translate(489.931116 167.715914) scale(0.087 -0.087)">
     <use xlink:href="#MicrosoftYaHei-3f"/>
     <use xlink:href="#MicrosoftYaHei-3f" transform="translate(48.291016 0)"/>
     <use xlink:href="#MicrosoftYaHei-3f" transform="translate(96.582031 0)"/>
     <use xlink:href="#MicrosoftYaHei-3f" transform="translate(144.873047 0)"/>
     <use xlink:href="#MicrosoftYaHei-3f" transform="translate(193.164062 0)"/>
     <use xlink:href="#MicrosoftYaHei-3f" transform="translate(241.455078 0)"/>
    </g>
    <!-- ETF -->
    <g style="fill: #6f768a" transform="translate(495.329194 178.571883) scale(0.087 -0.087)">
     <use xlink:href="#MicrosoftYaHei-45"/>
     <use xlink:href="#MicrosoftYaHei-54" transform="translate(55.230469 0)"/>
     <use xlink:href="#MicrosoftYaHei-46" transform="translate(112.554688 0)"/>
    </g>
   </g>
   <g id="text_13">
    <!-- ???? -->
    <g style="fill: #1f2430" transform="translate(580.020363 144.476352) scale(0.115 -0.115)">
     <use xlink:href="#MicrosoftYaHei-Bold-3f"/>
     <use xlink:href="#MicrosoftYaHei-Bold-3f" transform="translate(47.412109 0)"/>
     <use xlink:href="#MicrosoftYaHei-Bold-3f" transform="translate(94.824219 0)"/>
     <use xlink:href="#MicrosoftYaHei-Bold-3f" transform="translate(142.236328 0)"/>
    </g>
   </g>
   <g id="text_14">
    <!-- ??ETF?? -->
    <g style="fill: #6f768a" transform="translate(575.312738 167.715914) scale(0.087 -0.087)">
     <use xlink:href="#MicrosoftYaHei-3f"/>
     <use xlink:href="#MicrosoftYaHei-3f" transform="translate(48.291016 0)"/>
     <use xlink:href="#MicrosoftYaHei-45" transform="translate(96.582031 0)"/>
     <use xlink:href="#MicrosoftYaHei-54" transform="translate(151.8125 0)"/>
     <use xlink:href="#MicrosoftYaHei-46" transform="translate(209.136719 0)"/>
     <use xlink:href="#MicrosoftYaHei-3f" transform="translate(262.261719 0)"/>
     <use xlink:href="#MicrosoftYaHei-3f" transform="translate(310.552734 0)"/>
    </g>
    <!-- ????? -->
    <g style="fill: #6f768a" transform="translate(580.41923 178.571883) scale(0.087 -0.087)">
     <use xlink:href="#MicrosoftYaHei-3f"/>
     <use xlink:href="#MicrosoftYaHei-3f" transform="translate(48.291016 0)"/>
     <use xlink:href="#MicrosoftYaHei-3f" transform="translate(96.582031 0)"/>
     <use xlink:href="#MicrosoftYaHei-3f" transform="translate(144.873047 0)"/>
     <use xlink:href="#MicrosoftYaHei-3f" transform="translate(193.164062 0)"/>
    </g>
   </g>
   <g id="text_15">
    <!-- ???? -->
    <g style="fill: #1f2430" transform="translate(668.407563 144.476352) scale(0.115 -0.115)">
     <use xlink:href="#MicrosoftYaHei-Bold-3f"/>
     <use xlink:href="#MicrosoftYaHei-Bold-3f" transform="translate(47.412109 0)"/>
     <use xlink:href="#MicrosoftYaHei-Bold-3f" transform="translate(94.824219 0)"/>
     <use xlink:href="#MicrosoftYaHei-Bold-3f" transform="translate(142.236328 0)"/>
    </g>
   </g>
   <g id="text_16">
    <!-- T+1 / ?? -->
    <g style="fill: #6f768a" transform="translate(662.405133 167.715914) scale(0.087 -0.087)">
     <defs>
      <path id="MicrosoftYaHei-31" d="M 1781 0 
L 1781 4141 
Q 1638 3997 1295 3819 
Q 953 3641 663 3569 
L 663 4169 
Q 1047 4275 1484 4508 
Q 1922 4741 2156 4947 
L 2388 4947 
L 2388 0 
L 1781 0 
z
" transform="scale(0.015625)"/>
     </defs>
     <use xlink:href="#MicrosoftYaHei-54"/>
     <use xlink:href="#MicrosoftYaHei-2b" transform="translate(57.324219 0)"/>
     <use xlink:href="#MicrosoftYaHei-31" transform="translate(131.494141 0)"/>
     <use xlink:href="#MicrosoftYaHei-20" transform="translate(190.136719 0)"/>
     <use xlink:href="#MicrosoftYaHei-2f" transform="translate(219.726562 0)"/>
     <use xlink:href="#MicrosoftYaHei-20" transform="translate(262.451172 0)"/>
     <use xlink:href="#MicrosoftYaHei-3f" transform="translate(292.041016 0)"/>
     <use xlink:href="#MicrosoftYaHei-3f" transform="translate(340.332031 0)"/>
    </g>
    <!-- ???? -->
    <g style="fill: #6f768a" transform="translate(670.907344 178.571883) scale(0.087 -0.087)">
     <use xlink:href="#MicrosoftYaHei-3f"/>
     <use xlink:href="#MicrosoftYaHei-3f" transform="translate(48.291016 0)"/>
     <use xlink:href="#MicrosoftYaHei-3f" transform="translate(96.582031 0)"/>
     <use xlink:href="#MicrosoftYaHei-3f" transform="translate(144.873047 0)"/>
    </g>
   </g>
   <g id="text_17">
    <!-- ?2-5 ????????????????? -->
    <g style="fill: #1f2430" transform="translate(25.614 52.99344) scale(0.15 -0.15)">
     <defs>
      <path id="MicrosoftYaHei-Bold-32" d="M 1500 841 
L 3553 841 
L 3553 0 
L 334 0 
L 334 359 
Q 334 738 473 1050 
Q 613 1363 856 1633 
Q 1100 1903 1613 2266 
Q 2081 2616 2268 2886 
Q 2456 3156 2456 3459 
Q 2456 4113 1744 4113 
Q 1119 4113 550 3613 
L 550 4513 
Q 1184 4922 1975 4922 
Q 2700 4922 3122 4551 
Q 3544 4181 3544 3531 
Q 3544 3169 3422 2876 
Q 3300 2584 3069 2328 
Q 2838 2072 2328 1713 
Q 1838 1363 1669 1172 
Q 1500 981 1500 841 
z
" transform="scale(0.015625)"/>
      <path id="MicrosoftYaHei-Bold-35" d="M 541 125 
L 541 997 
Q 1044 691 1613 691 
Q 2041 691 2283 902 
Q 2525 1113 2525 1472 
Q 2525 2225 1494 2225 
Q 1113 2225 616 2169 
L 797 4841 
L 3359 4841 
L 3359 4009 
L 1613 4009 
L 1544 2991 
Q 1803 3013 2022 3013 
Q 2731 3013 3142 2625 
Q 3553 2238 3553 1575 
Q 3553 844 3056 380 
Q 2559 -84 1706 -84 
Q 1016 -84 541 125 
z
" transform="scale(0.015625)"/>
     </defs>
     <use xlink:href="#MicrosoftYaHei-Bold-3f"/>
     <use xlink:href="#MicrosoftYaHei-Bold-32" transform="translate(47.412109 0)"/>
     <use xlink:href="#MicrosoftYaHei-Bold-2d" transform="translate(109.082031 0)"/>
     <use xlink:href="#MicrosoftYaHei-Bold-35" transform="translate(152.734375 0)"/>
     <use xlink:href="#MicrosoftYaHei-Bold-20" transform="translate(214.404297 0)"/>
     <use xlink:href="#MicrosoftYaHei-Bold-3f" transform="translate(244.189453 0)"/>
     <use xlink:href="#MicrosoftYaHei-Bold-3f" transform="translate(291.601562 0)"/>
     <use xlink:href="#MicrosoftYaHei-Bold-3f" transform="translate(339.013672 0)"/>
     <use xlink:href="#MicrosoftYaHei-Bold-3f" transform="translate(386.425781 0)"/>
     <use xlink:href="#MicrosoftYaHei-Bold-3f" transform="translate(433.837891 0)"/>
     <use xlink:href="#MicrosoftYaHei-Bold-3f" transform="translate(481.25 0)"/>
     <use xlink:href="#MicrosoftYaHei-Bold-3f" transform="translate(528.662109 0)"/>
     <use xlink:href="#MicrosoftYaHei-Bold-3f" transform="translate(576.074219 0)"/>
     <use xlink:href="#MicrosoftYaHei-Bold-3f" transform="translate(623.486328 0)"/>
     <use xlink:href="#MicrosoftYaHei-Bold-3f" transform="translate(670.898438 0)"/>
     <use xlink:href="#MicrosoftYaHei-Bold-3f" transform="translate(718.310547 0)"/>
     <use xlink:href="#MicrosoftYaHei-Bold-3f" transform="translate(765.722656 0)"/>
     <use xlink:href="#MicrosoftYaHei-Bold-3f" transform="translate(813.134766 0)"/>
     <use xlink:href="#MicrosoftYaHei-Bold-3f" transform="translate(860.546875 0)"/>
     <use xlink:href="#MicrosoftYaHei-Bold-3f" transform="translate(907.958984 0)"/>
     <use xlink:href="#MicrosoftYaHei-Bold-3f" transform="translate(955.371094 0)"/>
     <use xlink:href="#MicrosoftYaHei-Bold-3f" transform="translate(1002.783203 0)"/>
    </g>
   </g>
   <g id="text_18">
    <!-- ?????????????????????????????? T+1 ?????? -->
    <g style="fill: #6f768a" transform="translate(25.614 70.98372) scale(0.095 -0.095)">
     <use xlink:href="#MicrosoftYaHei-3f"/>
     <use xlink:href="#MicrosoftYaHei-3f" transform="translate(48.291016 0)"/>
     <use xlink:href="#MicrosoftYaHei-3f" transform="translate(96.582031 0)"/>
     <use xlink:href="#MicrosoftYaHei-3f" transform="translate(144.873047 0)"/>
     <use xlink:href="#MicrosoftYaHei-3f" transform="translate(193.164062 0)"/>
     <use xlink:href="#MicrosoftYaHei-3f" transform="translate(241.455078 0)"/>
     <use xlink:href="#MicrosoftYaHei-3f" transform="translate(289.746094 0)"/>
     <use xlink:href="#MicrosoftYaHei-3f" transform="translate(338.037109 0)"/>
     <use xlink:href="#MicrosoftYaHei-3f" transform="translate(386.328125 0)"/>
     <use xlink:href="#MicrosoftYaHei-3f" transform="translate(434.619141 0)"/>
     <use xlink:href="#MicrosoftYaHei-3f" transform="translate(482.910156 0)"/>
     <use xlink:href="#MicrosoftYaHei-3f" transform="translate(531.201172 0)"/>
     <use xlink:href="#MicrosoftYaHei-3f" transform="translate(579.492188 0)"/>
     <use xlink:href="#MicrosoftYaHei-3f" transform="translate(627.783203 0)"/>
     <use xlink:href="#MicrosoftYaHei-3f" transform="translate(676.074219 0)"/>
     <use xlink:href="#MicrosoftYaHei-3f" transform="translate(724.365234 0)"/>
     <use xlink:href="#MicrosoftYaHei-3f" transform="translate(772.65625 0)"/>
     <use xlink:href="#MicrosoftYaHei-3f" transform="translate(820.947266 0)"/>
     <use xlink:href="#MicrosoftYaHei-3f" transform="translate(869.238281 0)"/>
     <use xlink:href="#MicrosoftYaHei-3f" transform="translate(917.529297 0)"/>
     <use xlink:href="#MicrosoftYaHei-3f" transform="translate(965.820312 0)"/>
     <use xlink:href="#MicrosoftYaHei-3f" transform="translate(1014.111328 0)"/>
     <use xlink:href="#MicrosoftYaHei-3f" transform="translate(1062.402344 0)"/>
     <use xlink:href="#MicrosoftYaHei-3f" transform="translate(1110.693359 0)"/>
     <use xlink:href="#MicrosoftYaHei-3f" transform="translate(1158.984375 0)"/>
     <use xlink:href="#MicrosoftYaHei-3f" transform="translate(1207.275391 0)"/>
     <use xlink:href="#MicrosoftYaHei-3f" transform="translate(1255.566406 0)"/>
     <use xlink:href="#MicrosoftYaHei-3f" transform="translate(1303.857422 0)"/>
     <use xlink:href="#MicrosoftYaHei-3f" transform="translate(1352.148438 0)"/>
     <use xlink:href="#MicrosoftYaHei-3f" transform="translate(1400.439453 0)"/>
     <use xlink:href="#MicrosoftYaHei-20" transform="translate(1448.730469 0)"/>
     <use xlink:href="#MicrosoftYaHei-54" transform="translate(1478.320312 0)"/>
     <use xlink:href="#MicrosoftYaHei-2b" transform="translate(1535.644531 0)"/>
     <use xlink:href="#MicrosoftYaHei-31" transform="translate(1609.814453 0)"/>
     <use xlink:href="#MicrosoftYaHei-20" transform="translate(1668.457031 0)"/>
     <use xlink:href="#MicrosoftYaHei-3f" transform="translate(1698.046875 0)"/>
     <use xlink:href="#MicrosoftYaHei-3f" transform="translate(1746.337891 0)"/>
     <use xlink:href="#MicrosoftYaHei-3f" transform="translate(1794.628906 0)"/>
     <use xlink:href="#MicrosoftYaHei-3f" transform="translate(1842.919922 0)"/>
     <use xlink:href="#MicrosoftYaHei-3f" transform="translate(1891.210938 0)"/>
     <use xlink:href="#MicrosoftYaHei-3f" transform="translate(1939.501953 0)"/>
    </g>
   </g>
  </g>
 </g>
 <defs>
  <clipPath id="pfbc74ddfed">
   <rect x="7.2" y="7.2" width="736.56" height="327.096"/>
  </clipPath>
 </defs>
</svg>
