<?xml version="1.0" encoding="utf-8" standalone="no"?>
<!DOCTYPE svg PUBLIC "-//W3C//DTD SVG 1.1//EN"
  "http://www.w3.org/Graphics/SVG/1.1/DTD/svg11.dtd">
<svg xmlns:xlink="http://www.w3.org/1999/xlink" width="933.307109pt" height="467.219344pt" viewBox="0 0 933.307109 467.219344" xmlns="http://www.w3.org/2000/svg" version="1.1">
 <metadata>
  <rdf:RDF xmlns:dc="http://purl.org/dc/elements/1.1/" xmlns:cc="http://creativecommons.org/ns#" xmlns:rdf="http://www.w3.org/1999/02/22-rdf-syntax-ns#">
   <cc:Work>
    <dc:type rdf:resource="http://purl.org/dc/dcmitype/StillImage"/>
    <dc:date>2026-06-24T23:01:19.663162</dc:date>
    <dc:format>image/svg+xml</dc:format>
    <dc:creator>
     <cc:Agent>
      <dc:title>Matplotlib v3.10.8, https://matplotlib.org/</dc:title>
     </cc:Agent>
    </dc:creator>
   </cc:Work>
  </rdf:RDF>
 </metadata>
 <defs>
  <style type="text/css">*{stroke-linejoin: round; stroke-linecap: butt}</style>
 </defs>
 <g id="figure_1">
  <g id="patch_1">
   <path d="M 0 467.219344 
L 933.307109 467.219344 
L 933.307109 0 
L 0 0 
z
" style="fill: #fcfcfd"/>
  </g>
  <g id="axes_1">
   <g id="patch_2">
    <path d="M 82.702344 424.512 
L 456.98219 424.512 
L 456.98219 103.104 
L 82.702344 103.104 
z
" style="fill: #ffffff"/>
   </g>
   <g id="matplotlib.axis_1">
    <g id="xtick_1">
     <g id="line2d_1">
      <path d="M 82.702344 424.512 
L 82.702344 103.104 
" clip-path="url(#p5a15204fc4)" style="fill: none; stroke: #e6e8f0; stroke-width: 0.75; stroke-linecap: round"/>
     </g>
     <g id="text_1">
      <!-- 0.0 -->
      <g style="fill: #6f768a" transform="translate(76.341172 441.206375) scale(0.09 -0.09)">
       <defs>
        <path id="MicrosoftYaHei-30" d="M 284 2325 
Q 284 3606 709 4264 
Q 1134 4922 1941 4922 
Q 3478 4922 3478 2441 
Q 3478 1216 3045 567 
Q 2613 -81 1831 -81 
Q 1094 -81 689 534 
Q 284 1150 284 2325 
z
M 909 2353 
Q 909 425 1888 425 
Q 2850 425 2850 2384 
Q 2850 4413 1906 4413 
Q 909 4413 909 2353 
z
" transform="scale(0.015625)"/>
        <path id="MicrosoftYaHei-2e" d="M 372 322 
Q 372 491 487 606 
Q 603 722 775 722 
Q 950 722 1065 605 
Q 1181 488 1181 322 
Q 1181 159 1065 42 
Q 950 -75 772 -75 
Q 600 -75 486 42 
Q 372 159 372 322 
z
" transform="scale(0.015625)"/>
       </defs>
       <use xlink:href="#MicrosoftYaHei-30"/>
       <use xlink:href="#MicrosoftYaHei-2e" transform="translate(58.642578 0)"/>
       <use xlink:href="#MicrosoftYaHei-30" transform="translate(82.714844 0)"/>
      </g>
     </g>
    </g>
    <g id="xtick_2">
     <g id="line2d_2">
      <path d="M 159.019182 424.512 
L 159.019182 103.104 
" clip-path="url(#p5a15204fc4)" style="fill: none; stroke: #e6e8f0; stroke-width: 0.75; stroke-linecap: round"/>
     </g>
     <g id="text_2">
      <!-- 0.2 -->
      <g style="fill: #6f768a" transform="translate(152.65801 441.206375) scale(0.09 -0.09)">
       <defs>
        <path id="MicrosoftYaHei-32" d="M 2666 3572 
Q 2666 3963 2419 4186 
Q 2172 4409 1747 4409 
Q 1447 4409 1140 4256 
Q 834 4103 569 3819 
L 569 4413 
Q 806 4659 1107 4790 
Q 1409 4922 1816 4922 
Q 2472 4922 2872 4570 
Q 3272 4219 3272 3619 
Q 3272 3084 3026 2693 
Q 2781 2303 2188 1894 
Q 1581 1475 1376 1294 
Q 1172 1113 1090 947 
Q 1009 781 1009 544 
L 3416 544 
L 3416 0 
L 372 0 
L 372 241 
Q 372 659 486 951 
Q 600 1244 862 1520 
Q 1125 1797 1681 2184 
Q 2250 2584 2458 2886 
Q 2666 3188 2666 3572 
z
" transform="scale(0.015625)"/>
       </defs>
       <use xlink:href="#MicrosoftYaHei-30"/>
       <use xlink:href="#MicrosoftYaHei-2e" transform="translate(58.642578 0)"/>
       <use xlink:href="#MicrosoftYaHei-32" transform="translate(82.714844 0)"/>
      </g>
     </g>
    </g>
    <g id="xtick_3">
     <g id="line2d_3">
      <path d="M 235.33602 424.512 
L 235.33602 103.104 
" clip-path="url(#p5a15204fc4)" style="fill: none; stroke: #e6e8f0; stroke-width: 0.75; stroke-linecap: round"/>
     </g>
     <g id="text_3">
      <!-- 0.4 -->
      <g style="fill: #6f768a" transform="translate(228.974848 441.206375) scale(0.09 -0.09)">
       <defs>
        <path id="MicrosoftYaHei-34" d="M 2906 4841 
L 2906 1644 
L 3631 1644 
L 3631 1138 
L 2906 1138 
L 2906 0 
L 2313 0 
L 2313 1138 
L 53 1138 
L 53 1616 
Q 656 2294 1265 3178 
Q 1875 4063 2272 4841 
L 2906 4841 
z
M 741 1644 
L 2313 1644 
L 2313 3950 
Q 1988 3366 1616 2817 
Q 1244 2269 741 1644 
z
" transform="scale(0.015625)"/>
       </defs>
       <use xlink:href="#MicrosoftYaHei-30"/>
       <use xlink:href="#MicrosoftYaHei-2e" transform="translate(58.642578 0)"/>
       <use xlink:href="#MicrosoftYaHei-34" transform="translate(82.714844 0)"/>
      </g>
     </g>
    </g>
    <g id="xtick_4">
     <g id="line2d_4">
      <path d="M 311.652859 424.512 
L 311.652859 103.104 
" clip-path="url(#p5a15204fc4)" style="fill: none; stroke: #e6e8f0; stroke-width: 0.75; stroke-linecap: round"/>
     </g>
     <g id="text_4">
      <!-- 0.6 -->
      <g style="fill: #6f768a" transform="translate(305.291687 441.206375) scale(0.09 -0.09)">
       <defs>
        <path id="MicrosoftYaHei-36" d="M 3181 4219 
Q 2803 4413 2391 4413 
Q 1763 4413 1381 3866 
Q 1000 3319 994 2372 
L 1009 2372 
Q 1353 3038 2106 3038 
Q 2734 3038 3109 2628 
Q 3484 2219 3484 1541 
Q 3484 831 3051 375 
Q 2619 -81 1947 -81 
Q 1209 -81 789 495 
Q 369 1072 369 2131 
Q 369 3413 920 4167 
Q 1472 4922 2372 4922 
Q 2888 4922 3181 4781 
L 3181 4219 
z
M 1031 1584 
Q 1031 1106 1286 765 
Q 1541 425 1963 425 
Q 2363 425 2613 719 
Q 2863 1013 2863 1475 
Q 2863 1975 2627 2253 
Q 2391 2531 1956 2531 
Q 1544 2531 1287 2250 
Q 1031 1969 1031 1584 
z
" transform="scale(0.015625)"/>
       </defs>
       <use xlink:href="#MicrosoftYaHei-30"/>
       <use xlink:href="#MicrosoftYaHei-2e" transform="translate(58.642578 0)"/>
       <use xlink:href="#MicrosoftYaHei-36" transform="translate(82.714844 0)"/>
      </g>
     </g>
    </g>
    <g id="xtick_5">
     <g id="line2d_5">
      <path d="M 387.969697 424.512 
L 387.969697 103.104 
" clip-path="url(#p5a15204fc4)" style="fill: none; stroke: #e6e8f0; stroke-width: 0.75; stroke-linecap: round"/>
     </g>
     <g id="text_5">
      <!-- 0.8 -->
      <g style="fill: #6f768a" transform="translate(381.608525 441.206375) scale(0.09 -0.09)">
       <defs>
        <path id="MicrosoftYaHei-38" d="M 306 1350 
Q 306 1769 556 2122 
Q 806 2475 1200 2625 
Q 884 2803 700 3081 
Q 516 3359 516 3684 
Q 516 4028 692 4312 
Q 869 4597 1183 4759 
Q 1497 4922 1875 4922 
Q 2256 4922 2572 4761 
Q 2888 4600 3063 4315 
Q 3238 4031 3238 3684 
Q 3238 3366 3058 3086 
Q 2878 2806 2559 2625 
Q 2953 2472 3200 2119 
Q 3447 1766 3447 1350 
Q 3447 938 3250 611 
Q 3053 284 2690 103 
Q 2328 -78 1875 -78 
Q 1425 -78 1065 103 
Q 706 284 506 612 
Q 306 941 306 1350 
z
M 906 1378 
Q 906 947 1172 687 
Q 1438 428 1878 428 
Q 2309 428 2582 692 
Q 2856 956 2856 1378 
Q 2856 1778 2579 2051 
Q 2303 2325 1878 2325 
Q 1456 2325 1181 2058 
Q 906 1791 906 1378 
z
M 1081 3634 
Q 1081 3309 1312 3076 
Q 1544 2844 1878 2844 
Q 2206 2844 2445 3078 
Q 2684 3313 2684 3634 
Q 2684 3963 2454 4191 
Q 2225 4419 1878 4419 
Q 1534 4419 1307 4195 
Q 1081 3972 1081 3634 
z
" transform="scale(0.015625)"/>
       </defs>
       <use xlink:href="#MicrosoftYaHei-30"/>
       <use xlink:href="#MicrosoftYaHei-2e" transform="translate(58.642578 0)"/>
       <use xlink:href="#MicrosoftYaHei-38" transform="translate(82.714844 0)"/>
      </g>
     </g>
    </g>
    <g id="text_6">
     <!-- Sharpe -->
     <g style="fill: #1f2430" transform="translate(249.839767 457.036219) scale(0.12 -0.12)">
      <defs>
       <path id="MicrosoftYaHei-53" d="M 400 909 
Q 622 716 994 591 
Q 1366 466 1700 466 
Q 2719 466 2719 1191 
Q 2719 1394 2609 1556 
Q 2500 1719 2309 1844 
Q 2119 1969 1594 2228 
Q 866 2591 634 2902 
Q 403 3213 403 3613 
Q 403 4216 887 4569 
Q 1372 4922 2109 4922 
Q 2831 4922 3169 4747 
L 3169 4066 
Q 2731 4369 2063 4369 
Q 1619 4369 1339 4183 
Q 1059 3997 1059 3666 
Q 1059 3372 1253 3187 
Q 1447 3003 2094 2684 
Q 2806 2344 3090 2003 
Q 3375 1663 3375 1238 
Q 3375 600 2912 259 
Q 2450 -81 1628 -81 
Q 1341 -81 958 -1 
Q 575 78 400 197 
L 400 909 
z
" transform="scale(0.015625)"/>
       <path id="MicrosoftYaHei-68" d="M 3466 0 
L 2856 0 
L 2856 1988 
Q 2856 3031 2081 3031 
Q 1684 3031 1421 2726 
Q 1159 2422 1159 1959 
L 1159 0 
L 547 0 
L 547 5116 
L 1159 5116 
L 1159 2888 
L 1172 2888 
Q 1569 3538 2300 3538 
Q 3466 3538 3466 2128 
L 3466 0 
z
" transform="scale(0.015625)"/>
       <path id="MicrosoftYaHei-61" d="M 628 3216 
Q 1144 3538 1819 3538 
Q 3069 3538 3069 2225 
L 3069 0 
L 2463 0 
L 2463 534 
L 2447 534 
Q 2088 -81 1388 -81 
Q 884 -81 587 191 
Q 291 463 291 925 
Q 291 1894 1438 2053 
L 2463 2197 
Q 2463 3044 1763 3044 
Q 1141 3044 628 2625 
L 628 3216 
z
M 1653 1625 
Q 1228 1569 1067 1412 
Q 906 1256 906 975 
Q 906 728 1081 572 
Q 1256 416 1544 416 
Q 1944 416 2203 697 
Q 2463 978 2463 1403 
L 2463 1734 
L 1653 1625 
z
" transform="scale(0.015625)"/>
       <path id="MicrosoftYaHei-72" d="M 2400 2850 
Q 2247 2959 1978 2959 
Q 1622 2959 1390 2626 
Q 1159 2294 1159 1750 
L 1159 0 
L 547 0 
L 547 3456 
L 1159 3456 
L 1159 2753 
L 1172 2753 
Q 1434 3516 2078 3516 
Q 2288 3516 2400 3469 
L 2400 2850 
z
" transform="scale(0.015625)"/>
       <path id="MicrosoftYaHei-70" d="M 1159 488 
L 1159 -1591 
L 547 -1591 
L 547 3456 
L 1159 3456 
L 1159 2859 
L 1172 2859 
Q 1578 3538 2359 3538 
Q 3022 3538 3398 3073 
Q 3775 2609 3775 1828 
Q 3775 966 3348 442 
Q 2922 -81 2200 -81 
Q 1534 -81 1172 488 
L 1159 488 
z
M 1156 1425 
Q 1156 1003 1428 714 
Q 1700 425 2109 425 
Q 2597 425 2872 800 
Q 3147 1175 3147 1838 
Q 3147 2397 2890 2714 
Q 2634 3031 2191 3031 
Q 1738 3031 1447 2709 
Q 1156 2388 1156 1884 
L 1156 1425 
z
" transform="scale(0.015625)"/>
       <path id="MicrosoftYaHei-65" d="M 3363 1572 
L 944 1572 
Q 959 1019 1246 717 
Q 1534 416 2050 416 
Q 2631 416 3116 788 
L 3116 241 
Q 2659 -81 1906 -81 
Q 1156 -81 736 394 
Q 316 869 316 1713 
Q 316 2506 777 3022 
Q 1238 3538 1922 3538 
Q 2600 3538 2981 3102 
Q 3363 2666 3363 1881 
L 3363 1572 
z
M 2750 2063 
Q 2747 2531 2528 2787 
Q 2309 3044 1913 3044 
Q 1547 3044 1280 2772 
Q 1013 2500 944 2063 
L 2750 2063 
z
" transform="scale(0.015625)"/>
      </defs>
      <use xlink:href="#MicrosoftYaHei-53"/>
      <use xlink:href="#MicrosoftYaHei-68" transform="translate(57.714844 0)"/>
      <use xlink:href="#MicrosoftYaHei-61" transform="translate(119.287109 0)"/>
      <use xlink:href="#MicrosoftYaHei-72" transform="translate(174.560547 0)"/>
      <use xlink:href="#MicrosoftYaHei-70" transform="translate(212.744141 0)"/>
      <use xlink:href="#MicrosoftYaHei-65" transform="translate(276.611328 0)"/>
     </g>
    </g>
   </g>
   <g id="matplotlib.axis_2">
    <g id="ytick_1">
     <g id="text_7">
      <!-- 仅因子排序 -->
      <g style="fill: #6f768a" transform="translate(28.202344 152.067388) scale(0.09 -0.09)">
       <defs>
        <path id="MicrosoftYaHei-4ec5" d="M 2131 4416 
L 2131 4853 
L 5906 4853 
L 5906 4428 
Q 5628 2366 4441 953 
Q 5203 175 6338 -284 
Q 6094 -578 5944 -784 
Q 4834 -244 4075 553 
Q 3256 -263 2088 -828 
Q 1969 -659 1713 -366 
Q 2909 184 3716 972 
Q 2634 2359 2459 4416 
L 2131 4416 
z
M 5344 4416 
L 2941 4416 
Q 3138 2572 4081 1363 
Q 5147 2625 5344 4416 
z
M 56 2384 
Q 1044 3716 1531 5328 
L 2038 5159 
Q 1741 4331 1388 3619 
L 1388 -803 
L 900 -803 
L 900 2741 
Q 594 2250 256 1828 
Q 163 2097 56 2384 
z
" transform="scale(0.015625)"/>
        <path id="MicrosoftYaHei-56e0" d="M 525 4934 
L 5869 4934 
L 5869 -834 
L 5369 -834 
L 5369 -434 
L 1025 -434 
L 1025 -834 
L 525 -834 
L 525 4934 
z
M 5369 4466 
L 1025 4466 
L 1025 22 
L 5369 22 
L 5369 4466 
z
M 1400 3209 
L 2944 3209 
L 2944 4259 
L 3419 4259 
L 3419 3209 
L 5000 3209 
L 5000 2772 
L 3400 2772 
Q 3388 2522 3331 2291 
Q 4206 1591 5131 778 
L 4750 384 
Q 4031 1116 3194 1853 
Q 2788 866 1550 266 
Q 1381 497 1219 684 
Q 2844 1416 2925 2772 
L 1400 2772 
L 1400 3209 
z
" transform="scale(0.015625)"/>
        <path id="MicrosoftYaHei-5b50" d="M 125 2497 
L 3031 2497 
L 3031 3184 
L 4825 4491 
L 781 4491 
L 781 4959 
L 5656 4959 
L 5656 4472 
L 3563 2941 
L 3563 2497 
L 6300 2497 
L 6300 2028 
L 3563 2028 
L 3563 59 
Q 3563 -778 2688 -778 
Q 2400 -778 1700 -766 
Q 1675 -516 1625 -197 
Q 2081 -253 2588 -259 
Q 3031 -259 3031 191 
L 3031 2028 
L 125 2028 
L 125 2497 
z
" transform="scale(0.015625)"/>
        <path id="MicrosoftYaHei-6392" d="M 4375 5309 
L 4863 5309 
L 4863 4159 
L 6188 4159 
L 6188 3684 
L 4863 3684 
L 4863 2609 
L 6038 2609 
L 6038 2134 
L 4863 2134 
L 4863 1047 
L 6294 1047 
L 6294 572 
L 4863 572 
L 4863 -841 
L 4375 -841 
L 4375 5309 
z
M 1844 1047 
L 3138 1047 
L 3138 2134 
L 2150 2134 
L 2150 2609 
L 3138 2609 
L 3138 3684 
L 2163 3684 
L 2163 4159 
L 3138 4159 
L 3138 5309 
L 3625 5309 
L 3625 -841 
L 3138 -841 
L 3138 572 
L 1844 572 
L 1844 1047 
z
M 131 4166 
L 875 4166 
L 875 5316 
L 1350 5316 
L 1350 4166 
L 1969 4166 
L 1969 3728 
L 1350 3728 
L 1350 2563 
Q 1650 2716 1938 2872 
Q 1956 2603 1988 2372 
Q 1681 2216 1350 2044 
L 1350 -134 
Q 1350 -772 669 -778 
Q 481 -784 156 -778 
Q 131 -528 75 -259 
Q 419 -284 613 -284 
Q 875 -284 875 3 
L 875 1797 
Q 525 1616 150 1416 
L 88 1966 
Q 491 2144 875 2328 
L 875 3728 
L 131 3728 
L 131 4166 
z
" transform="scale(0.015625)"/>
        <path id="MicrosoftYaHei-5e8f" d="M 1438 1966 
L 3634 1966 
Q 3053 2394 2525 2722 
L 2825 3041 
Q 3294 2756 3719 2478 
L 4850 3147 
L 1806 3147 
L 1806 3597 
L 5756 3597 
L 5756 3141 
L 4141 2191 
Q 4219 2138 4294 2084 
L 4128 1966 
L 6181 1966 
L 6181 1503 
L 5638 384 
Q 5450 484 5175 609 
L 5619 1509 
L 4119 1509 
L 4119 22 
Q 4119 -734 3400 -734 
Q 3019 -734 2463 -722 
Q 2438 -509 2388 -184 
Q 2881 -253 3250 -253 
Q 3606 -253 3606 103 
L 3606 1509 
L 1438 1509 
L 1438 1966 
z
M 2981 5147 
L 3431 5391 
Q 3675 5078 3881 4747 
L 3584 4572 
L 6244 4572 
L 6244 4116 
L 1263 4116 
L 1263 2416 
Q 1263 191 406 -872 
Q 256 -666 50 -447 
Q 738 353 738 2291 
L 738 4572 
L 3369 4572 
Q 3178 4884 2981 5147 
z
" transform="scale(0.015625)"/>
       </defs>
       <use xlink:href="#MicrosoftYaHei-4ec5"/>
       <use xlink:href="#MicrosoftYaHei-56e0" transform="translate(100 0)"/>
       <use xlink:href="#MicrosoftYaHei-5b50" transform="translate(200 0)"/>
       <use xlink:href="#MicrosoftYaHei-6392" transform="translate(300 0)"/>
       <use xlink:href="#MicrosoftYaHei-5e8f" transform="translate(400 0)"/>
      </g>
     </g>
    </g>
    <g id="ytick_2">
     <g id="text_8">
      <!-- 排序 + 趋势过滤 -->
      <g style="fill: #6f768a" transform="translate(7.2 228.959254) scale(0.09 -0.09)">
       <defs>
        <path id="MicrosoftYaHei-20" transform="scale(0.015625)"/>
        <path id="MicrosoftYaHei-2b" d="M 3972 1772 
L 2613 1772 
L 2613 419 
L 2141 419 
L 2141 1772 
L 788 1772 
L 788 2250 
L 2141 2250 
L 2141 3603 
L 2613 3603 
L 2613 2250 
L 3972 2250 
L 3972 1772 
z
" transform="scale(0.015625)"/>
        <path id="MicrosoftYaHei-8d8b" d="M 81 -372 
Q 575 491 619 2241 
L 1081 2216 
Q 1063 1606 991 1084 
Q 1203 625 1556 334 
L 1556 2622 
L 144 2622 
L 144 3072 
L 1319 3072 
L 1319 3972 
L 300 3972 
L 300 4422 
L 1319 4422 
L 1319 5309 
L 1788 5309 
L 1788 4422 
L 2706 4422 
L 2706 3972 
L 1788 3972 
L 1788 3072 
L 2863 3072 
L 2863 2622 
L 2019 2622 
L 2019 1647 
L 2881 1647 
L 2881 1197 
L 2019 1197 
L 2019 50 
Q 2494 -156 3131 -166 
Q 4519 -184 6313 -141 
Q 6219 -353 6138 -634 
Q 4338 -647 2938 -616 
Q 1428 -578 884 475 
Q 713 -313 394 -853 
Q 263 -591 81 -372 
z
M 2931 928 
L 5350 928 
L 5350 1791 
L 3144 1791 
L 3144 2216 
L 5350 2216 
L 5350 3059 
L 3088 3059 
L 3088 3481 
Q 3006 3375 2925 3278 
Q 2800 3434 2606 3622 
Q 3231 4347 3663 5353 
L 4119 5197 
Q 4013 4981 3906 4778 
L 5525 4778 
L 5525 4347 
L 5025 3484 
L 5819 3484 
L 5819 278 
L 5350 278 
L 5350 503 
L 2931 503 
L 2931 928 
z
M 3088 3484 
L 4500 3484 
L 4994 4353 
L 3669 4353 
Q 3388 3875 3088 3484 
z
" transform="scale(0.015625)"/>
        <path id="MicrosoftYaHei-52bf" d="M 531 1472 
L 2522 1472 
Q 2544 1653 2544 1859 
L 3031 1859 
Q 3025 1656 3006 1472 
L 5550 1472 
Q 5506 709 5450 128 
Q 5375 -666 4475 -672 
Q 4019 -678 3269 -659 
Q 3231 -397 3163 -116 
Q 3906 -178 4463 -178 
Q 4925 -178 4969 222 
Q 5006 516 5038 1047 
L 2934 1047 
Q 2784 388 2400 28 
Q 1806 -541 469 -853 
Q 344 -647 169 -391 
Q 1519 -116 2031 372 
Q 2313 622 2438 1047 
L 531 1047 
L 531 1472 
z
M 2663 3347 
L 2881 3697 
Q 3144 3566 3388 3441 
Q 3472 3706 3500 4097 
L 2819 4097 
L 2819 4522 
L 3513 4522 
L 3513 5347 
L 3963 5347 
L 3963 4522 
L 5288 4522 
Q 5288 3303 5350 2853 
Q 5419 2347 5625 2347 
Q 5744 2347 5800 2641 
Q 5850 2928 5869 3322 
Q 6088 3228 6306 3153 
Q 6275 2772 6225 2509 
Q 6100 1816 5613 1816 
Q 5056 1816 4919 2584 
Q 4838 3066 4838 4097 
L 3950 4097 
Q 3922 3575 3806 3216 
Q 4247 2969 4606 2741 
L 4338 2322 
Q 4000 2559 3613 2797 
Q 3291 2284 2344 1772 
Q 2206 1978 2019 2172 
Q 2891 2600 3194 3047 
Q 2938 3197 2663 3347 
z
M 250 3184 
Q 616 3244 1313 3378 
L 1313 4041 
L 313 4041 
L 313 4466 
L 1313 4466 
L 1313 5353 
L 1763 5353 
L 1763 4466 
L 2513 4466 
L 2513 4041 
L 1763 4041 
L 1763 3469 
Q 2109 3538 2525 3622 
Q 2538 3284 2544 3178 
Q 2147 3100 1763 3022 
L 1763 2384 
Q 1763 1766 1163 1759 
Q 894 1753 500 1766 
Q 475 2016 425 2222 
Q 831 2191 1075 2191 
Q 1313 2191 1313 2441 
L 1313 2925 
Q 828 2819 363 2709 
L 250 3184 
z
" transform="scale(0.015625)"/>
        <path id="MicrosoftYaHei-8fc7" d="M 1963 4109 
L 4644 4109 
L 4644 5303 
L 5150 5303 
L 5150 4109 
L 6225 4109 
L 6225 3653 
L 5150 3653 
L 5150 1059 
Q 5150 253 4375 253 
Q 3969 253 3425 259 
Q 3394 503 3331 822 
Q 3831 772 4263 772 
Q 4650 772 4644 1209 
L 4644 3653 
L 1963 3653 
L 1963 4109 
z
M 2731 -147 
L 4413 -178 
L 6313 -116 
Q 6206 -366 6113 -609 
L 4281 -634 
L 2681 -597 
Q 1606 -584 1100 116 
Q 925 -22 375 -672 
L 113 -147 
Q 597 297 881 538 
L 881 2684 
L 156 2684 
L 156 3134 
L 1363 3134 
L 1363 425 
Q 1822 -131 2731 -147 
z
M 2213 2909 
L 2594 3191 
Q 3275 2322 3638 1822 
L 3206 1503 
Q 2694 2284 2213 2909 
z
M 756 5278 
Q 1169 4803 1656 4116 
Q 1406 3966 1213 3816 
Q 781 4484 381 5009 
L 756 5278 
z
" transform="scale(0.015625)"/>
        <path id="MicrosoftYaHei-6ee4" d="M 5738 3653 
L 2350 3653 
L 2350 2109 
Q 2350 178 1381 -822 
Q 1225 -603 1056 -422 
Q 1875 459 1875 2109 
L 1875 4041 
L 3563 4041 
L 3563 5284 
L 4013 5284 
L 4013 4841 
L 5981 4841 
L 5981 4466 
L 4013 4466 
L 4013 4041 
L 6213 4041 
L 6213 3628 
Q 6031 3284 5869 2972 
Q 5663 3059 5419 3122 
Q 5606 3397 5738 3653 
z
M 2613 2878 
L 3550 2953 
L 3550 3503 
L 3988 3503 
L 3988 2988 
L 5206 3084 
L 5250 2722 
L 3988 2619 
L 3988 2447 
Q 3988 2128 4306 2128 
L 5050 2128 
Q 5344 2128 5388 2353 
Q 5431 2559 5450 2903 
Q 5681 2791 5888 2734 
Q 5844 2391 5794 2172 
Q 5706 1734 5138 1734 
L 4188 1734 
Q 3550 1734 3550 2372 
L 3550 2581 
L 2656 2509 
L 2613 2878 
z
M 3375 1203 
L 3825 1203 
L 3825 116 
Q 3825 -247 4200 -247 
L 4594 -247 
Q 4881 -247 4919 59 
Q 4950 297 4963 634 
Q 5200 522 5438 453 
Q 5406 103 5369 -116 
Q 5294 -684 4650 -684 
L 4081 -684 
Q 3375 -684 3375 22 
L 3375 1203 
z
M 244 -616 
Q 594 497 850 1809 
Q 1113 1691 1331 1616 
Q 1081 553 763 -784 
L 244 -616 
z
M 2656 1078 
L 3131 966 
Q 2950 166 2663 -447 
Q 2500 -378 2206 -278 
Q 2513 334 2656 1078 
z
M 325 4878 
L 650 5209 
Q 1063 4897 1725 4328 
L 1350 3959 
Q 706 4566 325 4878 
z
M 81 3247 
L 400 3603 
Q 931 3241 1469 2797 
L 1113 2397 
Q 544 2903 81 3247 
z
M 5419 1059 
L 5850 1203 
Q 6081 597 6313 -91 
L 5844 -259 
Q 5669 384 5419 1059 
z
M 3856 1441 
L 4181 1684 
Q 4538 1322 4856 959 
L 4488 678 
Q 4156 1103 3856 1441 
z
" transform="scale(0.015625)"/>
       </defs>
       <use xlink:href="#MicrosoftYaHei-6392"/>
       <use xlink:href="#MicrosoftYaHei-5e8f" transform="translate(100 0)"/>
       <use xlink:href="#MicrosoftYaHei-20" transform="translate(200 0)"/>
       <use xlink:href="#MicrosoftYaHei-2b" transform="translate(229.589844 0)"/>
       <use xlink:href="#MicrosoftYaHei-20" transform="translate(303.759766 0)"/>
       <use xlink:href="#MicrosoftYaHei-8d8b" transform="translate(333.349609 0)"/>
       <use xlink:href="#MicrosoftYaHei-52bf" transform="translate(433.349609 0)"/>
       <use xlink:href="#MicrosoftYaHei-8fc7" transform="translate(533.349609 0)"/>
       <use xlink:href="#MicrosoftYaHei-6ee4" transform="translate(633.349609 0)"/>
      </g>
     </g>
    </g>
    <g id="ytick_3">
     <g id="text_9">
      <!-- 排序 + 反波动率 -->
      <g style="fill: #6f768a" transform="translate(7.2 305.851121) scale(0.09 -0.09)">
       <defs>
        <path id="MicrosoftYaHei-53cd" d="M 881 4884 
Q 3369 4903 5738 5191 
L 5919 4691 
Q 3750 4503 1369 4434 
L 1369 3372 
L 5638 3372 
L 5638 2909 
Q 5125 1525 4100 591 
Q 5019 -25 6331 -247 
Q 6106 -534 5938 -803 
Q 4616 -422 3697 253 
Q 2738 -475 1406 -878 
Q 1263 -659 1063 -397 
Q 2366 -44 3278 597 
Q 2256 1525 1859 2909 
L 1369 2909 
L 1369 2553 
Q 1369 334 413 -853 
Q 250 -653 63 -453 
Q 881 559 881 2553 
L 881 4884 
z
M 5050 2909 
L 2366 2909 
Q 2794 1678 3681 909 
Q 4622 1722 5050 2909 
z
" transform="scale(0.015625)"/>
        <path id="MicrosoftYaHei-6ce2" d="M 2094 4453 
L 3919 4453 
L 3919 5316 
L 4406 5316 
L 4406 4453 
L 6169 4453 
L 6106 3253 
Q 5900 3278 5638 3284 
L 5688 4016 
L 4406 4016 
L 4406 2853 
L 5788 2853 
L 5788 2434 
Q 5463 1309 4653 481 
Q 5334 -50 6356 -347 
Q 6063 -641 5931 -816 
Q 4944 -444 4272 134 
Q 3550 -466 2525 -884 
Q 2406 -691 2181 -459 
Q 3213 -75 3919 478 
Q 3184 1281 2950 2416 
L 2581 2416 
Q 2588 316 1513 -847 
Q 1344 -622 1175 -447 
Q 2094 541 2094 2353 
L 2094 4453 
z
M 5269 2416 
L 3416 2416 
Q 3647 1469 4288 806 
Q 4988 1497 5269 2416 
z
M 2581 2853 
L 3919 2853 
L 3919 4016 
L 2581 4016 
L 2581 2853 
z
M 256 -609 
Q 619 466 900 1809 
Q 1175 1691 1406 1616 
Q 1019 97 806 -778 
L 256 -609 
z
M 325 4878 
L 650 5209 
Q 1063 4897 1725 4328 
Q 1513 4122 1350 3959 
Q 706 4566 325 4878 
z
M 81 3247 
L 400 3603 
Q 938 3234 1475 2803 
Q 1269 2584 1113 2397 
Q 500 2941 81 3247 
z
" transform="scale(0.015625)"/>
        <path id="MicrosoftYaHei-52a8" d="M 2975 4022 
L 3906 4022 
Q 3916 4650 3913 5309 
L 4425 5309 
Q 4422 4656 4409 4022 
L 6094 4022 
Q 6050 1659 5969 216 
Q 5900 -666 5150 -678 
Q 4763 -678 4306 -659 
Q 4263 -397 4206 -109 
Q 4638 -166 4994 -172 
Q 5456 -172 5475 347 
Q 5569 1897 5588 3547 
L 4400 3547 
Q 4394 3278 4388 3016 
Q 4356 553 2900 -872 
Q 2725 -659 2525 -447 
Q 3831 716 3888 3028 
Q 3894 3284 3900 3547 
L 2975 3547 
L 2975 4022 
z
M 2338 1866 
Q 2731 1016 3063 178 
Q 2788 59 2594 -28 
Q 2550 91 2506 209 
Q 1316 97 338 -16 
L 119 491 
Q 394 647 563 997 
Q 869 1613 1200 2559 
L 144 2559 
L 144 3022 
L 3163 3022 
L 3163 2559 
L 1725 2559 
Q 1191 1228 800 491 
Q 1519 544 2347 631 
Q 2138 1163 1906 1672 
L 2338 1866 
z
M 406 4778 
L 2913 4778 
L 2913 4316 
L 406 4316 
L 406 4778 
z
" transform="scale(0.015625)"/>
        <path id="MicrosoftYaHei-7387" d="M 2525 2009 
Q 2622 2016 3928 2081 
Q 3772 2300 3625 2491 
L 3963 2703 
Q 4413 2203 4794 1653 
L 4394 1403 
Q 4284 1569 4178 1725 
Q 2991 1659 2213 1597 
Q 2075 1584 1881 1541 
L 1725 1966 
Q 1913 2028 2006 2084 
Q 2534 2441 3050 2913 
Q 2597 2894 2275 2866 
Q 2144 2847 1988 2809 
L 1800 3191 
Q 1956 3247 2088 3366 
Q 2509 3722 2875 4228 
L 231 4228 
L 231 4666 
L 3031 4666 
Q 2878 4944 2744 5153 
L 3194 5372 
Q 3438 5000 3616 4666 
L 6175 4666 
L 6175 4228 
L 3053 4228 
L 3350 4072 
Q 2844 3553 2494 3247 
Q 2850 3256 3425 3269 
Q 3675 3519 3925 3797 
L 4356 3547 
Q 3363 2603 2525 2009 
z
M 144 991 
L 2994 991 
L 2994 1541 
L 3488 1541 
L 3488 991 
L 6275 991 
L 6275 553 
L 3488 553 
L 3488 -853 
L 2994 -853 
L 2994 553 
L 144 553 
L 144 991 
z
M 1719 2672 
L 1944 2303 
Q 1200 1866 425 1409 
L 163 1828 
Q 813 2134 1719 2672 
z
M 4856 2678 
Q 5750 2172 6250 1816 
L 5975 1409 
Q 5331 1909 4600 2341 
L 4856 2678 
z
M 5994 3591 
Q 5519 3178 4963 2809 
L 4644 3141 
Q 5244 3534 5638 3928 
L 5994 3591 
z
M 363 3634 
L 681 3941 
Q 1200 3528 1588 3159 
L 1238 2816 
Q 875 3197 363 3634 
z
" transform="scale(0.015625)"/>
       </defs>
       <use xlink:href="#MicrosoftYaHei-6392"/>
       <use xlink:href="#MicrosoftYaHei-5e8f" transform="translate(100 0)"/>
       <use xlink:href="#MicrosoftYaHei-20" transform="translate(200 0)"/>
       <use xlink:href="#MicrosoftYaHei-2b" transform="translate(229.589844 0)"/>
       <use xlink:href="#MicrosoftYaHei-20" transform="translate(303.759766 0)"/>
       <use xlink:href="#MicrosoftYaHei-53cd" transform="translate(333.349609 0)"/>
       <use xlink:href="#MicrosoftYaHei-6ce2" transform="translate(433.349609 0)"/>
       <use xlink:href="#MicrosoftYaHei-52a8" transform="translate(533.349609 0)"/>
       <use xlink:href="#MicrosoftYaHei-7387" transform="translate(633.349609 0)"/>
      </g>
     </g>
    </g>
    <g id="ytick_4">
     <g id="text_10">
      <!-- 完整基准策略 -->
      <g style="fill: #6f768a" transform="translate(19.202344 382.742987) scale(0.09 -0.09)">
       <defs>
        <path id="MicrosoftYaHei-5b8c" d="M 275 1959 
L 6150 1959 
L 6150 1516 
L 4131 1516 
L 4131 191 
Q 4131 -222 4538 -222 
L 5200 -222 
Q 5625 -222 5675 65 
Q 5725 353 5744 884 
Q 5969 797 6294 697 
Q 6250 184 6181 -141 
Q 6094 -678 5425 -678 
L 4406 -678 
Q 3625 -678 3625 122 
L 3625 1516 
L 2503 1516 
Q 2488 -247 438 -834 
Q 313 -628 125 -372 
Q 1975 78 2006 1516 
L 275 1516 
L 275 1959 
z
M 325 4534 
L 3000 4534 
Q 2878 4788 2688 5128 
L 3175 5353 
Q 3422 4878 3575 4534 
L 6075 4534 
L 6075 3384 
L 5563 3384 
L 5563 4091 
L 838 4091 
L 838 3384 
L 325 3384 
L 325 4534 
z
M 1050 3253 
L 5450 3253 
L 5450 2816 
L 1050 2816 
L 1050 3253 
z
" transform="scale(0.015625)"/>
        <path id="MicrosoftYaHei-6574" d="M 138 -234 
L 1263 -234 
L 1263 891 
L 1713 891 
L 1713 -234 
L 3025 -234 
L 3025 1178 
L 550 1178 
L 550 1578 
L 5800 1578 
L 5800 1178 
L 3475 1178 
L 3475 697 
L 5525 697 
L 5525 297 
L 3475 297 
L 3475 -234 
L 6256 -234 
L 6256 -634 
L 138 -634 
L 138 -234 
z
M 25 2003 
Q 825 2334 1481 2916 
L 913 2916 
L 913 2759 
L 506 2759 
L 506 4109 
L 1650 4109 
L 1650 4491 
L 250 4491 
L 250 4866 
L 1650 4866 
L 1650 5291 
L 2069 5291 
L 2069 4866 
L 3425 4866 
L 3425 4491 
L 2069 4491 
L 2069 4109 
L 3213 4109 
L 3213 2759 
L 2806 2759 
L 2806 2916 
L 2069 2916 
L 2069 2541 
L 2225 2747 
Q 2781 2484 3288 2216 
L 3075 1872 
Q 2550 2184 2069 2397 
L 2069 1722 
L 1650 1722 
L 1650 2647 
Q 1075 2078 288 1647 
Q 175 1803 25 2003 
z
M 3363 2078 
Q 4050 2341 4519 2716 
Q 4144 3134 3938 3716 
Q 3788 3447 3631 3197 
L 3256 3459 
Q 3850 4253 4163 5322 
L 4600 5191 
Q 4481 4872 4356 4572 
L 6263 4572 
L 6263 4172 
L 5850 4172 
Q 5644 3316 5181 2741 
Q 5638 2428 6325 2247 
Q 6169 2047 6013 1778 
Q 5319 2034 4844 2403 
Q 4363 1984 3650 1678 
Q 3525 1859 3363 2078 
z
M 5400 4172 
L 4219 4172 
Q 4394 3484 4838 3022 
Q 5244 3503 5400 4172 
z
M 2806 3266 
L 2806 3759 
L 2069 3759 
L 2069 3266 
L 2806 3266 
z
M 913 3266 
L 1650 3266 
L 1650 3759 
L 913 3759 
L 913 3266 
z
" transform="scale(0.015625)"/>
        <path id="MicrosoftYaHei-57fa" d="M 6319 697 
Q 6113 441 5981 247 
Q 5406 519 4925 897 
L 4925 553 
L 3431 553 
L 3431 -97 
L 5875 -97 
L 5875 -503 
L 519 -503 
L 519 -97 
L 2963 -97 
L 2963 553 
L 1450 553 
L 1450 894 
Q 953 478 413 172 
Q 294 341 88 566 
Q 1050 1034 1753 1753 
L 156 1753 
L 156 2159 
L 1400 2159 
L 1400 4253 
L 350 4253 
L 350 4659 
L 1400 4659 
L 1400 5334 
L 1869 5334 
L 1869 4659 
L 4550 4659 
L 4550 5334 
L 5019 5334 
L 5019 4659 
L 6069 4659 
L 6069 4253 
L 5019 4253 
L 5019 2159 
L 6244 2159 
L 6244 1753 
L 4600 1753 
Q 5303 1053 6319 697 
z
M 2963 1553 
L 3431 1553 
L 3431 947 
L 4863 947 
Q 4416 1306 4047 1753 
L 2325 1753 
Q 1934 1309 1513 947 
L 2963 947 
L 2963 1553 
z
M 1869 2159 
L 4550 2159 
L 4550 2603 
L 1869 2603 
L 1869 2159 
z
M 1869 2991 
L 4550 2991 
L 4550 3428 
L 1869 3428 
L 1869 2991 
z
M 1869 3816 
L 4550 3816 
L 4550 4253 
L 1869 4253 
L 1869 3816 
z
" transform="scale(0.015625)"/>
        <path id="MicrosoftYaHei-51c6" d="M 1413 2766 
Q 2313 3866 2869 5334 
L 3331 5172 
Q 3128 4694 2906 4253 
L 6194 4253 
L 6194 3822 
L 4675 3822 
L 4675 2891 
L 6025 2891 
L 6025 2459 
L 4675 2459 
L 4675 1528 
L 6038 1528 
L 6038 1097 
L 4675 1097 
L 4675 78 
L 6275 78 
L 6275 -341 
L 2769 -341 
L 2769 -841 
L 2281 -841 
L 2281 3131 
Q 2034 2738 1769 2384 
Q 1631 2578 1413 2766 
z
M 2769 78 
L 4188 78 
L 4188 1097 
L 2769 1097 
L 2769 78 
z
M 1081 2422 
Q 1325 2291 1556 2209 
Q 1113 916 681 -372 
L 169 -141 
Q 650 1003 1081 2422 
z
M 2769 1528 
L 4188 1528 
L 4188 2459 
L 2769 2459 
L 2769 1528 
z
M 2769 2891 
L 4188 2891 
L 4188 3822 
L 2769 3822 
L 2769 2891 
z
M 531 4991 
Q 1050 4384 1581 3709 
Q 1538 3678 1150 3341 
Q 681 3997 138 4672 
L 531 4991 
z
M 3919 5116 
L 4325 5372 
Q 4569 5072 4881 4622 
L 4450 4334 
Q 4156 4784 3919 5116 
z
" transform="scale(0.015625)"/>
        <path id="MicrosoftYaHei-7b56" d="M 6306 -128 
Q 6094 -397 5969 -591 
Q 4284 122 3438 1069 
L 3438 -841 
L 2975 -841 
L 2975 1053 
Q 1894 6 413 -666 
Q 250 -447 88 -272 
Q 1709 366 2975 1622 
L 2975 2034 
L 1269 2034 
L 1269 828 
L 813 828 
L 813 2422 
L 2975 2422 
L 2975 2928 
L 263 2928 
L 263 3322 
L 2975 3322 
L 2975 3703 
L 3438 3703 
L 3438 3322 
L 6156 3322 
L 6156 2928 
L 3438 2928 
L 3438 2422 
L 5706 2422 
L 5706 1403 
Q 5706 784 5069 784 
Q 4813 784 4513 803 
Q 4488 1047 4438 1272 
Q 4763 1222 4950 1222 
Q 5250 1222 5250 1516 
L 5250 2034 
L 3438 2034 
L 3438 1625 
Q 4619 372 6306 -128 
z
M 1294 5347 
L 1831 5347 
Q 1688 5041 1513 4759 
L 3325 4759 
L 3325 4372 
L 1244 4372 
Q 875 3878 388 3459 
Q 263 3609 75 3797 
Q 856 4428 1294 5347 
z
M 4006 5347 
L 4513 5347 
Q 4375 5031 4231 4759 
L 6225 4759 
L 6225 4372 
L 4013 4372 
Q 3778 3981 3525 3697 
Q 3388 3797 3088 3934 
Q 3663 4553 4006 5347 
z
M 4781 3416 
Q 4644 3628 4263 4072 
L 4588 4303 
Q 4919 3991 5150 3697 
L 4781 3416 
z
M 1988 3416 
Q 1750 3728 1469 4053 
L 1794 4284 
Q 2094 3997 2356 3697 
L 1988 3416 
z
" transform="scale(0.015625)"/>
        <path id="MicrosoftYaHei-7565" d="M 413 4716 
L 2600 4716 
L 2600 -222 
L 2188 -222 
L 2188 97 
L 825 97 
L 825 -347 
L 413 -347 
L 413 4716 
z
M 2638 3378 
Q 3269 4222 3719 5341 
L 4169 5197 
Q 4044 4913 3919 4653 
L 5888 4653 
L 5888 4234 
Q 5453 3375 4819 2756 
Q 5434 2328 6331 2109 
Q 6194 1853 6094 1591 
Q 5122 1919 4466 2450 
Q 3797 1925 2906 1516 
Q 2756 1772 2619 1947 
Q 3463 2269 4125 2763 
Q 3747 3159 3428 3734 
Q 3200 3353 2969 3047 
Q 2781 3266 2638 3378 
z
M 3200 1584 
L 5756 1584 
L 5756 -847 
L 5294 -847 
L 5294 -547 
L 3663 -547 
L 3663 -847 
L 3200 -847 
L 3200 1584 
z
M 5294 1147 
L 3663 1147 
L 3663 -109 
L 5294 -109 
L 5294 1147 
z
M 5363 4228 
L 3703 4228 
L 3666 4159 
Q 4013 3475 4466 3041 
Q 4963 3500 5363 4228 
z
M 825 516 
L 1300 516 
L 1300 2209 
L 825 2209 
L 825 516 
z
M 1713 516 
L 2188 516 
L 2188 2209 
L 1713 2209 
L 1713 516 
z
M 2188 4297 
L 1713 4297 
L 1713 2628 
L 2188 2628 
L 2188 4297 
z
M 825 2628 
L 1300 2628 
L 1300 4297 
L 825 4297 
L 825 2628 
z
" transform="scale(0.015625)"/>
       </defs>
       <use xlink:href="#MicrosoftYaHei-5b8c"/>
       <use xlink:href="#MicrosoftYaHei-6574" transform="translate(100 0)"/>
       <use xlink:href="#MicrosoftYaHei-57fa" transform="translate(200 0)"/>
       <use xlink:href="#MicrosoftYaHei-51c6" transform="translate(300 0)"/>
       <use xlink:href="#MicrosoftYaHei-7b56" transform="translate(400 0)"/>
       <use xlink:href="#MicrosoftYaHei-7565" transform="translate(500 0)"/>
      </g>
     </g>
    </g>
   </g>
   <g id="patch_3">
    <path d="M 82.702344 117.713455 
L 208.139137 117.713455 
L 208.139137 179.226947 
L 82.702344 179.226947 
z
" clip-path="url(#p5a15204fc4)" style="fill: #c5cad3; stroke: #464c55; stroke-width: 0.6; stroke-linejoin: miter"/>
   </g>
   <g id="patch_4">
    <path d="M 82.702344 194.605321 
L 438.297209 194.605321 
L 438.297209 256.118813 
L 82.702344 256.118813 
z
" clip-path="url(#p5a15204fc4)" style="fill: #5477c4; stroke: #464c55; stroke-width: 0.6; stroke-linejoin: miter"/>
   </g>
   <g id="patch_5">
    <path d="M 82.702344 271.497187 
L 187.749205 271.497187 
L 187.749205 333.010679 
L 82.702344 333.010679 
z
" clip-path="url(#p5a15204fc4)" style="fill: #f0986e; stroke: #464c55; stroke-width: 0.6; stroke-linejoin: miter"/>
   </g>
   <g id="patch_6">
    <path d="M 82.702344 348.389053 
L 439.15934 348.389053 
L 439.15934 409.902545 
L 82.702344 409.902545 
z
" clip-path="url(#p5a15204fc4)" style="fill: #b8a037; stroke: #464c55; stroke-width: 0.6; stroke-linejoin: miter"/>
   </g>
   <g id="patch_7">
    <path d="M 82.702344 424.512 
L 82.702344 103.104 
" style="fill: none; stroke: #d7dbe7; stroke-linejoin: miter; stroke-linecap: square"/>
   </g>
   <g id="patch_8">
    <path d="M 82.702344 424.512 
L 456.98219 424.512 
" style="fill: none; stroke: #d7dbe7; stroke-linejoin: miter; stroke-linecap: square"/>
   </g>
   <g id="text_11">
    <!-- 0.33 -->
    <g style="fill: #1f2430" transform="translate(217.678742 151.086412) scale(0.095 -0.095)">
     <defs>
      <path id="MicrosoftYaHei-Bold-30" d="M 244 2341 
Q 244 3597 706 4259 
Q 1169 4922 2044 4922 
Q 3713 4922 3713 2453 
Q 3713 1238 3259 577 
Q 2806 -84 1950 -84 
Q 244 -84 244 2341 
z
M 1266 2366 
Q 1266 691 1981 691 
Q 2684 691 2684 2416 
Q 2684 4147 2000 4147 
Q 1266 4147 1266 2366 
z
" transform="scale(0.015625)"/>
      <path id="MicrosoftYaHei-Bold-2e" d="M 313 453 
Q 313 688 491 838 
Q 669 988 916 988 
Q 1166 988 1337 834 
Q 1509 681 1509 453 
Q 1509 213 1337 64 
Q 1166 -84 903 -84 
Q 659 -84 486 69 
Q 313 222 313 453 
z
" transform="scale(0.015625)"/>
      <path id="MicrosoftYaHei-Bold-33" d="M 494 1053 
Q 978 691 1625 691 
Q 2034 691 2275 872 
Q 2516 1053 2516 1388 
Q 2516 1731 2230 1912 
Q 1944 2094 1428 2094 
L 997 2094 
L 997 2872 
L 1394 2872 
Q 2369 2872 2369 3528 
Q 2369 4147 1622 4147 
Q 1134 4147 675 3828 
L 675 4663 
Q 1175 4922 1853 4922 
Q 2541 4922 2969 4605 
Q 3397 4288 3397 3725 
Q 3397 2775 2434 2531 
L 2434 2516 
Q 2941 2459 3244 2145 
Q 3547 1831 3547 1381 
Q 3547 691 3042 303 
Q 2538 -84 1697 -84 
Q 950 -84 494 163 
L 494 1053 
z
" transform="scale(0.015625)"/>
     </defs>
     <use xlink:href="#MicrosoftYaHei-Bold-30"/>
     <use xlink:href="#MicrosoftYaHei-Bold-2e" transform="translate(61.669922 0)"/>
     <use xlink:href="#MicrosoftYaHei-Bold-33" transform="translate(90.234375 0)"/>
     <use xlink:href="#MicrosoftYaHei-Bold-33" transform="translate(151.904297 0)"/>
    </g>
   </g>
   <g id="text_12">
    <!-- 0.93 -->
    <g style="fill: #1f2430" transform="translate(447.836814 227.978278) scale(0.095 -0.095)">
     <defs>
      <path id="MicrosoftYaHei-Bold-39" d="M 544 941 
Q 931 691 1456 691 
Q 2628 691 2653 2216 
L 2634 2222 
Q 2316 1731 1650 1731 
Q 1047 1731 658 2154 
Q 269 2578 269 3222 
Q 269 3978 737 4450 
Q 1206 4922 1959 4922 
Q 2744 4922 3191 4325 
Q 3638 3728 3638 2659 
Q 3638 1391 3098 653 
Q 2559 -84 1547 -84 
Q 975 -84 544 100 
L 544 941 
z
M 1259 3313 
Q 1259 2928 1445 2709 
Q 1631 2491 1953 2491 
Q 2241 2491 2427 2700 
Q 2613 2909 2613 3219 
Q 2613 3591 2427 3869 
Q 2241 4147 1928 4147 
Q 1625 4147 1442 3906 
Q 1259 3666 1259 3313 
z
" transform="scale(0.015625)"/>
     </defs>
     <use xlink:href="#MicrosoftYaHei-Bold-30"/>
     <use xlink:href="#MicrosoftYaHei-Bold-2e" transform="translate(61.669922 0)"/>
     <use xlink:href="#MicrosoftYaHei-Bold-39" transform="translate(90.234375 0)"/>
     <use xlink:href="#MicrosoftYaHei-Bold-33" transform="translate(151.904297 0)"/>
    </g>
   </g>
   <g id="text_13">
    <!-- 0.28 -->
    <g style="fill: #1f2430" transform="translate(197.28881 304.870144) scale(0.095 -0.095)">
     <defs>
      <path id="MicrosoftYaHei-Bold-32" d="M 1500 841 
L 3553 841 
L 3553 0 
L 334 0 
L 334 359 
Q 334 738 473 1050 
Q 613 1363 856 1633 
Q 1100 1903 1613 2266 
Q 2081 2616 2268 2886 
Q 2456 3156 2456 3459 
Q 2456 4113 1744 4113 
Q 1119 4113 550 3613 
L 550 4513 
Q 1184 4922 1975 4922 
Q 2700 4922 3122 4551 
Q 3544 4181 3544 3531 
Q 3544 3169 3422 2876 
Q 3300 2584 3069 2328 
Q 2838 2072 2328 1713 
Q 1838 1363 1669 1172 
Q 1500 981 1500 841 
z
" transform="scale(0.015625)"/>
      <path id="MicrosoftYaHei-Bold-38" d="M 269 1303 
Q 269 1725 512 2053 
Q 756 2381 1219 2534 
Q 850 2719 648 3003 
Q 447 3288 447 3634 
Q 447 3997 645 4292 
Q 844 4588 1200 4755 
Q 1556 4922 1997 4922 
Q 2441 4922 2800 4758 
Q 3159 4594 3359 4298 
Q 3559 4003 3559 3647 
Q 3559 3309 3339 3018 
Q 3119 2728 2747 2559 
Q 3200 2403 3453 2076 
Q 3706 1750 3706 1313 
Q 3706 697 3228 309 
Q 2750 -78 1988 -78 
Q 1225 -78 747 309 
Q 269 697 269 1303 
z
M 1278 1394 
Q 1278 1056 1472 853 
Q 1666 650 1991 650 
Q 2303 650 2503 853 
Q 2703 1056 2703 1394 
Q 2703 1709 2500 1920 
Q 2297 2131 1991 2131 
Q 1675 2131 1476 1920 
Q 1278 1709 1278 1394 
z
M 1428 3531 
Q 1428 3266 1592 3077 
Q 1756 2888 2006 2888 
Q 2247 2888 2415 3072 
Q 2584 3256 2584 3531 
Q 2584 3806 2420 3997 
Q 2256 4188 2006 4188 
Q 1750 4188 1589 3997 
Q 1428 3806 1428 3531 
z
" transform="scale(0.015625)"/>
     </defs>
     <use xlink:href="#MicrosoftYaHei-Bold-30"/>
     <use xlink:href="#MicrosoftYaHei-Bold-2e" transform="translate(61.669922 0)"/>
     <use xlink:href="#MicrosoftYaHei-Bold-32" transform="translate(90.234375 0)"/>
     <use xlink:href="#MicrosoftYaHei-Bold-38" transform="translate(151.904297 0)"/>
    </g>
   </g>
   <g id="text_14">
    <!-- 0.93 -->
    <g style="fill: #1f2430" transform="translate(448.698945 381.76201) scale(0.095 -0.095)">
     <use xlink:href="#MicrosoftYaHei-Bold-30"/>
     <use xlink:href="#MicrosoftYaHei-Bold-2e" transform="translate(61.669922 0)"/>
     <use xlink:href="#MicrosoftYaHei-Bold-39" transform="translate(90.234375 0)"/>
     <use xlink:href="#MicrosoftYaHei-Bold-33" transform="translate(151.904297 0)"/>
    </g>
   </g>
   <g id="text_15">
    <!-- 风险调整收益 -->
    <g style="fill: #1f2430" transform="translate(82.702344 93.104) scale(0.12 -0.12)">
     <defs>
      <path id="MicrosoftYaHei-Bold-98ce" d="M 5594 128 
Q 5647 128 5678 165 
Q 5709 203 5750 472 
Q 5791 741 5831 1309 
Q 6125 1159 6381 1059 
Q 6284 -175 6095 -501 
Q 5906 -828 5544 -828 
Q 5053 -828 4803 -306 
Q 4553 216 4563 2466 
L 4563 4191 
L 1500 4191 
L 1500 2591 
Q 1500 1394 1331 615 
Q 1163 -163 663 -928 
Q 369 -572 25 -197 
Q 419 384 537 1001 
Q 656 1619 650 2953 
L 650 5041 
L 5413 5041 
L 5413 2372 
Q 5413 1013 5434 575 
Q 5456 138 5594 128 
z
M 2181 3841 
Q 2659 3225 3078 2659 
Q 3488 3294 3788 3953 
L 4531 3541 
Q 4128 2719 3606 1941 
Q 4178 1147 4625 459 
L 3913 -97 
Q 3509 550 3072 1197 
Q 2566 538 1969 -84 
Q 1650 272 1350 572 
Q 2028 1234 2563 1931 
Q 2059 2650 1513 3366 
L 2181 3841 
z
" transform="scale(0.015625)"/>
      <path id="MicrosoftYaHei-Bold-9669" d="M 1819 2728 
Q 2325 2122 2325 1291 
Q 2325 766 2081 522 
Q 1831 272 1219 272 
Q 1181 659 1069 1141 
Q 1213 1109 1306 1109 
Q 1563 1109 1563 1497 
Q 1563 2109 1088 2659 
Q 1344 3472 1531 4316 
L 1063 4316 
L 1063 -841 
L 331 -841 
L 331 5034 
L 2356 5034 
L 2356 4441 
Q 2081 3491 1819 2728 
z
M 5438 2653 
L 2925 2653 
L 2925 2959 
Q 2719 2784 2494 2616 
Q 2306 3009 2063 3409 
Q 3106 4128 3863 5303 
L 4775 5303 
L 4663 5097 
Q 5406 3997 6350 3484 
Q 6144 3147 5894 2703 
Q 5656 2853 5438 3028 
L 5438 2653 
z
M 2175 122 
L 4550 122 
Q 4938 1247 5150 2316 
L 5981 2116 
Q 5681 1116 5344 122 
L 6175 122 
L 6175 -641 
L 2175 -641 
L 2175 122 
z
M 3125 2234 
Q 3363 1453 3613 484 
L 2875 272 
Q 2681 1172 2419 2041 
L 3125 2234 
z
M 4288 2441 
Q 4519 1528 4688 759 
L 3956 591 
Q 3800 1441 3581 2284 
L 4288 2441 
z
M 4225 4409 
Q 3825 3866 3394 3403 
L 5025 3403 
Q 4569 3872 4225 4409 
z
" transform="scale(0.015625)"/>
      <path id="MicrosoftYaHei-Bold-8c03" d="M 5225 4341 
L 2644 4341 
L 2644 2078 
Q 2644 184 2088 -884 
Q 1706 -622 1225 -366 
Q 1856 484 1856 1997 
L 1856 5078 
L 6013 5078 
L 6013 84 
Q 6013 -753 5281 -791 
Q 4988 -816 4400 -816 
Q 4313 -384 4213 16 
Q 4631 -16 4900 -9 
Q 5225 -9 5225 303 
L 5225 4341 
z
M 2894 -41 
L 2894 1978 
L 4931 1978 
L 4931 266 
L 3581 266 
L 3581 -41 
L 2894 -41 
z
M 1663 1853 
Q 1656 1372 1738 891 
Q 1369 553 769 -147 
L 325 459 
Q 481 641 488 991 
L 488 2641 
L 100 2641 
L 100 3453 
L 1281 3453 
L 1281 1441 
Q 1406 1578 1663 1853 
z
M 2775 2891 
L 3550 2891 
L 3550 3253 
L 2881 3253 
L 2881 3841 
L 3550 3841 
L 3550 4228 
L 4313 4228 
L 4313 3841 
L 4994 3841 
L 4994 3253 
L 4313 3253 
L 4313 2891 
L 5094 2891 
L 5094 2303 
L 2775 2303 
L 2775 2891 
z
M 938 5247 
Q 1375 4684 1694 4172 
Q 1394 3991 963 3734 
Q 644 4334 263 4853 
L 938 5247 
z
M 4244 1391 
L 3581 1391 
L 3581 853 
L 4244 853 
L 4244 1391 
z
" transform="scale(0.015625)"/>
      <path id="MicrosoftYaHei-Bold-6574" d="M 150 -66 
L 1106 -66 
L 1106 903 
L 1944 903 
L 1944 -66 
L 2844 -66 
L 2844 1091 
L 513 1091 
L 513 1572 
L 444 1534 
Q 269 1809 44 2128 
Q 669 2366 1156 2791 
L 356 2791 
L 356 4141 
L 1488 4141 
L 1488 4397 
L 213 4397 
L 213 4966 
L 1488 4966 
L 1488 5309 
L 2194 5309 
L 2194 4966 
L 3425 4966 
L 3425 4397 
L 2194 4397 
L 2194 4141 
L 3325 4141 
L 3325 3803 
Q 3781 4509 4006 5347 
L 4744 5209 
Q 4663 4972 4581 4759 
L 6263 4759 
L 6263 4103 
L 5956 4103 
Q 5744 3297 5356 2784 
Q 5788 2516 6369 2416 
Q 6188 2153 5963 1716 
Q 5294 1922 4825 2259 
Q 4413 1947 3744 1666 
Q 3625 1828 3338 2216 
L 3044 1722 
Q 2600 2009 2194 2191 
L 2194 1784 
L 1488 1784 
L 1488 2378 
Q 1094 1947 638 1653 
L 5900 1653 
L 5900 1091 
L 3681 1091 
L 3681 778 
L 5531 778 
L 5531 247 
L 3681 247 
L 3681 -66 
L 6263 -66 
L 6263 -678 
L 150 -678 
L 150 -66 
z
M 2194 2791 
L 2194 2403 
L 2413 2753 
Q 2888 2547 3344 2309 
Q 3913 2484 4306 2747 
Q 4075 3022 3900 3384 
Q 3813 3259 3731 3153 
Q 3600 3253 3325 3441 
L 3325 2791 
L 2194 2791 
z
M 5225 4103 
L 4319 4103 
Q 4506 3597 4819 3234 
Q 5075 3597 5225 4103 
z
M 1019 3278 
L 1488 3278 
L 1488 3653 
L 1019 3653 
L 1019 3278 
z
M 2663 3278 
L 2663 3653 
L 2194 3653 
L 2194 3278 
L 2663 3278 
z
" transform="scale(0.015625)"/>
      <path id="MicrosoftYaHei-Bold-6536" d="M 2450 5297 
L 2450 2941 
Q 3141 3934 3506 5341 
L 4363 5191 
Q 4253 4766 4119 4366 
L 6263 4366 
L 6263 3534 
L 5841 3534 
Q 5647 1928 4963 866 
Q 5528 328 6325 22 
Q 6050 -347 5775 -828 
Q 4988 -416 4413 178 
Q 3806 -447 2950 -872 
Q 2744 -416 2469 -34 
Q 3272 363 3841 897 
Q 3409 1559 3172 2384 
Q 3075 2234 2975 2091 
Q 2756 2469 2450 2844 
L 2450 -841 
L 1638 -841 
L 1638 963 
Q 847 569 456 259 
L 100 1059 
Q 331 1241 331 1528 
L 331 4684 
L 1106 4684 
L 1106 1528 
L 1638 1819 
L 1638 5297 
L 2450 5297 
z
M 4381 1581 
Q 4828 2341 5034 3534 
L 3794 3534 
Q 3756 3450 3716 3366 
Q 3906 2328 4381 1581 
z
" transform="scale(0.015625)"/>
      <path id="MicrosoftYaHei-Bold-76ca" d="M 113 122 
L 813 122 
L 813 1763 
Q 694 1709 575 1659 
Q 381 1997 131 2353 
Q 1300 2781 2259 3372 
L 213 3372 
L 213 4109 
L 1803 4109 
Q 1359 4641 1106 4884 
L 1731 5359 
Q 2125 4991 2706 4366 
L 2366 4109 
L 3625 4109 
Q 4238 4750 4700 5353 
L 5438 4872 
Q 5050 4463 4675 4109 
L 6238 4109 
L 6238 3372 
L 4169 3372 
Q 5338 2869 6275 2403 
L 5844 1691 
L 5638 1803 
L 5638 122 
L 6294 122 
L 6294 -628 
L 113 -628 
L 113 122 
z
M 3569 2834 
L 3941 3372 
L 2400 3372 
L 2888 2841 
Q 2200 2434 1534 2103 
L 5072 2103 
Q 4394 2453 3569 2834 
z
M 4825 1384 
L 4288 1384 
L 4288 122 
L 4825 122 
L 4825 1384 
z
M 2956 122 
L 3488 122 
L 3488 1384 
L 2956 1384 
L 2956 122 
z
M 1625 122 
L 2156 122 
L 2156 1384 
L 1625 1384 
L 1625 122 
z
" transform="scale(0.015625)"/>
     </defs>
     <use xlink:href="#MicrosoftYaHei-Bold-98ce"/>
     <use xlink:href="#MicrosoftYaHei-Bold-9669" transform="translate(100 0)"/>
     <use xlink:href="#MicrosoftYaHei-Bold-8c03" transform="translate(200 0)"/>
     <use xlink:href="#MicrosoftYaHei-Bold-6574" transform="translate(300 0)"/>
     <use xlink:href="#MicrosoftYaHei-Bold-6536" transform="translate(400 0)"/>
     <use xlink:href="#MicrosoftYaHei-Bold-76ca" transform="translate(500 0)"/>
    </g>
   </g>
  </g>
  <g id="axes_2">
   <g id="patch_9">
    <path d="M 559.285348 424.512 
L 915.742344 424.512 
L 915.742344 103.104 
L 559.285348 103.104 
z
" style="fill: #ffffff"/>
   </g>
   <g id="matplotlib.axis_3">
    <g id="xtick_6">
     <g id="line2d_6">
      <path d="M 590.292403 424.512 
L 590.292403 103.104 
" clip-path="url(#p0a02de267d)" style="fill: none; stroke: #e6e8f0; stroke-width: 0.75; stroke-linecap: round"/>
     </g>
     <g id="text_16">
      <!-- -35.0% -->
      <g style="fill: #6f768a" transform="translate(575.341856 441.206375) scale(0.09 -0.09)">
       <defs>
        <path id="MicrosoftYaHei-2d" d="M 2328 1681 
L 488 1681 
L 488 2153 
L 2328 2153 
L 2328 1681 
z
" transform="scale(0.015625)"/>
        <path id="MicrosoftYaHei-33" d="M 447 809 
Q 944 425 1569 425 
Q 2069 425 2361 670 
Q 2653 916 2653 1328 
Q 2653 2247 1338 2247 
L 934 2247 
L 934 2753 
L 1319 2753 
Q 2484 2753 2484 3616 
Q 2484 4413 1594 4413 
Q 1084 4413 634 4069 
L 634 4647 
Q 1109 4922 1744 4922 
Q 2363 4922 2738 4598 
Q 3113 4275 3113 3759 
Q 3113 2809 2144 2538 
L 2144 2525 
Q 2669 2469 2973 2155 
Q 3278 1841 3278 1372 
Q 3278 719 2808 319 
Q 2338 -81 1556 -81 
Q 869 -81 447 175 
L 447 809 
z
" transform="scale(0.015625)"/>
        <path id="MicrosoftYaHei-35" d="M 3294 1494 
Q 3294 784 2823 350 
Q 2353 -84 1559 -84 
Q 878 -84 544 119 
L 544 744 
Q 1034 425 1544 425 
Q 2050 425 2361 704 
Q 2672 984 2672 1447 
Q 2672 1909 2348 2167 
Q 2025 2425 1434 2425 
Q 978 2425 613 2384 
L 791 4841 
L 3053 4841 
L 3053 4303 
L 1306 4303 
L 1206 2931 
L 1647 2950 
Q 2416 2950 2855 2567 
Q 3294 2184 3294 1494 
z
" transform="scale(0.015625)"/>
        <path id="MicrosoftYaHei-25" d="M 272 3619 
Q 272 4213 589 4563 
Q 906 4913 1444 4913 
Q 1959 4913 2248 4591 
Q 2538 4269 2538 3694 
Q 2538 3122 2219 2765 
Q 1900 2409 1372 2409 
Q 872 2409 572 2740 
Q 272 3072 272 3619 
z
M 753 3650 
Q 753 3247 928 3028 
Q 1103 2809 1406 2809 
Q 1719 2809 1889 3036 
Q 2059 3263 2059 3675 
Q 2059 4078 1892 4298 
Q 1725 4519 1422 4519 
Q 1113 4519 933 4289 
Q 753 4059 753 3650 
z
M 4647 4841 
L 1538 -31 
L 1016 -31 
L 4125 4841 
L 4647 4841 
z
M 3172 1134 
Q 3172 1728 3489 2083 
Q 3806 2438 4341 2438 
Q 4853 2438 5143 2114 
Q 5434 1791 5434 1203 
Q 5434 634 5112 279 
Q 4791 -75 4272 -75 
Q 3769 -75 3470 261 
Q 3172 597 3172 1134 
z
M 3650 1163 
Q 3650 769 3825 548 
Q 4000 328 4303 328 
Q 4616 328 4786 556 
Q 4956 784 4956 1194 
Q 4956 1600 4786 1815 
Q 4616 2031 4319 2031 
Q 4000 2031 3825 1801 
Q 3650 1572 3650 1163 
z
" transform="scale(0.015625)"/>
       </defs>
       <use xlink:href="#MicrosoftYaHei-2d"/>
       <use xlink:href="#MicrosoftYaHei-33" transform="translate(43.261719 0)"/>
       <use xlink:href="#MicrosoftYaHei-35" transform="translate(101.904297 0)"/>
       <use xlink:href="#MicrosoftYaHei-2e" transform="translate(160.546875 0)"/>
       <use xlink:href="#MicrosoftYaHei-30" transform="translate(184.619141 0)"/>
       <use xlink:href="#MicrosoftYaHei-25" transform="translate(243.261719 0)"/>
      </g>
     </g>
    </g>
    <g id="xtick_7">
     <g id="line2d_7">
      <path d="M 636.785252 424.512 
L 636.785252 103.104 
" clip-path="url(#p0a02de267d)" style="fill: none; stroke: #e6e8f0; stroke-width: 0.75; stroke-linecap: round"/>
     </g>
     <g id="text_17">
      <!-- -30.0% -->
      <g style="fill: #6f768a" transform="translate(621.834705 441.206375) scale(0.09 -0.09)">
       <use xlink:href="#MicrosoftYaHei-2d"/>
       <use xlink:href="#MicrosoftYaHei-33" transform="translate(43.261719 0)"/>
       <use xlink:href="#MicrosoftYaHei-30" transform="translate(101.904297 0)"/>
       <use xlink:href="#MicrosoftYaHei-2e" transform="translate(160.546875 0)"/>
       <use xlink:href="#MicrosoftYaHei-30" transform="translate(184.619141 0)"/>
       <use xlink:href="#MicrosoftYaHei-25" transform="translate(243.261719 0)"/>
      </g>
     </g>
    </g>
    <g id="xtick_8">
     <g id="line2d_8">
      <path d="M 683.2781 424.512 
L 683.2781 103.104 
" clip-path="url(#p0a02de267d)" style="fill: none; stroke: #e6e8f0; stroke-width: 0.75; stroke-linecap: round"/>
     </g>
     <g id="text_18">
      <!-- -25.0% -->
      <g style="fill: #6f768a" transform="translate(668.327554 441.206375) scale(0.09 -0.09)">
       <use xlink:href="#MicrosoftYaHei-2d"/>
       <use xlink:href="#MicrosoftYaHei-32" transform="translate(43.261719 0)"/>
       <use xlink:href="#MicrosoftYaHei-35" transform="translate(101.904297 0)"/>
       <use xlink:href="#MicrosoftYaHei-2e" transform="translate(160.546875 0)"/>
       <use xlink:href="#MicrosoftYaHei-30" transform="translate(184.619141 0)"/>
       <use xlink:href="#MicrosoftYaHei-25" transform="translate(243.261719 0)"/>
      </g>
     </g>
    </g>
    <g id="xtick_9">
     <g id="line2d_9">
      <path d="M 729.770949 424.512 
L 729.770949 103.104 
" clip-path="url(#p0a02de267d)" style="fill: none; stroke: #e6e8f0; stroke-width: 0.75; stroke-linecap: round"/>
     </g>
     <g id="text_19">
      <!-- -20.0% -->
      <g style="fill: #6f768a" transform="translate(714.820402 441.206375) scale(0.09 -0.09)">
       <use xlink:href="#MicrosoftYaHei-2d"/>
       <use xlink:href="#MicrosoftYaHei-32" transform="translate(43.261719 0)"/>
       <use xlink:href="#MicrosoftYaHei-30" transform="translate(101.904297 0)"/>
       <use xlink:href="#MicrosoftYaHei-2e" transform="translate(160.546875 0)"/>
       <use xlink:href="#MicrosoftYaHei-30" transform="translate(184.619141 0)"/>
       <use xlink:href="#MicrosoftYaHei-25" transform="translate(243.261719 0)"/>
      </g>
     </g>
    </g>
    <g id="xtick_10">
     <g id="line2d_10">
      <path d="M 776.263798 424.512 
L 776.263798 103.104 
" clip-path="url(#p0a02de267d)" style="fill: none; stroke: #e6e8f0; stroke-width: 0.75; stroke-linecap: round"/>
     </g>
     <g id="text_20">
      <!-- -15.0% -->
      <g style="fill: #6f768a" transform="translate(761.313251 441.206375) scale(0.09 -0.09)">
       <defs>
        <path id="MicrosoftYaHei-31" d="M 1781 0 
L 1781 4141 
Q 1638 3997 1295 3819 
Q 953 3641 663 3569 
L 663 4169 
Q 1047 4275 1484 4508 
Q 1922 4741 2156 4947 
L 2388 4947 
L 2388 0 
L 1781 0 
z
" transform="scale(0.015625)"/>
       </defs>
       <use xlink:href="#MicrosoftYaHei-2d"/>
       <use xlink:href="#MicrosoftYaHei-31" transform="translate(43.261719 0)"/>
       <use xlink:href="#MicrosoftYaHei-35" transform="translate(101.904297 0)"/>
       <use xlink:href="#MicrosoftYaHei-2e" transform="translate(160.546875 0)"/>
       <use xlink:href="#MicrosoftYaHei-30" transform="translate(184.619141 0)"/>
       <use xlink:href="#MicrosoftYaHei-25" transform="translate(243.261719 0)"/>
      </g>
     </g>
    </g>
    <g id="xtick_11">
     <g id="line2d_11">
      <path d="M 822.756646 424.512 
L 822.756646 103.104 
" clip-path="url(#p0a02de267d)" style="fill: none; stroke: #e6e8f0; stroke-width: 0.75; stroke-linecap: round"/>
     </g>
     <g id="text_21">
      <!-- -10.0% -->
      <g style="fill: #6f768a" transform="translate(807.8061 441.206375) scale(0.09 -0.09)">
       <use xlink:href="#MicrosoftYaHei-2d"/>
       <use xlink:href="#MicrosoftYaHei-31" transform="translate(43.261719 0)"/>
       <use xlink:href="#MicrosoftYaHei-30" transform="translate(101.904297 0)"/>
       <use xlink:href="#MicrosoftYaHei-2e" transform="translate(160.546875 0)"/>
       <use xlink:href="#MicrosoftYaHei-30" transform="translate(184.619141 0)"/>
       <use xlink:href="#MicrosoftYaHei-25" transform="translate(243.261719 0)"/>
      </g>
     </g>
    </g>
    <g id="xtick_12">
     <g id="line2d_12">
      <path d="M 869.249495 424.512 
L 869.249495 103.104 
" clip-path="url(#p0a02de267d)" style="fill: none; stroke: #e6e8f0; stroke-width: 0.75; stroke-linecap: round"/>
     </g>
     <g id="text_22">
      <!-- -5.0% -->
      <g style="fill: #6f768a" transform="translate(856.937776 441.206375) scale(0.09 -0.09)">
       <use xlink:href="#MicrosoftYaHei-2d"/>
       <use xlink:href="#MicrosoftYaHei-35" transform="translate(43.261719 0)"/>
       <use xlink:href="#MicrosoftYaHei-2e" transform="translate(101.904297 0)"/>
       <use xlink:href="#MicrosoftYaHei-30" transform="translate(125.976562 0)"/>
       <use xlink:href="#MicrosoftYaHei-25" transform="translate(184.619141 0)"/>
      </g>
     </g>
    </g>
    <g id="xtick_13">
     <g id="line2d_13">
      <path d="M 915.742344 424.512 
L 915.742344 103.104 
" clip-path="url(#p0a02de267d)" style="fill: none; stroke: #e6e8f0; stroke-width: 0.75; stroke-linecap: round"/>
     </g>
     <g id="text_23">
      <!-- 0.0% -->
      <g style="fill: #6f768a" transform="translate(905.377578 441.206375) scale(0.09 -0.09)">
       <use xlink:href="#MicrosoftYaHei-30"/>
       <use xlink:href="#MicrosoftYaHei-2e" transform="translate(58.642578 0)"/>
       <use xlink:href="#MicrosoftYaHei-30" transform="translate(82.714844 0)"/>
       <use xlink:href="#MicrosoftYaHei-25" transform="translate(141.357422 0)"/>
      </g>
     </g>
    </g>
    <g id="text_24">
     <!-- 最大回撤 -->
     <g style="fill: #1f2430" transform="translate(713.513846 457.036219) scale(0.12 -0.12)">
      <defs>
       <path id="MicrosoftYaHei-6700" d="M 169 -28 
Q 475 3 781 38 
L 781 2416 
L 94 2416 
L 94 2791 
L 6288 2791 
L 6288 2416 
L 3025 2416 
L 3025 331 
Q 3325 375 3625 422 
Q 3619 309 3631 22 
Q 3338 -19 3025 -63 
L 3025 -859 
L 2600 -859 
L 2600 -125 
Q 1525 -278 281 -472 
L 169 -28 
z
M 1038 5053 
L 5363 5053 
L 5363 3047 
L 4925 3047 
L 4925 3191 
L 1475 3191 
L 1475 3047 
L 1038 3047 
L 1038 5053 
z
M 3338 1609 
L 3338 1972 
L 5819 1972 
L 5819 1609 
Q 5500 844 4981 278 
Q 5516 -113 6306 -316 
Q 6144 -553 6025 -753 
Q 5219 -488 4666 -34 
Q 4128 -516 3413 -822 
Q 3306 -634 3125 -428 
Q 3834 -156 4347 266 
Q 3825 825 3603 1609 
L 3338 1609 
z
M 1475 3553 
L 4925 3553 
L 4925 3953 
L 1475 3953 
L 1475 3553 
z
M 4925 4691 
L 1475 4691 
L 1475 4291 
L 4925 4291 
L 4925 4691 
z
M 5344 1609 
L 4025 1609 
Q 4222 994 4659 556 
Q 5094 1013 5344 1609 
z
M 2600 269 
L 2600 691 
L 1206 691 
L 1206 88 
Q 1913 172 2600 269 
z
M 1206 1916 
L 2600 1916 
L 2600 2416 
L 1206 2416 
L 1206 1916 
z
M 1206 1053 
L 2600 1053 
L 2600 1553 
L 1206 1553 
L 1206 1053 
z
" transform="scale(0.015625)"/>
       <path id="MicrosoftYaHei-5927" d="M 88 -341 
Q 2666 806 2869 3103 
L 200 3103 
L 200 3591 
L 2891 3591 
Q 2906 4431 2906 5284 
L 3450 5284 
Q 3450 4444 3434 3591 
L 6206 3591 
L 6206 3103 
L 3425 3103 
Q 3869 606 6338 -191 
Q 6019 -497 5863 -697 
Q 3828 122 3203 2219 
Q 2716 322 475 -822 
Q 350 -653 88 -341 
z
" transform="scale(0.015625)"/>
       <path id="MicrosoftYaHei-56de" d="M 475 4947 
L 5938 4947 
L 5938 -778 
L 5413 -778 
L 5413 -378 
L 1000 -378 
L 1000 -778 
L 475 -778 
L 475 4947 
z
M 5413 4484 
L 1000 4484 
L 1000 72 
L 5413 72 
L 5413 4484 
z
M 1875 3528 
L 4531 3528 
L 4531 797 
L 4044 797 
L 4044 1147 
L 2363 1147 
L 2363 797 
L 1875 797 
L 1875 3528 
z
M 4044 3091 
L 2363 3091 
L 2363 1584 
L 4044 1584 
L 4044 3091 
z
" transform="scale(0.015625)"/>
       <path id="MicrosoftYaHei-64a4" d="M 4838 5303 
L 5256 5228 
Q 5153 4641 5016 4122 
L 6313 4122 
L 6313 3716 
L 6016 3716 
Q 5878 1894 5413 828 
Q 5759 144 6319 -347 
Q 6181 -628 6069 -828 
Q 5531 -294 5181 384 
Q 4772 -306 4225 -872 
Q 4106 -691 3925 -478 
Q 4575 138 4966 869 
Q 4638 1706 4556 2734 
Q 4422 2422 4275 2147 
Q 4188 2322 4025 2541 
Q 4606 3641 4838 5303 
z
M 2331 -797 
L 1913 -797 
L 1913 2584 
L 3856 2584 
L 3856 -122 
Q 3856 -791 3313 -797 
Q 3081 -803 2706 -803 
Q 2675 -616 2619 -372 
Q 2938 -391 3175 -391 
Q 3444 -391 3444 -84 
L 3444 447 
L 2331 447 
L 2331 -797 
z
M 81 1972 
Q 384 2041 706 2119 
L 706 3541 
L 138 3541 
L 138 3966 
L 706 3966 
L 706 5253 
L 1138 5253 
L 1138 3966 
L 1594 3966 
L 1594 3541 
L 1138 3541 
L 1138 2228 
Q 1394 2294 1663 2366 
Q 1650 2078 1663 1903 
Q 1397 1828 1138 1753 
L 1138 -159 
Q 1138 -759 613 -766 
Q 469 -766 131 -759 
Q 119 -534 88 -266 
Q 363 -297 513 -297 
Q 706 -297 706 -59 
L 706 1631 
Q 425 1550 156 1472 
L 81 1972 
z
M 2256 3316 
Q 2881 3344 3528 3375 
Q 3344 3628 3150 3878 
L 3456 4097 
Q 3856 3634 4219 3153 
L 3875 2884 
Q 3819 2969 3759 3050 
Q 2216 2959 1800 2922 
L 1681 3266 
Q 2122 3716 2456 4209 
L 1650 4209 
L 1650 4597 
L 2884 4597 
Q 2706 4878 2513 5128 
L 2900 5353 
Q 3131 5072 3331 4791 
L 3009 4597 
L 4213 4597 
L 4213 4209 
L 2997 4209 
Q 2731 3838 2256 3316 
z
M 5597 3716 
L 4906 3716 
Q 4869 3597 4831 3484 
Q 4856 2281 5184 1363 
Q 5494 2234 5597 3716 
z
M 3444 2197 
L 2331 2197 
L 2331 1684 
L 3444 1684 
L 3444 2197 
z
M 2331 809 
L 3444 809 
L 3444 1322 
L 2331 1322 
L 2331 809 
z
" transform="scale(0.015625)"/>
      </defs>
      <use xlink:href="#MicrosoftYaHei-6700"/>
      <use xlink:href="#MicrosoftYaHei-5927" transform="translate(100 0)"/>
      <use xlink:href="#MicrosoftYaHei-56de" transform="translate(200 0)"/>
      <use xlink:href="#MicrosoftYaHei-64a4" transform="translate(300 0)"/>
     </g>
    </g>
   </g>
   <g id="matplotlib.axis_4">
    <g id="ytick_5">
     <g id="text_25">
      <!-- 仅因子排序 -->
      <g style="fill: #6f768a" transform="translate(504.785348 152.067388) scale(0.09 -0.09)">
       <use xlink:href="#MicrosoftYaHei-4ec5"/>
       <use xlink:href="#MicrosoftYaHei-56e0" transform="translate(100 0)"/>
       <use xlink:href="#MicrosoftYaHei-5b50" transform="translate(200 0)"/>
       <use xlink:href="#MicrosoftYaHei-6392" transform="translate(300 0)"/>
       <use xlink:href="#MicrosoftYaHei-5e8f" transform="translate(400 0)"/>
      </g>
     </g>
    </g>
    <g id="ytick_6">
     <g id="text_26">
      <!-- 排序 + 趋势过滤 -->
      <g style="fill: #6f768a" transform="translate(483.783004 228.959254) scale(0.09 -0.09)">
       <use xlink:href="#MicrosoftYaHei-6392"/>
       <use xlink:href="#MicrosoftYaHei-5e8f" transform="translate(100 0)"/>
       <use xlink:href="#MicrosoftYaHei-20" transform="translate(200 0)"/>
       <use xlink:href="#MicrosoftYaHei-2b" transform="translate(229.589844 0)"/>
       <use xlink:href="#MicrosoftYaHei-20" transform="translate(303.759766 0)"/>
       <use xlink:href="#MicrosoftYaHei-8d8b" transform="translate(333.349609 0)"/>
       <use xlink:href="#MicrosoftYaHei-52bf" transform="translate(433.349609 0)"/>
       <use xlink:href="#MicrosoftYaHei-8fc7" transform="translate(533.349609 0)"/>
       <use xlink:href="#MicrosoftYaHei-6ee4" transform="translate(633.349609 0)"/>
      </g>
     </g>
    </g>
    <g id="ytick_7">
     <g id="text_27">
      <!-- 排序 + 反波动率 -->
      <g style="fill: #6f768a" transform="translate(483.783004 305.851121) scale(0.09 -0.09)">
       <use xlink:href="#MicrosoftYaHei-6392"/>
       <use xlink:href="#MicrosoftYaHei-5e8f" transform="translate(100 0)"/>
       <use xlink:href="#MicrosoftYaHei-20" transform="translate(200 0)"/>
       <use xlink:href="#MicrosoftYaHei-2b" transform="translate(229.589844 0)"/>
       <use xlink:href="#MicrosoftYaHei-20" transform="translate(303.759766 0)"/>
       <use xlink:href="#MicrosoftYaHei-53cd" transform="translate(333.349609 0)"/>
       <use xlink:href="#MicrosoftYaHei-6ce2" transform="translate(433.349609 0)"/>
       <use xlink:href="#MicrosoftYaHei-52a8" transform="translate(533.349609 0)"/>
       <use xlink:href="#MicrosoftYaHei-7387" transform="translate(633.349609 0)"/>
      </g>
     </g>
    </g>
    <g id="ytick_8">
     <g id="text_28">
      <!-- 完整基准策略 -->
      <g style="fill: #6f768a" transform="translate(495.785348 382.742987) scale(0.09 -0.09)">
       <use xlink:href="#MicrosoftYaHei-5b8c"/>
       <use xlink:href="#MicrosoftYaHei-6574" transform="translate(100 0)"/>
       <use xlink:href="#MicrosoftYaHei-57fa" transform="translate(200 0)"/>
       <use xlink:href="#MicrosoftYaHei-51c6" transform="translate(300 0)"/>
       <use xlink:href="#MicrosoftYaHei-7b56" transform="translate(400 0)"/>
       <use xlink:href="#MicrosoftYaHei-7565" transform="translate(500 0)"/>
      </g>
     </g>
    </g>
   </g>
   <g id="patch_10">
    <path d="M 915.742344 117.713455 
L 576.25949 117.713455 
L 576.25949 179.226947 
L 915.742344 179.226947 
z
" clip-path="url(#p0a02de267d)" style="fill: #c5cad3; stroke: #464c55; stroke-width: 0.6; stroke-linejoin: miter"/>
   </g>
   <g id="patch_11">
    <path d="M 915.742344 194.605321 
L 714.715345 194.605321 
L 714.715345 256.118813 
L 915.742344 256.118813 
z
" clip-path="url(#p0a02de267d)" style="fill: #5477c4; stroke: #464c55; stroke-width: 0.6; stroke-linejoin: miter"/>
   </g>
   <g id="patch_12">
    <path d="M 915.742344 271.497187 
L 587.222848 271.497187 
L 587.222848 333.010679 
L 915.742344 333.010679 
z
" clip-path="url(#p0a02de267d)" style="fill: #f0986e; stroke: #464c55; stroke-width: 0.6; stroke-linejoin: miter"/>
   </g>
   <g id="patch_13">
    <path d="M 915.742344 348.389053 
L 712.381426 348.389053 
L 712.381426 409.902545 
L 915.742344 409.902545 
z
" clip-path="url(#p0a02de267d)" style="fill: #b8a037; stroke: #464c55; stroke-width: 0.6; stroke-linejoin: miter"/>
   </g>
   <g id="line2d_14">
    <path d="M 915.742344 424.512 
L 915.742344 103.104 
" clip-path="url(#p0a02de267d)" style="fill: none; stroke: #464c55; stroke-width: 0.9; stroke-linecap: round"/>
   </g>
   <g id="patch_14">
    <path d="M 559.285348 424.512 
L 559.285348 103.104 
" style="fill: none; stroke: #d7dbe7; stroke-linejoin: miter; stroke-linecap: square"/>
   </g>
   <g id="patch_15">
    <path d="M 559.285348 424.512 
L 915.742344 424.512 
" style="fill: none; stroke: #d7dbe7; stroke-linejoin: miter; stroke-linecap: square"/>
   </g>
   <g id="text_29">
    <!-- -36.5% -->
    <g style="fill: #1f2430" transform="translate(592.996916 151.086412) scale(0.095 -0.095)">
     <defs>
      <path id="MicrosoftYaHei-Bold-2d" d="M 2328 1497 
L 481 1497 
L 481 2209 
L 2328 2209 
L 2328 1497 
z
" transform="scale(0.015625)"/>
      <path id="MicrosoftYaHei-Bold-36" d="M 3378 3938 
Q 3009 4147 2575 4147 
Q 2016 4147 1680 3708 
Q 1344 3269 1344 2572 
L 1363 2572 
Q 1709 3103 2391 3103 
Q 3000 3103 3358 2686 
Q 3716 2269 3716 1600 
Q 3716 869 3250 392 
Q 2784 -84 2059 -84 
Q 1228 -84 786 516 
Q 344 1116 344 2159 
Q 344 3388 917 4155 
Q 1491 4922 2513 4922 
Q 3063 4922 3378 4791 
L 3378 3938 
z
M 1378 1591 
Q 1378 1216 1565 953 
Q 1753 691 2059 691 
Q 2369 691 2547 931 
Q 2725 1172 2725 1534 
Q 2725 2350 2053 2350 
Q 1750 2350 1564 2134 
Q 1378 1919 1378 1591 
z
" transform="scale(0.015625)"/>
      <path id="MicrosoftYaHei-Bold-35" d="M 541 125 
L 541 997 
Q 1044 691 1613 691 
Q 2041 691 2283 902 
Q 2525 1113 2525 1472 
Q 2525 2225 1494 2225 
Q 1113 2225 616 2169 
L 797 4841 
L 3359 4841 
L 3359 4009 
L 1613 4009 
L 1544 2991 
Q 1803 3013 2022 3013 
Q 2731 3013 3142 2625 
Q 3553 2238 3553 1575 
Q 3553 844 3056 380 
Q 2559 -84 1706 -84 
Q 1016 -84 541 125 
z
" transform="scale(0.015625)"/>
      <path id="MicrosoftYaHei-Bold-25" d="M 297 3597 
Q 297 4191 626 4548 
Q 956 4906 1519 4906 
Q 2056 4906 2354 4581 
Q 2653 4256 2653 3684 
Q 2653 3097 2322 2744 
Q 1991 2391 1438 2391 
Q 919 2391 608 2722 
Q 297 3053 297 3597 
z
M 984 3631 
Q 984 2959 1478 2959 
Q 1981 2959 1981 3659 
Q 1981 4338 1500 4338 
Q 984 4338 984 3631 
z
M 4938 4841 
L 1791 -3 
L 1006 -3 
L 4147 4841 
L 4938 4841 
z
M 3297 1141 
Q 3297 1741 3631 2095 
Q 3966 2450 4522 2450 
Q 5059 2450 5357 2131 
Q 5656 1813 5656 1234 
Q 5656 641 5322 286 
Q 4988 -69 4438 -69 
Q 3922 -69 3609 264 
Q 3297 597 3297 1141 
z
M 3981 1175 
Q 3981 500 4478 500 
Q 4978 500 4978 1200 
Q 4978 1528 4845 1704 
Q 4713 1881 4491 1881 
Q 3981 1881 3981 1175 
z
" transform="scale(0.015625)"/>
     </defs>
     <use xlink:href="#MicrosoftYaHei-Bold-2d"/>
     <use xlink:href="#MicrosoftYaHei-Bold-33" transform="translate(43.652344 0)"/>
     <use xlink:href="#MicrosoftYaHei-Bold-36" transform="translate(105.322266 0)"/>
     <use xlink:href="#MicrosoftYaHei-Bold-2e" transform="translate(166.992188 0)"/>
     <use xlink:href="#MicrosoftYaHei-Bold-35" transform="translate(195.556641 0)"/>
     <use xlink:href="#MicrosoftYaHei-Bold-25" transform="translate(257.226562 0)"/>
    </g>
   </g>
   <g id="text_30">
    <!-- -21.6% -->
    <g style="fill: #1f2430" transform="translate(731.45277 227.978278) scale(0.095 -0.095)">
     <defs>
      <path id="MicrosoftYaHei-Bold-31" d="M 2716 4947 
L 2716 0 
L 1700 0 
L 1700 3809 
Q 1513 3647 1188 3517 
Q 863 3388 591 3356 
L 591 4222 
Q 1447 4472 2072 4947 
L 2716 4947 
z
" transform="scale(0.015625)"/>
     </defs>
     <use xlink:href="#MicrosoftYaHei-Bold-2d"/>
     <use xlink:href="#MicrosoftYaHei-Bold-32" transform="translate(43.652344 0)"/>
     <use xlink:href="#MicrosoftYaHei-Bold-31" transform="translate(105.322266 0)"/>
     <use xlink:href="#MicrosoftYaHei-Bold-2e" transform="translate(166.992188 0)"/>
     <use xlink:href="#MicrosoftYaHei-Bold-36" transform="translate(195.556641 0)"/>
     <use xlink:href="#MicrosoftYaHei-Bold-25" transform="translate(257.226562 0)"/>
    </g>
   </g>
   <g id="text_31">
    <!-- -35.3% -->
    <g style="fill: #1f2430" transform="translate(603.960273 304.870144) scale(0.095 -0.095)">
     <use xlink:href="#MicrosoftYaHei-Bold-2d"/>
     <use xlink:href="#MicrosoftYaHei-Bold-33" transform="translate(43.652344 0)"/>
     <use xlink:href="#MicrosoftYaHei-Bold-35" transform="translate(105.322266 0)"/>
     <use xlink:href="#MicrosoftYaHei-Bold-2e" transform="translate(166.992188 0)"/>
     <use xlink:href="#MicrosoftYaHei-Bold-33" transform="translate(195.556641 0)"/>
     <use xlink:href="#MicrosoftYaHei-Bold-25" transform="translate(257.226562 0)"/>
    </g>
   </g>
   <g id="text_32">
    <!-- -21.9% -->
    <g style="fill: #1f2430" transform="translate(729.118851 381.76201) scale(0.095 -0.095)">
     <use xlink:href="#MicrosoftYaHei-Bold-2d"/>
     <use xlink:href="#MicrosoftYaHei-Bold-32" transform="translate(43.652344 0)"/>
     <use xlink:href="#MicrosoftYaHei-Bold-31" transform="translate(105.322266 0)"/>
     <use xlink:href="#MicrosoftYaHei-Bold-2e" transform="translate(166.992188 0)"/>
     <use xlink:href="#MicrosoftYaHei-Bold-39" transform="translate(195.556641 0)"/>
     <use xlink:href="#MicrosoftYaHei-Bold-25" transform="translate(257.226562 0)"/>
    </g>
   </g>
   <g id="text_33">
    <!-- 下行风险 -->
    <g style="fill: #1f2430" transform="translate(559.285348 93.104) scale(0.12 -0.12)">
     <defs>
      <path id="MicrosoftYaHei-Bold-4e0b" d="M 4038 3372 
Q 5050 2647 6069 1866 
L 5425 1078 
Q 4363 1997 3488 2647 
L 3488 -822 
L 2475 -822 
L 2475 4066 
L 175 4066 
L 175 4947 
L 6213 4947 
L 6213 4066 
L 3488 4066 
L 3488 2822 
L 4038 3372 
z
" transform="scale(0.015625)"/>
      <path id="MicrosoftYaHei-Bold-884c" d="M 1663 5347 
Q 2063 5072 2413 4809 
Q 1756 4047 669 3178 
Q 438 3528 113 3916 
Q 1163 4716 1663 5347 
z
M 2788 4903 
L 6038 4903 
L 6038 4091 
L 2788 4091 
L 2788 4903 
z
M 1763 3722 
L 2494 3253 
Q 2219 2850 1894 2463 
L 1894 -778 
L 1025 -778 
L 1025 1525 
Q 738 1247 425 978 
Q 300 1328 81 1847 
Q 1044 2678 1763 3722 
z
M 2581 3116 
L 6313 3116 
L 6313 2303 
L 5338 2303 
L 5338 291 
Q 5338 -209 5105 -473 
Q 4872 -738 4445 -766 
Q 4019 -794 3181 -803 
Q 3094 -391 2950 72 
Q 3600 28 3975 28 
Q 4431 28 4431 509 
L 4431 2303 
L 2581 2303 
L 2581 3116 
z
" transform="scale(0.015625)"/>
     </defs>
     <use xlink:href="#MicrosoftYaHei-Bold-4e0b"/>
     <use xlink:href="#MicrosoftYaHei-Bold-884c" transform="translate(100 0)"/>
     <use xlink:href="#MicrosoftYaHei-Bold-98ce" transform="translate(200 0)"/>
     <use xlink:href="#MicrosoftYaHei-Bold-9669" transform="translate(300 0)"/>
    </g>
   </g>
  </g>
  <g id="text_34">
   <!-- 策略组件对风险调整收益和回撤的影响 -->
   <g style="fill: #1f2430" transform="translate(59.302344 20.789375) scale(0.17 -0.17)">
    <defs>
     <path id="MicrosoftYaHei-Bold-7b56" d="M 6225 4284 
L 5281 4284 
Q 5419 4013 5525 3753 
L 4719 3591 
Q 4603 3963 4450 4284 
L 4075 4284 
Q 3881 3988 3638 3697 
L 3613 3709 
L 3613 3453 
L 6200 3453 
L 6200 2803 
L 3613 2803 
L 3613 2403 
L 5913 2403 
L 5913 1409 
Q 5913 1106 5727 882 
Q 5541 659 4719 659 
Q 5428 284 6313 147 
Q 6094 -203 5875 -653 
Q 4475 -225 3613 659 
L 3613 -853 
L 2788 -853 
L 2788 681 
Q 1872 -216 525 -697 
Q 350 -341 94 72 
Q 1759 528 2788 1509 
L 2788 1766 
L 1444 1766 
L 1444 647 
L 631 647 
L 631 2403 
L 2788 2403 
L 2788 2803 
L 225 2803 
L 225 3453 
L 2788 3453 
L 2788 3734 
L 3566 3734 
Q 3263 3891 2906 4053 
Q 3450 4578 3800 5347 
L 4619 5347 
Q 4531 5113 4419 4884 
L 6225 4884 
L 6225 4284 
z
M 4275 1353 
Q 4581 1303 4856 1303 
Q 5100 1303 5100 1522 
L 5100 1766 
L 3613 1766 
L 3613 1491 
Q 3966 1128 4381 856 
Q 4347 1094 4275 1353 
z
M 3113 4284 
L 2225 4284 
Q 2359 4016 2494 3703 
L 1688 3541 
Q 1566 3922 1416 4284 
L 1288 4284 
Q 894 3822 431 3484 
Q 325 3803 75 4228 
Q 700 4634 1119 5341 
L 2006 5341 
Q 1875 5100 1734 4884 
L 3113 4884 
L 3113 4284 
z
" transform="scale(0.015625)"/>
     <path id="MicrosoftYaHei-Bold-7565" d="M 6056 4716 
L 6056 3978 
Q 5775 3350 5269 2863 
Q 5738 2666 6325 2591 
Q 6194 2209 6075 1753 
Q 5244 1931 4597 2347 
Q 3994 1966 3188 1716 
L 5950 1716 
L 5950 -847 
L 5175 -847 
L 5175 -522 
L 3881 -522 
L 3881 -859 
L 3106 -859 
L 3106 1691 
L 3000 1659 
Q 2891 1934 2756 2213 
L 2756 -459 
L 2119 -459 
L 2119 -3 
L 969 -3 
L 969 -497 
L 331 -497 
L 331 4866 
L 2756 4866 
L 2756 3619 
Q 3469 4422 3769 5359 
L 4544 5241 
Q 4459 4969 4356 4716 
L 6056 4716 
z
M 2119 4266 
L 1806 4266 
L 1806 2734 
L 2119 2734 
L 2119 4266 
z
M 969 2734 
L 1281 2734 
L 1281 4266 
L 969 4266 
L 969 2734 
z
M 3978 3934 
Q 4231 3541 4588 3259 
Q 4972 3578 5188 3997 
L 4013 3997 
Q 3994 3966 3978 3934 
z
M 3219 2922 
Q 3050 3125 2756 3413 
L 2756 2444 
Q 3447 2600 3963 2856 
Q 3747 3069 3559 3316 
Q 3400 3109 3219 2922 
z
M 969 597 
L 1281 597 
L 1281 2134 
L 969 2134 
L 969 597 
z
M 1806 597 
L 2119 597 
L 2119 2134 
L 1806 2134 
L 1806 597 
z
M 5175 966 
L 3881 966 
L 3881 228 
L 5175 228 
L 5175 966 
z
" transform="scale(0.015625)"/>
     <path id="MicrosoftYaHei-Bold-7ec4" d="M 244 -559 
L 94 272 
Q 1200 397 2388 566 
Q 2375 384 2369 203 
L 2694 203 
L 2694 3769 
Q 2003 2625 1363 1728 
L 2463 1859 
Q 2406 1409 2394 1109 
Q 788 941 488 834 
L 181 1584 
Q 500 1766 1144 2734 
Q 538 2703 325 2634 
L 75 3366 
Q 413 3578 1231 5366 
L 2025 5059 
Q 1513 4153 1038 3409 
L 1584 3438 
Q 1791 3788 1994 4172 
L 2694 3838 
L 2694 5059 
L 5913 5059 
L 5913 203 
L 6306 203 
L 6306 -603 
L 2256 -603 
L 2256 -263 
L 244 -559 
z
M 5038 4253 
L 3569 4253 
L 3569 3434 
L 5038 3434 
L 5038 4253 
z
M 3569 1828 
L 5038 1828 
L 5038 2647 
L 3569 2647 
L 3569 1828 
z
M 3569 203 
L 5038 203 
L 5038 1041 
L 3569 1041 
L 3569 203 
z
" transform="scale(0.015625)"/>
     <path id="MicrosoftYaHei-Bold-4ef6" d="M 1944 1959 
L 3938 1959 
L 3938 3153 
L 3078 3153 
Q 2897 2563 2694 2097 
Q 2350 2284 1913 2466 
Q 2331 3472 2625 4903 
L 3469 4697 
Q 3388 4309 3300 3959 
L 3938 3959 
L 3938 5309 
L 4844 5309 
L 4844 3959 
L 6150 3959 
L 6150 3153 
L 4844 3153 
L 4844 1959 
L 6319 1959 
L 6319 1153 
L 4844 1153 
L 4844 -853 
L 3938 -853 
L 3938 1153 
L 1944 1153 
L 1944 1959 
z
M 1269 5303 
L 2131 5053 
Q 1906 4384 1669 3794 
L 1669 -847 
L 831 -847 
L 831 2000 
Q 578 1541 313 1153 
Q 200 1834 94 2322 
Q 750 3559 1269 5303 
z
" transform="scale(0.015625)"/>
     <path id="MicrosoftYaHei-Bold-5bf9" d="M 3050 4234 
L 4850 4234 
L 4850 5309 
L 5744 5309 
L 5744 4234 
L 6319 4234 
L 6319 3409 
L 5744 3409 
L 5744 216 
Q 5744 -250 5539 -490 
Q 5334 -731 4987 -754 
Q 4641 -778 3656 -778 
Q 3594 -359 3450 147 
Q 3931 109 4409 109 
Q 4850 109 4850 516 
L 4850 3409 
L 3050 3409 
L 3050 4234 
z
M 863 3772 
L 1691 2509 
Q 1934 3206 2025 4016 
L 188 4016 
L 188 4834 
L 2900 4834 
L 2900 4028 
Q 2709 2722 2247 1669 
L 3169 278 
L 2394 -228 
L 1781 778 
Q 1269 -47 550 -684 
Q 369 -316 88 153 
Q 816 772 1278 1594 
L 181 3341 
L 863 3772 
z
M 3463 3047 
Q 4069 2278 4588 1528 
L 3844 1041 
Q 3375 1841 2813 2609 
L 3463 3047 
z
" transform="scale(0.015625)"/>
     <path id="MicrosoftYaHei-Bold-548c" d="M 94 1147 
Q 725 1816 1106 2716 
L 150 2716 
L 150 3522 
L 1225 3522 
L 1225 4209 
Q 784 4169 338 4141 
Q 300 4472 238 4903 
Q 1681 5016 2875 5166 
L 3025 4403 
Q 2547 4341 2056 4288 
L 2056 3522 
L 3044 3522 
L 3044 2716 
L 2056 2716 
L 2056 1997 
L 2288 2241 
Q 2756 1878 3188 1491 
L 2650 853 
Q 2344 1181 2056 1453 
L 2056 -803 
L 1225 -803 
L 1225 1441 
Q 875 734 419 159 
Q 306 559 94 1147 
z
M 3244 -553 
L 3244 4797 
L 5994 4797 
L 5994 -516 
L 5156 -516 
L 5156 28 
L 4081 28 
L 4081 -553 
L 3244 -553 
z
M 5156 3966 
L 4081 3966 
L 4081 859 
L 5156 859 
L 5156 3966 
z
" transform="scale(0.015625)"/>
     <path id="MicrosoftYaHei-Bold-56de" d="M 388 -797 
L 388 5053 
L 6019 5053 
L 6019 -791 
L 5125 -791 
L 5125 -528 
L 1281 -528 
L 1281 -797 
L 388 -797 
z
M 5125 241 
L 5125 4284 
L 1281 4284 
L 1281 241 
L 5125 241 
z
M 1794 3603 
L 4606 3603 
L 4606 928 
L 1794 928 
L 1794 3603 
z
M 3738 1672 
L 3738 2859 
L 2663 2859 
L 2663 1672 
L 3738 1672 
z
" transform="scale(0.015625)"/>
     <path id="MicrosoftYaHei-Bold-64a4" d="M 1700 4709 
L 2606 4709 
L 2469 5209 
L 3213 5366 
L 3400 4709 
L 4225 4709 
L 4225 4084 
L 3091 4084 
L 2544 3422 
Q 2819 3422 3356 3441 
Q 3238 3644 3119 3809 
L 3619 4072 
Q 3894 3719 4134 3359 
Q 4494 4153 4750 5353 
L 5481 5197 
Q 5369 4722 5219 4278 
L 6306 4278 
L 6306 3534 
L 6091 3534 
Q 6019 2006 5559 878 
Q 5866 381 6313 59 
Q 6069 -497 5975 -834 
Q 5500 -438 5166 97 
Q 4834 -441 4388 -859 
Q 4222 -475 4031 -150 
Q 4028 -519 3815 -651 
Q 3603 -784 2813 -784 
Q 2744 -453 2625 -116 
Q 3159 -144 3251 -86 
Q 3344 -28 3344 153 
L 3344 266 
L 2544 266 
L 2544 -778 
L 1850 -778 
L 1850 2572 
L 4038 2572 
L 4038 -3 
Q 4472 372 4766 900 
Q 4494 1616 4400 2509 
Q 4325 2388 4250 2272 
Q 4163 2531 3991 2866 
Q 3853 2775 3750 2703 
L 3659 2884 
Q 2369 2838 1825 2778 
L 1713 3359 
Q 2028 3703 2291 4084 
L 1700 4084 
L 1700 4709 
z
M 5150 1816 
Q 5375 2572 5413 3534 
L 4934 3534 
Q 4919 3503 4906 3469 
Q 4941 2531 5150 1816 
z
M 3344 1978 
L 2544 1978 
L 2544 1659 
L 3344 1659 
L 3344 1978 
z
M 2544 803 
L 3344 803 
L 3344 1122 
L 2544 1122 
L 2544 803 
z
M 125 4084 
L 588 4084 
L 588 5309 
L 1313 5309 
L 1313 4084 
L 1688 4084 
L 1688 3359 
L 1313 3359 
L 1313 2419 
L 1688 2503 
Q 1656 2084 1663 1728 
L 1313 1647 
L 1313 -59 
Q 1313 -381 1211 -551 
Q 1109 -722 845 -750 
Q 581 -778 206 -778 
Q 169 -397 75 41 
Q 278 22 413 22 
Q 588 22 588 303 
L 588 1475 
L 119 1359 
L 94 2184 
L 588 2272 
L 588 3359 
L 125 3359 
L 125 4084 
z
" transform="scale(0.015625)"/>
     <path id="MicrosoftYaHei-Bold-7684" d="M 1250 5303 
L 2181 5159 
L 1900 4309 
L 2963 4309 
L 2963 3091 
Q 3466 3934 3925 5316 
L 4788 5091 
Q 4650 4675 4494 4278 
L 6106 4278 
L 6034 681 
Q 6019 100 5937 -133 
Q 5856 -366 5684 -512 
Q 5513 -659 5205 -712 
Q 4897 -766 3863 -766 
Q 3769 -216 3625 178 
Q 4088 141 4609 141 
Q 4759 141 4868 175 
Q 4978 209 5048 279 
Q 5119 350 5144 437 
Q 5169 525 5184 1206 
L 5213 2484 
Q 5225 3081 5225 3453 
L 4138 3453 
Q 3931 3016 3700 2603 
Q 3403 2797 2963 2988 
L 2963 -734 
L 2094 -734 
L 2094 -284 
L 1206 -284 
L 1206 -772 
L 338 -772 
L 338 4309 
L 997 4309 
Q 1178 4922 1250 5303 
z
M 2094 3491 
L 1206 3491 
L 1206 2422 
L 2094 2422 
L 2094 3491 
z
M 1206 534 
L 2094 534 
L 2094 1603 
L 1206 1603 
L 1206 534 
z
M 3944 2703 
Q 4394 2166 4913 1397 
L 4125 872 
Q 3650 1653 3219 2203 
L 3944 2703 
z
" transform="scale(0.015625)"/>
     <path id="MicrosoftYaHei-Bold-5f71" d="M 3750 4009 
Q 4750 4559 5563 5278 
L 6125 4691 
Q 5150 3853 4219 3291 
Q 3988 3684 3750 4009 
z
M 138 2853 
L 1650 2853 
L 1578 3109 
L 400 3109 
L 400 5047 
L 3619 5047 
L 3619 3109 
L 2384 3109 
L 2425 2853 
L 3969 2853 
L 3969 2253 
L 138 2253 
L 138 2853 
z
M 2925 4559 
L 1100 4559 
L 1100 4297 
L 2925 4297 
L 2925 4559 
z
M 2925 3597 
L 2925 3859 
L 1100 3859 
L 1100 3597 
L 2925 3597 
z
M 3750 2016 
Q 4819 2672 5775 3628 
L 6356 3034 
Q 5425 2103 4250 1284 
Q 4019 1672 3750 2016 
z
M 50 -259 
Q 550 159 963 659 
L 1481 253 
Q 1300 44 1122 -141 
L 1463 -166 
Q 1725 -166 1725 184 
L 1725 672 
L 513 672 
L 513 2022 
L 3513 2022 
L 3513 672 
L 2438 672 
L 2438 -72 
Q 2438 -366 2330 -530 
Q 2222 -694 2039 -734 
Q 1856 -775 1219 -766 
Q 1159 -450 1091 -175 
Q 788 -494 500 -753 
L 50 -259 
z
M 2813 1191 
L 2813 1503 
L 1213 1503 
L 1213 1191 
L 2813 1191 
z
M 2631 253 
L 3081 666 
Q 3431 356 3828 -19 
Q 4844 706 5738 1691 
L 6350 1072 
Q 5375 -9 4163 -903 
Q 4006 -659 3669 -241 
L 3350 -528 
Q 2975 -84 2631 253 
z
" transform="scale(0.015625)"/>
     <path id="MicrosoftYaHei-Bold-54cd" d="M 2325 4572 
L 3369 4572 
Q 3494 4991 3588 5366 
L 4475 5247 
L 4178 4572 
L 6069 4572 
L 6069 141 
Q 6069 -225 5928 -445 
Q 5788 -666 5533 -728 
Q 5278 -791 4288 -791 
Q 4225 -434 4113 47 
Q 4519 22 4863 22 
Q 5300 22 5300 466 
L 5300 3809 
L 3063 3809 
L 3063 -766 
L 2325 -766 
L 2325 4572 
z
M 338 4741 
L 2063 4741 
L 2063 16 
L 1388 16 
L 1388 416 
L 1063 416 
L 1063 -147 
L 338 -147 
L 338 4741 
z
M 1388 3941 
L 1063 3941 
L 1063 1216 
L 1388 1216 
L 1388 3941 
z
M 3350 3328 
L 5013 3328 
L 5013 616 
L 3988 616 
L 3988 216 
L 3350 216 
L 3350 3328 
z
M 4375 1391 
L 4375 2553 
L 3988 2553 
L 3988 1391 
L 4375 1391 
z
" transform="scale(0.015625)"/>
    </defs>
    <use xlink:href="#MicrosoftYaHei-Bold-7b56"/>
    <use xlink:href="#MicrosoftYaHei-Bold-7565" transform="translate(100 0)"/>
    <use xlink:href="#MicrosoftYaHei-Bold-7ec4" transform="translate(200 0)"/>
    <use xlink:href="#MicrosoftYaHei-Bold-4ef6" transform="translate(300 0)"/>
    <use xlink:href="#MicrosoftYaHei-Bold-5bf9" transform="translate(400 0)"/>
    <use xlink:href="#MicrosoftYaHei-Bold-98ce" transform="translate(500 0)"/>
    <use xlink:href="#MicrosoftYaHei-Bold-9669" transform="translate(600 0)"/>
    <use xlink:href="#MicrosoftYaHei-Bold-8c03" transform="translate(700 0)"/>
    <use xlink:href="#MicrosoftYaHei-Bold-6574" transform="translate(800 0)"/>
    <use xlink:href="#MicrosoftYaHei-Bold-6536" transform="translate(900 0)"/>
    <use xlink:href="#MicrosoftYaHei-Bold-76ca" transform="translate(1000 0)"/>
    <use xlink:href="#MicrosoftYaHei-Bold-548c" transform="translate(1100 0)"/>
    <use xlink:href="#MicrosoftYaHei-Bold-56de" transform="translate(1200 0)"/>
    <use xlink:href="#MicrosoftYaHei-Bold-64a4" transform="translate(1300 0)"/>
    <use xlink:href="#MicrosoftYaHei-Bold-7684" transform="translate(1400 0)"/>
    <use xlink:href="#MicrosoftYaHei-Bold-5f71" transform="translate(1500 0)"/>
    <use xlink:href="#MicrosoftYaHei-Bold-54cd" transform="translate(1600 0)"/>
   </g>
  </g>
  <g id="text_35">
   <!-- 组件拆解使用同一基准框架；比较仅排序、排序加趋势过滤、排序加反波动率和完整基准策略。 -->
   <g style="fill: #6f768a" transform="translate(59.302344 38.921438) scale(0.105 -0.105)">
    <defs>
     <path id="MicrosoftYaHei-7ec4" d="M 1994 -516 
L 1994 -66 
L 2738 -66 
L 2738 4941 
L 5763 4941 
L 5763 -66 
L 6313 -66 
L 6313 -516 
L 1994 -516 
z
M 969 1703 
Q 1606 1784 2300 1872 
Q 2275 1603 2256 1447 
Q 1331 1328 400 1191 
L 300 1647 
Q 697 1956 1284 2941 
Q 597 2897 256 2866 
L 131 3278 
Q 619 3866 1200 5291 
L 1706 5116 
Q 1163 4091 681 3316 
Q 1197 3319 1506 3328 
Q 1756 3775 2038 4334 
L 2519 4122 
Q 1806 2859 969 1703 
z
M 5288 4491 
L 3213 4491 
L 3213 3259 
L 5288 3259 
L 5288 4491 
z
M 3213 -66 
L 5288 -66 
L 5288 1166 
L 3213 1166 
L 3213 -66 
z
M 3213 1597 
L 5288 1597 
L 5288 2828 
L 3213 2828 
L 3213 1597 
z
M 181 291 
Q 1088 459 2356 741 
Q 2331 453 2331 266 
Q 1031 -3 319 -184 
L 181 291 
z
" transform="scale(0.015625)"/>
     <path id="MicrosoftYaHei-4ef6" d="M 1950 1816 
L 4119 1816 
L 4119 3397 
L 2928 3397 
Q 2675 2725 2375 2197 
Q 2194 2372 1963 2528 
Q 2556 3572 2838 4859 
L 3344 4716 
Q 3222 4250 3081 3834 
L 4119 3834 
L 4119 5284 
L 4619 5284 
L 4619 3834 
L 6113 3834 
L 6113 3397 
L 4619 3397 
L 4619 1816 
L 6319 1816 
L 6319 1378 
L 4619 1378 
L 4619 -809 
L 4119 -809 
L 4119 1378 
L 1950 1378 
L 1950 1816 
z
M 69 2191 
Q 931 3466 1456 5278 
L 1969 5128 
Q 1738 4400 1469 3763 
L 1469 -816 
L 975 -816 
L 975 2731 
Q 656 2141 294 1647 
Q 200 1916 69 2191 
z
" transform="scale(0.015625)"/>
     <path id="MicrosoftYaHei-62c6" d="M 3675 1991 
Q 4119 1791 4569 1575 
L 4569 2734 
L 3069 2734 
L 3069 2122 
Q 3069 166 2113 -834 
Q 1956 -628 1763 -422 
Q 2594 428 2594 2109 
L 2594 4778 
Q 4256 4784 5856 5059 
L 6019 4578 
Q 4544 4409 3069 4341 
L 3069 3184 
L 6181 3184 
L 6181 2734 
L 5044 2734 
L 5044 1344 
Q 5619 1056 6206 741 
L 5913 278 
Q 5466 541 5044 775 
L 5044 -834 
L 4569 -834 
L 4569 1031 
Q 3975 1341 3425 1591 
L 3675 1991 
z
M 94 1997 
Q 566 2131 1006 2259 
L 1006 3597 
L 175 3597 
L 175 4041 
L 1006 4041 
L 1006 5259 
L 1475 5259 
L 1475 4041 
L 2238 4041 
L 2238 3597 
L 1475 3597 
L 1475 2403 
Q 1863 2522 2219 2641 
Q 2213 2459 2231 2153 
Q 1838 2034 1475 1919 
L 1475 -53 
Q 1475 -747 881 -753 
Q 594 -759 263 -753 
Q 231 -484 181 -222 
Q 500 -259 769 -259 
Q 1006 -259 1006 47 
L 1006 1769 
Q 553 1622 156 1478 
L 94 1997 
z
" transform="scale(0.015625)"/>
     <path id="MicrosoftYaHei-89e3" d="M 75 3559 
Q 756 4316 1188 5322 
L 1625 5203 
Q 1497 4941 1366 4697 
L 2544 4697 
L 2544 4309 
L 2084 3641 
L 2881 3641 
L 2881 -128 
Q 2881 -753 2263 -759 
Q 1994 -766 1706 -747 
Q 1688 -591 1638 -328 
Q 1938 -359 2175 -359 
Q 2475 -359 2475 -66 
L 2475 953 
L 1913 953 
L 1913 -203 
L 1506 -203 
L 1506 953 
L 950 953 
Q 897 -225 438 -847 
Q 294 -684 88 -528 
Q 550 153 550 1303 
L 550 3428 
Q 463 3319 375 3216 
Q 269 3359 75 3559 
z
M 3075 897 
L 4550 897 
L 4550 1797 
L 3794 1797 
Q 3659 1438 3513 1122 
Q 3331 1228 3106 1309 
Q 3456 2059 3663 2828 
L 4094 2709 
Q 4019 2456 3941 2222 
L 4550 2222 
L 4550 2897 
L 5013 2897 
L 5013 2222 
L 6131 2222 
L 6131 1797 
L 5013 1797 
L 5013 897 
L 6281 897 
L 6281 472 
L 5013 472 
L 5013 -841 
L 4550 -841 
L 4550 472 
L 3075 472 
L 3075 897 
z
M 3138 4997 
L 5950 4997 
Q 5931 4384 5888 3847 
Q 5844 3084 5081 3084 
Q 4819 3084 4438 3103 
Q 4400 3366 4350 3603 
Q 4800 3547 5056 3547 
Q 5394 3547 5425 3909 
Q 5456 4191 5469 4572 
L 4284 4572 
Q 4263 3950 4063 3584 
Q 3844 3159 3219 2759 
Q 3119 2916 2919 3159 
Q 3438 3441 3638 3778 
Q 3806 4050 3828 4572 
L 3138 4572 
L 3138 4997 
z
M 709 3641 
L 1581 3641 
L 2038 4316 
L 1150 4316 
Q 934 3950 709 3641 
z
M 1913 1322 
L 2475 1322 
L 2475 2116 
L 1913 2116 
L 1913 1322 
z
M 2475 3272 
L 1913 3272 
L 1913 2484 
L 2475 2484 
L 2475 3272 
z
M 956 1322 
L 1506 1322 
L 1506 2116 
L 956 2116 
L 956 1322 
z
M 956 2484 
L 1506 2484 
L 1506 3272 
L 956 3272 
L 956 2484 
z
" transform="scale(0.015625)"/>
     <path id="MicrosoftYaHei-4f7f" d="M 2269 1247 
L 2688 1478 
Q 2972 997 3409 644 
Q 3634 969 3719 1684 
L 2088 1684 
L 2088 3403 
L 3775 3403 
L 3775 4022 
L 1775 4022 
L 1775 4447 
L 3775 4447 
L 3775 5291 
L 4256 5291 
L 4256 4447 
L 6275 4447 
L 6275 4022 
L 4256 4022 
L 4256 3403 
L 5938 3403 
L 5938 1416 
L 5463 1416 
L 5463 1684 
L 4203 1684 
Q 4106 813 3825 372 
Q 3822 366 3819 363 
Q 4788 -203 6325 -297 
Q 6138 -566 5981 -816 
Q 4472 -631 3488 -3 
Q 2941 -488 1881 -866 
Q 1738 -666 1556 -447 
Q 2572 -128 3081 291 
Q 2594 700 2269 1247 
z
M 94 2284 
Q 931 3553 1394 5316 
L 1856 5178 
Q 1600 4338 1294 3619 
L 1294 -847 
L 850 -847 
L 850 2697 
Q 581 2203 281 1784 
Q 188 2047 94 2284 
z
M 4238 2103 
L 5463 2103 
L 5463 2984 
L 4256 2984 
Q 4256 2741 4238 2103 
z
M 3756 2103 
Q 3775 2400 3775 2984 
L 2563 2984 
L 2563 2103 
L 3756 2103 
z
" transform="scale(0.015625)"/>
     <path id="MicrosoftYaHei-7528" d="M 3088 -734 
L 3088 1253 
L 1269 1253 
Q 1163 -47 513 -903 
Q 350 -697 144 -472 
Q 550 103 694 803 
Q 831 1478 831 2716 
L 831 4947 
L 5925 4947 
L 5925 -22 
Q 5925 -766 5219 -766 
Q 4788 -766 4250 -747 
Q 4219 -541 4156 -228 
Q 4700 -266 5038 -266 
Q 5425 -266 5425 103 
L 5425 1253 
L 3588 1253 
L 3588 -734 
L 3088 -734 
z
M 3588 1703 
L 5425 1703 
L 5425 2872 
L 3588 2872 
L 3588 1703 
z
M 5425 4484 
L 3588 4484 
L 3588 3322 
L 5425 3322 
L 5425 4484 
z
M 1303 1703 
L 3088 1703 
L 3088 2872 
L 1331 2872 
Q 1350 2266 1303 1703 
z
M 1331 4484 
L 1331 3322 
L 3088 3322 
L 3088 4484 
L 1331 4484 
z
" transform="scale(0.015625)"/>
     <path id="MicrosoftYaHei-540c" d="M 1013 -772 
L 531 -772 
L 531 4959 
L 5856 4959 
L 5856 -47 
Q 5856 -741 5125 -741 
Q 4669 -741 4088 -716 
Q 4056 -497 4000 -216 
Q 4619 -272 5025 -272 
Q 5375 -272 5375 78 
L 5375 4497 
L 1013 4497 
L 1013 -772 
z
M 1875 2566 
L 4506 2566 
L 4506 597 
L 2338 597 
L 2338 272 
L 1875 272 
L 1875 2566 
z
M 4044 2116 
L 2338 2116 
L 2338 1047 
L 4044 1047 
L 4044 2116 
z
M 1363 3734 
L 5025 3734 
L 5025 3284 
L 1363 3284 
L 1363 3734 
z
" transform="scale(0.015625)"/>
     <path id="MicrosoftYaHei-4e00" d="M 100 2703 
L 6313 2703 
L 6313 2153 
L 100 2153 
L 100 2703 
z
" transform="scale(0.015625)"/>
     <path id="MicrosoftYaHei-6846" d="M 2475 4941 
L 6163 4941 
L 6163 4491 
L 2944 4491 
L 2944 -122 
L 6250 -122 
L 6250 -572 
L 2475 -572 
L 2475 4941 
z
M 88 1403 
Q 747 2447 1028 3666 
L 131 3666 
L 131 4103 
L 1031 4103 
L 1031 5322 
L 1494 5322 
L 1494 4103 
L 2275 4103 
L 2275 3666 
L 1494 3666 
L 1494 2669 
L 1769 2922 
Q 2038 2647 2419 2203 
L 2075 1884 
Q 1819 2228 1494 2603 
L 1494 -841 
L 1031 -841 
L 1031 2506 
Q 709 1456 288 853 
Q 206 1122 88 1403 
z
M 3156 1078 
L 4425 1078 
L 4425 2041 
L 3425 2041 
L 3425 2466 
L 4425 2466 
L 4425 3366 
L 3313 3366 
L 3313 3791 
L 6025 3791 
L 6025 3366 
L 4888 3366 
L 4888 2466 
L 5888 2466 
L 5888 2041 
L 4888 2041 
L 4888 1078 
L 6156 1078 
L 6156 653 
L 3156 653 
L 3156 1078 
z
" transform="scale(0.015625)"/>
     <path id="MicrosoftYaHei-67b6" d="M 6313 -91 
Q 6081 -347 5925 -566 
Q 4369 -34 3438 1094 
L 3438 -859 
L 2963 -859 
L 2963 1103 
Q 1913 -41 450 -641 
Q 306 -453 88 -216 
Q 1509 269 2606 1209 
L 200 1209 
L 200 1647 
L 2963 1647 
L 2963 2347 
L 3438 2347 
L 3438 1647 
L 6231 1647 
L 6231 1209 
L 3772 1209 
Q 4781 231 6313 -91 
z
M 3588 4797 
L 5863 4797 
L 5863 2334 
L 5400 2334 
L 5400 2653 
L 4050 2653 
L 4050 2316 
L 3588 2316 
L 3588 4797 
z
M 281 4628 
L 1181 4628 
Q 1200 4953 1200 5347 
L 1663 5347 
Q 1663 4956 1647 4628 
L 3050 4628 
Q 3019 3766 2981 3234 
Q 2944 2666 2763 2472 
Q 2600 2278 2138 2278 
Q 1950 2278 1650 2284 
Q 1606 2534 1544 2753 
Q 1913 2716 2113 2716 
Q 2475 2716 2506 3109 
Q 2556 3728 2575 4203 
L 1616 4203 
Q 1563 2891 444 1972 
Q 300 2141 81 2316 
Q 1050 3041 1144 4203 
L 281 4203 
L 281 4628 
z
M 5400 4372 
L 4050 4372 
L 4050 3078 
L 5400 3078 
L 5400 4372 
z
" transform="scale(0.015625)"/>
     <path id="MicrosoftYaHei-ff1b" d="M 1606 3531 
Q 1772 3531 1890 3415 
Q 2009 3300 2009 3138 
Q 2009 2975 1893 2858 
Q 1778 2741 1606 2741 
Q 1434 2741 1318 2858 
Q 1203 2975 1203 3138 
Q 1203 3300 1322 3415 
Q 1441 3531 1606 3531 
z
M 1931 775 
L 1403 -891 
L 966 -891 
L 1350 775 
L 1931 775 
z
" transform="scale(0.015625)"/>
     <path id="MicrosoftYaHei-6bd4" d="M 3225 5316 
L 3744 5316 
L 3744 2672 
Q 4959 3550 5744 4509 
L 6188 4178 
Q 5175 3063 3744 2056 
L 3744 247 
Q 3744 -166 4106 -166 
L 5175 -166 
Q 5588 -166 5650 203 
Q 5725 678 5763 1247 
Q 6025 1147 6300 1066 
Q 6244 484 6150 22 
Q 6019 -622 5319 -622 
L 3944 -622 
Q 3225 -622 3225 159 
L 3225 5316 
z
M 1063 5153 
L 1063 3278 
L 2825 3278 
L 2825 2809 
L 1063 2809 
L 1063 153 
Q 1713 428 2763 928 
Q 2763 634 2788 366 
Q 1869 -3 1231 -328 
Q 956 -472 725 -672 
L 344 -184 
Q 544 -34 544 272 
L 544 5153 
L 1063 5153 
z
" transform="scale(0.015625)"/>
     <path id="MicrosoftYaHei-8f83" d="M 694 2234 
L 1438 2234 
L 1438 3603 
L 1875 3603 
L 1875 2234 
L 2513 2234 
L 2513 1828 
L 1875 1828 
L 1875 981 
Q 2288 1031 2688 1084 
Q 2656 847 2644 653 
Q 2294 613 1875 559 
L 1875 -841 
L 1438 -841 
L 1438 506 
Q 844 428 131 334 
L 81 791 
Q 778 856 1438 928 
L 1438 1828 
L 238 1828 
L 238 2222 
Q 575 3156 816 3928 
L 156 3928 
L 156 4347 
L 941 4347 
Q 1103 4891 1206 5347 
L 1688 5247 
Q 1559 4831 1403 4347 
L 2494 4347 
L 2494 3928 
L 1269 3928 
Q 1016 3156 694 2234 
z
M 5525 2341 
Q 5200 1303 4694 644 
Q 5306 69 6331 -247 
Q 6094 -522 5944 -728 
Q 4972 -334 4353 256 
Q 3641 -450 2563 -828 
Q 2481 -666 2263 -384 
Q 3341 -22 4025 619 
Q 3531 1247 3219 2203 
L 3644 2397 
Q 3909 1572 4363 1003 
Q 4813 1622 5063 2497 
L 5525 2341 
z
M 2719 4366 
L 4316 4366 
Q 4109 4728 3806 5116 
L 4188 5359 
Q 4538 4966 4788 4578 
L 4459 4366 
L 6225 4366 
L 6225 3928 
L 2719 3928 
L 2719 4366 
z
M 4663 3422 
L 5006 3722 
Q 5669 3103 6256 2434 
L 5881 2097 
Q 5344 2747 4663 3422 
z
M 3600 3741 
L 4013 3484 
Q 3456 2628 2925 1997 
Q 2706 2191 2544 2297 
Q 3106 2922 3600 3741 
z
" transform="scale(0.015625)"/>
     <path id="MicrosoftYaHei-3001" d="M 1931 -413 
L 1556 -791 
Q 1028 -216 397 306 
L 728 650 
Q 1506 22 1931 -413 
z
" transform="scale(0.015625)"/>
     <path id="MicrosoftYaHei-52a0" d="M 3663 4484 
L 6038 4484 
L 6038 -666 
L 5544 -666 
L 5544 -34 
L 4156 -34 
L 4156 -666 
L 3663 -666 
L 3663 4484 
z
M 231 4178 
L 1103 4178 
Q 1109 4681 1106 5297 
L 1600 5297 
Q 1600 4675 1594 4178 
L 3050 4178 
Q 3019 1778 2969 409 
Q 2944 -716 2119 -672 
Q 1875 -672 1400 -653 
Q 1356 -391 1300 -109 
Q 1738 -166 2013 -166 
Q 2431 -178 2469 428 
Q 2538 1909 2550 3703 
L 1588 3703 
Q 1581 3225 1569 2891 
Q 1544 447 394 -872 
Q 238 -678 25 -453 
Q 1063 684 1081 2941 
Q 1094 3269 1100 3703 
L 231 3703 
L 231 4178 
z
M 5544 4022 
L 4156 4022 
L 4156 416 
L 5544 416 
L 5544 4022 
z
" transform="scale(0.015625)"/>
     <path id="MicrosoftYaHei-548c" d="M 3263 4553 
L 6025 4553 
L 6025 -666 
L 5525 -666 
L 5525 -59 
L 3763 -59 
L 3763 -666 
L 3263 -666 
L 3263 4553 
z
M 5525 4091 
L 3763 4091 
L 3763 391 
L 5525 391 
L 5525 4091 
z
M 75 897 
Q 788 1841 1206 2997 
L 113 2997 
L 113 3422 
L 1306 3422 
L 1306 4409 
Q 819 4334 319 4272 
Q 263 4478 181 4703 
Q 1481 4847 2700 5128 
L 2844 4691 
Q 2325 4584 1781 4491 
L 1781 3422 
L 2950 3422 
L 2950 2997 
L 1781 2997 
L 1781 2191 
L 2006 2416 
Q 2500 1991 2975 1516 
L 2619 1153 
Q 2244 1584 1781 2034 
L 1781 -872 
L 1306 -872 
L 1306 2128 
Q 938 1203 313 359 
Q 213 603 75 897 
z
" transform="scale(0.015625)"/>
     <path id="MicrosoftYaHei-3002" d="M 1219 863 
Q 1525 863 1750 625 
Q 1975 388 1975 72 
Q 1975 -284 1747 -507 
Q 1519 -731 1197 -731 
Q 875 -731 642 -503 
Q 409 -275 409 66 
Q 409 413 656 638 
Q 903 863 1219 863 
z
M 1209 -275 
Q 1328 -275 1431 -184 
Q 1534 -94 1534 50 
Q 1534 209 1434 304 
Q 1334 400 1191 400 
Q 1056 400 959 304 
Q 863 209 863 53 
Q 863 -100 977 -187 
Q 1091 -275 1209 -275 
z
" transform="scale(0.015625)"/>
    </defs>
    <use xlink:href="#MicrosoftYaHei-7ec4"/>
    <use xlink:href="#MicrosoftYaHei-4ef6" transform="translate(100 0)"/>
    <use xlink:href="#MicrosoftYaHei-62c6" transform="translate(200 0)"/>
    <use xlink:href="#MicrosoftYaHei-89e3" transform="translate(300 0)"/>
    <use xlink:href="#MicrosoftYaHei-4f7f" transform="translate(400 0)"/>
    <use xlink:href="#MicrosoftYaHei-7528" transform="translate(500 0)"/>
    <use xlink:href="#MicrosoftYaHei-540c" transform="translate(600 0)"/>
    <use xlink:href="#MicrosoftYaHei-4e00" transform="translate(700 0)"/>
    <use xlink:href="#MicrosoftYaHei-57fa" transform="translate(800 0)"/>
    <use xlink:href="#MicrosoftYaHei-51c6" transform="translate(900 0)"/>
    <use xlink:href="#MicrosoftYaHei-6846" transform="translate(1000 0)"/>
    <use xlink:href="#MicrosoftYaHei-67b6" transform="translate(1100 0)"/>
    <use xlink:href="#MicrosoftYaHei-ff1b" transform="translate(1200 0)"/>
    <use xlink:href="#MicrosoftYaHei-6bd4" transform="translate(1300 0)"/>
    <use xlink:href="#MicrosoftYaHei-8f83" transform="translate(1400 0)"/>
    <use xlink:href="#MicrosoftYaHei-4ec5" transform="translate(1500 0)"/>
    <use xlink:href="#MicrosoftYaHei-6392" transform="translate(1600 0)"/>
    <use xlink:href="#MicrosoftYaHei-5e8f" transform="translate(1700 0)"/>
    <use xlink:href="#MicrosoftYaHei-3001" transform="translate(1800 0)"/>
    <use xlink:href="#MicrosoftYaHei-6392" transform="translate(1900 0)"/>
    <use xlink:href="#MicrosoftYaHei-5e8f" transform="translate(2000 0)"/>
    <use xlink:href="#MicrosoftYaHei-52a0" transform="translate(2100 0)"/>
    <use xlink:href="#MicrosoftYaHei-8d8b" transform="translate(2200 0)"/>
    <use xlink:href="#MicrosoftYaHei-52bf" transform="translate(2300 0)"/>
    <use xlink:href="#MicrosoftYaHei-8fc7" transform="translate(2400 0)"/>
    <use xlink:href="#MicrosoftYaHei-6ee4" transform="translate(2500 0)"/>
    <use xlink:href="#MicrosoftYaHei-3001" transform="translate(2600 0)"/>
    <use xlink:href="#MicrosoftYaHei-6392" transform="translate(2700 0)"/>
    <use xlink:href="#MicrosoftYaHei-5e8f" transform="translate(2800 0)"/>
    <use xlink:href="#MicrosoftYaHei-52a0" transform="translate(2900 0)"/>
    <use xlink:href="#MicrosoftYaHei-53cd" transform="translate(3000 0)"/>
    <use xlink:href="#MicrosoftYaHei-6ce2" transform="translate(3100 0)"/>
    <use xlink:href="#MicrosoftYaHei-52a8" transform="translate(3200 0)"/>
    <use xlink:href="#MicrosoftYaHei-7387" transform="translate(3300 0)"/>
    <use xlink:href="#MicrosoftYaHei-548c" transform="translate(3400 0)"/>
    <use xlink:href="#MicrosoftYaHei-5b8c" transform="translate(3500 0)"/>
    <use xlink:href="#MicrosoftYaHei-6574" transform="translate(3600 0)"/>
    <use xlink:href="#MicrosoftYaHei-57fa" transform="translate(3700 0)"/>
    <use xlink:href="#MicrosoftYaHei-51c6" transform="translate(3800 0)"/>
    <use xlink:href="#MicrosoftYaHei-7b56" transform="translate(3900 0)"/>
    <use xlink:href="#MicrosoftYaHei-7565" transform="translate(4000 0)"/>
    <use xlink:href="#MicrosoftYaHei-3002" transform="translate(4100 0)"/>
   </g>
  </g>
 </g>
 <defs>
  <clipPath id="p5a15204fc4">
   <rect x="82.702344" y="103.104" width="374.279846" height="321.408"/>
  </clipPath>
  <clipPath id="p0a02de267d">
   <rect x="559.285348" y="103.104" width="356.456996" height="321.408"/>
  </clipPath>
 </defs>
</svg>
